<?xml version="1.0" encoding="UTF-8"?>
<!-- Generator: Adobe Illustrator 18.0.0, SVG Export Plug-In . SVG Version: 6.00 Build 0)  -->
<!DOCTYPE svg PUBLIC "-//W3C//DTD SVG 1.1//EN" "http://www.w3.org/Graphics/SVG/1.1/DTD/svg11.dtd">
<svg version="1.1" id="Layer_1" xmlns="http://www.w3.org/2000/svg" xmlns:xlink="http://www.w3.org/1999/xlink" x="0px" y="0px" viewBox="0 0 129.5 129.5" enable-background="new 0 0 129.5 129.5" xml:space="preserve">
<g>
	<g>
		<polygon fill="#FF7058" points="5.2,89.3 21.4,79.3 64.7,105.9 108.1,79.3 124.3,89.3 64.7,125.8   "/>
		<polygon fill="#FFFFFF" points="128.1,64.7 64.7,103.5 1.4,64.7 21.4,52.5 64.7,79 108.1,52.5   "/>
		<polygon fill="#84DBFF" points="5.2,64.7 21.4,54.8 64.7,81.3 108.1,54.8 124.3,64.7 64.7,101.2   "/>
		<g>
			
				<rect x="89.2" y="40.9" transform="matrix(-0.5221 0.8529 -0.8529 -0.5221 172.1405 -13.715)" fill="#231F20" width="1.5" height="1"/>
			
				<rect x="91.9" y="42.2" transform="matrix(0.8526 0.5226 -0.5226 0.8526 36.0539 -41.9815)" fill="#231F20" width="1" height="1.5"/>
			
				<rect x="94.5" y="43.7" transform="matrix(0.8529 0.522 -0.522 0.8529 37.1842 -43.0404)" fill="#231F20" width="1" height="1.5"/>
			
				<rect x="102.1" y="48.4" transform="matrix(0.8526 0.5226 -0.5226 0.8526 40.7878 -46.358)" fill="#231F20" width="1" height="1.5"/>
			
				<rect x="104.6" y="49.9" transform="matrix(0.8531 0.5218 -0.5218 0.8531 41.8782 -47.3923)" fill="#231F20" width="1" height="1.5"/>
			
				<rect x="99.5" y="46.8" transform="matrix(0.8529 0.522 -0.522 0.8529 39.5479 -45.2271)" fill="#231F20" width="1" height="1.5"/>
			
				<rect x="97" y="45.3" transform="matrix(0.8526 0.5225 -0.5225 0.8526 38.4141 -44.1651)" fill="#231F20" width="1" height="1.5"/>
			
				<rect x="33.5" y="44.2" transform="matrix(0.5221 0.8529 -0.8529 0.5221 54.4404 -7.8498)" fill="#231F20" width="1.5" height="1"/>
			
				<rect x="28.4" y="47.3" transform="matrix(0.5221 0.8529 -0.8529 0.5221 54.6666 -2.0499)" fill="#231F20" width="1.5" height="1"/>
			
				<rect x="31" y="45.7" transform="matrix(0.5221 0.8529 -0.8529 0.5221 54.5533 -4.9504)" fill="#231F20" width="1.5" height="1"/>
			
				<rect x="23.4" y="50.4" transform="matrix(0.5221 0.8529 -0.8529 0.5221 54.8917 3.7493)" fill="#231F20" width="1.5" height="1"/>
			
				<rect x="25.9" y="48.8" transform="matrix(0.5221 0.8529 -0.8529 0.5221 54.7794 0.8493)" fill="#231F20" width="1.5" height="1"/>
			
				<rect x="38.5" y="41.1" transform="matrix(0.5221 0.8529 -0.8529 0.5221 54.2144 -13.6495)" fill="#231F20" width="1.5" height="1"/>
			
				<rect x="36" y="42.6" transform="matrix(0.5221 0.8529 -0.8529 0.5221 54.327 -10.7502)" fill="#231F20" width="1.5" height="1"/>
			<path fill="#231F20" d="M109.5,52.5l20-12.3L64.8,0.6L0,40.2l20,12.3L0,64.7L20,77L0,89.3l64.7,39.7l64.7-39.7l-20-12.3l20-12.3     L109.5,52.5z M2.8,40.2L64.8,2.3l61.9,37.9l-18.6,11.4l-0.5-0.3l-0.6,0.9L64.8,78.1l-43-26.3l-0.2-0.3l-0.2,0.1L2.8,40.2z      M126.7,89.3l-61.9,37.9L2.8,89.3l18.6-11.4l43.3,26.5l43.3-26.5L126.7,89.3z M64.7,102.7L2.8,64.7l18.6-11.4l43.3,26.5     l43.3-26.5l18.6,11.4L64.7,102.7z"/>
			<path fill="#231F20" d="M89.5,40.2L64.8,25.1L40,40.2l24.7,15.1L89.5,40.2z M64.8,26.8l21.9,13.4L64.8,53.6L42.9,40.2L64.8,26.8z     "/>
		</g>
		<g>
			<g>
				<path fill="#231F20" d="M16.3,10c-0.2,0-0.4-0.1-0.5-0.2c-0.3-0.3-0.3-0.8,0-1L17,7.5c0.3-0.3,0.8-0.3,1,0c0.3,0.3,0.3,0.8,0,1      l-1.3,1.3C16.7,9.9,16.5,10,16.3,10z"/>
			</g>
			<g>
				<path fill="#231F20" d="M12.3,14c-0.2,0-0.4-0.1-0.5-0.2c-0.3-0.3-0.3-0.8,0-1l1.3-1.3c0.3-0.3,0.8-0.3,1,0c0.3,0.3,0.3,0.8,0,1      l-1.3,1.3C12.7,13.9,12.5,14,12.3,14z"/>
			</g>
			<g>
				<path fill="#231F20" d="M17.6,14c-0.2,0-0.4-0.1-0.5-0.2l-1.3-1.3c-0.3-0.3-0.3-0.8,0-1c0.3-0.3,0.8-0.3,1,0l1.3,1.3      c0.3,0.3,0.3,0.8,0,1C17.9,13.9,17.7,14,17.6,14z"/>
			</g>
			<g>
				<path fill="#231F20" d="M13.6,10c-0.2,0-0.4-0.1-0.5-0.2l-1.3-1.3c-0.3-0.3-0.3-0.8,0-1c0.3-0.3,0.8-0.3,1,0l1.3,1.3      c0.3,0.3,0.3,0.8,0,1C13.9,9.9,13.8,10,13.6,10z"/>
			</g>
		</g>
		<g>
			<g>
				<path fill="#231F20" d="M109.4,6.9c-0.2,0-0.4-0.1-0.5-0.2c-0.3-0.3-0.3-0.8,0-1l1.3-1.3c0.3-0.3,0.8-0.3,1,0      c0.3,0.3,0.3,0.8,0,1l-1.3,1.3C109.8,6.8,109.6,6.9,109.4,6.9z"/>
			</g>
			<g>
				<path fill="#231F20" d="M105.4,10.8c-0.2,0-0.4-0.1-0.5-0.2c-0.3-0.3-0.3-0.8,0-1l1.3-1.3c0.3-0.3,0.8-0.3,1,0      c0.3,0.3,0.3,0.8,0,1l-1.3,1.3C105.8,10.8,105.6,10.8,105.4,10.8z"/>
			</g>
			<g>
				<path fill="#231F20" d="M110.7,10.8c-0.2,0-0.4-0.1-0.5-0.2l-1.3-1.3c-0.3-0.3-0.3-0.8,0-1c0.3-0.3,0.8-0.3,1,0l1.3,1.3      c0.3,0.3,0.3,0.8,0,1C111.1,10.8,110.9,10.8,110.7,10.8z"/>
			</g>
			<g>
				<path fill="#231F20" d="M106.7,6.9c-0.2,0-0.4-0.1-0.5-0.2l-1.3-1.3c-0.3-0.3-0.3-0.8,0-1c0.3-0.3,0.8-0.3,1,0l1.3,1.3      c0.3,0.3,0.3,0.8,0,1C107.1,6.8,106.9,6.9,106.7,6.9z"/>
			</g>
		</g>
		<g>
			<g>
				<path fill="#231F20" d="M17.6,114c-0.2,0-0.4-0.1-0.5-0.2c-0.3-0.3-0.3-0.8,0-1l1.3-1.3c0.3-0.3,0.8-0.3,1,0      c0.3,0.3,0.3,0.8,0,1l-1.3,1.3C18,114,17.8,114,17.6,114z"/>
			</g>
			<g>
				<path fill="#231F20" d="M13.7,118c-0.2,0-0.4-0.1-0.5-0.2c-0.3-0.3-0.3-0.8,0-1l1.3-1.3c0.3-0.3,0.8-0.3,1,0      c0.3,0.3,0.3,0.8,0,1l-1.3,1.3C14,118,13.8,118,13.7,118z"/>
			</g>
			<g>
				<path fill="#231F20" d="M18.9,118c-0.2,0-0.4-0.1-0.5-0.2l-1.3-1.3c-0.3-0.3-0.3-0.8,0-1c0.3-0.3,0.8-0.3,1,0l1.3,1.3      c0.3,0.3,0.3,0.8,0,1C19.3,118,19.1,118,18.9,118z"/>
			</g>
			<g>
				<path fill="#231F20" d="M14.9,114c-0.2,0-0.4-0.1-0.5-0.2l-1.3-1.3c-0.3-0.3-0.3-0.8,0-1c0.3-0.3,0.8-0.3,1,0l1.3,1.3      c0.3,0.3,0.3,0.8,0,1C15.3,114,15.1,114,14.9,114z"/>
			</g>
		</g>
		<g>
			<circle fill="#CED5E0" cx="125.4" cy="15.7" r="2.1"/>
		</g>
		<g>
			<circle fill="#84DBFF" cx="7.3" cy="23.7" r="2.1"/>
		</g>
		<g>
			<circle fill="#FFD05B" cx="106.1" cy="117.3" r="2.1"/>
		</g>
	</g>
</g>
</svg>