<?xml version="1.0" encoding="utf-8"?>
<!-- Generator: Adobe Illustrator 18.0.0, SVG Export Plug-In . SVG Version: 6.00 Build 0)  -->
<!DOCTYPE svg PUBLIC "-//W3C//DTD SVG 1.1//EN" "http://www.w3.org/Graphics/SVG/1.1/DTD/svg11.dtd">
<svg version="1.1" id="Layer_1" xmlns="http://www.w3.org/2000/svg" xmlns:xlink="http://www.w3.org/1999/xlink" x="0px" y="0px"
	 viewBox="0 0 129.5 129.5" enable-background="new 0 0 129.5 129.5" xml:space="preserve">
<g>
	<g>
		<g>
			<path fill="#231F20" d="M64.8,35.4c-9.7,0-17.7-7.9-17.7-17.7h1.5c0,8.9,7.3,16.2,16.2,16.2s16.2-7.3,16.2-16.2
				c0-8.9-7.3-16.2-16.2-16.2V0c9.7,0,17.7,7.9,17.7,17.7C82.4,27.4,74.5,35.4,64.8,35.4z"/>
		</g>
		<g>
			<path fill="#231F20" d="M48.6,17.7h-1.5c0-0.3,0-0.7,0-1l1.5,0.1C48.6,17,48.6,17.4,48.6,17.7z M48.8,14.8l-1.5-0.3
				c0.1-0.3,0.1-0.7,0.2-1l1.5,0.3C48.9,14.2,48.9,14.5,48.8,14.8z M49.6,12.1l-1.4-0.5c0.1-0.3,0.3-0.7,0.4-1l1.4,0.6
				C49.8,11.5,49.7,11.8,49.6,12.1z M50.8,9.5l-1.3-0.8c0.2-0.3,0.4-0.6,0.6-0.9l1.2,0.8C51.1,8.9,51,9.2,50.8,9.5z M52.5,7.1
				l-1.1-1c0.2-0.3,0.5-0.5,0.7-0.8l1.1,1C52.9,6.7,52.7,6.9,52.5,7.1z M54.5,5.1l-1-1.2c0.3-0.2,0.5-0.4,0.8-0.6l0.9,1.2
				C55,4.7,54.8,4.9,54.5,5.1z M56.9,3.5l-0.7-1.3c0.3-0.2,0.6-0.3,0.9-0.5l0.7,1.3C57.4,3.2,57.2,3.4,56.9,3.5z M59.5,2.4L59,1
				c0.3-0.1,0.7-0.2,1-0.3l0.4,1.4C60.1,2.2,59.8,2.3,59.5,2.4z M62.3,1.7l-0.2-1.5c0.3-0.1,0.7-0.1,1-0.1l0.1,1.5
				C62.9,1.6,62.6,1.6,62.3,1.7z"/>
		</g>
		<g>
			<path fill="#231F20" d="M64.8,129.5c-9.7,0-17.7-7.9-17.7-17.7h1.5c0,8.9,7.3,16.2,16.2,16.2s16.2-7.3,16.2-16.2
				c0-8.9-7.3-16.2-16.2-16.2v-1.5c9.7,0,17.7,7.9,17.7,17.7S74.5,129.5,64.8,129.5z"/>
		</g>
		<g>
			<path fill="#231F20" d="M48.6,111.8h-1.5c0-0.3,0-0.7,0-1l1.5,0.1C48.6,111.2,48.6,111.5,48.6,111.8z M48.8,109l-1.5-0.3
				c0.1-0.3,0.1-0.7,0.2-1L49,108C48.9,108.3,48.9,108.7,48.8,109z M49.6,106.2l-1.4-0.5c0.1-0.3,0.3-0.7,0.4-1l1.4,0.6
				C49.8,105.6,49.7,105.9,49.6,106.2z M50.8,103.6l-1.3-0.8c0.2-0.3,0.4-0.6,0.6-0.9l1.2,0.8C51.1,103.1,51,103.3,50.8,103.6z
				 M52.5,101.3l-1.1-1c0.2-0.3,0.5-0.5,0.7-0.8l1.1,1C52.9,100.8,52.7,101.1,52.5,101.3z M54.5,99.3l-1-1.2
				c0.3-0.2,0.5-0.4,0.8-0.6l0.9,1.2C55,98.9,54.8,99.1,54.5,99.3z M56.9,97.7l-0.7-1.3c0.3-0.2,0.6-0.3,0.9-0.5l0.7,1.3
				C57.4,97.4,57.2,97.5,56.9,97.7z M59.5,96.5L59,95.1c0.3-0.1,0.7-0.2,1-0.3l0.4,1.4C60.1,96.3,59.8,96.4,59.5,96.5z M62.3,95.8
				l-0.2-1.5c0.3-0.1,0.7-0.1,1-0.1l0.1,1.5C62.9,95.7,62.6,95.8,62.3,95.8z"/>
		</g>
		<g>
			<path fill="#231F20" d="M111.8,82.4c-9.7,0-17.7-7.9-17.7-17.7h1.5c0,8.9,7.3,16.2,16.2,16.2c8.9,0,16.2-7.3,16.2-16.2
				c0-8.9-7.3-16.2-16.2-16.2v-1.5c9.7,0,17.7,7.9,17.7,17.7S121.6,82.4,111.8,82.4z"/>
		</g>
		<g>
			<path fill="#231F20" d="M95.6,64.8h-1.5c0-0.3,0-0.7,0-1l1.5,0.1C95.7,64.1,95.6,64.4,95.6,64.8z M95.9,61.9l-1.5-0.3
				c0.1-0.3,0.1-0.7,0.2-1l1.5,0.3C96,61.3,96,61.6,95.9,61.9z M96.6,59.1l-1.4-0.5c0.1-0.3,0.3-0.7,0.4-1l1.4,0.6
				C96.9,58.5,96.8,58.8,96.6,59.1z M97.9,56.5l-1.3-0.8c0.2-0.3,0.4-0.6,0.6-0.9l1.2,0.8C98.2,56,98,56.3,97.9,56.5z M99.5,54.2
				l-1.1-1c0.2-0.3,0.5-0.5,0.7-0.8l1.1,1C100,53.7,99.8,54,99.5,54.2z M101.6,52.2l-1-1.2c0.3-0.2,0.5-0.4,0.8-0.6l0.9,1.2
				C102.1,51.8,101.8,52,101.6,52.2z M104,50.6l-0.7-1.3c0.3-0.2,0.6-0.3,0.9-0.5l0.7,1.3C104.5,50.3,104.2,50.5,104,50.6z
				 M106.6,49.4l-0.5-1.4c0.3-0.1,0.7-0.2,1-0.3l0.4,1.4C107.2,49.2,106.9,49.3,106.6,49.4z M109.4,48.8l-0.2-1.5
				c0.3-0.1,0.7-0.1,1-0.1l0.1,1.5C110,48.7,109.7,48.7,109.4,48.8z"/>
		</g>
		<g>
			<circle fill="#FF7058" cx="111.8" cy="64.8" r="11.4"/>
		</g>
		<g>
			<circle fill="#E6E9EE" cx="17.7" cy="64.8" r="11.4"/>
		</g>
		<g>
			<circle fill="#FFD05B" cx="64.7" cy="111.8" r="11.4"/>
		</g>
		<g>
			<circle fill="#84DBFF" cx="64.7" cy="17.7" r="11.4"/>
		</g>
		<polygon fill="#FFFFFF" points="34.6,36.3 24.2,40.8 25.5,29.5 		"/>
		<polygon fill="#FFFFFF" points="93.2,34.6 88.7,24.2 100,25.5 		"/>
		<polygon fill="#FFFFFF" points="36.3,94.9 40.8,105.3 29.5,104 		"/>
		<polygon fill="#FFFFFF" points="94.9,93.2 105.3,88.7 104,100 		"/>
		<g>
			<path fill="#231F20" d="M24.2,41.6c0.1,0,0.2,0,0.3-0.1l10.4-4.6c0.2-0.1,0.4-0.3,0.4-0.6c0-0.3-0.1-0.5-0.3-0.7l-3.8-2.8
				c2.9-3.1,6.3-5.8,9.9-8l-0.8-1.3c-3.9,2.3-7.3,5.1-10.4,8.3l-4.1-3c-0.2-0.2-0.5-0.2-0.7-0.1c-0.2,0.1-0.4,0.3-0.4,0.6l-1.3,11.3
				c0,0.3,0.1,0.5,0.3,0.7C23.9,41.5,24.1,41.6,24.2,41.6z M26.1,30.9l7.1,5.2l-8,3.5L26.1,30.9z"/>
			<path fill="#231F20" d="M93.1,35.4C93.2,35.4,93.2,35.4,93.1,35.4c0.3,0,0.5-0.1,0.7-0.3l2.8-3.8c3.1,2.9,5.8,6.3,8,10l1.3-0.8
				c-2.3-3.9-5.1-7.3-8.3-10.4l3-4.1c0.2-0.2,0.2-0.5,0.1-0.7c-0.1-0.2-0.3-0.4-0.6-0.4l-11.3-1.3c-0.3,0-0.5,0.1-0.7,0.3
				c-0.2,0.2-0.2,0.5-0.1,0.7l4.5,10.4C92.7,35.2,92.9,35.3,93.1,35.4z M98.6,26.1l-5.2,7.1l-3.5-8L98.6,26.1z"/>
			<path fill="#231F20" d="M36.9,94.6c-0.1-0.2-0.3-0.4-0.6-0.4c-0.3,0-0.5,0.1-0.7,0.3l-2.8,3.9c-3.1-2.9-5.8-6.3-7.9-10l-1.3,0.8
				c2.3,3.9,5.1,7.3,8.3,10.4l-3,4.1c-0.2,0.2-0.2,0.5-0.1,0.7c0.1,0.2,0.3,0.4,0.6,0.4l11.3,1.3c0,0,0.1,0,0.1,0
				c0.2,0,0.5-0.1,0.6-0.3c0.2-0.2,0.2-0.5,0.1-0.7L36.9,94.6z M30.9,103.4l5.2-7.1l3.5,8L30.9,103.4z"/>
			<path fill="#231F20" d="M105.7,88.1c-0.2-0.2-0.5-0.2-0.7-0.1l-10.4,4.6c-0.2,0.1-0.4,0.3-0.4,0.6c0,0.3,0.1,0.5,0.3,0.7l3.9,2.8
				c-2.9,3.1-6.3,5.8-10,7.9l0.8,1.3c3.9-2.3,7.3-5.1,10.4-8.3l4.1,3c0.1,0.1,0.3,0.1,0.4,0.1c0.1,0,0.2,0,0.3-0.1
				c0.2-0.1,0.4-0.3,0.4-0.6l1.3-11.3C106.1,88.5,105.9,88.3,105.7,88.1z M103.4,98.6l-7.1-5.2l8-3.5L103.4,98.6z"/>
		</g>
		<g>
			<path fill="#231F20" d="M17.7,82.4C7.9,82.4,0,74.5,0,64.8h1.5c0,8.9,7.3,16.2,16.2,16.2c8.9,0,16.2-7.3,16.2-16.2
				c0-8.9-7.3-16.2-16.2-16.2v-1.5c9.7,0,17.7,7.9,17.7,17.7S27.4,82.4,17.7,82.4z"/>
		</g>
		<g>
			<path fill="#231F20" d="M1.5,64.8H0c0-0.3,0-0.7,0-1l1.5,0.1C1.5,64.1,1.5,64.4,1.5,64.8z M1.8,61.9l-1.5-0.3
				c0.1-0.3,0.1-0.7,0.2-1L1.9,61C1.9,61.3,1.8,61.6,1.8,61.9z M2.5,59.1l-1.4-0.5c0.1-0.3,0.3-0.7,0.4-1l1.4,0.6
				C2.7,58.5,2.6,58.8,2.5,59.1z M3.7,56.5l-1.3-0.8c0.2-0.3,0.4-0.6,0.6-0.9l1.2,0.8C4.1,56,3.9,56.3,3.7,56.5z M5.4,54.2l-1.1-1
				C4.5,53,4.7,52.7,5,52.5l1.1,1C5.8,53.7,5.6,54,5.4,54.2z M7.4,52.2l-1-1.2c0.3-0.2,0.5-0.4,0.8-0.6l0.9,1.2
				C7.9,51.8,7.7,52,7.4,52.2z M9.8,50.6l-0.7-1.3c0.3-0.2,0.6-0.3,0.9-0.5l0.7,1.3C10.4,50.3,10.1,50.5,9.8,50.6z M12.4,49.4
				L11.9,48c0.3-0.1,0.7-0.2,1-0.3l0.4,1.4C13,49.2,12.7,49.3,12.4,49.4z M15.2,48.8L15,47.3c0.3-0.1,0.7-0.1,1-0.1l0.1,1.5
				C15.8,48.7,15.5,48.7,15.2,48.8z"/>
		</g>
		<g>
			<g>
				<circle fill="#FFFFFF" cx="54.6" cy="64.8" r="3.2"/>
				<path fill="#231F20" d="M54.6,68.7c-2.2,0-3.9-1.8-3.9-3.9c0-2.2,1.8-3.9,3.9-3.9c2.2,0,3.9,1.8,3.9,3.9
					C58.5,66.9,56.8,68.7,54.6,68.7z M54.6,62.3c-1.3,0-2.4,1.1-2.4,2.4c0,1.3,1.1,2.4,2.4,2.4s2.4-1.1,2.4-2.4
					C57,63.4,55.9,62.3,54.6,62.3z"/>
			</g>
			<g>
				<circle fill="#FFFFFF" cx="64.7" cy="64.8" r="3.2"/>
				<path fill="#231F20" d="M64.8,68.7c-2.2,0-3.9-1.8-3.9-3.9c0-2.2,1.8-3.9,3.9-3.9c2.2,0,3.9,1.8,3.9,3.9
					C68.7,66.9,66.9,68.7,64.8,68.7z M64.8,62.3c-1.3,0-2.4,1.1-2.4,2.4c0,1.3,1.1,2.4,2.4,2.4c1.3,0,2.4-1.1,2.4-2.4
					C67.2,63.4,66.1,62.3,64.8,62.3z"/>
			</g>
			<g>
				<circle fill="#FFFFFF" cx="74.9" cy="64.8" r="3.2"/>
				<path fill="#231F20" d="M74.9,68.7c-2.2,0-3.9-1.8-3.9-3.9c0-2.2,1.8-3.9,3.9-3.9c2.2,0,3.9,1.8,3.9,3.9
					C78.8,66.9,77,68.7,74.9,68.7z M74.9,62.3c-1.3,0-2.4,1.1-2.4,2.4c0,1.3,1.1,2.4,2.4,2.4c1.3,0,2.4-1.1,2.4-2.4
					C77.3,63.4,76.2,62.3,74.9,62.3z"/>
			</g>
		</g>
		<g>
			<path fill="#231F20" d="M61.3,23.3c-0.2,0-0.4-0.1-0.5-0.2l-3.5-3.5l1.1-1.1l3,3l9.6-9.6l1.1,1.1L61.8,23.1
				C61.7,23.2,61.5,23.3,61.3,23.3z"/>
		</g>
		<g>
			<g>
				
					<rect x="111.1" y="56.8" transform="matrix(0.7071 0.7071 -0.7071 0.7071 78.5318 -60.1049)" fill="#231F20" width="1.5" height="15.8"/>
			</g>
			<g>
				
					<rect x="103.9" y="64" transform="matrix(0.7071 0.7071 -0.7071 0.7071 78.5379 -60.1063)" fill="#231F20" width="15.8" height="1.5"/>
			</g>
		</g>
		<g>
			<g>
				<path fill="#231F20" d="M64,117c0-1.8,1-3.5,2.7-4.3c1.6-0.9,2.5-2.7,2.1-4.5c-0.3-1.6-1.6-2.9-3.2-3.2
					c-1.2-0.2-2.5,0.1-3.5,0.9c-1,0.8-1.5,1.9-1.5,3.2h-1.5c0-1.7,0.7-3.3,2-4.3c1.3-1.1,3-1.5,4.7-1.2c2.2,0.4,4,2.2,4.4,4.4
					c0.5,2.5-0.7,4.9-2.9,6.1c-1.2,0.6-1.9,1.7-1.9,2.9L64,117z"/>
			</g>
			<g>
				<rect x="64" y="117.9" fill="#231F20" width="1.5" height="1.6"/>
			</g>
		</g>
		<g>
			<g>
				<rect x="16.9" y="57.8" fill="#231F20" width="1.5" height="9.3"/>
			</g>
			<g>
				<rect x="16.9" y="69.7" fill="#231F20" width="1.5" height="2"/>
			</g>
		</g>
		<g>
			<circle fill="#E6E9EE" cx="94.3" cy="11.9" r="2.1"/>
		</g>
		<g>
			<circle fill="#84DBFF" cx="119.5" cy="89.8" r="2.1"/>
		</g>
		<g>
			<circle fill="#FF7058" cx="34.2" cy="121.3" r="2.1"/>
		</g>
		<g>
			<circle fill="#FFD05B" cx="11" cy="35.2" r="2.1"/>
		</g>
		<g>
			<g>
				<path fill="#231F20" d="M19,10c-0.2,0-0.4-0.1-0.5-0.2c-0.3-0.3-0.3-0.8,0-1.1l1.3-1.3c0.3-0.3,0.8-0.3,1.1,0
					c0.3,0.3,0.3,0.8,0,1.1l-1.3,1.3C19.4,10,19.2,10,19,10z"/>
			</g>
			<g>
				<path fill="#231F20" d="M15,14.1c-0.2,0-0.4-0.1-0.5-0.2c-0.3-0.3-0.3-0.8,0-1.1l1.3-1.3c0.3-0.3,0.8-0.3,1.1,0
					c0.3,0.3,0.3,0.8,0,1.1l-1.3,1.3C15.4,14,15.2,14.1,15,14.1z"/>
			</g>
			<g>
				<path fill="#231F20" d="M20.3,14.1c-0.2,0-0.4-0.1-0.5-0.2l-1.3-1.3c-0.3-0.3-0.3-0.8,0-1.1c0.3-0.3,0.8-0.3,1.1,0l1.3,1.3
					c0.3,0.3,0.3,0.8,0,1.1C20.7,14,20.5,14.1,20.3,14.1z"/>
			</g>
			<g>
				<path fill="#231F20" d="M16.3,10c-0.2,0-0.4-0.1-0.5-0.2l-1.3-1.3c-0.3-0.3-0.3-0.8,0-1.1c0.3-0.3,0.8-0.3,1.1,0l1.3,1.3
					c0.3,0.3,0.3,0.8,0,1.1C16.7,10,16.5,10,16.3,10z"/>
			</g>
		</g>
		<g>
			<g>
				<path fill="#231F20" d="M113.2,14.1c-0.2,0-0.4-0.1-0.5-0.2c-0.3-0.3-0.3-0.8,0-1.1l1.3-1.3c0.3-0.3,0.8-0.3,1.1,0
					c0.3,0.3,0.3,0.8,0,1.1l-1.3,1.3C113.6,14,113.4,14.1,113.2,14.1z"/>
			</g>
			<g>
				<path fill="#231F20" d="M109.2,18.1c-0.2,0-0.4-0.1-0.5-0.2c-0.3-0.3-0.3-0.8,0-1.1l1.3-1.3c0.3-0.3,0.8-0.3,1.1,0
					s0.3,0.8,0,1.1l-1.3,1.3C109.5,18,109.4,18.1,109.2,18.1z"/>
			</g>
			<g>
				<path fill="#231F20" d="M114.5,18.1c-0.2,0-0.4-0.1-0.5-0.2l-1.3-1.3c-0.3-0.3-0.3-0.8,0-1.1c0.3-0.3,0.8-0.3,1.1,0l1.3,1.3
					c0.3,0.3,0.3,0.8,0,1.1C114.9,18,114.7,18.1,114.5,18.1z"/>
			</g>
			<g>
				<path fill="#231F20" d="M110.5,14.1c-0.2,0-0.4-0.1-0.5-0.2l-1.3-1.3c-0.3-0.3-0.3-0.8,0-1.1c0.3-0.3,0.8-0.3,1.1,0l1.3,1.3
					c0.3,0.3,0.3,0.8,0,1.1C110.8,14,110.6,14.1,110.5,14.1z"/>
			</g>
		</g>
		<g>
			<g>
				<path fill="#231F20" d="M19,119.3c-0.2,0-0.4-0.1-0.5-0.2c-0.3-0.3-0.3-0.8,0-1.1l1.3-1.3c0.3-0.3,0.8-0.3,1.1,0
					c0.3,0.3,0.3,0.8,0,1.1l-1.3,1.3C19.4,119.2,19.2,119.3,19,119.3z"/>
			</g>
			<g>
				<path fill="#231F20" d="M15,123.3c-0.2,0-0.4-0.1-0.5-0.2c-0.3-0.3-0.3-0.8,0-1.1l1.3-1.3c0.3-0.3,0.8-0.3,1.1,0
					c0.3,0.3,0.3,0.8,0,1.1l-1.3,1.3C15.4,123.2,15.2,123.3,15,123.3z"/>
			</g>
			<g>
				<path fill="#231F20" d="M20.3,123.3c-0.2,0-0.4-0.1-0.5-0.2l-1.3-1.3c-0.3-0.3-0.3-0.8,0-1.1c0.3-0.3,0.8-0.3,1.1,0l1.3,1.3
					c0.3,0.3,0.3,0.8,0,1.1C20.7,123.2,20.5,123.3,20.3,123.3z"/>
			</g>
			<g>
				<path fill="#231F20" d="M16.3,119.3c-0.2,0-0.4-0.1-0.5-0.2l-1.3-1.3c-0.3-0.3-0.3-0.8,0-1.1c0.3-0.3,0.8-0.3,1.1,0l1.3,1.3
					c0.3,0.3,0.3,0.8,0,1.1C16.7,119.2,16.5,119.3,16.3,119.3z"/>
			</g>
		</g>
		<g>
			<g>
				<path fill="#231F20" d="M82,46.2h-8.1c-0.4,0-0.8-0.3-0.8-0.8c0-0.4,0.3-0.8,0.8-0.8H82c0.4,0,0.8,0.3,0.8,0.8
					C82.8,45.8,82.4,46.2,82,46.2z"/>
			</g>
			<g>
				<path fill="#231F20" d="M85.2,49.1h-4c-0.4,0-0.8-0.3-0.8-0.8c0-0.4,0.3-0.8,0.8-0.8h4c0.4,0,0.8,0.3,0.8,0.8
					C85.9,48.8,85.6,49.1,85.2,49.1z"/>
			</g>
			<g>
				<path fill="#231F20" d="M89.4,46.2h-3.8c-0.4,0-0.8-0.3-0.8-0.8c0-0.4,0.3-0.8,0.8-0.8h3.8c0.4,0,0.8,0.3,0.8,0.8
					C90.2,45.8,89.9,46.2,89.4,46.2z"/>
			</g>
			<g>
				<path fill="#231F20" d="M78.3,49.1h-0.8c-0.4,0-0.8-0.3-0.8-0.8c0-0.4,0.3-0.8,0.8-0.8h0.8c0.4,0,0.8,0.3,0.8,0.8
					C79.1,48.8,78.8,49.1,78.3,49.1z"/>
			</g>
		</g>
		<g>
			<g>
				<path fill="#231F20" d="M16,105.6H7.9c-0.4,0-0.7-0.3-0.7-0.8c0-0.4,0.3-0.8,0.7-0.8H16c0.4,0,0.8,0.3,0.8,0.8
					C16.7,105.3,16.4,105.6,16,105.6z"/>
			</g>
			<g>
				<path fill="#231F20" d="M19.2,108.6h-4c-0.4,0-0.8-0.3-0.8-0.8c0-0.4,0.3-0.8,0.8-0.8h4c0.4,0,0.8,0.3,0.8,0.8
					C19.9,108.2,19.6,108.6,19.2,108.6z"/>
			</g>
			<g>
				<path fill="#231F20" d="M23.4,105.6h-3.8c-0.4,0-0.8-0.3-0.8-0.8c0-0.4,0.3-0.8,0.8-0.8h3.8c0.4,0,0.8,0.3,0.8,0.8
					C24.2,105.3,23.8,105.6,23.4,105.6z"/>
			</g>
			<g>
				<path fill="#231F20" d="M12.3,108.6h-0.8c-0.4,0-0.8-0.3-0.8-0.8c0-0.4,0.3-0.8,0.8-0.8h0.8c0.4,0,0.8,0.3,0.8,0.8
					C13.1,108.2,12.7,108.6,12.3,108.6z"/>
			</g>
		</g>
	</g>
</g>
</svg>
