<?xml version="1.0" encoding="utf-8"?>
<!-- Generator: Adobe Illustrator 18.0.0, SVG Export Plug-In . SVG Version: 6.00 Build 0)  -->
<!DOCTYPE svg PUBLIC "-//W3C//DTD SVG 1.1//EN" "http://www.w3.org/Graphics/SVG/1.1/DTD/svg11.dtd">
<svg version="1.1" id="Layer_1" xmlns="http://www.w3.org/2000/svg" xmlns:xlink="http://www.w3.org/1999/xlink" x="0px" y="0px"
	 viewBox="0 0 129.5 129.5" enable-background="new 0 0 129.5 129.5" xml:space="preserve">
<g>
	<g>
		<path fill="#231F20" d="M64.8,90.9c-0.1,0-0.2,0-0.3-0.1c-0.5-0.2-48-22-48-63.7C16.5,12.2,28.6,0,43.6,0c8.3,0,16,3.7,21.1,10.2
			C69.9,3.7,77.6,0,85.9,0c15,0,27.1,12.2,27.1,27.1c0,41.7-47.5,63.5-48,63.7C65,90.9,64.9,90.9,64.8,90.9z M43.6,1.5
			C29.5,1.5,18,13,18,27.1c0,39,42.7,60.2,46.8,62.2c4.1-1.9,46.8-23.2,46.8-62.2C111.5,13,100,1.5,85.9,1.5
			c-8.1,0-15.6,3.8-20.5,10.3c-0.3,0.4-0.9,0.4-1.2,0C59.2,5.3,51.8,1.5,43.6,1.5z"/>
		<path fill="#FF7058" d="M64.8,87.9C58.5,84.9,19.2,64,19.2,27.1c0-13.5,10.9-24.4,24.4-24.4c7.8,0,14.9,3.6,19.5,9.8l1.6,2.1
			l1.6-2.1C71,6.3,78.1,2.8,85.9,2.8c13.5,0,24.4,10.9,24.4,24.4C110.3,64,71,84.9,64.8,87.9z"/>
		<rect x="77.2" y="110.1" fill="#E6E9EE" width="33.5" height="7.8"/>
		<path fill="#231F20" d="M122,47c-1.7-0.5-3.4-0.2-4.8,0.8c-1.3,1-2.2,2.6-2.2,4.2v21.9c0,0.4,0.3,0.8,0.8,0.8
			c0.4,0,0.8-0.3,0.8-0.8V52c0-1.2,0.6-2.3,1.5-3c1-0.7,2.2-0.9,3.5-0.5c1.5,0.5,2.5,2,2.5,3.7v29.4c0,1-0.4,2-1.1,2.7l-16,16
			c-0.1,0.1-0.2,0.3-0.2,0.5l-0.1,8.7H82.1V98.9c0-1.2,0.5-2.3,1.3-3.1l21.8-21.8c0.8-0.8,1.9-1.3,3.1-1.3c1.2,0,2.3,0.5,3.1,1.3
			c0.8,0.8,1.3,1.9,1.3,3.1c0,1.2-0.5,2.3-1.3,3.1l-10.7,10.7c-0.3,0.3-0.3,0.8,0,1.1c0.3,0.3,0.8,0.3,1.1,0l10.7-10.7
			c1.1-1.1,1.7-2.6,1.7-4.2c0-1.6-0.6-3.1-1.7-4.2c-1.1-1.1-2.6-1.7-4.2-1.7c-1.6,0-3.1,0.6-4.2,1.7L82.3,94.7
			c-1.1,1.1-1.7,2.6-1.7,4.2v10.5h-3.4c-0.4,0-0.8,0.3-0.8,0.8v18.7c0,0.4,0.3,0.8,0.8,0.8c0.4,0,0.8-0.3,0.8-0.8v-17.9h32v17.9
			c0,0.4,0.3,0.8,0.8,0.8c0.4,0,0.8-0.3,0.8-0.8v-18.7c0-0.4-0.3-0.8-0.8-0.8h-2.5l0.1-8.4l15.8-15.8c1-1,1.5-2.3,1.5-3.7V52.1
			C125.6,49.7,124.2,47.6,122,47z"/>
		<rect x="18.8" y="110.1" fill="#E6E9EE" width="33.5" height="7.8"/>
		<path fill="#231F20" d="M52.3,109.3h-3.4V98.9c0-1.6-0.6-3.1-1.7-4.2L25.3,72.8c-1.1-1.1-2.6-1.7-4.2-1.7c-1.6,0-3.1,0.6-4.2,1.7
			c-1.1,1.1-1.7,2.6-1.7,4.2c0,1.6,0.6,3.1,1.7,4.2l10.7,10.7c0.3,0.3,0.8,0.3,1.1,0c0.3-0.3,0.3-0.8,0-1.1L18,80.1
			c-0.8-0.8-1.3-1.9-1.3-3.1c0-1.2,0.5-2.3,1.3-3.1c0.8-0.8,1.9-1.3,3.1-1.3c1.2,0,2.3,0.5,3.1,1.3l21.8,21.8
			c0.8,0.8,1.3,1.9,1.3,3.1v10.5H22.8l-0.1-8.7c0-0.2-0.1-0.4-0.2-0.5l-16-16c-0.7-0.7-1.1-1.7-1.1-2.7l0-29.4c0-1.7,1-3.2,2.5-3.7
			c1.2-0.4,2.5-0.2,3.5,0.5c1,0.7,1.5,1.8,1.5,3v21.9c0,0.4,0.3,0.8,0.8,0.8c0.4,0,0.8-0.3,0.8-0.8V52c0-1.7-0.8-3.3-2.2-4.2
			c-1.4-1-3.1-1.3-4.8-0.8c-2.1,0.7-3.6,2.8-3.6,5.1l0,29.4c0,1.4,0.6,2.7,1.5,3.7L21.2,101l0.1,8.4h-2.5c-0.4,0-0.7,0.3-0.7,0.8
			v18.7c0,0.4,0.3,0.8,0.7,0.8c0.4,0,0.8-0.3,0.8-0.8v-17.9h32v17.9c0,0.4,0.3,0.8,0.8,0.8c0.4,0,0.8-0.3,0.8-0.8v-18.7
			C53.1,109.7,52.7,109.3,52.3,109.3z"/>
		<g>
			<path fill="#231F20" d="M123.3,5.4c-0.2,0-0.4-0.1-0.5-0.2c-0.3-0.3-0.3-0.8,0-1.1l1.3-1.3c0.3-0.3,0.8-0.3,1.1,0
				c0.3,0.3,0.3,0.8,0,1.1l-1.3,1.3C123.7,5.4,123.5,5.4,123.3,5.4z"/>
		</g>
		<g>
			<path fill="#231F20" d="M119.3,9.5c-0.2,0-0.4-0.1-0.5-0.2c-0.3-0.3-0.3-0.8,0-1.1l1.3-1.3c0.3-0.3,0.8-0.3,1.1,0
				c0.3,0.3,0.3,0.8,0,1.1l-1.3,1.3C119.7,9.4,119.5,9.5,119.3,9.5z"/>
		</g>
		<g>
			<path fill="#231F20" d="M124.6,9.5c-0.2,0-0.4-0.1-0.5-0.2L122.8,8c-0.3-0.3-0.3-0.8,0-1.1c0.3-0.3,0.8-0.3,1.1,0l1.3,1.3
				c0.3,0.3,0.3,0.8,0,1.1C125,9.4,124.8,9.5,124.6,9.5z"/>
		</g>
		<g>
			<path fill="#231F20" d="M120.6,5.4c-0.2,0-0.4-0.1-0.5-0.2l-1.3-1.3c-0.3-0.3-0.3-0.8,0-1.1c0.3-0.3,0.8-0.3,1.1,0l1.3,1.3
				c0.3,0.3,0.3,0.8,0,1.1C120.9,5.4,120.8,5.4,120.6,5.4z"/>
		</g>
		<g>
			<path fill="#231F20" d="M58.4,99.4c-0.2,0-0.4-0.1-0.5-0.2c-0.3-0.3-0.3-0.8,0-1.1l1.3-1.3c0.3-0.3,0.8-0.3,1.1,0
				c0.3,0.3,0.3,0.8,0,1.1l-1.3,1.3C58.8,99.3,58.6,99.4,58.4,99.4z"/>
		</g>
		<g>
			<path fill="#231F20" d="M54.4,103.4c-0.2,0-0.4-0.1-0.5-0.2c-0.3-0.3-0.3-0.8,0-1.1l1.3-1.3c0.3-0.3,0.8-0.3,1.1,0s0.3,0.8,0,1.1
				l-1.3,1.3C54.7,103.3,54.6,103.4,54.4,103.4z"/>
		</g>
		<g>
			<path fill="#231F20" d="M59.7,103.4c-0.2,0-0.4-0.1-0.5-0.2l-1.3-1.3c-0.3-0.3-0.3-0.8,0-1.1c0.3-0.3,0.8-0.3,1.1,0l1.3,1.3
				c0.3,0.3,0.3,0.8,0,1.1C60.1,103.3,59.9,103.4,59.7,103.4z"/>
		</g>
		<g>
			<path fill="#231F20" d="M55.6,99.4c-0.2,0-0.4-0.1-0.5-0.2l-1.3-1.3c-0.3-0.3-0.3-0.8,0-1.1c0.3-0.3,0.8-0.3,1.1,0l1.3,1.3
				c0.3,0.3,0.3,0.8,0,1.1C56,99.3,55.8,99.4,55.6,99.4z"/>
		</g>
		<g>
			<path fill="#231F20" d="M8.6,31.6c-0.2,0-0.4-0.1-0.5-0.2c-0.3-0.3-0.3-0.8,0-1.1L9.4,29c0.3-0.3,0.8-0.3,1.1,0
				c0.3,0.3,0.3,0.8,0,1.1l-1.3,1.3C9,31.5,8.8,31.6,8.6,31.6z"/>
		</g>
		<g>
			<path fill="#231F20" d="M4.6,35.6c-0.2,0-0.4-0.1-0.5-0.2c-0.3-0.3-0.3-0.8,0-1.1L5.4,33c0.3-0.3,0.8-0.3,1.1,0
				c0.3,0.3,0.3,0.8,0,1.1l-1.3,1.3C5,35.5,4.8,35.6,4.6,35.6z"/>
		</g>
		<g>
			<path fill="#231F20" d="M9.9,35.6c-0.2,0-0.4-0.1-0.5-0.2l-1.3-1.3c-0.3-0.3-0.3-0.8,0-1.1c0.3-0.3,0.8-0.3,1.1,0l1.3,1.3
				c0.3,0.3,0.3,0.8,0,1.1C10.3,35.5,10.1,35.6,9.9,35.6z"/>
		</g>
		<g>
			<path fill="#231F20" d="M5.9,31.6c-0.2,0-0.4-0.1-0.5-0.2l-1.3-1.3c-0.3-0.3-0.3-0.8,0-1.1c0.3-0.3,0.8-0.3,1.1,0l1.3,1.3
				c0.3,0.3,0.3,0.8,0,1.1C6.3,31.5,6.1,31.6,5.9,31.6z"/>
		</g>
		<g>
			<path fill="#FFFFFF" d="M44.3,26.9h-5.8c-0.4,0-0.8-0.3-0.8-0.8c0-0.4,0.3-0.8,0.8-0.8h5.8c0.4,0,0.8,0.3,0.8,0.8
				C45.1,26.6,44.8,26.9,44.3,26.9z"/>
		</g>
		<g>
			<path fill="#FFFFFF" d="M46.6,29.8h-2.8c-0.4,0-0.8-0.3-0.8-0.8c0-0.4,0.3-0.8,0.8-0.8h2.8c0.4,0,0.8,0.3,0.8,0.8
				C47.4,29.5,47,29.8,46.6,29.8z"/>
		</g>
		<g>
			<path fill="#FFFFFF" d="M49.7,26.9H47c-0.4,0-0.8-0.3-0.8-0.8c0-0.4,0.3-0.8,0.8-0.8h2.7c0.4,0,0.8,0.3,0.8,0.8
				C50.4,26.6,50.1,26.9,49.7,26.9z"/>
		</g>
		<g>
			<path fill="#FFFFFF" d="M41.7,29.8h-0.6c-0.4,0-0.8-0.3-0.8-0.8c0-0.4,0.3-0.8,0.8-0.8h0.6c0.4,0,0.8,0.3,0.8,0.8
				C42.5,29.5,42.1,29.8,41.7,29.8z"/>
		</g>
		<g>
			<path fill="#FFFFFF" d="M80.9,49.1h-5.8c-0.4,0-0.8-0.3-0.8-0.8s0.3-0.8,0.8-0.8h5.8c0.4,0,0.8,0.3,0.8,0.8S81.3,49.1,80.9,49.1z
				"/>
		</g>
		<g>
			<path fill="#FFFFFF" d="M83.2,52h-2.8c-0.4,0-0.8-0.3-0.8-0.8c0-0.4,0.3-0.8,0.8-0.8h2.8c0.4,0,0.8,0.3,0.8,0.8
				C83.9,51.7,83.6,52,83.2,52z"/>
		</g>
		<g>
			<path fill="#FFFFFF" d="M86.2,49.1h-2.7c-0.4,0-0.8-0.3-0.8-0.8s0.3-0.8,0.8-0.8h2.7c0.4,0,0.8,0.3,0.8,0.8S86.7,49.1,86.2,49.1z
				"/>
		</g>
		<g>
			<path fill="#FFFFFF" d="M78.3,52h-0.6c-0.4,0-0.8-0.3-0.8-0.8c0-0.4,0.3-0.8,0.8-0.8h0.6c0.4,0,0.8,0.3,0.8,0.8
				C79.1,51.7,78.7,52,78.3,52z"/>
		</g>
		<path fill="#231F20" d="M22.8,23.3c-0.1,0-0.1,0-0.2,0c-0.4-0.1-0.7-0.5-0.6-0.9C24.3,12.3,33.3,5,43.6,5c3.9,0,7.8,1,11.1,3
			c0.4,0.2,0.5,0.7,0.3,1c-0.2,0.4-0.7,0.5-1,0.3c-3.1-1.8-6.7-2.8-10.4-2.8c-9.6,0-18,6.8-20.1,16.2C23.4,23,23.1,23.3,22.8,23.3z"
			/>
		<path fill="#231F20" d="M106.7,23.3c-0.3,0-0.7-0.2-0.7-0.6c-2.1-9.4-10.5-16.2-20.1-16.2c-3.7,0-7.2,1-10.4,2.8
			c-0.4,0.2-0.8,0.1-1-0.3c-0.2-0.4-0.1-0.8,0.3-1c3.4-2,7.2-3,11.1-3c10.3,0,19.3,7.3,21.6,17.3c0.1,0.4-0.2,0.8-0.6,0.9
			C106.8,23.3,106.8,23.3,106.7,23.3z"/>
		<path fill="#231F20" d="M76.2,78.5l-0.9-1.2l0.8-0.6l0.9,1.2L76.2,78.5z M78.7,76.7l-0.9-1.2l0.8-0.6l0.9,1.2L78.7,76.7z
			 M81.1,74.9l-0.9-1.2l0.8-0.6l0.9,1.2L81.1,74.9z M83.4,73l-1-1.2c0.3-0.2,0.5-0.4,0.8-0.6l1,1.1C83.9,72.6,83.7,72.8,83.4,73z
			 M85.7,71l-1-1.1l0.7-0.7l1,1.1L85.7,71z M87.9,69l-1-1.1c0.2-0.2,0.5-0.5,0.7-0.7l1,1.1C88.4,68.5,88.2,68.8,87.9,69z M90.1,66.9
			L89,65.8c0.2-0.2,0.5-0.5,0.7-0.7l1.1,1C90.6,66.4,90.3,66.6,90.1,66.9z M92.2,64.7l-1.1-1c0.2-0.2,0.4-0.5,0.7-0.7l1.1,1
			C92.6,64.2,92.4,64.4,92.2,64.7z M94.2,62.4l-1.1-1c0.2-0.3,0.4-0.5,0.6-0.8l1.2,1C94.6,61.9,94.4,62.1,94.2,62.4z M96.1,60
			l-1.2-0.9c0.2-0.3,0.4-0.5,0.6-0.8l1.2,0.9C96.5,59.5,96.3,59.8,96.1,60z M97.9,57.6l-1.2-0.9c0.2-0.3,0.4-0.5,0.6-0.8l1.2,0.8
			C98.3,57,98.1,57.3,97.9,57.6z M99.6,55.1l-1.3-0.8c0.2-0.3,0.3-0.6,0.5-0.8l1.3,0.8C99.9,54.5,99.7,54.8,99.6,55.1z M101.1,52.5
			l-1.3-0.7c0.2-0.3,0.3-0.6,0.5-0.9l1.3,0.7C101.5,51.9,101.3,52.2,101.1,52.5z M102.6,49.8l-1.3-0.7c0.1-0.3,0.3-0.6,0.4-0.9
			l1.4,0.7C102.8,49.2,102.7,49.5,102.6,49.8z"/>
		<circle fill="#FFFFFF" cx="49.7" cy="61.2" r="3.3"/>
		<path fill="#231F20" d="M49.7,65.3c-2.2,0-4.1-1.8-4.1-4.1c0-2.2,1.8-4.1,4.1-4.1c2.2,0,4.1,1.8,4.1,4.1
			C53.7,63.5,51.9,65.3,49.7,65.3z M49.7,58.7c-1.4,0-2.6,1.2-2.6,2.6c0,1.4,1.2,2.6,2.6,2.6s2.6-1.2,2.6-2.6
			C52.2,59.8,51.1,58.7,49.7,58.7z"/>
		<circle fill="#E6E9EE" cx="122.5" cy="25.1" r="2.6"/>
		<circle fill="#84DBFF" cx="67.3" cy="100" r="2.6"/>
		<circle fill="#FFD05B" cx="9.9" cy="8.7" r="2.6"/>
	</g>
</g>
</svg>
