<svg height="512pt" viewBox="-85 0 512 512.00064" width="512pt" xmlns="http://www.w3.org/2000/svg"><path d="m327.945312 256.367188c-1.066406 9.878906-4.753906 19.417968-10.804687 27.5625-20.039063 26.988281-46.664063 48.992187-78.15625 61.125h-136.894531c-31.035156-11.960938-58.203125-34.136719-78.191406-61.011719-6.0625-8.160157-9.757813-17.726563-10.808594-27.625-.996094-9.234375.042968-16.136719 5.269531-36.230469 6.40625-25.320312 14.304687-48.210938 22.484375-67.136719 0-1.007812 28.914062-77.78125 105.285156-136.816406 14.933594-11.570313 33.886719-11.570313 48.820313 0 74.164062 57.332031 112.976562 131.960937 132.097656 222.480469 1.261719 5.863281 1.542969 11.8125.898437 17.652344zm0 0" fill="#ff7c48"/><path d="m333.519531 474.710938c0 8.207031-3.320312 15.648437-8.710937 21.023437-5.375 5.390625-12.816406 8.710937-21.023438 8.710937h-266.492187c-16.421875 0-29.734375-13.3125-29.734375-29.734374 0-37.523438 15.203125-71.488282 39.796875-96.082032 24.589843-24.589844 58.558593-39.796875 96.078125-39.796875h54.210937c75.042969 0 135.875 60.835938 135.875 135.878907zm0 0" fill="#f76937"/><path d="m302.777344 226.953125c0 21.164063-17.152344 38.320313-38.316406 38.320313-21.164063 0-38.316407-17.15625-38.316407-38.320313 0-21.160156 17.152344-38.316406 38.316407-38.316406 21.164062 0 38.316406 17.15625 38.316406 38.316406zm0 0" fill="#fff2de"/><path d="m99.777344 100.726562h137.496094c18.167968 0 32.890624 14.726563 32.890624 32.890626v105.527343c0 55.019531-76.457031 99.625-101.636718 99.625h-.003906c-25.179688-.003906-101.636719-44.605469-101.636719-99.625v-105.527343c0-18.167969 14.726562-32.890626 32.890625-32.890626zm0 0" fill="#fff2de"/><path d="m186.148438 334.714844c-7.019532 2.636718-13.144532 4.058594-17.625 4.058594-12.585938 0-37.992188-11.160157-60.257813-29.183594-22.265625-18.027344-41.378906-42.941406-41.378906-70.441406v-105.535157c0-18.167969 14.722656-32.890625 32.890625-32.890625h35.242187c-18.164062 0-32.886719 14.722656-32.886719 32.890625v105.535157c0 27.5 19.113282 52.414062 41.378907 70.441406 14.328125 11.601562 29.957031 20.363281 42.636719 25.125zm0 0" fill="#ffe4c2"/><path d="m297.503906 504.445312h-253.929687v-178.300781c0-9.050781 7.335937-16.386719 16.390625-16.386719h221.148437c9.050781 0 16.390625 7.335938 16.390625 16.386719zm0 0" fill="#766d78"/><path d="m170.539062 467.183594c-15.015624 0-27.191406-12.171875-27.191406-27.1875v-37.261719c0-15.015625 12.175782-27.1875 27.191406-27.1875 15.015626 0 27.1875 12.171875 27.1875 27.1875v37.261719c0 15.015625-12.171874 27.1875-27.1875 27.1875zm0 0" fill="#ff956a"/><path d="m95.214844 309.761719c-9.054688 0-16.394532 7.328125-16.394532 16.382812v178.300781h-35.246093v-178.300781c0-9.054687 7.339843-16.382812 16.394531-16.382812zm0 0" fill="#655e67"/><path d="m83.261719 190.128906v73.640625c-3.386719.976563-6.960938 1.5-10.664063 1.5-21.167968 0-38.328125-17.160156-38.328125-38.324219 0-21.160156 17.160157-38.320312 38.328125-38.320312 3.703125 0 7.277344.527344 10.664063 1.503906zm0 0" fill="#ffe4c2"/><path d="m327.945312 256.367188c-24.914062-33.320313-86-36.613282-157.40625-36.613282-71.449218 0-132.554687 3.292969-157.449218 36.664063-.996094-9.234375.042968-16.136719 5.269531-36.230469 6.40625-25.320312 14.304687-48.210938 22.484375-67.136719 0-1.007812 28.914062-77.78125 105.285156-136.816406 14.933594-11.570313 33.886719-11.570313 48.820313 0 74.164062 57.332031 112.976562 131.960937 132.097656 222.480469 1.261719 5.863281 1.542969 11.8125.898437 17.652344zm0 0" fill="#ffad8c"/><path d="m190.125 12.984375c-88.195312 71.082031-121.769531 160.265625-121.769531 161.453125-7.359375 17.027344-14.539063 36.707031-20.925781 58.257812-14.609376 5.386719-26.34375 13.007813-34.339844 23.722657-.996094-9.234375.042968-16.132813 5.269531-36.230469 6.402344-25.316406 14.296875-48.214844 22.484375-67.136719 0-1.007812 28.914062-77.785156 105.285156-136.816406 13.371094-10.359375 29.957032-11.4375 43.996094-3.25zm0 0" fill="#ff956a"/><path d="m305.054688 379.757812v-53.613281c0-4.664062-1.339844-9.003906-3.644532-12.679687 22.011719-21.234375 36.863282-46.382813 37.546875-50.457032.453125-2.683593-8.527343-57.152343-30.105469-108.972656-1.601562-3.855468-6.023437-5.667968-9.878906-4.066406-3.847656 1.601562-5.667968 6.023438-4.066406 9.867188 9.886719 23.757812 17.972656 49.746093 24.117188 77.542968-35.707032-25.359375-102.234376-25.175781-148.484376-25.175781-62.839843 0-116.445312 2.445313-148.496093 25.175781 2.175781-9.808594 4.574219-19.386718 7.199219-28.652344 1.140624-4.007812-1.195313-8.1875-5.214844-9.324218-4.007813-1.128906-8.1875 1.199218-9.324219 5.21875-2.183594 7.71875-13.917969 53.480468-12.4375 59.058594.773437 2.933593 14.023437 27.222656 37.402344 49.789062-2.308594 3.675781-3.648438 8.015625-3.648438 12.675781v53.523438c-23.289062 26.242187-36.019531 59.667969-36.019531 95.042969 0 20.5625 16.738281 37.289062 37.289062 37.289062h266.496094c20.652344 0 37.292969-16.703125 37.292969-37.289062 0-36.382813-13.617187-69.636719-36.023437-94.953126zm-269.035157 117.097657c-11.640625-.65625-20.914062-10.332031-20.914062-22.144531 0-25.347657 7.300781-49.578126 20.914062-70.269532zm241.695313-261.152344c5.117187 1.3125 9.960937 2.8125 14.480468 4.554687-3.351562 6.957032-9.242187 12.476563-16.472656 15.324219 2.160156-8.878906 1.992188-15.074219 1.992188-19.878906zm28.097656 11.089844c6.917969 4.148437 12.628906 9.191406 16.917969 15.28125-4.214844 7.328125-15.121094 24.5625-33.171875 41.683593-2.628906-1.007812-5.480469-1.550781-8.449219-1.550781h-33.070313c7.785157-8.054687 15.738282-18.085937 21.449219-29.664062 16.03125-1.753907 29.605469-11.804688 36.324219-25.75zm-231.375-13.535157c43.773438-8.332031 146.945312-7.761718 188.171875-.734374 0 7.773437.421875 14.359374-3.121094 24.792968-5.882812 17.460938-19.5 33.0625-33.625 44.890625h-114.679687c-14.035156-11.753906-27.730469-27.394531-33.621094-44.890625-3.515625-10.351562-3.125-17.023437-3.125-24.058594zm-15.105469 3.535157c0 3.578125-.15625 9.882812 1.996094 18.789062-6.746094-2.667969-12.335937-7.652343-15.78125-13.976562 4.289063-1.832031 8.902344-3.421875 13.785156-4.8125zm-40.980469 25.277343c3.644532-5.171874 8.308594-9.589843 13.875-13.347656 7.007813 12.941406 20.058594 22.144532 35.335938 23.816406 5.710938 11.582032 13.675781 21.613282 21.460938 29.667969-31.539063 0-32.203126-.457031-37.472657 1.53125-18.035156-17.117187-28.96875-34.351562-33.199219-41.667969zm286.703126 234.785157v-29.699219c0-4.179688-3.382813-7.550781-7.550782-7.550781-4.171875 0-7.554687 3.371093-7.554687 7.550781v29.738281h-238.824219c0-182.574219-.152344-171.261719.285156-172.976562.996094-3.796875 4.449219-6.605469 8.558594-6.605469h221.140625c4.109375 0 7.5625 2.808594 8.558594 6.605469.398437 1.574219.28125-1.246094.28125 41.097656v71.929687c0 4.171876 3.382812 7.554688 7.554687 7.554688 4.167969 0 7.550782-3.382812 7.550782-7.554688v-32.382812c13.222656 20.167969 20.917968 44.277344 20.917968 70.148438 0 11.859374-9.277344 21.5-20.917968 22.144531zm0 0"/><path d="m149.914062 280.644531c4.703126 2.464844 10.011719 3.769531 15.351563 3.769531 31.195313 0 41.960937-40.652343 25.542969-40.652343-4.171875 0-7.550782 3.382812-7.550782 7.554687 0 13.527344-14.433593 22.183594-26.332031 15.949219-3.695312-1.9375-8.257812-.511719-10.195312 3.183594-1.9375 3.691406-.511719 8.257812 3.183593 10.195312zm0 0"/><path d="m28.597656 185.011719c3.867188 1.398437 8.238282-.609375 9.648438-4.582031 25.296875-71.246094 62.988281-119.824219 112.515625-158.222657 12.1875-9.460937 27.335937-9.464843 39.554687 0 38.375 29.746094 67.964844 63.34375 92.171875 110.761719 1.894531 3.707031 6.453125 5.1875 10.160157 3.28125 3.714843-1.890625 5.1875-6.441406 3.292968-10.160156-31.175781-61.003906-69.925781-95.324219-96.371094-115.816406-17.632812-13.671876-40.359374-13.722657-58.074218 0-34.863282 27.027343-84.972656 73.5625-117.488282 165.101562-1.390624 3.925781.664063 8.246094 4.589844 9.636719zm0 0"/><path d="m250.308594 439.675781-17.453125-14.539062c-2.367188-1.972657-5.6875-2.308594-8.402344-.855469l-19.171875 10.269531v-18.070312l19.71875-12.082031 13.292969 11.074218c3.207031 2.667969 7.964843 2.234375 10.636719-.96875 2.667968-3.207031 2.234374-7.96875-.96875-10.636718l-17.457032-14.539063c-2.488281-2.074219-6.019531-2.328125-8.777344-.636719l-16.664062 10.207032c-1.066406-9.667969-6.117188-18.152344-13.46875-23.773438l10.761719-19.921875 14.382812 6.71875c3.777344 1.761719 8.273438.132813 10.039063-3.648437 1.765625-3.777344.132812-8.273438-3.644532-10.039063l-16.144531-7.539063c-6.25-2.921874-13.714843-.457031-16.996093 5.617188l-12.136719 22.464844c-4.78125-1.03125-9.726563-1.058594-14.632813 0l-12.136718-22.464844c-3.277344-6.070312-10.746094-8.539062-16.996094-5.617188l-16.144532 7.539063c-3.777343 1.765625-5.410156 6.261719-3.644531 10.039063 1.765625 3.78125 6.257813 5.414062 10.039063 3.648437l14.382812-6.71875 10.761719 19.921875c-7.351563 5.621094-12.402344 14.105469-13.46875 23.773438l-16.664063-10.207032c-2.761718-1.691406-6.292968-1.433594-8.777343.636719l-17.457031 14.539063c-3.203126 2.667968-3.636719 7.429687-.96875 10.636718 2.667968 3.207032 7.433593 3.636719 10.636718.96875l13.292969-11.070312 19.71875 12.078125v18.074219l-19.171875-10.269532c-2.714844-1.453125-6.039062-1.117187-8.402344.851563l-17.453125 14.539062c-3.207031 2.671875-3.640625 7.433594-.96875 10.636719 2.667969 3.207031 7.429688 3.640625 10.636719.972656l13.542969-11.28125 24.375 13.058594c11.75 28.835938 52.621093 28.84375 64.371093 0l24.375-13.058594 13.542969 11.28125c3.203125 2.667969 7.96875 2.234375 10.636719-.972656 2.671875-3.203125 2.234375-7.96875-.972656-10.636719zm-60.132813.320313c0 10.828125-8.808593 19.636718-19.636719 19.636718-10.828124 0-19.636718-8.808593-19.636718-19.636718v-37.261719c0-10.828125 8.808594-19.636719 19.636718-19.636719 10.828126 0 19.636719 8.808594 19.636719 19.636719zm0 0"/></svg>