<svg width="49" height="65" xmlns="http://www.w3.org/2000/svg"><g stroke="#FFA200" stroke-width="2" fill="none" fill-rule="evenodd"><path d="M42 26v-8c0-8.8-7.2-16-16-16h-2C15.2 2 8 9.2 8 18v8"/><path d="M36 23v-5c0-5.5-4.5-10-10-10h-2c-5.5 0-10 4.5-10 10v5m34 38c0 1.65-1.35 3-3 3H5c-1.65 0-3-1.35-3-3V29c0-1.65 1.35-3 3-3h40c1.65 0 3 1.35 3 3v32z"/><path d="M13 55l12-21 12 21zm12-14.143v7.714m0 1.715V52" stroke-linejoin="round"/><path d="M2 28l4 4v26l-4 4m46-34l-4 4v26l4 4m0-27h-4m4 4h-4m4 4h-4m4 4h-4m4 4h-4m4 4h-4M6 35H2m4 4H2m4 4H2m4 4H2m4 4H2m4 4H2"/></g></svg>