<?xml version="1.0" encoding="utf-8"?>
<!DOCTYPE svg PUBLIC "-//W3C//DTD SVG 20010904//EN" "http://www.w3.org/TR/2001/REC-SVG-20010904/DTD/svg10.dtd">
<svg xmlns="http://www.w3.org/2000/svg" xml:space="preserve" xmlns:xlink="http://www.w3.org/1999/xlink" width="312" height="39.714" viewBox="0 0 312 39.714">
<desc></desc>
<rect x="0" y="0" width="312" height="39.714" style="fill:#ffffff;" />
<line fill="none" style="stroke:#000000; stroke-width:1;" x1="0.5" y1="0" x2="0.5" y2="30"/>
<line fill="none" style="stroke:#000000; stroke-width:1;" x1="3.5" y1="0" x2="3.5" y2="30"/>
<line fill="none" style="stroke:#000000; stroke-width:2;" x1="6" y1="0" x2="6" y2="30"/>
<line fill="none" style="stroke:#000000; stroke-width:2;" x1="9" y1="0" x2="9" y2="30"/>
<line fill="none" style="stroke:#000000; stroke-width:1;" x1="11.5" y1="0" x2="11.5" y2="30"/>
<line fill="none" style="stroke:#000000; stroke-width:2;" x1="14" y1="0" x2="14" y2="30"/>
<line fill="none" style="stroke:#000000; stroke-width:1;" x1="16.5" y1="0" x2="16.5" y2="30"/>
<line fill="none" style="stroke:#000000; stroke-width:1;" x1="18.5" y1="0" x2="18.5" y2="30"/>
<line fill="none" style="stroke:#000000; stroke-width:2;" x1="22" y1="0" x2="22" y2="30"/>
<line fill="none" style="stroke:#000000; stroke-width:1;" x1="24.5" y1="0" x2="24.5" y2="30"/>
<line fill="none" style="stroke:#000000; stroke-width:2;" x1="27" y1="0" x2="27" y2="30"/>
<line fill="none" style="stroke:#000000; stroke-width:1;" x1="29.5" y1="0" x2="29.5" y2="30"/>
<line fill="none" style="stroke:#000000; stroke-width:1;" x1="31.5" y1="0" x2="31.5" y2="30"/>
<line fill="none" style="stroke:#000000; stroke-width:1;" x1="34.5" y1="0" x2="34.5" y2="30"/>
<line fill="none" style="stroke:#000000; stroke-width:2;" x1="37" y1="0" x2="37" y2="30"/>
<line fill="none" style="stroke:#000000; stroke-width:2;" x1="40" y1="0" x2="40" y2="30"/>
<line fill="none" style="stroke:#000000; stroke-width:2;" x1="43" y1="0" x2="43" y2="30"/>
<line fill="none" style="stroke:#000000; stroke-width:1;" x1="45.5" y1="0" x2="45.5" y2="30"/>
<line fill="none" style="stroke:#000000; stroke-width:1;" x1="48.5" y1="0" x2="48.5" y2="30"/>
<line fill="none" style="stroke:#000000; stroke-width:1;" x1="50.5" y1="0" x2="50.5" y2="30"/>
<line fill="none" style="stroke:#000000; stroke-width:2;" x1="53" y1="0" x2="53" y2="30"/>
<line fill="none" style="stroke:#000000; stroke-width:1;" x1="55.5" y1="0" x2="55.5" y2="30"/>
<line fill="none" style="stroke:#000000; stroke-width:1;" x1="57.5" y1="0" x2="57.5" y2="30"/>
<line fill="none" style="stroke:#000000; stroke-width:1;" x1="59.5" y1="0" x2="59.5" y2="30"/>
<line fill="none" style="stroke:#000000; stroke-width:2;" x1="63" y1="0" x2="63" y2="30"/>
<line fill="none" style="stroke:#000000; stroke-width:2;" x1="66" y1="0" x2="66" y2="30"/>
<line fill="none" style="stroke:#000000; stroke-width:2;" x1="70" y1="0" x2="70" y2="30"/>
<line fill="none" style="stroke:#000000; stroke-width:1;" x1="72.5" y1="0" x2="72.5" y2="30"/>
<line fill="none" style="stroke:#000000; stroke-width:1;" x1="74.5" y1="0" x2="74.5" y2="30"/>
<line fill="none" style="stroke:#000000; stroke-width:1;" x1="76.5" y1="0" x2="76.5" y2="30"/>
<line fill="none" style="stroke:#000000; stroke-width:2;" x1="79" y1="0" x2="79" y2="30"/>
<line fill="none" style="stroke:#000000; stroke-width:1;" x1="81.5" y1="0" x2="81.5" y2="30"/>
<line fill="none" style="stroke:#000000; stroke-width:1;" x1="83.5" y1="0" x2="83.5" y2="30"/>
<line fill="none" style="stroke:#000000; stroke-width:1;" x1="86.5" y1="0" x2="86.5" y2="30"/>
<line fill="none" style="stroke:#000000; stroke-width:2;" x1="89" y1="0" x2="89" y2="30"/>
<line fill="none" style="stroke:#000000; stroke-width:1;" x1="91.5" y1="0" x2="91.5" y2="30"/>
<line fill="none" style="stroke:#000000; stroke-width:2;" x1="95" y1="0" x2="95" y2="30"/>
<line fill="none" style="stroke:#000000; stroke-width:1;" x1="97.5" y1="0" x2="97.5" y2="30"/>
<line fill="none" style="stroke:#000000; stroke-width:1;" x1="99.5" y1="0" x2="99.5" y2="30"/>
<line fill="none" style="stroke:#000000; stroke-width:2;" x1="102" y1="0" x2="102" y2="30"/>
<line fill="none" style="stroke:#000000; stroke-width:2;" x1="105" y1="0" x2="105" y2="30"/>
<line fill="none" style="stroke:#000000; stroke-width:1;" x1="107.5" y1="0" x2="107.5" y2="30"/>
<line fill="none" style="stroke:#000000; stroke-width:2;" x1="110" y1="0" x2="110" y2="30"/>
<line fill="none" style="stroke:#000000; stroke-width:1;" x1="113.5" y1="0" x2="113.5" y2="30"/>
<line fill="none" style="stroke:#000000; stroke-width:1;" x1="115.5" y1="0" x2="115.5" y2="30"/>
<line fill="none" style="stroke:#000000; stroke-width:1;" x1="117.5" y1="0" x2="117.5" y2="30"/>
<line fill="none" style="stroke:#000000; stroke-width:2;" x1="121" y1="0" x2="121" y2="30"/>
<line fill="none" style="stroke:#000000; stroke-width:1;" x1="123.5" y1="0" x2="123.5" y2="30"/>
<line fill="none" style="stroke:#000000; stroke-width:2;" x1="126" y1="0" x2="126" y2="30"/>
<line fill="none" style="stroke:#000000; stroke-width:1;" x1="128.5" y1="0" x2="128.5" y2="30"/>
<line fill="none" style="stroke:#000000; stroke-width:1;" x1="130.5" y1="0" x2="130.5" y2="30"/>
<line fill="none" style="stroke:#000000; stroke-width:2;" x1="133" y1="0" x2="133" y2="30"/>
<line fill="none" style="stroke:#000000; stroke-width:1;" x1="135.5" y1="0" x2="135.5" y2="30"/>
<line fill="none" style="stroke:#000000; stroke-width:1;" x1="137.5" y1="0" x2="137.5" y2="30"/>
<line fill="none" style="stroke:#000000; stroke-width:2;" x1="141" y1="0" x2="141" y2="30"/>
<line fill="none" style="stroke:#000000; stroke-width:2;" x1="144" y1="0" x2="144" y2="30"/>
<line fill="none" style="stroke:#000000; stroke-width:1;" x1="146.5" y1="0" x2="146.5" y2="30"/>
<line fill="none" style="stroke:#000000; stroke-width:1;" x1="148.5" y1="0" x2="148.5" y2="30"/>
<line fill="none" style="stroke:#000000; stroke-width:1;" x1="151.5" y1="0" x2="151.5" y2="30"/>
<line fill="none" style="stroke:#000000; stroke-width:2;" x1="154" y1="0" x2="154" y2="30"/>
<line fill="none" style="stroke:#000000; stroke-width:1;" x1="156.5" y1="0" x2="156.5" y2="30"/>
<line fill="none" style="stroke:#000000; stroke-width:2;" x1="159" y1="0" x2="159" y2="30"/>
<line fill="none" style="stroke:#000000; stroke-width:1;" x1="161.5" y1="0" x2="161.5" y2="30"/>
<line fill="none" style="stroke:#000000; stroke-width:1;" x1="164.5" y1="0" x2="164.5" y2="30"/>
<line fill="none" style="stroke:#000000; stroke-width:2;" x1="167" y1="0" x2="167" y2="30"/>
<line fill="none" style="stroke:#000000; stroke-width:2;" x1="170" y1="0" x2="170" y2="30"/>
<line fill="none" style="stroke:#000000; stroke-width:1;" x1="172.5" y1="0" x2="172.5" y2="30"/>
<line fill="none" style="stroke:#000000; stroke-width:2;" x1="175" y1="0" x2="175" y2="30"/>
<line fill="none" style="stroke:#000000; stroke-width:1;" x1="177.5" y1="0" x2="177.5" y2="30"/>
<line fill="none" style="stroke:#000000; stroke-width:1;" x1="180.5" y1="0" x2="180.5" y2="30"/>
<line fill="none" style="stroke:#000000; stroke-width:2;" x1="183" y1="0" x2="183" y2="30"/>
<line fill="none" style="stroke:#000000; stroke-width:1;" x1="185.5" y1="0" x2="185.5" y2="30"/>
<line fill="none" style="stroke:#000000; stroke-width:1;" x1="187.5" y1="0" x2="187.5" y2="30"/>
<line fill="none" style="stroke:#000000; stroke-width:2;" x1="190" y1="0" x2="190" y2="30"/>
<line fill="none" style="stroke:#000000; stroke-width:1;" x1="193.5" y1="0" x2="193.5" y2="30"/>
<line fill="none" style="stroke:#000000; stroke-width:2;" x1="196" y1="0" x2="196" y2="30"/>
<line fill="none" style="stroke:#000000; stroke-width:1;" x1="198.5" y1="0" x2="198.5" y2="30"/>
<line fill="none" style="stroke:#000000; stroke-width:1;" x1="200.5" y1="0" x2="200.5" y2="30"/>
<line fill="none" style="stroke:#000000; stroke-width:1;" x1="203.5" y1="0" x2="203.5" y2="30"/>
<line fill="none" style="stroke:#000000; stroke-width:2;" x1="206" y1="0" x2="206" y2="30"/>
<line fill="none" style="stroke:#000000; stroke-width:1;" x1="208.5" y1="0" x2="208.5" y2="30"/>
<line fill="none" style="stroke:#000000; stroke-width:1;" x1="210.5" y1="0" x2="210.5" y2="30"/>
<line fill="none" style="stroke:#000000; stroke-width:2;" x1="213" y1="0" x2="213" y2="30"/>
<line fill="none" style="stroke:#000000; stroke-width:2;" x1="216" y1="0" x2="216" y2="30"/>
<line fill="none" style="stroke:#000000; stroke-width:1;" x1="219.5" y1="0" x2="219.5" y2="30"/>
<line fill="none" style="stroke:#000000; stroke-width:2;" x1="222" y1="0" x2="222" y2="30"/>
<line fill="none" style="stroke:#000000; stroke-width:1;" x1="224.5" y1="0" x2="224.5" y2="30"/>
<line fill="none" style="stroke:#000000; stroke-width:2;" x1="227" y1="0" x2="227" y2="30"/>
<line fill="none" style="stroke:#000000; stroke-width:1;" x1="229.5" y1="0" x2="229.5" y2="30"/>
<line fill="none" style="stroke:#000000; stroke-width:1;" x1="232.5" y1="0" x2="232.5" y2="30"/>
<line fill="none" style="stroke:#000000; stroke-width:2;" x1="235" y1="0" x2="235" y2="30"/>
<line fill="none" style="stroke:#000000; stroke-width:1;" x1="237.5" y1="0" x2="237.5" y2="30"/>
<line fill="none" style="stroke:#000000; stroke-width:1;" x1="239.5" y1="0" x2="239.5" y2="30"/>
<line fill="none" style="stroke:#000000; stroke-width:2;" x1="242" y1="0" x2="242" y2="30"/>
<line fill="none" style="stroke:#000000; stroke-width:1;" x1="245.5" y1="0" x2="245.5" y2="30"/>
<line fill="none" style="stroke:#000000; stroke-width:1;" x1="247.5" y1="0" x2="247.5" y2="30"/>
<line fill="none" style="stroke:#000000; stroke-width:2;" x1="250" y1="0" x2="250" y2="30"/>
<line fill="none" style="stroke:#000000; stroke-width:1;" x1="252.5" y1="0" x2="252.5" y2="30"/>
<line fill="none" style="stroke:#000000; stroke-width:2;" x1="256" y1="0" x2="256" y2="30"/>
<line fill="none" style="stroke:#000000; stroke-width:1;" x1="258.5" y1="0" x2="258.5" y2="30"/>
<line fill="none" style="stroke:#000000; stroke-width:2;" x1="261" y1="0" x2="261" y2="30"/>
<line fill="none" style="stroke:#000000; stroke-width:1;" x1="263.5" y1="0" x2="263.5" y2="30"/>
<line fill="none" style="stroke:#000000; stroke-width:2;" x1="266" y1="0" x2="266" y2="30"/>
<line fill="none" style="stroke:#000000; stroke-width:1;" x1="269.5" y1="0" x2="269.5" y2="30"/>
<line fill="none" style="stroke:#000000; stroke-width:1;" x1="271.5" y1="0" x2="271.5" y2="30"/>
<line fill="none" style="stroke:#000000; stroke-width:1;" x1="273.5" y1="0" x2="273.5" y2="30"/>
<line fill="none" style="stroke:#000000; stroke-width:2;" x1="276" y1="0" x2="276" y2="30"/>
<line fill="none" style="stroke:#000000; stroke-width:1;" x1="278.5" y1="0" x2="278.5" y2="30"/>
<line fill="none" style="stroke:#000000; stroke-width:2;" x1="281" y1="0" x2="281" y2="30"/>
<line fill="none" style="stroke:#000000; stroke-width:1;" x1="284.5" y1="0" x2="284.5" y2="30"/>
<line fill="none" style="stroke:#000000; stroke-width:1;" x1="286.5" y1="0" x2="286.5" y2="30"/>
<line fill="none" style="stroke:#000000; stroke-width:1;" x1="289.5" y1="0" x2="289.5" y2="30"/>
<line fill="none" style="stroke:#000000; stroke-width:1;" x1="292.5" y1="0" x2="292.5" y2="30"/>
<line fill="none" style="stroke:#000000; stroke-width:1;" x1="294.5" y1="0" x2="294.5" y2="30"/>
<line fill="none" style="stroke:#000000; stroke-width:1;" x1="297.5" y1="0" x2="297.5" y2="30"/>
<line fill="none" style="stroke:#000000; stroke-width:1;" x1="299.5" y1="0" x2="299.5" y2="30"/>
<line fill="none" style="stroke:#000000; stroke-width:1;" x1="302.5" y1="0" x2="302.5" y2="30"/>
<line fill="none" style="stroke:#000000; stroke-width:2;" x1="305" y1="0" x2="305" y2="30"/>
<line fill="none" style="stroke:#000000; stroke-width:2;" x1="308" y1="0" x2="308" y2="30"/>
<line fill="none" style="stroke:#000000; stroke-width:1;" x1="310.5" y1="0" x2="310.5" y2="30"/>
<text x="156" y="37.763" text-anchor="middle" style="font-family: Tahoma; font-size: 9px; stroke: none; fill:#000000;">HACKWAVE LABORATORIES</text></svg>