<?xml version="1.0"?>
<svg xmlns="http://www.w3.org/2000/svg" xmlns:xlink="http://www.w3.org/1999/xlink" version="1.1" id="Capa_1" x="0px" y="0px" viewBox="0 0 512 512" style="enable-background:new 0 0 512 512;" xml:space="preserve" width="512px" height="512px" class=""><g><g>
	<g>
		<g>
			<path d="M256,27.929c4.135,0,7.488-3.352,7.488-7.488V7.488C263.488,3.352,260.135,0,256,0s-7.488,3.352-7.488,7.488v12.953     C248.512,24.577,251.865,27.929,256,27.929z" data-original="#000000" class="active-path" data-old_color="#ffffff" fill="#ffffff"/>
			<path d="M256,62.13c4.135,0,7.488-3.352,7.488-7.488v-3.376c0-4.136-3.352-7.488-7.488-7.488s-7.488,3.352-7.488,7.488v3.376     C248.512,58.778,251.865,62.13,256,62.13z" data-original="#000000" class="active-path" data-old_color="#ffffff" fill="#ffffff"/>
			<path d="M256,444.372c4.135,0,7.488-3.351,7.488-7.488v-17.591c0-4.136-3.352-7.488-7.488-7.488s-7.488,3.352-7.488,7.488v17.591     C248.512,441.02,251.865,444.372,256,444.372z" data-original="#000000" class="active-path" data-old_color="#ffffff" fill="#ffffff"/>
			<path d="M255.727,462.754c-4.132,0.151-7.36,3.624-7.209,7.756c0.406,11.091,0.406,22.754,0,33.726     c-0.153,4.132,3.074,7.606,7.206,7.759c0.094,0.003,0.187,0.005,0.281,0.005c4.007,0,7.329-3.173,7.478-7.212     c0.418-11.331,0.418-23.374,0-34.824C263.332,465.831,259.87,462.613,255.727,462.754z" data-original="#000000" class="active-path" data-old_color="#ffffff" fill="#ffffff"/>
			<path d="M129.836,52.288c3.391,5.707,6.593,11.098,9.552,16.699c1.342,2.541,3.939,3.992,6.627,3.992     c1.179,0,2.376-0.279,3.491-0.869c3.657-1.931,5.055-6.461,3.124-10.118c-3.134-5.933-6.584-11.738-9.919-17.353     c-1.496-2.518-3-5.049-4.492-7.618c-2.077-3.576-6.661-4.789-10.236-2.713c-3.576,2.077-4.791,6.66-2.714,10.236     C126.786,47.155,128.316,49.729,129.836,52.288z" data-original="#000000" class="active-path" data-old_color="#ffffff" fill="#ffffff"/>
			<path d="M152.53,91.755c4.913,8.032,9.334,15.895,13.609,23.5l1.69,3.004c1.375,2.441,3.915,3.814,6.531,3.814     c1.245,0,2.506-0.31,3.668-0.966c3.603-2.03,4.879-6.596,2.85-10.199l-1.685-2.994c-4.342-7.722-8.831-15.707-13.888-23.973     c-2.157-3.528-6.766-4.639-10.295-2.481C151.483,83.619,150.372,88.228,152.53,91.755z" data-original="#000000" class="active-path" data-old_color="#ffffff" fill="#ffffff"/>
			<path d="M344.131,393.673c-2.068-3.581-6.648-4.808-10.228-2.741c-3.582,2.068-4.809,6.647-2.741,10.228l7.257,12.568     c1.387,2.402,3.903,3.745,6.491,3.745c1.271,0,2.558-0.324,3.737-1.004c3.582-2.068,4.809-6.647,2.741-10.228L344.131,393.673z" data-original="#000000" class="active-path" data-old_color="#ffffff" fill="#ffffff"/>
			<path d="M371.474,441.031c-2.068-3.581-6.647-4.808-10.228-2.741c-3.581,2.068-4.809,6.646-2.741,10.228l15.267,26.444     c1.387,2.402,3.903,3.745,6.491,3.745c1.27,0,2.558-0.324,3.737-1.004c3.581-2.068,4.809-6.646,2.741-10.228L371.474,441.031z" data-original="#000000" class="active-path" data-old_color="#ffffff" fill="#ffffff"/>
			<path d="M37.326,138.386c8.489,4.416,16.889,9.427,25.783,14.733c5.305,3.164,10.79,6.436,16.297,9.571     c1.169,0.665,2.441,0.981,3.697,0.981c2.604,0,5.134-1.36,6.513-3.785c2.045-3.594,0.79-8.166-2.804-10.212     c-5.374-3.058-10.792-6.29-16.032-9.416c-8.686-5.182-17.668-10.541-26.544-15.157c-3.668-1.907-8.189-0.482-10.098,3.187     C32.23,131.957,33.657,136.478,37.326,138.386z" data-original="#000000" class="active-path" data-old_color="#ffffff" fill="#ffffff"/>
			<path d="M100.746,175.011l10.094,5.827c1.18,0.68,2.467,1.004,3.737,1.004c2.588,0,5.105-1.342,6.492-3.745     c2.068-3.582,0.84-8.161-2.741-10.228l-10.092-5.827c-3.582-2.066-8.161-0.841-10.229,2.74     C95.938,168.363,97.165,172.942,100.746,175.011z" data-original="#000000" class="active-path" data-old_color="#ffffff" fill="#ffffff"/>
			<path d="M430.25,347.957l-29.091-16.796c-3.581-2.067-8.161-0.839-10.228,2.743c-2.068,3.582-0.84,8.16,2.742,10.228     l29.089,16.794c1.179,0.68,2.467,1.004,3.737,1.004c2.587,0,5.104-1.342,6.492-3.745     C435.059,354.604,433.832,350.025,430.25,347.957z" data-original="#000000" class="active-path" data-old_color="#ffffff" fill="#ffffff"/>
			<path d="M474.962,373.772l-13.519-7.805c-3.582-2.069-8.16-0.842-10.228,2.742c-2.067,3.581-0.84,8.16,2.742,10.227l13.516,7.805     c1.18,0.68,2.467,1.004,3.738,1.004c2.587,0,5.104-1.342,6.49-3.744C479.77,380.42,478.543,375.841,474.962,373.772z" data-original="#000000" class="active-path" data-old_color="#ffffff" fill="#ffffff"/>
			<path d="M17.216,248.512H7.488C3.352,248.512,0,251.864,0,256c0,4.136,3.352,7.488,7.488,7.488h9.728     c4.135,0,7.488-3.352,7.488-7.488C24.704,251.864,21.351,248.512,17.216,248.512z" data-original="#000000" class="active-path" data-old_color="#ffffff" fill="#ffffff"/>
			<path d="M40.393,263.488c0.027,0,0.054,0,0.081-0.001c5.966-0.065,12.059-0.107,18.111-0.127     c4.136-0.014,7.477-3.376,7.464-7.512c-0.013-4.127-3.363-7.463-7.487-7.463c-0.008,0-0.016,0-0.024,0     c-6.09,0.02-12.222,0.063-18.225,0.127c-4.135,0.045-7.451,3.434-7.406,7.569C32.952,260.189,36.295,263.488,40.393,263.488z" data-original="#000000" class="active-path" data-old_color="#ffffff" fill="#ffffff"/>
			<path d="M82.753,263.401c3.291,0.022,6.581,0.051,9.872,0.087c0.028,0,0.056,0,0.084,0c4.097,0,7.441-3.299,7.485-7.405     c0.046-4.135-3.27-7.524-7.405-7.57c-3.313-0.036-6.626-0.066-9.938-0.087c-0.017,0-0.033,0-0.05,0     c-4.113,0-7.46,3.321-7.487,7.439C75.287,260,78.618,263.374,82.753,263.401z" data-original="#000000" class="active-path" data-old_color="#ffffff" fill="#ffffff"/>
			<path d="M455.974,256.136c0.075-4.135-3.216-7.547-7.351-7.622c-10.461-0.189-19.55-0.187-29.472,0     c-4.135,0.079-7.423,3.494-7.344,7.629c0.077,4.086,3.414,7.345,7.483,7.345c0.048,0,0.097,0,0.145-0.001     c9.73-0.185,18.648-0.185,28.918,0C452.462,263.556,455.899,260.271,455.974,256.136z" data-original="#000000" class="active-path" data-old_color="#ffffff" fill="#ffffff"/>
			<path d="M504.646,248.513c-10.535-0.187-21.693-0.188-33.163,0c-4.134,0.068-7.432,3.475-7.364,7.61     c0.067,4.093,3.406,7.365,7.484,7.365c0.042,0,0.084,0,0.125-0.002c11.302-0.185,22.287-0.185,32.651,0     c4.087,0.068,7.546-3.218,7.62-7.353C512.073,251.999,508.781,248.587,504.646,248.513z" data-original="#000000" class="active-path" data-old_color="#ffffff" fill="#ffffff"/>
			<path d="M58.878,361.202c-3.645,2.593-7.472,4.593-11.522,6.712c-3.545,1.854-7.21,3.771-10.723,6.11     c-3.443,2.292-4.375,6.94-2.083,10.382c1.442,2.167,3.818,3.339,6.239,3.339c1.425,0,2.867-0.406,4.142-1.255     c2.856-1.901,6.017-3.555,9.365-5.306c4.318-2.258,8.782-4.593,13.26-7.777c3.37-2.397,4.159-7.072,1.763-10.441     C66.923,359.593,62.247,358.806,58.878,361.202z" data-original="#000000" class="active-path" data-old_color="#ffffff" fill="#ffffff"/>
			<path d="M111.204,330.967c-4.856,2.458-9.495,5.353-13.981,8.153c-5.105,3.186-10.384,6.481-16.163,9.261     c-3.727,1.793-5.294,6.267-3.502,9.993c1.289,2.68,3.966,4.244,6.753,4.244c1.088,0,2.194-0.239,3.241-0.741     c6.519-3.137,12.152-6.652,17.6-10.053c4.4-2.747,8.556-5.34,12.814-7.496c3.69-1.867,5.167-6.373,3.3-10.062     C119.398,330.576,114.891,329.099,111.204,330.967z" data-original="#000000" class="active-path" data-old_color="#ffffff" fill="#ffffff"/>
			<path d="M397.421,181.843c1.046,0,2.11-0.22,3.122-0.687c6.069-2.791,11.593-6.385,16.935-9.862     c5.718-3.722,11.119-7.238,17.074-9.796c3.8-1.632,5.556-6.036,3.924-9.835c-1.632-3.798-6.038-5.557-9.835-3.923     c-7.136,3.065-13.336,7.1-19.332,11.003c-5.115,3.33-9.947,6.475-15.02,8.807c-3.757,1.728-5.403,6.173-3.676,9.931     C391.874,180.226,394.586,181.843,397.421,181.843z" data-original="#000000" class="active-path" data-old_color="#ffffff" fill="#ffffff"/>
			<path d="M452.626,149.971c1.271,0,2.558-0.324,3.737-1.004l18.599-10.738c3.582-2.069,4.808-6.648,2.74-10.229     c-2.068-3.58-6.646-4.807-10.228-2.74l-18.598,10.738c-3.581,2.068-4.809,6.647-2.741,10.228     C447.522,148.628,450.038,149.971,452.626,149.971z" data-original="#000000" class="active-path" data-old_color="#ffffff" fill="#ffffff"/>
			<path d="M152.394,434.922c-3.653-1.94-8.186-0.551-10.125,3.102c-5.309,9.998-11.489,20.272-16.941,29.335     c-2.132,3.544-0.987,8.145,2.557,10.276c1.207,0.726,2.538,1.072,3.852,1.072c2.54,0,5.018-1.294,6.425-3.628     c5.549-9.225,11.838-19.681,17.334-30.033C157.435,441.394,156.047,436.862,152.394,434.922z" data-original="#000000" class="active-path" data-old_color="#ffffff" fill="#ffffff"/>
			<path d="M333.903,121.069c1.179,0.68,2.467,1.004,3.737,1.004c2.587,0,5.104-1.343,6.491-3.745l6.855-11.873     c2.068-3.581,0.841-8.16-2.741-10.228c-3.582-2.068-8.161-0.841-10.228,2.741l-6.855,11.873     C329.094,114.422,330.321,119.001,333.903,121.069z" data-original="#000000" class="active-path" data-old_color="#ffffff" fill="#ffffff"/>
			<path d="M365.827,80.722c0.97-1.946,2.04-3.986,3.179-6.065c1.987-3.627,0.657-8.177-2.969-10.164     c-3.628-1.987-8.178-0.657-10.165,2.969c-1.231,2.246-2.391,4.458-3.447,6.576c-1.845,3.7-0.342,8.196,3.358,10.042     c1.074,0.537,2.214,0.79,3.337,0.79C361.869,84.87,364.516,83.35,365.827,80.722z" data-original="#000000" class="active-path" data-old_color="#ffffff" fill="#ffffff"/>
			<path d="M383.963,34.277c-3.591-2.048-8.165-0.794-10.212,2.799c-2.009,3.528-4.084,7-5.666,9.63     c-2.133,3.543-0.989,8.144,2.555,10.276c1.208,0.726,2.539,1.072,3.853,1.072c2.54,0,5.018-1.293,6.424-3.628     c1.625-2.701,3.759-6.272,5.846-9.936C388.81,40.896,387.556,36.323,383.963,34.277z" data-original="#000000" class="active-path" data-old_color="#ffffff" fill="#ffffff"/>
			<path d="M300.207,293.981c-3.256-2.549-7.961-1.976-10.512,1.279l-57.945,73.991l26.679-70.142     c1.487-3.908,0.958-8.296-1.416-11.738c-2.374-3.443-6.287-5.498-10.468-5.498h-73.294l23.55-40.678     c2.072-3.579,0.851-8.159-2.728-10.232c-3.58-2.07-8.161-0.85-10.232,2.729l-25.514,44.071c-2.305,3.979-2.31,8.735-0.012,12.72     c2.298,3.986,6.416,6.365,11.016,6.365h73.936l-30.813,81.014c-2.288,6.017,0.029,12.428,5.634,15.593     c2.036,1.149,4.213,1.706,6.353,1.705c3.75,0,7.38-1.711,9.907-4.937l67.138-85.73     C304.035,301.238,303.463,296.532,300.207,293.981z" data-original="#000000" class="active-path" data-old_color="#ffffff" fill="#ffffff"/>
			<path d="M341.409,220.178h-81.655l11.681-88.978c0.799-6.086-2.703-11.717-8.515-13.692c-5.814-1.98-12.019,0.353-15.095,5.667     l-37.127,64.13c-2.072,3.579-0.851,8.159,2.728,10.232c3.579,2.071,8.16,0.85,10.232-2.729l31.456-54.336l-10.543,80.311     c-0.477,3.63,0.634,7.289,3.048,10.04c2.414,2.752,5.898,4.33,9.559,4.33h79.589l-14.128,18.041     c-2.549,3.255-1.977,7.961,1.279,10.512c1.37,1.072,2.996,1.592,4.611,1.592c2.223,0,4.424-0.985,5.901-2.871l16.99-21.695     c3.023-3.861,3.567-8.999,1.42-13.407C350.693,222.917,346.313,220.178,341.409,220.178z" data-original="#000000" class="active-path" data-old_color="#ffffff" fill="#ffffff"/>
		</g>
	</g>
</g></g> </svg>
