<?xml version="1.0" encoding="UTF-8"?>
<svg width="134px" height="134px" viewBox="0 0 134 134" version="1.1" xmlns="http://www.w3.org/2000/svg" xmlns:xlink="http://www.w3.org/1999/xlink">
    <!-- Generator: Sketch 51 (57462) - http://www.bohemiancoding.com/sketch -->
    <title>Feature/Export</title>
    <desc>Created with Sketch.</desc>
    <defs>
        <polygon id="path-1" points="0 0.666951072 48.9248 0.666951072 48.9248 20.2839943 0 20.2839943"></polygon>
        <polygon id="path-3" points="0.301912 0.666951072 51.1836 0.666951072 51.1836 20.2839943 0.301912 20.2839943"></polygon>
    </defs>
    <g id="Feature/Export" stroke="none" stroke-width="1" fill="none" fill-rule="evenodd">
        <path d="M64.6851,25.0004 L31.6641,25.0004 C30.7451,25.0004 30.0001,25.7454 30.0001,27.1914 L30.0001,87.5774 C30.0001,87.9704 30.7451,88.7154 31.6641,88.7154 L77.2601,88.7154 C78.1791,88.7154 78.9241,87.9704 78.9241,87.5774 L78.9241,39.7664 C78.9241,38.9744 78.8191,38.7194 78.6321,38.5314 L65.3931,25.2924 C65.2051,25.1054 64.9501,25.0004 64.6851,25.0004" id="Fill-1" fill="#E0DDD3"></path>
        <g id="Group-7" transform="translate(30.000000, 68.715600)">
            <mask id="mask-2" fill="white">
                <use xlink:href="#path-1"></use>
            </mask>
            <g id="Clip-6"></g>
            <path d="M47.2598,20.2839943 L1.6648,20.2839943 C0.7448,20.2839943 -0.0002,19.5284004 -0.0002,18.5963322 L-0.0002,0.666951072 L48.9248,0.666951072 L48.9248,18.5963322 C48.9248,19.5284004 48.1788,20.2839943 47.2598,20.2839943" id="Fill-5" fill="#D82E2E" mask="url(#mask-2)"></path>
        </g>
        <path d="M43.6534,75.0619 C45.5384,75.0619 47.0664,76.5899 47.0664,78.4759 C47.0664,80.3609 45.5384,81.8889 43.6534,81.8889 C41.7684,81.8889 40.2394,80.3609 40.2394,78.4759 C40.2394,76.5899 41.7684,75.0619 43.6534,75.0619" id="Fill-8" fill="#E0DDD3"></path>
        <path d="M55.0313,75.0619 C56.9163,75.0619 58.4443,76.5899 58.4443,78.4759 C58.4443,80.3609 56.9163,81.8889 55.0313,81.8889 C53.1463,81.8889 51.6173,80.3609 51.6173,78.4759 C51.6173,76.5899 53.1463,75.0619 55.0313,75.0619" id="Fill-10" fill="#E0DDD3"></path>
        <path d="M66.4087,75.0619 C68.2937,75.0619 69.8227,76.5899 69.8227,78.4759 C69.8227,80.3609 68.2937,81.8889 66.4087,81.8889 C64.5237,81.8889 62.9957,80.3609 62.9957,78.4759 C62.9957,76.5899 64.5237,75.0619 66.4087,75.0619" id="Fill-12" fill="#FFFFFF"></path>
        <path d="M88.9756,45.0004 L55.9546,45.0004 C55.0356,45.0004 54.2906,45.7454 54.2906,47.1914 L54.2906,107.5774 C54.2906,107.9704 55.0356,108.7154 55.9546,108.7154 L101.5506,108.7154 C102.4696,108.7154 103.2146,107.9704 103.2146,107.5774 L103.2146,59.7664 C103.2146,58.9744 103.1086,58.7194 102.9226,58.5314 L89.6836,45.2924 C89.4956,45.1054 89.2406,45.0004 88.9756,45.0004" id="Fill-14" fill="#FFFFFF"></path>
        <polygon id="Fill-16" fill="#E0DDD3" points="89.5616 45.1722 89.5616 58.6532 103.0426 58.6532"></polygon>
        <g id="Group-20" transform="translate(53.000000, 88.715600)">
            <mask id="mask-4" fill="white">
                <use xlink:href="#path-3"></use>
            </mask>
            <g id="Clip-19"></g>
            <path d="M49.452312,20.2839943 L2.033512,20.2839943 C1.076712,20.2839943 0.301912,19.5284004 0.301912,18.5963322 L0.301912,0.666951072 L51.183912,0.666951072 L51.183912,18.5963322 C51.183912,19.5284004 50.408072,20.2839943 49.452312,20.2839943" id="Fill-18" fill="#377BB5" mask="url(#mask-4)"></path>
        </g>
        <path d="M67.9439,95.0619 C69.8289,95.0619 71.3569,96.5899 71.3569,98.4759 C71.3569,100.3609 69.8289,101.8889 67.9439,101.8889 C66.0589,101.8889 64.5299,100.3609 64.5299,98.4759 C64.5299,96.5899 66.0589,95.0619 67.9439,95.0619" id="Fill-21" fill="#FFFFFF"></path>
        <path d="M79.3218,95.0619 C81.2068,95.0619 82.7348,96.5899 82.7348,98.4759 C82.7348,100.3609 81.2068,101.8889 79.3218,101.8889 C77.4368,101.8889 75.9078,100.3609 75.9078,98.4759 C75.9078,96.5899 77.4368,95.0619 79.3218,95.0619" id="Fill-23" fill="#FFFFFF"></path>
        <path d="M90.6992,95.0619 C92.5842,95.0619 94.1132,96.5899 94.1132,98.4759 C94.1132,100.3609 92.5842,101.8889 90.6992,101.8889 C88.8142,101.8889 87.2862,100.3609 87.2862,98.4759 C87.2862,96.5899 88.8142,95.0619 90.6992,95.0619" id="Fill-25" fill="#FFFFFF"></path>
    </g>
</svg>