<?xml version="1.0" encoding="utf-8"?>
<svg id="Layer_1" data-name="Layer 1" xmlns="http://www.w3.org/2000/svg" viewBox="0 0 59 66">
  <title>feature3</title>
  <g id="open_identifiers" data-name="open identifiers">
    <g id="Group_153" data-name="Group 153">
      <g id="noun_Circle_1721216" data-name="noun Circle 1721216">
        <g id="Group_152" data-name="Group 152">
          <path id="Path_48" data-name="Path 48" d="M52.4,34v-.9c-.1,0-.1,0-.1-.2a5.7,5.7,0,0,0-.8-1.3c-.1,0-.1-.1-.1-.2l.2-.3c.1-.1.3,0,.4.1h0l.4.5a22.9,22.9,0,0,0-45.8,0H7c.1,0,.1.1.1.2v.2a4.2,4.2,0,0,0-.6,1.4h0a4.9,4.9,0,0,0,.1,1.2c.1,0,.1.1.2.2h0a3.8,3.8,0,0,0,.9,1.3v.5H7.1l-.4-.5a23,23,0,0,0,45.6-.4h-.1c-.1-.1-.2-.2-.2-.3h0A2.3,2.3,0,0,0,52.4,34ZM8,31c0,.1-.1.1-.2.1H7.6v-.2c0-.1.1-.2.1-.3L9,29.4a.4.4,0,0,1,.5.2.3.3,0,0,1,.1.2.2.2,0,0,1-.2.2L8,31Zm2.4,7.6-.3.2H10a4.6,4.6,0,0,1-1.5-.9c-.1,0-.1-.1-.1-.2v-.2a.3.3,0,0,1,.5,0h0l1.4.8h0c.1.1.2.2.2.3s-.1,0-.1.1Zm.2-9.3-.3-.2h0a.5.5,0,0,1,.2-.4L12,28c.1-.1.3,0,.4.1h0c0,.1-.1.3-.2.3l-1.4.6Zm2.8,10.6-.3.2h-.2l-1.5-.6h0a.5.5,0,0,1-.2-.4h0c.1-.1.3-.3.4-.2h0l1.5.6c.2.1.2.2.2.3s.1.2.1.2ZM13.7,28c-.2.1-.3,0-.4-.2h0l.2-.3h0l1.6-.5a.5.5,0,0,1,.4.2h0a.3.3,0,0,1-.3.3l-1.5.5Zm2.9,12.8-.4.3h0l-1.6-.4h0a.5.5,0,0,1-.3-.4v-.2a.5.5,0,0,1,.4-.2h0l1.6.5a.5.5,0,0,1,.3.3Zm.2-13.7c-.1,0-.3-.1-.3-.2h0a.3.3,0,0,1,.3-.3h0l1.5-.4c.2,0,.4.1.4.3h0c0,.1-.1.2-.2.3l-1.6.3Zm3,14.3a.3.3,0,0,1-.3.3h-.1l-1.7-.3c-.1,0-.2-.2-.2-.3h0c0-.2.2-.3.4-.3l1.6.4c.2,0,.3.2.3.4Zm.3-14.9-.3-.2h0a.3.3,0,0,1,.3-.3l1.6-.3c.2,0,.3.1.4.3h0c0,.2-.1.4-.3.4l-1.7.2Zm3,15.4a.3.3,0,0,1-.3.3h-.1L21,42c-.1,0-.2-.2-.2-.4h0a.3.3,0,0,1,.3-.3h.1l1.6.2c.2,0,.3.1.3.4Zm.3-15.8c-.2,0-.4-.1-.4-.3h0a.3.3,0,0,1,.3-.3h.1l1.6-.2h0a.3.3,0,0,1,.3.3h0a.3.3,0,0,1-.3.3H23.4Zm3,16a.3.3,0,0,1-.3.3H24.4c-.2,0-.2-.1-.3-.3h0a.3.3,0,0,1,.3-.3h1.7c.2.1.3.2.3.4Zm.3-16.2h0a.4.4,0,0,1-.4-.3h0a.3.3,0,0,1,.3-.3h1.7c.2,0,.3.2.3.4a.3.3,0,0,1-.3.3Zm2.7,16.7H27.7a.3.3,0,0,1-.3-.3h0a.3.3,0,0,1,.3-.3h1.7a.3.3,0,0,1,.3.3h0c0,.2-.2.3-.3.4Zm.2-17.1c0-.2.2-.3.3-.4h1.7a.3.3,0,0,1,.3.3h0c.1.1-.1.3-.3.3H30c-.2,0-.4-.1-.4-.3ZM33,42.1a.3.3,0,0,1-.3.3H31a.3.3,0,0,1-.3-.3h0a.4.4,0,0,1,.1-.3c0-.1.1-.1.2-.1h1.6c.2.1.4.2.4.4Zm-.1-16.5h0c0-.2.2-.3.4-.3h1.6a.3.3,0,0,1,.3.3h0a.3.3,0,0,1-.2.4h-.1l-1.6-.2c-.2,0-.4-.1-.4-.3Zm3.4,16.3a.3.3,0,0,1-.3.3l-1.6.2h0a.3.3,0,0,1-.3-.3h0c-.1-.1.1-.3.2-.3H36C36.1,41.5,36.2,41.7,36.3,41.9Zm-.1-16h0c0-.2.2-.3.4-.4l1.6.2a.4.4,0,0,1,.3.4h0c0,.2-.2.3-.4.3h0l-1.7-.2a.4.4,0,0,1-.2-.3Zm3.3,15.6c.1.1-.1.3-.2.3l-1.7.2h0a.3.3,0,0,1-.4-.2h0a.3.3,0,0,1,.3-.3l1.6-.3a.4.4,0,0,1,.4.4Zm0-15.2h0c-.1-.1.1-.3.2-.3h.2l1.6.3c.2,0,.3.2.3.4h0q-.1.3-.3.3h-.1l-1.6-.3a.3.3,0,0,1-.3-.3Zm3,14.8-1.6.4h-.1l-.3-.3h0c0-.1.1-.3.2-.3l1.6-.3c.2-.1.4,0,.4.2h0C42.8,40.9,42.7,41.1,42.5,41.1Zm.2-14h0c.1-.2.2-.3.4-.3l1.6.5c.1.1.2.2.2.3h0l-.3.2h-.1L43,27.4q-.3-.1-.3-.3Zm3,13.1-1.5.5h-.1c-.2,0-.3-.1-.3-.2h0c0-.2.1-.3.2-.3l1.6-.5h0c.2-.1.3,0,.4.1h0c-.1.1-.1.2-.3.3ZM45.9,28h0l.3-.2h.1l1.5.7c.1,0,.2.2.2.3h0c-.1.2-.2.2-.3.2h-.2L46,28.4c-.1-.1-.1-.2-.1-.4Zm3,10.9-1.6.7h-.1c-.1,0-.3-.1-.3-.2h0c0-.2,0-.3.2-.4l1.4-.6a.4.4,0,0,1,.5.1.1.1,0,0,0,.1.1l-.3.4Zm0-9.5v-.2a.4.4,0,0,1,.5-.1l1.4.9c0,.1.1.2.1.3v.2c0,.1-.1.1-.2.1h-.2a4.2,4.2,0,0,0-1.4-.9c-.1-.1-.2-.2-.2-.3ZM51.6,37l-1.3,1h-.5v-.2a.4.4,0,0,1,.1-.3l1.3-1h0a.3.3,0,0,1,.4,0h0c.1.1.1.1.1.2A.4.4,0,0,1,51.6,37Z" style="fill: none"/>
          <path id="Path_49" data-name="Path 49" d="M34.9,26.1a.3.3,0,0,0,.3-.3h0c.1-.1-.1-.3-.2-.3H33.3c-.2,0-.4.1-.4.3h0a.3.3,0,0,0,.3.3h.1Z" style="fill: #f03b46"/>
          <path id="Path_50" data-name="Path 50" d="M38.2,26.4a.3.3,0,0,0,.3-.3h0c.1-.2-.1-.3-.2-.4l-1.7-.2a.5.5,0,0,0-.3.3h0a.3.3,0,0,0,.3.3Z" style="fill: #f03b46"/>
          <path id="Path_51" data-name="Path 51" d="M41.5,27q.2,0,.3-.3h0c0-.2-.1-.3-.3-.4L39.9,26c-.2-.1-.4.1-.4.3h0a.5.5,0,0,0,.2.4,4.1,4.1,0,0,1,1.6.3Z" style="fill: #f03b46"/>
          <path id="Path_52" data-name="Path 52" d="M39.1,41.1l-1.6.3a.3.3,0,0,0-.3.3h0c0,.2.2.2.4.2h0l1.7-.2c.2,0,.2-.2.2-.3h0A.4.4,0,0,0,39.1,41.1Z" style="fill: #f03b46"/>
          <path id="Path_53" data-name="Path 53" d="M35.9,41.6H34.3a.4.4,0,0,0-.4.3h0c0,.2.1.4.3.4h.1l1.6-.2a.3.3,0,0,0,.3-.3h0Q36.2,41.5,35.9,41.6Z" style="fill: #f03b46"/>
          <path id="Path_54" data-name="Path 54" d="M29.4,41.9H27.7a.3.3,0,0,0-.3.3h0c0,.2.1.4.3.4h1.7a.3.3,0,0,0,.3-.3h0A.5.5,0,0,0,29.4,41.9Z" style="fill: #f03b46"/>
          <path id="Path_55" data-name="Path 55" d="M31.6,25.9a.3.3,0,0,0,.3-.3h0c.1-.1-.1-.3-.2-.3H30a.4.4,0,0,0-.4.3.4.4,0,0,0,.4.4h1.6Z" style="fill: #f03b46"/>
          <path id="Path_56" data-name="Path 56" d="M32.6,41.8H31c-.1,0-.2,0-.2.2s-.1.1-.1.2.1.4.3.4h1.7a.3.3,0,0,0,.3-.3h0a.4.4,0,0,0-.4-.4Z" style="fill: #f03b46"/>
          <path id="Path_57" data-name="Path 57" d="M28.6,25.5c.1-.2-.1-.3-.3-.4H26.7c-.2,0-.4.1-.4.3h0a.4.4,0,0,0,.3.4h1.7a.3.3,0,0,0,.3-.3Z" style="fill: #f03b46"/>
          <path id="Path_58" data-name="Path 58" d="M50.6,30.6c.1,0,.2,0,.2-.1v-.2c0-.1-.1-.2-.1-.3l-1.4-.9h-.5c0,.1-.1.1-.1.2a.2.2,0,0,0,.2.2l1.4.9C50.4,30.6,50.5,30.6,50.6,30.6Z" style="fill: #f03b46"/>
          <path id="Path_59" data-name="Path 59" d="M48.5,38.3a5.9,5.9,0,0,1-1.4.6c-.2.1-.2.2-.2.4h0c0,.1.2.2.3.2h.1a5.2,5.2,0,0,0,1.5-.7c.2-.1.2-.2.2-.3h0A.4.4,0,0,0,48.5,38.3Z" style="fill: #f03b46"/>
          <path id="Path_60" data-name="Path 60" d="M42.4,40.5l-1.6.3-.3.3h0a.4.4,0,0,0,.4.3h0l1.7-.4c.1,0,.2-.2.2-.3h0C42.8,40.6,42.6,40.5,42.4,40.5Z" style="fill: #f03b46"/>
          <path id="Path_61" data-name="Path 61" d="M51.2,36.5h0l-1.3,1a.4.4,0,0,0-.1.3V38h.5l1.3-1,.2-.3c-.1-.1-.1-.1-.1-.2A.4.4,0,0,0,51.2,36.5Z" style="fill: #f03b46"/>
          <path id="Path_62" data-name="Path 62" d="M44.6,27.8h.1a.3.3,0,0,0,.3-.3h0a.5.5,0,0,0-.2-.4l-1.6-.4c-.2-.1-.3,0-.4.2h0c.1.1.2.3.3.3l1.5.5Z" style="fill: #f03b46"/>
          <path id="Path_63" data-name="Path 63" d="M45.5,39.6h0l-1.5.5a.3.3,0,0,0-.3.3h0l.3.2h.1l1.6-.5c.1-.1.2-.2.2-.3v-.2C45.9,39.6,45.7,39.5,45.5,39.6Z" style="fill: #f03b46"/>
          <path id="Path_64" data-name="Path 64" d="M47.6,29h.1c.2,0,.3,0,.4-.2h0c0-.1-.1-.3-.2-.3l-1.6-.7h0a.2.2,0,0,0-.3.1h-.1a.5.5,0,0,0,.2.4,4.7,4.7,0,0,1,1.5.6Z" style="fill: #f03b46"/>
          <path id="Path_65" data-name="Path 65" d="M22,26h0c0-.2-.2-.3-.4-.3l-1.6.2a.4.4,0,0,0-.3.4h0c0,.2.2.3.4.3h0l1.7-.2A.8.8,0,0,0,22,26Z" style="fill: #f03b46"/>
          <path id="Path_66" data-name="Path 66" d="M12.5,28.3h0c-.1-.2-.2-.3-.4-.2h0l-1.6.6a.5.5,0,0,0-.2.4h0l.4.2h.1l1.5-.7C12.4,28.6,12.4,28.4,12.5,28.3Z" style="fill: #f03b46"/>
          <path id="Path_67" data-name="Path 67" d="M13.2,39.5l-1.5-.6h0c-.2-.1-.3,0-.4.1h0c0,.1,0,.3.2.3h0l1.5.6h.1c.2,0,.3,0,.4-.2h0C13.4,39.7,13.3,39.5,13.2,39.5Z" style="fill: #f03b46"/>
          <path id="Path_68" data-name="Path 68" d="M16.4,40.4l-1.6-.5h0c-.2,0-.4.1-.4.2v.2c0,.1.1.2.2.3h0l1.6.4h.1a.3.3,0,0,0,.3-.3h0C16.6,40.6,16.5,40.5,16.4,40.4Z" style="fill: #f03b46"/>
          <path id="Path_69" data-name="Path 69" d="M15.6,27.3h0c-.1-.2-.2-.3-.4-.2h0l-1.6.5h0c-.1,0-.2.1-.2.3h0c0,.1.2.2.3.2h.1l1.6-.4Z" style="fill: #f03b46"/>
          <path id="Path_70" data-name="Path 70" d="M9.5,29.8c0-.1,0-.2-.1-.2a.4.4,0,0,0-.4-.2L7.6,30.5c-.1.1-.2.2-.2.3s0,.2.1.2H8l1.2-1C9.4,30,9.5,29.9,9.5,29.8Z" style="fill: #f03b46"/>
          <path id="Path_71" data-name="Path 71" d="M10.2,38.1h0l-1.4-.8a.2.2,0,0,0-.4.1h0v.2a.4.4,0,0,0,.1.3l1.5.9a.1.1,0,0,1,.1.1l.3-.2v-.2A.4.4,0,0,0,10.2,38.1Z" style="fill: #f03b46"/>
          <path id="Path_72" data-name="Path 72" d="M25,25.9a.3.3,0,0,0,.3-.3h0c.1-.2-.1-.3-.3-.3H23.4c-.2,0-.4.1-.4.3h0c0,.2.1.4.3.4h.1Z" style="fill: #f03b46"/>
          <path id="Path_73" data-name="Path 73" d="M18.8,26.5h0c-.1-.3-.2-.4-.4-.4l-1.6.4h0c-.1,0-.3.1-.2.3h0c0,.1.1.2.3.2H17l1.5-.3A.3.3,0,0,0,18.8,26.5Z" style="fill: #f03b46"/>
          <path id="Path_74" data-name="Path 74" d="M26.1,41.8l-1.7-.2a.3.3,0,0,0-.3.3h0a.3.3,0,0,0,.3.3h1.7a.3.3,0,0,0,.3-.3h0C26.4,41.9,26.3,41.8,26.1,41.8Z" style="fill: #f03b46"/>
          <path id="Path_75" data-name="Path 75" d="M22.8,41.5l-1.7-.2c-.2,0-.3.1-.4.3h0l.3.3,1.6.2h.1a.3.3,0,0,0,.3-.3h0C23.1,41.7,23,41.5,22.8,41.5Z" style="fill: #f03b46"/>
          <path id="Path_76" data-name="Path 76" d="M19.5,41.1l-1.6-.4a.5.5,0,0,0-.4.3h0l.3.3,1.7.3h0a.5.5,0,0,0,.4-.2h0C19.8,41.2,19.7,41.1,19.5,41.1Z" style="fill: #f03b46"/>
          <path id="Path_77" data-name="Path 77" d="M29.5,8.7A24.3,24.3,0,1,0,53.8,33h0A24.3,24.3,0,0,0,29.5,8.7Zm22.7,27h.1a22.9,22.9,0,0,1-45.5.5,1,1,0,0,0,.4.5h.5a.4.4,0,0,0,.1-.3c0-.1,0-.1-.1-.2A5.7,5.7,0,0,1,6.9,35h0l-.2-.2c0-.4-.1-.7-.1-1.2h0a2.4,2.4,0,0,1,.5-1.4.3.3,0,0,0,.1-.2L7,31.7H6.6a23,23,0,0,1,45.9,0l-.4-.5h-.5a.4.4,0,0,0-.1.3v.2a4.6,4.6,0,0,1,.8,1.3.2.2,0,0,0,.2.2V34a2.5,2.5,0,0,1-.4,1.2v.2C52,35.6,52.1,35.6,52.2,35.7Z" style="fill: #f03b46"/>
        </g>
      </g>
    </g>
  </g>
</svg>
