<?xml version="1.0" encoding="utf-8"?>
<svg id="Layer_1" data-name="Layer 1" xmlns="http://www.w3.org/2000/svg" viewBox="0 0 59 66">
  <title>feature6</title>
  <g id="tech_driven" data-name="tech driven">
    <g id="noun_circles_978990" data-name="noun circles 978990">
      <path id="Path_79" data-name="Path 79" d="M47.5,22.4a1.3,1.3,0,0,1-.5,1.9,1.4,1.4,0,0,1-2-.5,17.3,17.3,0,0,0-6.3-6.3,1.5,1.5,0,0,1-.5-2,1.3,1.3,0,0,1,1.9-.5h0A20.2,20.2,0,0,1,47.5,22.4ZM40.1,51a1.3,1.3,0,0,1-1.9-.5,1.4,1.4,0,0,1,.5-2h0A17.3,17.3,0,0,0,45,42.2a1.5,1.5,0,0,1,2-.5,1.3,1.3,0,0,1,.5,1.9A20.2,20.2,0,0,1,40.1,51ZM11.5,43.6a1.3,1.3,0,0,1,.5-1.9,1.4,1.4,0,0,1,2,.5,17.3,17.3,0,0,0,6.3,6.3,1.5,1.5,0,0,1,.5,2,1.3,1.3,0,0,1-1.9.5h0A20.2,20.2,0,0,1,11.5,43.6ZM18.9,15a1.3,1.3,0,0,1,1.9.5,1.4,1.4,0,0,1-.5,2h0A17.3,17.3,0,0,0,14,23.8a1.5,1.5,0,0,1-2,.5,1.3,1.3,0,0,1-.5-1.9h0A20.2,20.2,0,0,1,18.9,15Zm10.6,5a5.8,5.8,0,1,1,5.8-5.7A5.8,5.8,0,0,1,29.5,20Zm0-2.9a2.8,2.8,0,0,0,2.9-2.8,2.9,2.9,0,0,0-5.8,0,2.8,2.8,0,0,0,2.9,2.8Zm0,40.4a5.8,5.8,0,1,1,5.8-5.8,5.8,5.8,0,0,1-5.8,5.8Zm0-2.9a2.9,2.9,0,0,0,2.9-2.9,2.9,2.9,0,0,0-5.8,0,2.9,2.9,0,0,0,2.9,2.9ZM10.8,38.8A5.8,5.8,0,1,1,16.5,33a5.8,5.8,0,0,1-5.7,5.8Zm0-2.9a2.9,2.9,0,0,0,0-5.8,2.9,2.9,0,0,0,0,5.8Zm37.4,2.9A5.8,5.8,0,1,1,54,33h0a5.8,5.8,0,0,1-5.8,5.8Zm0-2.9a2.9,2.9,0,0,0,0-5.8,2.9,2.9,0,0,0,0,5.8Z" style="fill: #f03b46"/>
    </g>
  </g>
</svg>
