<?xml version="1.0" encoding="UTF-8"?>
<svg width="134px" height="134px" viewBox="0 0 134 134" version="1.1" xmlns="http://www.w3.org/2000/svg" xmlns:xlink="http://www.w3.org/1999/xlink">
    <!-- Generator: Sketch 51 (57462) - http://www.bohemiancoding.com/sketch -->
    <title>Feature/SlideMode</title>
    <desc>Created with Sketch.</desc>
    <defs></defs>
    <g id="Feature/SlideMode" stroke="none" stroke-width="1" fill="none" fill-rule="evenodd">
        <polygon id="Fill-1" fill="#C8C8C8" points="27.364 35.187 106.5 35.187 106.5 27.001 27.364 27.001"></polygon>
        <polygon id="Fill-2" fill="#FFFFFF" points="30.093 92.492 103.771 92.492 103.771 35.187 30.093 35.187"></polygon>
        <g id="Group-25" transform="translate(26.000000, 39.026000)">
            <path d="M50.5328,39.3053 L30.0668,39.3053 C29.3118,39.3053 28.7018,38.6963 28.7018,37.9413 C28.7018,37.1863 29.3118,36.5763 30.0668,36.5763 L50.5328,36.5763 C51.2868,36.5763 51.8968,37.1863 51.8968,37.9413 C51.8968,38.6963 51.2868,39.3053 50.5328,39.3053" id="Fill-3" fill="#ACAFAF"></path>
            <path d="M50.5328,44.4723 L30.0668,44.4723 C29.3118,44.4723 28.7018,43.8623 28.7018,43.1083 C28.7018,42.3533 29.3118,41.7433 30.0668,41.7433 L50.5328,41.7433 C51.2868,41.7433 51.8968,42.3533 51.8968,43.1083 C51.8968,43.8623 51.2868,44.4723 50.5328,44.4723" id="Fill-5" fill="#ACAFAF"></path>
            <path d="M63.5328,33.8483 L18.0668,33.8483 C17.3118,33.8483 16.7018,33.2383 16.7018,32.4833 C16.7018,31.7293 17.3118,31.1193 18.0668,31.1193 L63.5328,31.1193 C64.2868,31.1193 64.8968,31.7293 64.8968,32.4833 C64.8968,33.2383 64.2868,33.8483 63.5328,33.8483" id="Fill-7" fill="#ACAFAF"></path>
            <path d="M40.9322,0.9401 C48.2692,0.9401 54.2172,6.8881 54.2172,14.2251 C54.2172,21.5621 48.2692,27.5101 40.9322,27.5101 C33.5952,27.5101 27.6472,21.5621 27.6472,14.2251 C27.6472,6.8881 33.5952,0.9401 40.9322,0.9401" id="Fill-9" fill="#26B99A"></path>
            <path d="M40.3175,0.9547 C40.3115,0.9607 40.3055,0.9657 40.2995,0.9727 L40.2995,14.8107 C40.2995,14.8367 40.3195,14.8577 40.3465,14.8577 L54.1855,14.8577 C54.1915,14.8507 54.1965,14.8467 54.2035,14.8407 C54.5565,7.0167 48.1405,0.6007 40.3175,0.9547" id="Fill-11" fill="#F3D55B"></path>
            <path d="M80.5001,54.8297 L1.3641,54.8297 C0.6101,54.8297 0.0001,54.2207 0.0001,53.4657 C0.0001,52.7107 0.6101,52.1007 1.3641,52.1007 L80.5001,52.1007 C81.2541,52.1007 81.8641,52.7107 81.8641,53.4657 C81.8641,54.2207 81.2541,54.8297 80.5001,54.8297" id="Fill-13" fill="#C8C8C8"></path>
            <path d="M80.5001,54.8297 L1.3641,54.8297 C0.6101,54.8297 0.0001,54.2207 0.0001,53.4657 C0.0001,52.7107 0.6101,52.1007 1.3641,52.1007 L80.5001,52.1007 C81.2541,52.1007 81.8641,52.7107 81.8641,53.4657 C81.8641,54.2207 81.2541,54.8297 80.5001,54.8297 Z" id="Stroke-15" stroke="#C8C8C8" stroke-width="2"></path>
            <path d="M40.7994,61.8883 C39.8684,61.8883 39.1144,61.1353 39.1144,60.2033 L39.1144,55.1503 C39.1144,54.2183 39.8684,53.4653 40.7994,53.4653 C41.7314,53.4653 42.4844,54.2183 42.4844,55.1503 L42.4844,60.2033 C42.4844,61.1353 41.7314,61.8883 40.7994,61.8883" id="Fill-17" fill="#C8C8C8"></path>
            <path d="M40.7994,61.8883 C39.8684,61.8883 39.1144,61.1353 39.1144,60.2033 L39.1144,55.1503 C39.1144,54.2183 39.8684,53.4653 40.7994,53.4653 C41.7314,53.4653 42.4844,54.2183 42.4844,55.1503 L42.4844,60.2033 C42.4844,61.1353 41.7314,61.8883 40.7994,61.8883 Z" id="Stroke-19" stroke="#C8C8C8" stroke-width="2"></path>
            <path d="M40.7994,63.8932 C38.9414,63.8932 37.4304,65.4042 37.4304,67.2622 C37.4304,69.1202 38.9414,70.6302 40.7994,70.6302 C42.6574,70.6302 44.1684,69.1202 44.1684,67.2622 C44.1684,65.4042 42.6574,63.8932 40.7994,63.8932 M40.7994,73.9992 C37.0834,73.9992 34.0614,70.9782 34.0614,67.2622 C34.0614,63.5452 37.0834,60.5242 40.7994,60.5242 C44.5154,60.5242 47.5374,63.5452 47.5374,67.2622 C47.5374,70.9782 44.5154,73.9992 40.7994,73.9992" id="Fill-21" fill="#C8C8C8"></path>
            <path d="M40.7994,63.8932 C38.9414,63.8932 37.4304,65.4042 37.4304,67.2622 C37.4304,69.1202 38.9414,70.6302 40.7994,70.6302 C42.6574,70.6302 44.1684,69.1202 44.1684,67.2622 C44.1684,65.4042 42.6574,63.8932 40.7994,63.8932 Z M40.7994,73.9992 C37.0834,73.9992 34.0614,70.9782 34.0614,67.2622 C34.0614,63.5452 37.0834,60.5242 40.7994,60.5242 C44.5154,60.5242 47.5374,63.5452 47.5374,67.2622 C47.5374,70.9782 44.5154,73.9992 40.7994,73.9992 Z" id="Stroke-23" stroke="#C8C8C8" stroke-width="2"></path>
        </g>
    </g>
</svg>