<svg xmlns="http://www.w3.org/2000/svg" viewBox="0 0 950 950"><defs><style>.a,.c,.d,.k,.l,.m{fill:none;stroke-width:3px;}.a,.k{stroke:#dbd3e9;}.a,.c,.d{stroke-miterlimit:10;}.b{fill:#dbd3e9;opacity:0.5;}.c,.l{stroke:#f9a66d;}.d,.m{stroke:#f58159;}.e{fill:#463e52;}.f{fill:#342c3e;}.g{fill:#ec5e44;}.h{fill:#777088;}.i{fill:#675f76;}.j{fill:#fff;}.k,.l,.m{stroke-linejoin:round;}</style></defs><title>Files</title><polygon class="a" points="475 474.94 73.66 706.65 73.66 243.22 475 11.51 475 474.94"/><polygon class="b" points="475 57.43 105.74 270.62 105.74 688.13 123.82 677.69 123.82 272.2 475 69.45 475 57.43"/><polygon class="a" points="525.17 40.49 525.17 503.92 123.82 735.63 123.82 272.2 525.17 40.49"/><polygon class="b" points="525.17 86.41 155.91 299.6 155.91 717.11 173.99 706.67 173.99 301.18 525.17 98.43 525.17 86.41"/><polygon class="c" points="575.34 69.47 575.34 532.9 173.99 764.61 173.99 301.18 575.34 69.47"/><polygon class="b" points="575.34 115.39 206.07 328.58 206.07 746.09 224.16 735.65 224.16 330.16 575.34 127.41 575.34 115.39"/><polygon class="d" points="625.5 98.45 625.5 561.88 224.16 793.59 224.16 330.16 625.5 98.45"/><polygon class="e" points="713.61 612.76 236.39 888.29 236.39 337.24 713.61 61.71 713.61 612.76"/><polygon class="f" points="348.26 823.7 236.39 888.29 236.39 337.24 348.26 272.65 348.26 823.7"/><path class="g" d="M709.61,68.64V610.45L240.39,881.36V339.55L709.61,68.64m4-6.93L236.39,337.24V888.29L713.61,612.76V61.71h0Z"/><polygon class="g" points="713.61 338.19 348.26 549.13 348.26 441.43 713.61 230.49 713.61 338.19"/><path class="h" d="M466.19,364.56V331.12L365.07,389.5v33.44ZM415.63,552.44V519L365.07,548.2v33.44ZM365.07,759.78v33.44L415.63,764V730.59Zm202.24-453.6V272.74L483,321.39v33.44Zm101.12-91.82L584.16,263v33.44l101.12-58.38V204.63l-16.85,9.73h0ZM398.78,687.43v33.44L483,672.21V638.78ZM499.9,629v33.44l67.41-38.92V590.13Zm84.26-15.21L601,604.1V570.67l-16.85,9.73v33.44h0Zm33.71-52.9v33.44l67.41-38.92V522ZM466.19,629V595.61L365.07,654v33.44ZM617.87,508L483,585.88v33.44l134.82-77.84V508h0ZM415.63,288V254.52l-50.56,29.19v33.44Zm118-68.11V186.41L432.49,244.79v33.44Zm-118,121V307.42l-50.56,29.19V370Zm151.68-87.57V219.85L432.49,297.69v33.44Z"/><path class="i" d="M322,447.83V414.39l-66.43,38.36v33.44Zm0,158.69V573.09l-66.43,38.36v33.44ZM255.53,823v33.44l33.22-19.18V803.85Zm0-52.9v33.44l55.36-32V738.17ZM322,712.32V678.88l-66.43,38.36v33.44ZM333,335.64V302.21L255.53,347v33.44Zm-19,63.88V366.09l-58.48,33.76v33.44Zm-58.48,159V592l44.29-25.57V533ZM333,494.34V460.9l-77.51,44.75v33.44Z"/><path class="j" d="M398.78,509.28l67.41-38.92V436.92l-67.41,38.92v33.44ZM483,460.63l50.56-29.19V398L483,427.19v33.44Zm33.71-105.79-118,68.11v33.44l118-68.11V354.83Zm16.85-9.73v33.44L601,339.62V306.18Z"/><polygon class="k" points="876.34 706.78 475 938.49 475 475.06 876.34 243.35 876.34 706.78"/><polygon class="k" points="826.18 214.37 826.18 677.8 424.83 909.51 424.83 446.08 826.18 214.37"/><polygon class="l" points="776.01 185.39 776.01 648.82 374.66 880.53 374.66 417.1 776.01 185.39"/><polygon class="m" points="725.84 156.41 725.84 619.84 324.5 851.55 324.5 388.12 725.84 156.41"/></svg>
