<svg width="584" height="719" viewBox="0 0 584 719" fill="none" xmlns="http://www.w3.org/2000/svg">
<g clip-path="url(#clip0)">
<path d="M217.711 318.595L214.183 316.627L365.136 113.91L365.882 114.317L217.711 318.595Z" fill="#005654"/>
<path opacity="0.51" d="M430.605 80.5985C430.605 80.5985 439.018 64.7909 428.231 43.1487C422.057 30.8011 409.302 26.934 409.302 26.934C410.863 23.1347 405.028 10.7871 390.306 3.86707C372.666 -4.40988 357.198 3.18863 357.198 3.18863C340.237 -2.78163 314.117 11.3299 312.218 30.1227C304.89 32.4972 291.729 48.3727 292 68.8615C292.611 113.774 340.644 128.021 365.136 113.842C365.136 113.842 369.681 118.727 375.041 119.812C387.592 122.39 393.902 118.727 393.902 118.727C393.902 118.727 415.34 118.727 425.924 100.68C433.726 87.3829 430.605 80.5985 430.605 80.5985Z" fill="url(#paint0_radial)"/>
<path opacity="0.36" d="M345.868 515.071C345.868 515.071 356.384 512.493 363.643 517.988C368.053 521.38 375.244 521.38 378.84 520.702C387.66 519.141 392.409 520.702 392.07 527.079C391.663 534.474 367.578 541.123 352.517 537.595C337.455 534.067 330.264 519.073 345.868 515.071Z" fill="#A2D5C9"/>
<path opacity="0.36" d="M406.724 429.452C406.724 429.452 410.048 428.638 412.355 430.401C413.78 431.487 416.019 431.487 417.172 431.283C419.954 430.809 421.514 431.283 421.378 433.319C421.243 435.693 413.576 437.796 408.759 436.643C403.942 435.49 401.771 430.741 406.724 429.452Z" fill="#A2D5C9"/>
<path opacity="0.36" d="M513.375 486.169C521.041 488.883 525.722 492.818 533.931 493.428C542.14 494.039 555.641 495.667 568.192 506.861C575.18 513.103 564.461 516.292 548.111 519.277C543.701 520.091 532.914 521.041 522.126 518.531C516.495 517.242 508.626 508.965 496.414 507.879C483.048 506.726 475.314 497.703 479.453 490.036C483.523 482.438 496.414 480.267 513.375 486.169Z" fill="#A2D5C9"/>
<path d="M203.803 310.182C203.667 304.619 202.175 308.147 202.175 308.147L365.136 113.842L365.475 114.113C365.475 114.113 204.007 315.813 203.803 310.182Z" fill="#005654"/>
<path d="M493.021 349.939L393.63 118.795H393.901L496.006 349.057L493.021 349.939Z" fill="#005654"/>
<path d="M563.308 417.24C563.308 417.24 563.172 428.502 561.679 432.098L555.98 433.183V415.951L563.308 417.24Z" fill="#A2D5C9"/>
<path d="M520.43 394.376C520.43 394.376 508.219 384.743 504.08 377.823C501.706 373.82 496.549 359.64 495.125 355.977C493.836 352.72 491.258 345.325 492.614 345.393C495.125 345.461 497.974 352.517 498.449 354.552C498.924 356.52 507.811 376.059 510.39 377.89C516.631 382.436 526.74 386.981 526.74 386.981L520.43 394.376Z" fill="#C4EAF0"/>
<path d="M533.049 436.914C533.049 436.914 528.097 464.052 528.232 467.173C528.368 470.294 538.68 498.449 538.68 498.924C538.68 499.399 542.005 498.924 542.005 498.924L538.68 472.6L540.851 446.277L533.049 436.914Z" fill="#399A71"/>
<path d="M538.68 498.924C538.68 498.924 540.919 497.635 542.005 498.924C543.09 500.213 543.633 503.266 541.123 506.997C540.512 507.947 540.173 510.932 537.595 509.982C536.238 509.507 536.577 506.726 537.595 504.894C538.952 502.316 536.713 501.638 538.68 498.924Z" fill="#00474B"/>
<path d="M551.096 491.8L552.86 509.168H556.659L557.541 493.971L556.659 485.966L551.096 491.8Z" fill="#399A71"/>
<path d="M553.267 514.392C553.267 514.392 549.4 514.867 550.078 512.9C550.756 510.932 551.91 507.743 554.352 507.879C556.795 508.015 558.084 512.764 556.93 513.714C556.252 514.256 553.267 514.392 553.267 514.392Z" fill="#00474B"/>
<path d="M552.181 390.848C552.181 390.848 561.001 395.19 561.68 402.653C562.358 410.116 564.8 415.815 564.8 415.815L559.916 420.428C559.916 420.428 560.323 430.469 561.612 432.098C562.969 433.726 585.086 481.216 579.319 490.172C577.962 493.496 576.537 486.848 570.703 487.39C564.868 487.933 563.036 496.006 554.217 493.496C545.397 490.986 526.672 463.713 535.017 407.945C535.017 407.945 521.38 399.261 519.752 396.005C519.752 396.005 523.076 387.049 524.908 386.71C526.74 386.371 538.613 389.966 538.613 389.966C538.613 389.966 545.126 392.137 552.181 390.848Z" fill="#005357"/>
<path d="M539.359 364.525C539.359 364.525 535.967 369.274 536.509 373.955C536.713 375.719 537.256 379.315 538.545 380.401C539.834 381.486 541.191 382.029 541.191 382.843C541.191 383.657 540.58 389.085 540.037 389.424C539.495 389.763 538.613 390.034 538.613 390.034C538.613 390.034 541.462 391.459 544.583 391.73C547.704 392.07 551.096 391.255 552.113 390.848C552.113 390.848 549.264 389.763 548.586 387.795C547.975 386.032 549.196 381.554 549.196 381.554L546.822 370.427L539.359 364.525Z" fill="#C4EAF0"/>
<path d="M546.754 411.202C544.922 400.686 535.763 389.22 535.627 389.152L536.781 389.424C536.849 389.492 545.94 399.193 547.771 409.98L546.754 411.202Z" fill="#00303B"/>
<path d="M559.441 411.202L558.355 410.048C560.187 396.344 552.249 390.916 552.181 390.848C552.249 390.916 554.692 391.798 556.659 394.851C558.423 397.701 560.458 403.739 559.441 411.202Z" fill="#00303B"/>
<path d="M545.329 428.57C544.176 427.756 533.592 421.175 533.795 417.918L533.863 417.172C533.728 419.207 540.851 423.753 545.058 426.67L545.329 428.57Z" fill="#00303B"/>
<path d="M541.937 377.89C541.937 377.89 542.208 375.312 540.919 373.006C539.63 370.699 535.22 366.085 540.919 362.625C547.364 358.69 554.284 365.068 554.284 365.068C554.284 365.068 557.541 361.676 559.848 362.761C562.154 363.847 562.833 368.053 564.461 366.764C566.089 365.475 564.054 358.351 569.549 357.062C575.045 355.773 577.758 362.558 577.148 365.068C577.148 365.068 582.982 362.218 583.864 366.56C585.018 372.056 579.658 383.861 570.16 376.669C570.16 376.669 566.971 379.044 564.054 378.772C561.069 378.569 558.151 374.159 556.455 374.091C550.96 373.955 556.795 380.943 548.789 383.318C546.957 383.928 541.258 382.843 541.937 377.89Z" fill="#00303B"/>
<path d="M547.364 410.116C548.857 408.691 555.573 408.216 558.898 410.116C560.933 411.269 559.712 429.112 557.948 429.587C556.184 430.062 546.686 431.148 545.397 428.57C544.108 425.992 545.804 411.473 547.364 410.116Z" fill="#176E6F"/>
<path d="M554.284 418.461C546.55 418.461 545.94 414.797 545.94 414.594L546.211 413.44C546.211 413.576 547.5 417.511 554.284 417.511C556.388 417.511 557.948 417.036 558.762 416.222C559.373 415.544 559.848 414.458 559.848 414.458L559.916 415.747C559.916 415.815 559.712 416.493 559.237 416.968C558.152 417.918 556.727 418.461 554.284 418.461Z" fill="#00303B"/>
<path d="M554.284 417.986V420.428" stroke="#00303B" stroke-width="0.992827" stroke-miterlimit="10"/>
<path d="M366.018 402.789H363.982L365.203 113.91L365.882 114.317L366.018 402.789Z" fill="#005654"/>
<path d="M374.295 461.474C374.295 461.474 375.855 465.138 375.38 472.193C374.905 479.249 371.784 524.908 371.784 524.908H369.478C369.478 524.908 366.9 476.942 364.525 476.06C362.151 476.942 359.572 524.908 359.572 524.908H357.266C357.266 524.908 354.145 479.317 353.67 472.193C353.195 465.138 354.756 461.474 354.756 461.474H374.295Z" fill="#399A71"/>
<path d="M369.545 524.84C369.545 524.84 366.967 476.874 364.593 475.993C362.218 476.874 359.64 524.84 359.64 524.84C359.64 524.84 356.791 472.804 364.593 473.347C372.395 473.889 369.545 524.84 369.545 524.84Z" fill="#1F715B"/>
<path d="M359.233 524.84H357.537V526.197H359.233V524.84Z" fill="#C4EAF0"/>
<path d="M358.962 526.265H358.012C358.012 526.265 356.926 526.604 356.926 527.69C356.926 528.775 356.248 529.589 358.283 529.589C360.794 529.589 359.912 526.808 358.962 526.265Z" fill="#00303B"/>
<path d="M371.581 524.84H369.885V526.197H371.581V524.84Z" fill="#C4EAF0"/>
<path d="M370.156 526.265H371.106C371.106 526.265 372.191 526.604 372.191 527.69C372.191 528.775 372.87 529.589 370.835 529.589C368.324 529.589 369.206 526.808 370.156 526.265Z" fill="#00303B"/>
<path d="M362.286 404.146C362.286 404.146 362.015 399.329 365 398.718C365 398.718 364.729 401.907 363.982 404.146H362.286Z" fill="#C4EAF0"/>
<path d="M375.516 461.61C375.516 461.61 374.77 453.061 374.973 451.094C375.177 449.194 376.262 443.699 376.262 443.699C379.858 429.655 367.103 404.146 367.103 404.146H365.407C365.407 404.146 368.392 409.573 370.36 420.089C371.309 425.313 373.073 437.864 368.664 437.661C365.814 437.525 364.661 432.03 364.661 432.03C364.661 432.03 363.507 437.525 360.658 437.661C356.248 437.864 358.012 425.313 358.962 420.089C360.929 409.573 363.915 404.146 363.915 404.146H362.218C362.218 404.146 349.532 429.655 353.059 443.699C353.059 443.699 353.399 449.194 353.602 451.094C353.806 452.993 353.806 461.61 353.806 461.61H375.516Z" fill="#005357"/>
<path d="M367.171 404.146C367.171 404.146 367.917 399.329 365 398.718C365 398.718 364.729 401.907 365.475 404.146H367.171Z" fill="#C4EAF0"/>
<path d="M364.525 440.239C367.26 440.239 369.478 437.171 369.478 433.387C369.478 429.602 367.26 426.534 364.525 426.534C361.79 426.534 359.573 429.602 359.573 433.387C359.573 437.171 361.79 440.239 364.525 440.239Z" fill="#00303B"/>
<path d="M411.609 399.397L365.136 113.91L365.882 114.317L412.966 399.397H411.609Z" fill="#005654"/>
<path d="M414.933 415.137C414.933 415.137 415.34 416.154 415.272 418.054C415.136 420.021 414.322 432.505 414.322 432.505H413.712C413.712 432.505 413.033 419.343 412.355 419.072C411.676 419.275 410.998 432.505 410.998 432.505H410.387C410.387 432.505 409.505 419.954 409.438 418.054C409.302 416.086 409.777 415.137 409.777 415.137H414.933Z" fill="#005357"/>
<path d="M413.644 432.573C413.644 432.573 412.966 419.411 412.287 419.139C411.609 419.343 410.93 432.573 410.93 432.573C410.93 432.573 410.184 418.325 412.287 418.461C414.39 418.529 413.644 432.573 413.644 432.573Z" fill="#00303B"/>
<path d="M410.794 432.573H410.32V432.979H410.794V432.573Z" fill="#A2D5C9"/>
<path d="M410.727 432.912H410.455C410.455 432.912 410.184 432.98 410.184 433.319C410.184 433.59 409.98 433.862 410.523 433.862C411.202 433.862 410.998 433.047 410.727 432.912Z" fill="#00303B"/>
<path d="M414.186 432.573H413.712V432.979H414.186V432.573Z" fill="#A2D5C9"/>
<path d="M413.78 432.912H414.051C414.051 432.912 414.322 432.98 414.322 433.319C414.322 433.59 414.526 433.862 413.983 433.862C413.305 433.862 413.508 433.047 413.78 432.912Z" fill="#00303B"/>
<path d="M411.608 399.397C411.608 399.397 411.541 398.04 412.355 397.904C412.355 397.904 412.287 398.786 412.083 399.397H411.608Z" fill="#C4EAF0"/>
<path d="M415.272 415.137C415.272 415.137 415.069 412.762 415.137 412.287C415.204 411.744 415.476 410.252 415.476 410.252C416.426 406.385 412.965 399.397 412.965 399.397H412.491C412.491 399.397 413.305 400.889 413.847 403.807C414.119 405.231 414.594 408.691 413.373 408.624C412.558 408.624 412.287 407.063 412.287 407.063C412.287 407.063 411.948 408.556 411.202 408.624C409.98 408.691 410.455 405.231 410.727 403.807C411.269 400.889 412.084 399.397 412.084 399.397H411.609C411.609 399.397 408.149 406.385 409.098 410.252C409.098 410.252 409.166 411.744 409.234 412.287C409.302 412.83 409.302 415.137 409.302 415.137H415.272Z" fill="#399A71"/>
<path d="M412.965 399.397C412.965 399.397 413.169 398.04 412.355 397.904C412.355 397.904 412.287 398.786 412.491 399.397H412.965Z" fill="#C4EAF0"/>
<path d="M412.558 409.302C413.383 409.302 414.051 408.452 414.051 407.402C414.051 406.353 413.383 405.503 412.558 405.503C411.734 405.503 411.066 406.353 411.066 407.402C411.066 408.452 411.734 409.302 412.558 409.302Z" fill="#00303B"/>
<path d="M412.016 407.063C412.016 407.063 412.966 406.588 413.576 407.063C413.576 407.063 414.458 406.113 415.544 406.792C416.358 407.335 415.544 409.031 415.204 408.488C414.594 407.402 412.966 408.284 412.898 407.47C412.898 406.656 412.016 407.063 412.016 407.063Z" fill="#00303B"/>
<path d="M409.573 415.137C409.573 415.137 408.691 418.122 408.216 421.921C407.809 425.72 417.443 423.617 417.443 423.617L414.865 415.137H409.573Z" fill="#00303B"/>
<path opacity="0.36" d="M317.713 456.114C317.713 456.114 321.716 455.165 324.497 457.268C326.193 458.557 328.907 458.557 330.332 458.285C333.724 457.675 335.556 458.285 335.42 460.728C335.284 463.577 326.058 466.087 320.291 464.73C314.456 463.441 311.743 457.675 317.713 456.114Z" fill="#A2D5C9"/>
<path d="M325.176 420.157L323.819 420.021L365.136 113.91L365.475 114.113L325.176 420.157Z" fill="#005654"/>
<path d="M326.872 438.95C326.872 438.95 328.093 440.171 327.889 442.478C327.686 444.784 326.736 459.846 326.736 459.846H325.99C325.99 459.846 325.108 444.038 324.361 443.767C323.547 444.038 322.733 459.846 322.733 459.846H321.987C321.987 459.846 320.969 444.784 320.834 442.478C320.698 440.171 321.851 438.95 321.851 438.95H326.872Z" fill="#C4EAF0"/>
<path d="M325.99 459.846C325.99 459.846 325.108 444.038 324.362 443.767C323.547 444.038 322.733 459.846 322.733 459.846C322.733 459.846 321.784 442.681 324.362 442.885C326.872 443.02 325.99 459.846 325.99 459.846Z" fill="#8EC6B5"/>
<path d="M322.598 459.846H322.055V460.999H322.598V459.846Z" fill="white"/>
<path d="M322.53 460.321H322.258C322.258 460.321 321.919 460.456 321.919 460.796C321.919 461.135 321.716 461.406 322.326 461.406C323.073 461.406 322.801 460.524 322.53 460.321Z" fill="#00303B"/>
<path d="M326.668 459.846H326.126V460.999H326.668V459.846Z" fill="white"/>
<path d="M326.194 460.321H326.465C326.465 460.321 326.804 460.456 326.804 460.796C326.804 461.135 327.008 461.406 326.397 461.406C325.583 461.406 325.854 460.524 326.194 460.321Z" fill="#00303B"/>
<path d="M323.615 420.089C323.615 420.089 323.548 418.461 324.497 418.257C324.497 418.257 324.43 419.343 324.158 420.089H323.615Z" fill="#C4EAF0"/>
<path d="M327.279 439.018L328.229 433.115C329.382 428.502 325.243 420.089 325.243 420.089H324.701C324.701 420.089 325.718 421.853 326.329 425.381C326.668 427.145 327.211 431.216 325.786 431.148C324.836 431.08 324.497 429.316 324.497 429.316C324.497 429.316 324.09 431.148 323.208 431.148C321.783 431.216 322.326 427.077 322.665 425.381C323.276 421.921 324.294 420.089 324.294 420.089H323.751C323.751 420.089 319.545 428.502 320.766 433.115L321.716 439.018H327.279Z" fill="#005357"/>
<path d="M325.176 420.089C325.176 420.089 325.447 418.461 324.429 418.257C324.429 418.257 324.362 419.343 324.565 420.089H325.176Z" fill="#C4EAF0"/>
<path d="M324.701 431.962C325.712 431.962 326.533 430.96 326.533 429.723C326.533 428.487 325.712 427.484 324.701 427.484C323.689 427.484 322.869 428.487 322.869 429.723C322.869 430.96 323.689 431.962 324.701 431.962Z" fill="#00303B"/>
<path d="M324.022 429.248C324.022 429.248 325.108 428.638 325.922 429.248C325.922 429.248 327.008 428.095 328.297 428.909C329.314 429.52 328.229 431.623 327.89 430.944C327.211 429.655 325.176 430.673 325.108 429.723C325.176 428.773 324.022 429.248 324.022 429.248Z" fill="#00303B"/>
<path d="M321.512 438.95C321.512 438.95 320.02 442.546 319.545 447.091C319.07 451.637 330.603 449.126 330.603 449.126L327.279 438.95H321.512Z" fill="#399A71"/>
<path opacity="0.36" d="M75.7137 655.779C92.4033 660.935 102.648 668.262 120.491 669.619C138.334 670.976 167.574 674.3 194.983 695.06C210.316 706.662 187.181 712.293 151.767 717.313C142.269 718.67 118.93 720.163 95.5241 715.346C83.38 712.835 66.012 697.435 39.5529 695.264C10.5157 692.822 -6.44524 676.064 2.30662 662.156C11.0585 648.248 38.8745 644.381 75.7137 655.779Z" fill="#A2D5C9"/>
<path d="M174.087 685.223C173.341 690.176 172.934 693.093 172.934 693.093H165.675C165.675 693.093 165.743 690.176 165.81 685.223H174.087Z" fill="white"/>
<path d="M96.9489 685.698C95.0492 689.633 93.6924 692.211 93.1496 693.093H85.7546C85.7546 693.093 87.1794 690.176 89.3504 685.223L96.9489 685.698Z" fill="white"/>
<path d="M93.1497 693.093C93.1497 693.093 94.0995 696.621 97.5596 698.724C101.087 700.759 106.108 701.099 106.108 703.134C106.108 705.169 102.309 705.169 89.3504 704.355C81.1413 704.355 81.0056 697.842 85.7547 693.161H93.1497V693.093Z" fill="#00474B"/>
<path d="M172.866 693.093C172.866 693.093 175.376 697.774 179.176 698.995C182.975 700.217 187.724 701.37 187.385 703.134C187.113 704.898 177.887 704.83 172.256 704.084C168.592 703.609 166.557 705.101 164.725 703.066C163.232 701.37 162.961 693.161 167.914 693.161C172.866 693.093 172.866 693.093 172.866 693.093Z" fill="#00474B"/>
<path d="M365.136 113.91C364.797 112.689 355.57 80.802 367.985 58.3457C374.227 47.0158 395.326 30.4619 409.506 26.3912L409.37 27.0018C395.937 30.8689 376.262 48.3048 370.36 58.9563C358.419 80.4628 365.068 113.571 365.136 113.91Z" fill="url(#paint1_linear)"/>
<path d="M365.136 113.91C358.758 84.6691 347.632 60.1097 337.591 49.7974C326.736 38.671 312.353 30.1905 312.217 30.1227V29.9191C312.624 30.0548 328.161 37.7212 339.491 49.2546C349.871 59.9061 361.608 82.0911 365.136 113.91Z" fill="url(#paint2_linear)"/>
<path d="M128.157 530.946C128.157 530.946 131.821 585.764 130.667 598.383C128.971 617.651 96.6096 687.937 93.1496 693.093H85.7546C85.7546 693.093 120.287 622.332 106.108 588.478C89.8252 549.603 79.5129 512.493 86.7722 497.431C94.0315 482.302 142.404 483.93 142.404 483.93L128.157 530.946Z" fill="#2B7D5A"/>
<path d="M93.1497 693.093C96.6097 687.937 128.971 617.651 130.667 598.383C131.821 585.764 128.157 530.946 128.157 530.946L142.404 483.998C142.404 483.998 132.228 482.845 116.013 486.373C116.013 486.373 123.137 596.415 122.73 602.454C122.323 608.424 93.1497 693.093 93.1497 693.093Z" fill="#1F715B"/>
<path d="M127.546 389.085C130.939 386.506 173.002 380.468 183.857 359.437C189.759 348.039 197.765 320.359 198.85 315.949C199.868 311.539 203.531 301.091 205.635 299.802C207.738 298.513 207.738 308.893 205.635 315.406C203.531 321.919 200.275 345.936 200.275 345.936L192.337 362.558L148.646 398.922L126.461 401.907L127.546 389.085Z" fill="#00474B"/>
<path d="M203.599 324.429C204.278 320.63 205.024 317.306 205.567 315.406C207.67 308.893 207.67 298.513 205.567 299.802C203.464 301.091 199.868 311.539 198.783 315.949C198.579 316.967 197.968 319.07 197.154 321.919L203.599 324.429Z" fill="#A2D5C9"/>
<path d="M142.404 483.998C142.404 483.998 179.379 538.273 182.5 552.656C189.556 585.289 172.866 693.161 172.866 693.161H165.607C165.607 693.161 168.049 573.62 153.87 562.019C113.638 529.182 99.2554 504.623 95.7275 495.26C92.1996 485.898 142.404 483.998 142.404 483.998Z" fill="#399A71"/>
<path d="M116.013 486.373C116.013 486.373 158.28 551.367 161.197 557.473C170.288 576.741 165.946 687.123 165.878 693.093H165.675C165.675 693.093 168.117 573.552 153.938 561.951C113.706 529.182 97.0166 514.324 95.7954 495.26C95.3883 490.511 104.547 488.069 116.013 486.373Z" fill="#2C8166"/>
<path d="M125.172 384.607C125.172 384.607 129.311 393.494 131.414 393.766C133.517 394.037 140.03 390.374 146.611 387.795C175.58 376.398 189.488 362.558 198.851 348.243C202.582 342.544 206.653 333.385 207.67 331.349C208.688 329.246 207.399 325.108 209.231 322.258C209.231 322.258 216.015 310.318 217.033 310.318C218.05 310.318 219.407 314.253 219.407 315.27C219.407 316.288 220.696 324.497 215.744 330.128C212.08 334.267 212.08 334.267 212.08 334.267C212.08 334.267 208.756 345.936 205.567 353.534C194.509 379.79 173.816 392.205 162.147 398.311C143.897 407.877 129.175 408.013 127.275 418.936C126.054 426.127 147.357 481.759 146.611 486.237L81.752 514.528C71.5754 483.795 94.9137 403.196 102.987 393.087C104.208 391.527 114.453 387.592 114.453 387.592V379.79" fill="#005E61"/>
<path d="M209.027 343.968C210.791 338.677 212.08 334.131 212.08 334.131C212.08 334.131 212.08 334.131 215.744 329.993C220.696 324.361 219.407 316.22 219.407 315.135C219.407 314.049 218.118 310.182 217.033 310.182C215.947 310.182 209.23 322.123 209.23 322.123C207.399 324.972 208.688 329.178 207.67 331.214C207.127 332.367 205.635 335.556 203.803 339.151L209.027 343.968Z" fill="#A2D5C9"/>
<path d="M139.555 342.883C138.876 342.611 136.637 342.34 131.21 345.054C128.971 346.207 127.071 347.564 126.257 348.039C123.34 346.75 113.367 343.019 107.6 347.496C102.851 351.228 99.3233 365.678 102.783 371.852C105.972 377.483 113.706 381.757 113.978 381.893L115.47 382.707L128.768 354.009C133.381 348.921 139.555 342.883 139.555 342.883Z" fill="#00303B"/>
<path d="M139.758 364.796C137.926 363.372 136.57 362.354 136.57 362.354C136.57 362.354 134.399 357.605 132.567 355.502C130.057 352.652 127.479 353.195 127.479 353.195C121.983 356.994 118.116 360.59 116.284 365.814C115.063 365.068 112.349 363.575 110.585 364.932C108.414 366.56 113.774 372.666 114.453 373.48C114.249 375.109 114.181 376.466 114.181 377.551L114.453 387.456C114.453 387.456 116.284 389.899 120.287 389.899C124.493 389.899 127.546 389.085 127.546 389.085C126.257 386.846 125.24 384.607 125.24 384.607L125.104 384.335C128.157 384.539 131.481 383.996 134.534 382.3C139.894 379.247 141.59 366.221 139.758 364.796Z" fill="#C4EAF0"/>
<path d="M380.197 96.1348C370.563 96.1348 361.676 94.1673 353.534 90.3002C320.291 74.3569 312.285 30.5297 312.217 30.1227V29.9191C312.285 30.3262 322.055 73 354.416 88.4684C374.905 98.2379 400.821 96.2026 430.605 80.5985C412.016 90.368 395.462 96.1348 380.197 96.1348Z" fill="url(#paint3_linear)"/>
<path d="M365.882 114.317L365.204 113.842C367.103 96.5418 366.086 76.7992 365.475 63.0948C363.982 25.8485 356.791 3.25648 356.723 2.98511L357.266 3.18864C357.402 3.66355 372.938 49.3903 365.882 114.317Z" fill="url(#paint4_linear)"/>
<path d="M393.63 118.795C393.494 118.659 350.413 68.1152 356.655 3.05295L357.198 3.25648C352.72 63.0948 393.698 118.727 393.834 118.795H393.63Z" fill="url(#paint5_linear)"/>
</g>
<defs>
<radialGradient id="paint0_radial" cx="0" cy="0" r="1" gradientUnits="userSpaceOnUse" gradientTransform="translate(362.862 60.3637) scale(64.0177 68.5866)">
<stop stop-color="#328472"/>
<stop offset="1" stop-color="#DFF1EE"/>
</radialGradient>
<linearGradient id="paint1_linear" x1="354.957" y1="107.405" x2="401.662" y2="21.7397" gradientUnits="userSpaceOnUse">
<stop stop-color="#00303B"/>
<stop offset="0.5128" stop-color="#227777"/>
<stop offset="0.6011" stop-color="#1F7373"/>
<stop offset="0.7136" stop-color="#196769"/>
<stop offset="0.839" stop-color="#005459"/>
<stop offset="0.9731" stop-color="#003942"/>
<stop offset="1" stop-color="#00303B"/>
</linearGradient>
<linearGradient id="paint2_linear" x1="312.217" y1="71.9106" x2="365.135" y2="71.9106" gradientUnits="userSpaceOnUse">
<stop stop-color="#00303B"/>
<stop offset="0.5128" stop-color="#227777"/>
<stop offset="0.6449" stop-color="#217575"/>
<stop offset="0.7402" stop-color="#1D6E6F"/>
<stop offset="0.8239" stop-color="#146164"/>
<stop offset="0.901" stop-color="#005257"/>
<stop offset="0.9729" stop-color="#003D46"/>
<stop offset="1" stop-color="#00303B"/>
</linearGradient>
<linearGradient id="paint3_linear" x1="423.016" y1="98.4478" x2="303.837" y2="47.7909" gradientUnits="userSpaceOnUse">
<stop stop-color="#00303B"/>
<stop offset="0.2678" stop-color="#004C52"/>
<stop offset="0.666" stop-color="#1B6B6C"/>
<stop offset="0.8694" stop-color="#227777"/>
<stop offset="0.8747" stop-color="#1E7071"/>
<stop offset="0.8955" stop-color="#0B595D"/>
<stop offset="0.9175" stop-color="#004A51"/>
<stop offset="0.9409" stop-color="#003D46"/>
<stop offset="0.9669" stop-color="#00333E"/>
<stop offset="1" stop-color="#00303B"/>
</linearGradient>
<linearGradient id="paint4_linear" x1="362.221" y1="112.995" x2="362.221" y2="1.66311" gradientUnits="userSpaceOnUse">
<stop stop-color="#00303B"/>
<stop offset="0.0842312" stop-color="#004950"/>
<stop offset="0.191" stop-color="#0D5B5F"/>
<stop offset="0.2983" stop-color="#1C6B6C"/>
<stop offset="0.4056" stop-color="#207474"/>
<stop offset="0.5128" stop-color="#227777"/>
<stop offset="0.6011" stop-color="#1F7373"/>
<stop offset="0.7136" stop-color="#196769"/>
<stop offset="0.839" stop-color="#005459"/>
<stop offset="0.9731" stop-color="#003942"/>
<stop offset="1" stop-color="#00303B"/>
</linearGradient>
<linearGradient id="paint5_linear" x1="388.942" y1="121.234" x2="351.402" y2="4.99513" gradientUnits="userSpaceOnUse">
<stop stop-color="#00303B"/>
<stop offset="0.626" stop-color="#227777"/>
<stop offset="0.6938" stop-color="#1F7373"/>
<stop offset="0.7801" stop-color="#196769"/>
<stop offset="0.8764" stop-color="#005459"/>
<stop offset="0.9793" stop-color="#003942"/>
<stop offset="1" stop-color="#00303B"/>
</linearGradient>
<clipPath id="clip0">
<rect width="584" height="718.67" fill="white"/>
</clipPath>
</defs>
</svg>