<svg width="236" height="154" viewBox="0 0 236 154" fill="none" xmlns="http://www.w3.org/2000/svg">
<path fill-rule="evenodd" clip-rule="evenodd" d="M29.183 54.5054H206.929C209.39 54.5054 211.608 55.9905 212.543 58.2628L235.464 114.026C237.102 118.012 234.166 122.384 229.85 122.384H6.07459C1.75111 122.384 -1.18621 117.998 0.467508 114.01L23.5759 58.2475C24.5142 55.9822 26.7278 54.5054 29.183 54.5054Z" fill="#007272"/>
<path opacity="0.83" fill-rule="evenodd" clip-rule="evenodd" d="M29.2295 54.4753H206.975C209.436 54.4753 211.653 55.9593 212.588 58.2328L235.51 113.996C237.148 117.982 234.213 122.354 229.896 122.354H6.12103C1.79756 122.354 -1.13976 117.968 0.513955 113.98L23.6224 58.2175C24.5606 55.9522 26.7742 54.4753 29.2295 54.4753Z" fill="#00343E"/>
<path fill-rule="evenodd" clip-rule="evenodd" d="M172.753 5.07007H60.788C58.1395 5.07007 56.0178 7.00821 56.1109 9.3441L58.2397 62.5789C58.3269 64.7701 60.3413 66.5187 62.8248 66.5611L98.9048 67.173L97.6601 75.3316L135.881 76.4613L131.555 67.7273L169.251 68.3674C171.771 68.4098 173.876 66.6847 174.013 64.4641L177.425 9.42412C177.571 7.05881 175.437 5.07007 172.753 5.07007Z" fill="#00343E"/>
<path opacity="0.6" fill-rule="evenodd" clip-rule="evenodd" d="M172.753 5.07007H60.788C58.1395 5.07007 56.0178 7.00821 56.1109 9.3441L58.2397 62.5789C58.3269 64.7701 60.3413 66.5187 62.8248 66.5611L98.9048 67.173L97.6601 75.3316L135.881 76.4613L131.555 67.7273L169.251 68.3674C171.771 68.4098 173.876 66.6847 174.013 64.4641L177.425 9.42412C177.571 7.05881 175.437 5.07007 172.753 5.07007Z" fill="#008484"/>
<path fill-rule="evenodd" clip-rule="evenodd" d="M64.5115 82.2896H183.66C185.156 82.2896 186.371 83.4875 186.371 84.9632V105.559C186.371 107.064 185.113 108.273 183.589 108.233L61.9384 105.069C60.32 105.028 59.0989 103.603 59.3264 102.022L61.8276 84.589C62.0162 83.2698 63.1607 82.2896 64.5115 82.2896Z" fill="#00343E"/>
<path fill-rule="evenodd" clip-rule="evenodd" d="M64.5115 81.7361H183.66C185.156 81.7361 186.371 82.934 186.371 84.4109V105.007C186.371 106.512 185.113 107.72 183.589 107.68L61.9384 104.517C60.32 104.475 59.0989 103.051 59.3264 101.468L61.8276 84.0367C62.0162 82.7163 63.1607 81.7361 64.5115 81.7361Z" fill="#008484"/>
<path d="M75.873 14.5522H86.7112" stroke="#28B482" stroke-width="1.1787" stroke-linecap="round" stroke-linejoin="round"/>
<path d="M105.339 14.5522H113.296" stroke="#A5E1D2" stroke-width="1.1787" stroke-linecap="round" stroke-linejoin="round"/>
<path d="M94.342 14.5522H102.298" stroke="#A5E1D2" stroke-width="1.1787" stroke-linecap="round" stroke-linejoin="round"/>
<path d="M150.476 14.5522H158.432" stroke="#A5E1D2" stroke-width="1.1787" stroke-linecap="round" stroke-linejoin="round"/>
<path d="M62.5161 14.5522H70.4723" stroke="#A5E1D2" stroke-width="1.1787" stroke-linecap="round" stroke-linejoin="round"/>
<path d="M120.059 14.5522H132.73" stroke="#008484" stroke-width="1.1787" stroke-linecap="round" stroke-linejoin="round"/>
<path d="M138.265 14.5522H146.221" stroke="#28B482" stroke-width="1.1787" stroke-linecap="round" stroke-linejoin="round"/>
<path d="M135.198 14.5522H134.904" stroke="#A5E1D2" stroke-width="1.1787" stroke-linecap="round" stroke-linejoin="round"/>
<path d="M70.1298 24.722L78.0861 24.6843" stroke="#A5E1D2" stroke-width="1.1787" stroke-linecap="round" stroke-linejoin="round"/>
<path d="M90.7688 38.0362L95.8089 38.0127" stroke="#A5E1D2" stroke-width="1.1787" stroke-linecap="round" stroke-linejoin="round"/>
<path d="M82.4424 24.6644L90.3987 24.6279" stroke="#28B482" stroke-width="1.1787" stroke-linecap="round" stroke-linejoin="round"/>
<path d="M93.5201 24.6128L93.2254 24.614" stroke="#A5E1D2" stroke-width="1.1787" stroke-linecap="round" stroke-linejoin="round"/>
<path d="M80.5555 24.6731L80.2609 24.6743" stroke="#A5E1D2" stroke-width="1.1787" stroke-linecap="round" stroke-linejoin="round"/>
<path d="M70.153 29.387L78.1092 29.3494" stroke="#008484" stroke-width="1.1787" stroke-linecap="round" stroke-linejoin="round"/>
<path d="M92.0674 29.2855L100.024 29.2478" stroke="#008484" stroke-width="1.1787" stroke-linecap="round" stroke-linejoin="round"/>
<path d="M81.2845 29.3353L86.4414 29.3105" stroke="#FFFF7A" stroke-width="1.1787" stroke-linecap="round" stroke-linejoin="round"/>
<path d="M70.1724 33.5438L78.1286 33.5073" stroke="#A5E1D2" stroke-width="1.1787" stroke-linecap="round" stroke-linejoin="round"/>
<path d="M82.4838 33.4869L90.44 33.4492" stroke="#28B482" stroke-width="1.1787" stroke-linecap="round" stroke-linejoin="round"/>
<path d="M80.5955 33.4956L80.3008 33.4968" stroke="#A5E1D2" stroke-width="1.1787" stroke-linecap="round" stroke-linejoin="round"/>
<path d="M92.5312 33.4346L92.2366 33.4357" stroke="#A5E1D2" stroke-width="1.1787" stroke-linecap="round" stroke-linejoin="round"/>
<path d="M70.1943 38.2095L78.1506 38.1719" stroke="#008484" stroke-width="1.1787" stroke-linecap="round" stroke-linejoin="round"/>
<path d="M80.1498 38.1627L85.3067 38.1379" stroke="#008484" stroke-width="1.1787" stroke-linecap="round" stroke-linejoin="round"/>
<path d="M88.8276 29.3003L88.533 29.3015" stroke="#A5E1D2" stroke-width="1.1787" stroke-linecap="round" stroke-linejoin="round"/>
<path d="M87.689 38.1228L87.3943 38.124" stroke="#A5E1D2" stroke-width="1.1787" stroke-linecap="round" stroke-linejoin="round"/>
<path d="M116.339 14.5522H116.045" stroke="#A5E1D2" stroke-width="1.1787" stroke-linecap="round" stroke-linejoin="round"/>
<path d="M90.5717 14.5522H90.277" stroke="#008484" stroke-width="1.1787" stroke-linecap="round" stroke-linejoin="round"/>
<path d="M73.2025 14.5522H72.9078" stroke="#008484" stroke-width="1.1787" stroke-linecap="round" stroke-linejoin="round"/>
<path d="M79.4089 56.0935H90.247" stroke="#FFFF7A" stroke-width="1.1787" stroke-linecap="round" stroke-linejoin="round"/>
<path d="M95.5206 56.0935H103.477" stroke="#008484" stroke-width="1.1787" stroke-linecap="round" stroke-linejoin="round"/>
<path d="M66.0518 56.0935H74.008" stroke="#008484" stroke-width="1.1787" stroke-linecap="round" stroke-linejoin="round"/>
<path d="M92.9276 56.0935H92.6329" stroke="#A5E1D2" stroke-width="1.1787" stroke-linecap="round" stroke-linejoin="round"/>
<path d="M76.7383 56.0935H76.4436" stroke="#008484" stroke-width="1.1787" stroke-linecap="round" stroke-linejoin="round"/>
<path d="M71.0631 44.7156C71.0631 44.7156 72.2725 44.7921 71.7432 46.2171L72.4681 46.9044L71.775 47.8293C71.775 47.8293 72.4127 49.205 71.0867 49.525" stroke="#A5E1D2" stroke-width="0.58935" stroke-linecap="round" stroke-linejoin="round"/>
<path d="M165.413 17.0078C165.413 17.0078 164.205 16.9254 164.74 15.5027L164.017 14.8119L164.715 13.8905C164.715 13.8905 164.085 12.5125 165.413 12.1995" stroke="#A5E1D2" stroke-width="0.58935" stroke-linecap="round" stroke-linejoin="round"/>
<path fill-rule="evenodd" clip-rule="evenodd" d="M27.9975 62.477C27.9975 62.477 32.0216 59.1691 29.1762 56.2989C28.212 55.3257 26.5241 54.5337 26.3768 51.5918C26.2294 48.6499 25.4916 43.3803 30.9442 40.2654C34.208 38.4002 42.3352 36.062 39.4898 27.9093C38.2734 24.426 35.4586 23.9071 33.4301 17.1654C32.8561 15.2578 33.4525 10.3766 32.9692 6.4332C32.559 3.08646 30.9973 -2.54439 20.4833 1.28483C16.3236 2.79933 6.9671 6.73799 19.4519 18.9364C21.7527 21.1852 26.6396 26.1441 26.6396 29.9686C26.6396 33.1294 27.9998 35.5171 22.3986 39.677C19.8998 41.5328 15.1791 44.3841 17.3892 51.5918C17.3892 51.5918 18.7282 56.4272 22.454 57.0462C23.7082 57.2544 29.0088 58.3571 26.6396 62.477H27.9975Z" fill="#A5E1D2"/>
<path fill-rule="evenodd" clip-rule="evenodd" d="M68.2077 87.457H67.2305C66.5787 87.457 66.0518 86.9298 66.0518 86.2802V85.3047C66.0518 84.6551 66.5787 84.1279 67.2305 84.1279H68.2077C68.8583 84.1279 69.3864 84.6551 69.3864 85.3047V86.2802C69.3864 86.9298 68.8583 87.457 68.2077 87.457Z" fill="#14555A"/>
<path fill-rule="evenodd" clip-rule="evenodd" d="M172.483 87.457H171.506C170.854 87.457 170.327 86.9298 170.327 86.2802V85.3047C170.327 84.6551 170.854 84.1279 171.506 84.1279H172.483C173.134 84.1279 173.662 84.6551 173.662 85.3047V86.2802C173.662 86.9298 173.134 87.457 172.483 87.457Z" fill="#14555A"/>
<path fill-rule="evenodd" clip-rule="evenodd" d="M167.952 87.457H166.975C166.324 87.457 165.796 86.9298 165.796 86.2802V85.3047C165.796 84.6551 166.324 84.1279 166.975 84.1279H167.952C168.603 84.1279 169.131 84.6551 169.131 85.3047V86.2802C169.131 86.9298 168.603 87.457 167.952 87.457Z" fill="#14555A"/>
<path fill-rule="evenodd" clip-rule="evenodd" d="M67.6099 93.0242H66.6328C65.981 93.0242 65.4541 92.497 65.4541 91.8474V90.8718C65.4541 90.2223 65.981 89.6951 66.6328 89.6951H67.6099C68.2606 89.6951 68.7886 90.2223 68.7886 90.8718V91.8474C68.7886 92.497 68.2606 93.0242 67.6099 93.0242Z" fill="#14555A"/>
<path fill-rule="evenodd" clip-rule="evenodd" d="M66.9826 98.5911H66.0055C65.3548 98.5911 64.8268 98.0639 64.8268 97.4143V96.4387C64.8268 95.7892 65.3548 95.262 66.0055 95.262H66.9826C67.6344 95.262 68.1613 95.7892 68.1613 96.4387V97.4143C68.1613 98.0639 67.6344 98.5911 66.9826 98.5911Z" fill="#14555A"/>
<path fill-rule="evenodd" clip-rule="evenodd" d="M72.8653 87.457H71.8881C71.2375 87.457 70.7094 86.9298 70.7094 86.2802V85.3047C70.7094 84.6551 71.2375 84.1279 71.8881 84.1279H72.8653C73.5171 84.1279 74.044 84.6551 74.044 85.3047V86.2802C74.044 86.9298 73.5171 87.457 72.8653 87.457Z" fill="#14555A"/>
<path fill-rule="evenodd" clip-rule="evenodd" d="M72.2663 93.0242H71.2891C70.6385 93.0242 70.1104 92.497 70.1104 91.8474V90.8718C70.1104 90.2223 70.6385 89.6951 71.2891 89.6951H72.2663C72.9181 89.6951 73.445 90.2223 73.445 90.8718V91.8474C73.445 92.497 72.9181 93.0242 72.2663 93.0242Z" fill="#14555A"/>
<path fill-rule="evenodd" clip-rule="evenodd" d="M71.6389 98.5911H70.6618C70.01 98.5911 69.4831 98.0639 69.4831 97.4143V96.4387C69.4831 95.7892 70.01 95.262 70.6618 95.262H71.6389C72.2896 95.262 72.8176 95.7892 72.8176 96.4387V97.4143C72.8176 98.0639 72.2896 98.5911 71.6389 98.5911Z" fill="#14555A"/>
<path fill-rule="evenodd" clip-rule="evenodd" d="M76.9742 87.457H75.9971C75.3452 87.457 74.8184 86.9298 74.8184 86.2802V85.3047C74.8184 84.6551 75.3452 84.1279 75.9971 84.1279H76.9742C77.6248 84.1279 78.1529 84.6551 78.1529 85.3047V86.2802C78.1529 86.9298 77.6248 87.457 76.9742 87.457Z" fill="#14555A"/>
<path fill-rule="evenodd" clip-rule="evenodd" d="M76.3765 93.0242H75.3993C74.7475 93.0242 74.2206 92.497 74.2206 91.8474V90.8718C74.2206 90.2223 74.7475 89.6951 75.3993 89.6951H76.3765C77.0271 89.6951 77.5552 90.2223 77.5552 90.8718V91.8474C77.5552 92.497 77.0271 93.0242 76.3765 93.0242Z" fill="#14555A"/>
<path fill-rule="evenodd" clip-rule="evenodd" d="M75.7478 98.5911H74.7707C74.12 98.5911 73.592 98.0639 73.592 97.4143V96.4387C73.592 95.7892 74.12 95.262 74.7707 95.262H75.7478C76.3996 95.262 76.9265 95.7892 76.9265 96.4387V97.4143C76.9265 98.0639 76.3996 98.5911 75.7478 98.5911Z" fill="#14555A"/>
<path fill-rule="evenodd" clip-rule="evenodd" d="M81.6977 87.457H80.7205C80.0687 87.457 79.5418 86.9298 79.5418 86.2802V85.3047C79.5418 84.6551 80.0687 84.1279 80.7205 84.1279H81.6977C82.3483 84.1279 82.8764 84.6551 82.8764 85.3047V86.2802C82.8764 86.9298 82.3483 87.457 81.6977 87.457Z" fill="#14555A"/>
<path fill-rule="evenodd" clip-rule="evenodd" d="M81.1026 93.0242H80.1254C79.4736 93.0242 78.9467 92.497 78.9467 91.8474V90.8718C78.9467 90.2223 79.4736 89.6951 80.1254 89.6951H81.1026C81.7532 89.6951 82.2813 90.2223 82.2813 90.8718V91.8474C82.2813 92.497 81.7532 93.0242 81.1026 93.0242Z" fill="#14555A"/>
<path fill-rule="evenodd" clip-rule="evenodd" d="M80.4713 98.5911H79.4941C78.8435 98.5911 78.3154 98.0639 78.3154 97.4143V96.4387C78.3154 95.7892 78.8435 95.262 79.4941 95.262H80.4713C81.1231 95.262 81.65 95.7892 81.65 96.4387V97.4143C81.65 98.0639 81.1231 98.5911 80.4713 98.5911Z" fill="#14555A"/>
<path fill-rule="evenodd" clip-rule="evenodd" d="M86.416 87.457H85.4401C84.7882 87.457 84.2614 86.9298 84.2614 86.2802V85.3047C84.2614 84.6551 84.7882 84.1279 85.4401 84.1279H86.416C87.0678 84.1279 87.5947 84.6551 87.5947 85.3047V86.2802C87.5947 86.9298 87.0678 87.457 86.416 87.457Z" fill="#14555A"/>
<path fill-rule="evenodd" clip-rule="evenodd" d="M85.8195 93.0242H84.8424C84.1906 93.0242 83.6637 92.497 83.6637 91.8474V90.8718C83.6637 90.2223 84.1906 89.6951 84.8424 89.6951H85.8195C86.4702 89.6951 86.9982 90.2223 86.9982 90.8718V91.8474C86.9982 92.497 86.4702 93.0242 85.8195 93.0242Z" fill="#14555A"/>
<path fill-rule="evenodd" clip-rule="evenodd" d="M85.1909 98.5911H84.2137C83.5631 98.5911 83.035 98.0639 83.035 97.4143V96.4387C83.035 95.7892 83.5631 95.262 84.2137 95.262H85.1909C85.8427 95.262 86.3696 95.7892 86.3696 96.4387V97.4143C86.3696 98.0639 85.8427 98.5911 85.1909 98.5911Z" fill="#14555A"/>
<path fill-rule="evenodd" clip-rule="evenodd" d="M91.3485 87.457H90.3713C89.7195 87.457 89.1926 86.9298 89.1926 86.2802V85.3047C89.1926 84.6551 89.7195 84.1279 90.3713 84.1279H91.3485C91.9991 84.1279 92.5272 84.6551 92.5272 85.3047V86.2802C92.5272 86.9298 91.9991 87.457 91.3485 87.457Z" fill="#14555A"/>
<path fill-rule="evenodd" clip-rule="evenodd" d="M90.7521 93.0242H89.775C89.1231 93.0242 88.5963 92.497 88.5963 91.8474V90.8718C88.5963 90.2223 89.1231 89.6951 89.775 89.6951H90.7521C91.4027 89.6951 91.9308 90.2223 91.9308 90.8718V91.8474C91.9308 92.497 91.4027 93.0242 90.7521 93.0242Z" fill="#14555A"/>
<path fill-rule="evenodd" clip-rule="evenodd" d="M90.1234 98.5911H89.1462C88.4956 98.5911 87.9675 98.0639 87.9675 97.4143V96.4387C87.9675 95.7892 88.4956 95.262 89.1462 95.262H90.1234C90.7752 95.262 91.3021 95.7892 91.3021 96.4387V97.4143C91.3021 98.0639 90.7752 98.5911 90.1234 98.5911Z" fill="#14555A"/>
<path fill-rule="evenodd" clip-rule="evenodd" d="M38.9881 84.6165C38.9881 86.6134 35.703 88.2315 31.6518 88.2315C27.6006 88.2315 24.3168 86.6134 24.3168 84.6165C24.3168 82.6195 27.6006 81.0002 31.6518 81.0002C35.703 81.0002 38.9881 82.6195 38.9881 84.6165Z" fill="#00343E"/>
<path fill-rule="evenodd" clip-rule="evenodd" d="M51.683 76.3792C51.683 78.3761 48.3991 79.9942 44.3468 79.9942C40.2967 79.9942 37.0129 78.3761 37.0129 76.3792C37.0129 74.3822 40.2967 72.7629 44.3468 72.7629C48.3991 72.7629 51.683 74.3822 51.683 76.3792Z" fill="#00343E"/>
<path fill-rule="evenodd" clip-rule="evenodd" d="M49.8089 63.6165L48.4864 75.2971C48.4157 75.9196 48.0303 76.4609 47.4621 76.7257C45.9404 77.4318 42.6542 78.4379 38.4981 76.6786C37.8958 76.4233 37.4797 75.8572 37.4102 75.2077L36.1996 63.6165H49.8089Z" fill="#14555A"/>
<path fill-rule="evenodd" clip-rule="evenodd" d="M34.32 62.1088C34.32 64.4046 38.2085 66.2663 43.0047 66.2663C47.8008 66.2663 51.6882 64.4046 51.6882 62.1088C51.6882 59.8129 47.8008 57.9524 43.0047 57.9524C38.2085 57.9524 34.32 59.8129 34.32 62.1088Z" fill="#A5E1D2"/>
<path opacity="0.33" fill-rule="evenodd" clip-rule="evenodd" d="M49.3093 60.8963L49.0041 59.6042H47.9255C46.7374 58.9429 44.9787 58.5239 43.0139 58.5239C41.0501 58.5239 39.2915 58.9429 38.1034 59.6042H37.1041L36.5753 61.4273L36.7184 62.352C37.4032 63.7135 39.961 64.7243 43.0139 64.7243C46.5912 64.7243 49.3234 63.4664 49.3234 61.7542C49.3234 61.5035 49.36 61.3305 49.3093 60.8963Z" fill="#F4FBF9"/>
<path fill-rule="evenodd" clip-rule="evenodd" d="M49.2696 59.0473L48.4664 58.6162C47.2087 57.9148 45.344 57.4712 43.2613 57.4712C41.1797 57.4712 39.3161 57.9148 38.0561 58.6162L37.1052 59.0473L36.5391 61.2675L36.5886 61.5287C37.3147 62.9714 40.0269 64.1235 43.2613 64.0435C47.9489 63.927 49.8019 61.9017 49.8195 61.6723C49.8396 61.4075 49.2448 59.8204 49.2696 59.0473Z" fill="#14555A"/>
<path fill-rule="evenodd" clip-rule="evenodd" d="M49.3318 59.5337C49.3318 61.16 46.5783 62.478 43.1813 62.478C39.7843 62.478 37.0297 61.16 37.0297 59.5337C37.0297 57.9086 39.7843 56.5906 43.1813 56.5906C46.5783 56.5906 49.3318 57.9086 49.3318 59.5337Z" fill="#A5E1D2"/>
<path fill-rule="evenodd" clip-rule="evenodd" d="M47.7432 58.6042C47.7432 58.6042 46.838 57.4651 46.3971 58.3924C46.3971 58.3924 45.5556 59.9257 47.3637 59.801C47.3637 59.801 48.7121 59.8857 47.7432 58.6042Z" fill="#14555A"/>
<path fill-rule="evenodd" clip-rule="evenodd" d="M23.7449 71.751L25.0674 83.4316C25.1382 84.0541 25.5248 84.5954 26.0917 84.859C27.6134 85.5663 30.8996 86.5724 35.0557 84.8131C35.6581 84.5566 36.0753 83.9918 36.1437 83.341L37.3542 71.751H23.7449Z" fill="#14555A"/>
<path fill-rule="evenodd" clip-rule="evenodd" d="M39.2349 69.1693C39.2349 71.4652 35.3463 73.3268 30.5502 73.3268C25.7541 73.3268 21.8667 71.4652 21.8667 69.1693C21.8667 66.8734 25.7541 65.0129 30.5502 65.0129C35.3463 65.0129 39.2349 66.8734 39.2349 69.1693Z" fill="#A5E1D2"/>
<path opacity="0.33" fill-rule="evenodd" clip-rule="evenodd" d="M36.843 67.9598L36.5378 66.6677H35.4592C34.2711 66.0063 32.5124 65.5874 30.5475 65.5874C28.5838 65.5874 26.8252 66.0063 25.6371 66.6677H24.6378L24.1089 68.4908L24.2521 69.4154C24.9369 70.777 27.4947 71.7878 30.5475 71.7878C34.1249 71.7878 36.8571 70.5298 36.8571 68.8176C36.8571 68.567 36.8937 68.394 36.843 67.9598Z" fill="#F4FBF9"/>
<path fill-rule="evenodd" clip-rule="evenodd" d="M36.802 66.111L35.9988 65.6799C34.7411 64.9786 32.8764 64.5349 30.7937 64.5349C28.7121 64.5349 26.8486 64.9786 25.5885 65.6799L24.6376 66.111L24.0715 68.3312L24.121 68.5924C24.8471 70.0351 27.5593 71.1872 30.7937 71.1072C35.4814 70.9907 37.3343 68.9655 37.352 68.736C37.372 68.4712 36.7772 66.8841 36.802 66.111Z" fill="#14555A"/>
<path fill-rule="evenodd" clip-rule="evenodd" d="M36.8642 66.5972C36.8642 68.2235 34.1107 69.5414 30.7137 69.5414C27.3167 69.5414 24.5621 68.2235 24.5621 66.5972C24.5621 64.972 27.3167 63.6541 30.7137 63.6541C34.1107 63.6541 36.8642 64.972 36.8642 66.5972Z" fill="#A5E1D2"/>
<path fill-rule="evenodd" clip-rule="evenodd" d="M25.8109 65.6647C25.8109 65.6647 26.7161 64.5256 27.1569 65.4529C27.1569 65.4529 27.9985 66.9863 26.1904 66.8615C26.1904 66.8615 24.842 66.9463 25.8109 65.6647Z" fill="#14555A"/>
<path fill-rule="evenodd" clip-rule="evenodd" d="M84.8284 75.7442C83.869 74.4839 81.2534 74.4792 81.4526 77.2446C81.4526 77.2446 81.5139 76.5009 79.9474 76.4821C78.1535 76.4609 77.7327 78.9133 77.7327 78.9133C77.7327 78.9133 75.835 78.6297 75.5639 80.3007C75.5639 80.3007 72.4674 78.8227 73.0355 82.1918L74.3321 90.3609L81.1686 90.0114L81.2087 90.3609L85.3306 90.0126C85.3306 90.0126 85.5604 86.7235 85.9282 84.9372C86.2948 83.152 84.2615 82.7307 84.2615 82.646V79.4958C84.6988 80.0242 87.9673 83.6133 88.1335 81.0009C88.2314 79.4522 85.7525 76.9575 84.8284 75.7442Z" fill="#A5E1D2"/>
<path fill-rule="evenodd" clip-rule="evenodd" d="M172.96 84.9085C173.92 83.6482 176.535 83.6435 176.337 86.4089C176.337 86.4089 176.615 85.0062 178.181 85.0603C179.605 85.1086 179.469 86.8443 179.469 86.8443C179.469 86.8443 182.613 84.8638 183.791 88.5907C183.791 88.5907 186.501 87.987 185.933 91.3561L183.458 99.5252H178.181H176.58L172.458 99.1769C172.458 99.1769 170.656 96.1291 170.307 94.3392C169.773 91.5914 173.528 91.895 173.528 91.8103V88.6601C173.091 89.1885 169.821 92.7776 169.656 90.1652C169.559 88.6165 172.037 86.1218 172.96 84.9085Z" fill="#A5E1D2"/>
<path fill-rule="evenodd" clip-rule="evenodd" d="M98.2097 67.1738H118.697L118.402 72.76L97.9398 69.6533L98.0872 67.7928" fill="#00343E"/>
<path fill-rule="evenodd" clip-rule="evenodd" d="M143.169 49.0523C144.104 44.2134 140.836 44.9406 140.836 44.9406L139.419 36.7997C133.691 23.1209 119.465 26.4088 113.622 29.6661C108.225 32.6752 107.574 44.1028 107.574 44.1028C104.308 44.8312 105.672 49.8607 105.672 49.8607C106.542 54.8785 109.831 53.8194 109.831 53.8194C110.564 58.4641 109.796 59.7044 113.716 64.1338C114.026 64.4845 113.895 64.4045 114.198 64.7163C114.35 77.1854 111.006 76.81 109.345 80.1591C109.345 80.1591 106.225 111.205 110.56 111.394C186.183 114.7 147.485 81.2358 137.495 76.6241C133.092 74.5918 134.317 67.8536 134.405 64.3491C134.94 63.7431 136.409 61.692 137.422 60.121C138.601 58.2911 138.964 54.8185 138.964 54.8185L139.938 53.9665C142.615 52.2802 143.169 49.0523 143.169 49.0523Z" fill="#A5E1D2"/>
<path fill-rule="evenodd" clip-rule="evenodd" d="M123.4 25.6867C114.781 25.9879 107.141 31.7659 107.573 44.102C107.573 44.102 108.467 52.5559 109.297 55.2519C110.282 58.448 114.617 61.7629 119.846 62.5043C119.846 62.5043 126.012 62.8362 129.08 62.2136C134.943 61.0216 137.325 57.7796 138.783 56.0368C141.124 53.2372 141.424 48.4607 140.76 38.5558C140.418 33.4604 136.385 25.2336 123.4 25.6867Z" fill="#00343E"/>
<path opacity="0.66" fill-rule="evenodd" clip-rule="evenodd" d="M123.4 25.6867C114.781 25.9879 107.141 31.7659 107.573 44.102C107.573 44.102 108.467 52.5559 109.297 55.2519C110.282 58.448 114.617 61.7629 119.846 62.5043C119.846 62.5043 126.012 62.8362 129.08 62.2136C134.943 61.0216 137.325 57.7796 138.783 56.0368C141.124 53.2372 141.424 48.4607 140.76 38.5558C140.418 33.4604 136.385 25.2336 123.4 25.6867Z" fill="#14555A"/>
<path fill-rule="evenodd" clip-rule="evenodd" d="M139.372 30.7441C139.609 34.8028 137.597 40.9714 131.49 40.9443C126.366 40.922 124.083 39.997 121.706 36.6962C119.139 33.1329 119.848 26.0193 128.554 24.1542C133.564 23.0809 139.141 26.7642 139.372 30.7441Z" fill="#FFFF7A"/>
<path fill-rule="evenodd" clip-rule="evenodd" d="M179.725 123.367L183.459 99.5247L170.308 99.1082L179.725 123.367Z" fill="#28B482"/>
<path opacity="0.11" fill-rule="evenodd" clip-rule="evenodd" d="M179.725 123.367L183.459 99.5247L170.308 99.1082L179.725 123.367Z" fill="#00343E"/>
<path fill-rule="evenodd" clip-rule="evenodd" d="M179.018 113.862C179.018 113.862 169.474 95.0405 166.299 89.306C161.142 79.9943 153.96 73.9468 147.554 72.2546C134.827 68.8914 117.946 67.8994 109.914 68.4442C98.7132 69.2044 89.5311 82.5773 85.3314 91.3595L85.5212 87.5126L74.0088 87.5574L71.6514 100.964L70.5823 108.043C68.7895 128.729 87.9929 119.784 87.9929 119.784L95.7653 142.301L98.3254 153.071L100.803 153.985L156.104 152.808L159.823 119.799C159.823 119.799 165.798 130.758 172.486 128.729C183.003 125.536 180.061 119.072 179.018 113.862Z" fill="#28B482"/>
<path fill-rule="evenodd" clip-rule="evenodd" d="M83.0346 117.814C76.593 123.233 73.592 119.72 73.592 119.72C79.983 124.58 87.9922 119.784 87.9922 119.784L95.3567 142.433L96.9869 147.445L101.402 125.04L160.599 121.148C160.599 121.148 166.592 132.426 175.068 127.763C179.002 125.599 164.174 119.337 161.319 114.675C159.423 111.577 156.239 110.327 146.22 110.446C146.22 110.446 114.456 109.469 103.603 110.446C87.3946 111.905 87.6033 113.969 83.0346 117.814Z" fill="#28B482"/>
<path opacity="0.33" fill-rule="evenodd" clip-rule="evenodd" d="M83.0346 117.814C76.593 123.233 73.592 119.72 73.592 119.72C79.983 124.58 87.9922 119.784 87.9922 119.784L95.3567 142.433L96.9869 147.445L101.402 125.04L160.599 121.148C160.599 121.148 166.592 132.426 175.068 127.763C179.002 125.599 164.174 119.337 161.319 114.675C159.423 111.577 156.239 110.327 146.22 110.446C146.22 110.446 114.456 109.469 103.603 110.446C87.3946 111.905 87.6033 113.969 83.0346 117.814Z" fill="#00343E"/>
<path fill-rule="evenodd" clip-rule="evenodd" d="M104.04 113.754C116.143 113.665 141.283 113.823 153.255 113.92C157.626 113.956 161.141 117.303 161.141 121.421C161.141 121.421 160.586 138.161 161.141 143.703C161.517 147.445 160.815 150.691 163.499 154H96.0228C96.0228 154 97.6376 151.352 96.9611 143.112C96.2055 133.891 96.1407 121.434 96.1407 121.434C96.0346 117.243 99.5908 113.787 104.04 113.754Z" fill="#00343E"/>
<path fill-rule="evenodd" clip-rule="evenodd" d="M125.359 68.7553L125.922 62.4087L121.37 62.6556C121.37 62.6556 121.137 66.3072 120.266 67.1247C119.091 68.2271 113.757 68.6026 113.757 68.6026" fill="#14555A"/>
<path fill-rule="evenodd" clip-rule="evenodd" d="M123.36 43.1677L124.313 62.5927C124.313 62.5927 116.339 63.886 110.976 58.0292C110.431 57.4326 120.388 55.9004 123.36 43.1677Z" fill="#00343E"/>
<path fill-rule="evenodd" clip-rule="evenodd" d="M139.289 55.2212C139.289 55.2212 141.922 52.5959 141.035 44.0254C141.035 44.0254 141.4 35.5374 139.435 33.7722L138.463 36.7436L139.289 55.2212Z" fill="#00343E"/>
<path fill-rule="evenodd" clip-rule="evenodd" d="M142.14 81.3776C139.457 72.8354 138.447 35.2246 138.351 33.5866C138.057 28.5264 135.009 24.589 129.941 24.8831C124.874 25.1773 122.304 29.442 122.599 34.5009C122.653 35.44 124.827 64.2415 124.966 67.4941C125.45 78.897 125.089 90.5105 123.448 97.3805C122.485 101.404 119.828 109.105 117.484 112.515C108.421 125.695 121.624 133.233 121.624 133.233C122.75 130.191 127.314 129.362 129.529 129.055C145.665 126.815 148.081 121.866 149.826 116.284C152.744 106.947 145.099 90.7941 142.14 81.3776Z" fill="#00343E"/>
<path opacity="0.66" fill-rule="evenodd" clip-rule="evenodd" d="M142.14 81.4191C139.457 72.8769 138.447 35.2649 138.351 33.6281C138.057 28.5679 135.009 24.6305 129.941 24.9247C124.874 25.2188 122.304 29.4835 122.599 34.5424C122.653 35.4815 124.827 64.283 124.966 67.5356C125.45 78.9385 125.089 90.552 123.448 97.422C122.485 101.445 119.828 109.146 117.484 112.556C108.421 125.736 121.624 133.275 121.624 133.275C122.75 130.233 127.314 129.403 129.529 129.096C145.665 126.857 148.081 121.907 149.826 116.326C152.744 106.988 145.099 90.8356 142.14 81.4191Z" fill="#14555A"/>
<path fill-rule="evenodd" clip-rule="evenodd" d="M202.647 57.9257C202.647 59.5779 198.954 60.917 194.399 60.917C189.844 60.917 186.15 59.5779 186.15 57.9257C186.15 56.2735 189.844 54.9343 194.399 54.9343C198.954 54.9343 202.647 56.2735 202.647 57.9257Z" fill="#00343E"/>
<path fill-rule="evenodd" clip-rule="evenodd" d="M192.817 59.1657C194.969 59.1657 197.943 58.5667 197.999 57.4405C198.092 57.1875 198.285 56.7439 198.596 56.332C198.878 56.1096 199.044 55.8484 199.044 55.54V41.3517C199.044 40.9787 199.042 40.6009 198.897 40.3785C198.878 40.2008 198.765 40.0514 198.603 39.9902C198.331 39.6042 198.146 39.2723 198.039 39.0582C198.033 38.6463 197.877 37.6802 192.856 37.6802C188.168 37.6802 187.723 38.5227 187.68 38.9687C187.558 39.2265 187.283 39.7478 186.798 40.3562C186.798 40.3573 186.798 40.3573 186.796 40.3573C186.636 40.575 186.631 40.9657 186.631 41.3517V54.3503C186.631 54.7387 186.63 55.1964 186.629 55.3706V55.5389C186.629 55.8484 186.796 56.1108 187.079 56.332C187.357 56.7027 187.738 57.5688 187.836 57.8136C188.241 58.5184 190.646 59.1657 192.817 59.1657Z" fill="#14555A"/>
<path fill-rule="evenodd" clip-rule="evenodd" d="M197.716 38.4914C197.716 38.9398 195.53 39.3034 192.835 39.3034C190.14 39.3034 187.955 38.9398 187.955 38.4914C187.955 38.0431 190.14 37.6794 192.835 37.6794C195.53 37.6794 197.716 38.0431 197.716 38.4914Z" fill="#A5E1D2"/>
<path fill-rule="evenodd" clip-rule="evenodd" d="M197.202 41.4927C197.202 41.4927 195.576 42.1717 192.836 41.7574L193.053 56.706C193.053 56.706 195.614 57.2344 197.202 56.1776V41.4927Z" fill="#A5E1D2"/>
<path opacity="0.3" fill-rule="evenodd" clip-rule="evenodd" d="M188.022 58.0921C189.412 58.9241 193.165 59.8667 196.923 58.471C196.841 58.5098 198.273 58.0109 198.273 56.8376C198.273 56.8376 192.507 58.7228 187.398 56.8376C187.398 56.8376 187.793 57.9544 188.022 58.0921Z" fill="#007272"/>
</svg>