<?xml version="1.0" encoding="UTF-8" standalone="no"?>
<svg width="1253px" height="365px" viewBox="0 0 1253 365" version="1.1" xmlns="http://www.w3.org/2000/svg" xmlns:xlink="http://www.w3.org/1999/xlink">
    <!-- Generator: Sketch 39.1 (31720) - http://www.bohemiancoding.com/sketch -->
    <title>Group 11</title>
    <desc>Created with Sketch.</desc>
    <defs>
        <path d="M246.571429,258 L205.428571,258 C203.542857,258 202,259.542857 202,261.428571 L202,288.857143 C202,290.742857 203.542857,292.285714 205.428571,292.285714 L212.285714,292.285714 L212.285714,304.285714 L224.285714,292.285714 L246.571429,292.285714 C248.457143,292.285714 250,290.742857 250,288.857143 L250,261.428571 C250,259.542857 248.457143,258 246.571429,258 Z M246.571429,288.857143 L222.571429,288.857143 L215.714286,295.714286 L215.714286,288.857143 L205.428571,288.857143 L205.428571,261.428571 L246.571429,261.428571 L246.571429,288.857143 Z" id="path-1"></path>
        <mask id="mask-2" maskContentUnits="userSpaceOnUse" maskUnits="objectBoundingBox" x="-1" y="-1" width="50" height="48.2857143">
            <rect x="201" y="257" width="50" height="48.2857143" fill="white"></rect>
            <use xlink:href="#path-1" fill="black"></use>
        </mask>
        <circle id="path-3" cx="334" cy="223" r="3"></circle>
        <mask id="mask-4" maskContentUnits="userSpaceOnUse" maskUnits="objectBoundingBox" x="-7" y="-7" width="20" height="20">
            <rect x="324" y="213" width="20" height="20" fill="white"></rect>
            <use xlink:href="#path-3" fill="black"></use>
        </mask>
        <circle id="path-5" cx="348" cy="284" r="3"></circle>
        <mask id="mask-6" maskContentUnits="userSpaceOnUse" maskUnits="objectBoundingBox" x="-7" y="-7" width="20" height="20">
            <rect x="338" y="274" width="20" height="20" fill="white"></rect>
            <use xlink:href="#path-5" fill="black"></use>
        </mask>
        <circle id="path-7" cx="297" cy="176" r="3"></circle>
        <mask id="mask-8" maskContentUnits="userSpaceOnUse" maskUnits="objectBoundingBox" x="-7" y="-7" width="20" height="20">
            <rect x="287" y="166" width="20" height="20" fill="white"></rect>
            <use xlink:href="#path-7" fill="black"></use>
        </mask>
        <circle id="path-9" cx="337" cy="82" r="3"></circle>
        <mask id="mask-10" maskContentUnits="userSpaceOnUse" maskUnits="objectBoundingBox" x="-7" y="-7" width="20" height="20">
            <rect x="327" y="72" width="20" height="20" fill="white"></rect>
            <use xlink:href="#path-9" fill="black"></use>
        </mask>
        <circle id="path-11" cx="315" cy="130" r="3"></circle>
        <mask id="mask-12" maskContentUnits="userSpaceOnUse" maskUnits="objectBoundingBox" x="-7" y="-7" width="20" height="20">
            <rect x="305" y="120" width="20" height="20" fill="white"></rect>
            <use xlink:href="#path-11" fill="black"></use>
        </mask>
        <circle id="path-13" cx="223.5" cy="17.5" r="3"></circle>
        <mask id="mask-14" maskContentUnits="userSpaceOnUse" maskUnits="objectBoundingBox" x="-7" y="-7" width="20" height="20">
            <rect x="213.5" y="7.5" width="20" height="20" fill="white"></rect>
            <use xlink:href="#path-13" fill="black"></use>
        </mask>
        <circle id="path-15" cx="284.5" cy="3.5" r="3"></circle>
        <mask id="mask-16" maskContentUnits="userSpaceOnUse" maskUnits="objectBoundingBox" x="-7" y="-7" width="20" height="20">
            <rect x="274.5" y="-6.5" width="20" height="20" fill="white"></rect>
            <use xlink:href="#path-15" fill="black"></use>
        </mask>
        <circle id="path-17" cx="176.5" cy="54.5" r="3"></circle>
        <mask id="mask-18" maskContentUnits="userSpaceOnUse" maskUnits="objectBoundingBox" x="-7" y="-7" width="20" height="20">
            <rect x="166.5" y="44.5" width="20" height="20" fill="white"></rect>
            <use xlink:href="#path-17" fill="black"></use>
        </mask>
        <circle id="path-19" cx="82.5" cy="14.5" r="3"></circle>
        <mask id="mask-20" maskContentUnits="userSpaceOnUse" maskUnits="objectBoundingBox" x="-7" y="-7" width="20" height="20">
            <rect x="72.5" y="4.5" width="20" height="20" fill="white"></rect>
            <use xlink:href="#path-19" fill="black"></use>
        </mask>
        <circle id="path-21" cx="130.5" cy="36.5" r="3"></circle>
        <mask id="mask-22" maskContentUnits="userSpaceOnUse" maskUnits="objectBoundingBox" x="-7" y="-7" width="20" height="20">
            <rect x="120.5" y="26.5" width="20" height="20" fill="white"></rect>
            <use xlink:href="#path-21" fill="black"></use>
        </mask>
        <circle id="path-23" cx="128.5" cy="333.5" r="3"></circle>
        <mask id="mask-24" maskContentUnits="userSpaceOnUse" maskUnits="objectBoundingBox" x="-7" y="-7" width="20" height="20">
            <rect x="118.5" y="323.5" width="20" height="20" fill="white"></rect>
            <use xlink:href="#path-23" fill="black"></use>
        </mask>
        <circle id="path-25" cx="67.5" cy="347.5" r="3"></circle>
        <mask id="mask-26" maskContentUnits="userSpaceOnUse" maskUnits="objectBoundingBox" x="-7" y="-7" width="20" height="20">
            <rect x="57.5" y="337.5" width="20" height="20" fill="white"></rect>
            <use xlink:href="#path-25" fill="black"></use>
        </mask>
        <circle id="path-27" cx="175.5" cy="296.5" r="3"></circle>
        <mask id="mask-28" maskContentUnits="userSpaceOnUse" maskUnits="objectBoundingBox" x="-7" y="-7" width="20" height="20">
            <rect x="165.5" y="286.5" width="20" height="20" fill="white"></rect>
            <use xlink:href="#path-27" fill="black"></use>
        </mask>
        <circle id="path-29" cx="269.5" cy="336.5" r="3"></circle>
        <mask id="mask-30" maskContentUnits="userSpaceOnUse" maskUnits="objectBoundingBox" x="-7" y="-7" width="20" height="20">
            <rect x="259.5" y="326.5" width="20" height="20" fill="white"></rect>
            <use xlink:href="#path-29" fill="black"></use>
        </mask>
        <circle id="path-31" cx="221.5" cy="314.5" r="3"></circle>
        <mask id="mask-32" maskContentUnits="userSpaceOnUse" maskUnits="objectBoundingBox" x="-7" y="-7" width="20" height="20">
            <rect x="211.5" y="304.5" width="20" height="20" fill="white"></rect>
            <use xlink:href="#path-31" fill="black"></use>
        </mask>
        <circle id="path-33" cx="17" cy="129" r="3"></circle>
        <mask id="mask-34" maskContentUnits="userSpaceOnUse" maskUnits="objectBoundingBox" x="-7" y="-7" width="20" height="20">
            <rect x="7" y="119" width="20" height="20" fill="white"></rect>
            <use xlink:href="#path-33" fill="black"></use>
        </mask>
        <circle id="path-35" cx="3" cy="68" r="3"></circle>
        <mask id="mask-36" maskContentUnits="userSpaceOnUse" maskUnits="objectBoundingBox" x="-7" y="-7" width="20" height="20">
            <rect x="-7" y="58" width="20" height="20" fill="white"></rect>
            <use xlink:href="#path-35" fill="black"></use>
        </mask>
        <circle id="path-37" cx="54" cy="176" r="3"></circle>
        <mask id="mask-38" maskContentUnits="userSpaceOnUse" maskUnits="objectBoundingBox" x="-7" y="-7" width="20" height="20">
            <rect x="44" y="166" width="20" height="20" fill="white"></rect>
            <use xlink:href="#path-37" fill="black"></use>
        </mask>
        <circle id="path-39" cx="14" cy="270" r="3"></circle>
        <mask id="mask-40" maskContentUnits="userSpaceOnUse" maskUnits="objectBoundingBox" x="-7" y="-7" width="20" height="20">
            <rect x="4" y="260" width="20" height="20" fill="white"></rect>
            <use xlink:href="#path-39" fill="black"></use>
        </mask>
        <circle id="path-41" cx="36" cy="222" r="3"></circle>
        <mask id="mask-42" maskContentUnits="userSpaceOnUse" maskUnits="objectBoundingBox" x="-7" y="-7" width="20" height="20">
            <rect x="26" y="212" width="20" height="20" fill="white"></rect>
            <use xlink:href="#path-41" fill="black"></use>
        </mask>
        <rect id="path-43" x="0" y="0" width="138" height="138" rx="20"></rect>
        <rect id="path-45" x="133" y="131" width="89" height="89" rx="10"></rect>
        <filter x="-50%" y="-50%" width="200%" height="200%" filterUnits="objectBoundingBox" id="filter-46">
            <feOffset dx="0" dy="0" in="SourceAlpha" result="shadowOffsetOuter1"></feOffset>
            <feGaussianBlur stdDeviation="3" in="shadowOffsetOuter1" result="shadowBlurOuter1"></feGaussianBlur>
            <feColorMatrix values="0 0 0 0 0   0 0 0 0 0   0 0 0 0 0  0 0 0 0.39 0" type="matrix" in="shadowBlurOuter1"></feColorMatrix>
        </filter>
    </defs>
    <g id="New" stroke="none" stroke-width="1" fill="none" fill-rule="evenodd">
        <g id="Page-Template-Copy-8" transform="translate(-22.000000, -156.000000)">
            <g id="Group-4" transform="translate(0.000000, 74.000000)">
                <g id="Group-11" transform="translate(22.000000, 89.000000)">
                    <g id="Group-10" transform="translate(0.000000, 10.000000)">
                        <g id="Shape">
                            <use fill="#E5E5E5" fill-rule="evenodd" xlink:href="#path-1"></use>
                            <use stroke="#DDDFE0" mask="url(#mask-2)" stroke-width="2" xlink:href="#path-1"></use>
                        </g>
                        <path d="M310.571429,55.4285714 C310.571429,51.7021429 307.583571,48.7142857 303.857143,48.7142857 C300.130714,48.7142857 297.142857,51.7021429 297.142857,55.4285714 C297.142857,57.8792857 298.519286,60.0614286 300.5,61.2028571 L300.5,62.21 C300.432857,63.9557143 299.727857,65.5 298.385,66.8428571 C297.042143,68.1857143 295.497857,68.8907143 293.752143,68.9578571 C290.965714,69.025 288.783571,69.495 287.037857,70.4685714 L287.037857,54.4885714 C289.018571,53.3471429 290.395,51.1985714 290.395,48.7142857 C290.395,44.9878571 287.407143,42 283.680714,42 C279.954286,42 277,44.9878571 277,48.7142857 C277,51.165 278.376429,53.3471429 280.357143,54.4885714 L280.357143,76.5114286 C278.376429,77.6864286 277,79.835 277,82.2857143 C277,86.0121429 279.987857,89 283.714286,89 C287.440714,89 290.428571,86.0121429 290.428571,82.2857143 C290.428571,80.5064286 289.757143,78.9285714 288.649286,77.72 C288.951429,77.5185714 290.260714,76.3435714 290.63,76.1421429 C291.469286,75.7728571 292.51,75.5714286 293.785714,75.5714286 C297.310714,75.4035714 300.332143,74.0607143 303.017857,71.375 C305.703571,68.6892857 307.046429,64.7278571 307.214286,61.2364286 L307.147143,61.2364286 C309.195,60.0278571 310.571429,57.8792857 310.571429,55.4285714 L310.571429,55.4285714 Z M283.714286,44.6857143 C285.93,44.6857143 287.742857,46.5321429 287.742857,48.7142857 C287.742857,50.8964286 285.896429,52.7428571 283.714286,52.7428571 C281.532143,52.7428571 279.685714,50.8964286 279.685714,48.7142857 C279.685714,46.5321429 281.532143,44.6857143 283.714286,44.6857143 L283.714286,44.6857143 Z M283.714286,86.3478571 C281.498571,86.3478571 279.685714,84.5014286 279.685714,82.3192857 C279.685714,80.1371429 281.532143,78.2907143 283.714286,78.2907143 C285.896429,78.2907143 287.742857,80.1371429 287.742857,82.3192857 C287.742857,84.5014286 285.896429,86.3478571 283.714286,86.3478571 L283.714286,86.3478571 Z M303.857143,59.4907143 C301.641429,59.4907143 299.828571,57.6442857 299.828571,55.4621429 C299.828571,53.28 301.675,51.4335714 303.857143,51.4335714 C306.039286,51.4335714 307.885714,53.28 307.885714,55.4621429 C307.885714,57.6442857 306.039286,59.4907143 303.857143,59.4907143 L303.857143,59.4907143 Z" id="Shape" fill="#E5E5E5"></path>
                        <path d="M135.769231,56.0769231 L128.692308,56.0769231 L128.692308,49 L135.769231,49 L135.769231,56.0769231 L135.769231,56.0769231 Z M149.923077,73.7692308 L114.538462,73.7692308 C112.592308,73.7692308 111,72.1769231 111,70.2307692 L111,63.1538462 C111,61.2076923 112.592308,59.6153846 114.538462,59.6153846 L149.923077,59.6153846 L157,66.6923077 L149.923077,73.7692308 L149.923077,73.7692308 Z M135.769231,63.1538462 L128.692308,63.1538462 L128.692308,70.2307692 L135.769231,70.2307692 L135.769231,63.1538462 L135.769231,63.1538462 Z M128.692308,105.615385 L135.769231,105.615385 L135.769231,77.3076923 L128.692308,77.3076923 L128.692308,105.615385 L128.692308,105.615385 Z" id="Shape" fill="#E5E5E5"></path>
                        <path d="M120.714286,200 C116.591429,200 113.285714,203.305714 113.285714,207.428571 C113.285714,210.14 114.808571,212.554286 117,213.817143 L117,218.571429 L109.571429,226 L102.142857,218.571429 L102.142857,213.817143 C104.334286,212.554286 105.857143,210.177143 105.857143,207.428571 C105.857143,203.305714 102.551429,200 98.4285714,200 C94.3057143,200 91,203.305714 91,207.428571 C91,210.14 92.5228571,212.554286 94.7142857,213.817143 L94.7142857,220.428571 L105.857143,231.571429 L105.857143,238.182857 C103.665714,239.445714 102.142857,241.822857 102.142857,244.571429 C102.142857,248.694286 105.448571,252 109.571429,252 C113.694286,252 117,248.694286 117,244.571429 C117,241.86 115.477143,239.445714 113.285714,238.182857 L113.285714,231.571429 L124.428571,220.428571 L124.428571,213.817143 C126.62,212.554286 128.142857,210.177143 128.142857,207.428571 C128.142857,203.305714 124.837143,200 120.714286,200 L120.714286,200 Z M98.4285714,211.885714 C95.9771429,211.885714 93.9714286,209.842857 93.9714286,207.428571 C93.9714286,205.014286 96.0142857,202.971429 98.4285714,202.971429 C100.842857,202.971429 102.885714,205.014286 102.885714,207.428571 C102.885714,209.842857 100.842857,211.885714 98.4285714,211.885714 L98.4285714,211.885714 Z M109.571429,249.028571 C107.12,249.028571 105.114286,246.985714 105.114286,244.571429 C105.114286,242.157143 107.157143,240.114286 109.571429,240.114286 C111.985714,240.114286 114.028571,242.157143 114.028571,244.571429 C114.028571,246.985714 111.985714,249.028571 109.571429,249.028571 L109.571429,249.028571 Z M120.714286,211.885714 C118.262857,211.885714 116.257143,209.842857 116.257143,207.428571 C116.257143,205.014286 118.3,202.971429 120.714286,202.971429 C123.128571,202.971429 125.171429,205.014286 125.171429,207.428571 C125.171429,209.842857 123.128571,211.885714 120.714286,211.885714 L120.714286,211.885714 Z" id="Shape" fill="#E5E5E5"></path>
                        <path d="M1253,159.532857 L1253,156.332857 L1249.12,155.052857 L1248.22,152.872857 L1249.98,149.192857 L1247.72,146.932857 L1244.1,148.752857 L1241.92,147.852857 L1240.54,144.012857 L1237.34,144.012857 L1236.08,147.892857 L1233.86,148.792857 L1230.18,147.032857 L1227.92,149.292857 L1229.74,152.912857 L1228.84,155.092857 L1225,156.452857 L1225,159.632857 L1228.88,160.912857 L1229.78,163.092857 L1228.02,166.772857 L1230.28,169.032857 L1233.9,167.212857 L1236.08,168.112857 L1237.46,171.952857 L1240.64,171.952857 L1241.9,168.072857 L1244.12,167.172857 L1247.8,168.932857 L1250.06,166.672857 L1248.22,163.052857 L1249.16,160.872857 L1253,159.492857 L1253,159.532857 Z M1239,163.992857 C1235.68,163.992857 1233,161.312857 1233,157.992857 C1233,154.672857 1235.68,151.992857 1239,151.992857 C1242.32,151.992857 1245,154.672857 1245,157.992857 C1245,161.312857 1242.32,163.992857 1239,163.992857 L1239,163.992857 Z" id="Shape" fill="#E5E5E5"></path>
                        <path d="M1077,159 L1087,159 L1087,169 L1077,169 L1077,159 L1077,159 Z M1087,129 L1077,129 L1077,154 L1087,154 L1087,129 L1087,129 Z M1094.5,136.5 L1089.5,141.5 L1102,154 L1122,131.5 L1117,126.5 L1102,144 L1094.5,136.5 L1094.5,136.5 Z M1082,177.5 C1066.3,177.5 1053.5,164.7 1053.5,149 C1053.5,133.3 1066.3,120.5 1082,120.5 C1091.15,120.5 1099.25,124.9 1104.5,131.5 L1109.1,126.9 C1102.7,119 1092.95,114 1082,114 C1062.7,114 1047,129.7 1047,149 C1047,168.3 1062.7,184 1082,184 C1101.3,184 1117,168.3 1117,149 L1109.4,156.6 C1106.1,168.65 1095.1,177.55 1082,177.55 L1082,177.5 Z" id="Shape" fill="#E5E5E5"></path>
                        <path d="M337,212.75 L330.25,212.75 L330.25,206 L337,206 L337,212.75 L337,212.75 Z M337,192.5 L330.25,192.5 L330.25,199.25 L337,199.25 L337,192.5 L337,192.5 Z M337,179 L330.25,179 L330.25,185.75 L337,185.75 L337,179 L337,179 Z M337,165.5 L330.25,165.5 L330.25,172.25 L337,172.25 L337,165.5 L337,165.5 Z M391,158.75 L391,239.75 C391,243.4625 387.9625,246.5 384.25,246.5 L350.5,246.5 L350.5,260 L340.375,249.875 L330.25,260 L330.25,246.5 L316.75,246.5 C313.0375,246.5 310,243.4625 310,239.75 L310,158.75 C310,155.0375 313.0375,152 316.75,152 L384.25,152 C387.9625,152 391,155.0375 391,158.75 L391,158.75 Z M384.25,226.25 L316.75,226.25 L316.75,239.75 L330.25,239.75 L330.25,233 L350.5,233 L350.5,239.75 L384.25,239.75 L384.25,226.25 L384.25,226.25 Z M384.25,158.75 L323.5,158.75 L323.5,219.5 L384.25,219.5 L384.25,158.75 L384.25,158.75 Z" id="Shape" fill="#E5E5E5"></path>
                        <path d="M219.234286,141.285714 C217.691429,135.388571 212.377143,131 206,131 C199.622857,131 194.308571,135.388571 192.765714,141.285714 L182,141.285714 L182,148.142857 L192.765714,148.142857 C194.308571,154.04 199.622857,158.428571 206,158.428571 C212.377143,158.428571 217.691429,154.04 219.234286,148.142857 L230,148.142857 L230,141.285714 L219.234286,141.285714 L219.234286,141.285714 Z M206,152.257143 C201.817143,152.257143 198.457143,148.897143 198.457143,144.714286 C198.457143,140.531429 201.817143,137.171429 206,137.171429 C210.182857,137.171429 213.542857,140.531429 213.542857,144.714286 C213.542857,148.897143 210.182857,152.257143 206,152.257143 L206,152.257143 Z" id="Shape" fill="#E5E5E5"></path>
                        <path d="M951.142857,272.142857 L947.714286,272.142857 C946.788571,272.074286 946.068571,271.765714 945.348571,271.08 C944.628571,270.394286 944.32,269.64 944.285714,268.714286 L944.285714,247.182857 C946.308571,246.017143 947.714286,243.822857 947.714286,241.285714 C947.714286,237.48 944.662857,234.428571 940.857143,234.428571 C937.051429,234.428571 934,237.48 934,241.285714 C934,243.788571 935.405714,246.017143 937.428571,247.182857 L937.428571,268.714286 C937.531429,271.388571 938.594286,273.754286 940.651429,275.777143 C942.708571,277.8 945.04,278.897143 947.714286,279 L951.142857,279 L951.142857,285.857143 L961.428571,275.571429 L951.142857,265.285714 L951.142857,272.142857 L951.142857,272.142857 Z M940.857143,237.171429 C943.12,237.171429 944.971429,239.057143 944.971429,241.285714 C944.971429,243.514286 943.085714,245.4 940.857143,245.4 C938.628571,245.4 936.742857,243.514286 936.742857,241.285714 C936.742857,239.057143 938.628571,237.171429 940.857143,237.171429 L940.857143,237.171429 Z M978.571429,269.674286 L978.571429,248.142857 C978.468571,245.468571 977.405714,243.102857 975.348571,241.08 C973.291429,239.057143 970.96,237.96 968.285714,237.857143 L964.857143,237.857143 L964.857143,231 L954.571429,241.285714 L964.857143,251.571429 L964.857143,244.714286 L968.285714,244.714286 C969.211429,244.782857 969.931429,245.091429 970.651429,245.777143 C971.371429,246.462857 971.68,247.217143 971.714286,248.142857 L971.714286,269.674286 C969.691429,270.84 968.285714,273.034286 968.285714,275.571429 C968.285714,279.377143 971.337143,282.428571 975.142857,282.428571 C978.948571,282.428571 982,279.377143 982,275.571429 C982,273.068571 980.594286,270.84 978.571429,269.674286 L978.571429,269.674286 Z M975.142857,279.685714 C972.88,279.685714 971.028571,277.8 971.028571,275.571429 C971.028571,273.342857 972.914286,271.457143 975.142857,271.457143 C977.371429,271.457143 979.257143,273.342857 979.257143,275.571429 C979.257143,277.8 977.371429,279.685714 975.142857,279.685714 L975.142857,279.685714 Z" id="Shape" fill="#E5E5E5"></path>
                        <path d="M1184,46.01 C1181.81,46.01 1179.86,47.24 1178.81,49.07 L1178.81,49.01 C1175.66,48.95 1172,47.93 1169.42,45.95 C1167.17,44.21 1164.92,41.12 1163.75,38.63 C1165.1,37.55 1166,35.87 1166,33.98 C1166,30.65 1163.33,27.98 1160,27.98 C1156.67,27.98 1154,30.68 1154,34.01 C1154,36.2 1155.23,38.15 1157,39.17 L1157,58.85 C1155.23,59.9 1154,61.82 1154,64.01 C1154,67.34 1156.67,70.01 1160,70.01 C1163.33,70.01 1166,67.34 1166,64.01 C1166,61.82 1164.77,59.87 1163,58.85 L1163,48.02 C1165.01,50.12 1167.32,51.83 1169.9,53.09 C1172.48,54.35 1175.99,54.98 1178.81,55.01 L1178.81,54.95 C1179.89,56.78 1181.81,58.01 1184,58.01 C1187.33,58.01 1190,55.34 1190,52.01 C1190,48.68 1187.33,46.01 1184,46.01 L1184,46.01 Z M1163.6,64.01 C1163.6,65.99 1161.95,67.61 1160,67.61 C1158.05,67.61 1156.4,65.96 1156.4,64.01 C1156.4,62.06 1158.05,60.41 1160,60.41 C1161.95,60.41 1163.6,62.06 1163.6,64.01 L1163.6,64.01 Z M1160,37.61 C1158.02,37.61 1156.4,35.96 1156.4,34.01 C1156.4,32.06 1158.05,30.41 1160,30.41 C1161.95,30.41 1163.6,32.06 1163.6,34.01 C1163.6,35.96 1161.95,37.61 1160,37.61 L1160,37.61 Z M1184,55.61 C1182.02,55.61 1180.4,53.96 1180.4,52.01 C1180.4,50.06 1182.05,48.41 1184,48.41 C1185.95,48.41 1187.6,50.06 1187.6,52.01 C1187.6,53.96 1185.95,55.61 1184,55.61 L1184,55.61 Z" id="Shape" fill="#E5E5E5"></path>
                        <path d="M988,33.84 L988,15 C987.91,12.66 986.98,10.59 985.18,8.82 C983.38,7.05 981.34,6.09 979,6 L976,6 L976,0 L967,9 L976,18 L976,12 L979,12 C979.81,12.06 980.44,12.33 981.07,12.93 C981.7,13.53 981.97,14.19 982,15 L982,33.84 C980.23,34.86 979,36.78 979,39 C979,42.33 981.67,45 985,45 C988.33,45 991,42.33 991,39 C991,36.81 989.77,34.86 988,33.84 L988,33.84 Z M985,42.6 C983.02,42.6 981.4,40.95 981.4,39 C981.4,37.05 983.05,35.4 985,35.4 C986.95,35.4 988.6,37.05 988.6,39 C988.6,40.95 986.95,42.6 985,42.6 L985,42.6 Z M967,9 C967,5.67 964.33,3 961,3 C957.67,3 955,5.67 955,9 C955,11.19 956.23,13.14 958,14.16 L958,33.84 C956.23,34.86 955,36.78 955,39 C955,42.33 957.67,45 961,45 C964.33,45 967,42.33 967,39 C967,36.81 965.77,34.86 964,33.84 L964,14.16 C965.77,13.14 967,11.22 967,9 L967,9 Z M964.6,39 C964.6,40.98 962.95,42.6 961,42.6 C959.05,42.6 957.4,40.95 957.4,39 C957.4,37.05 959.05,35.4 961,35.4 C962.95,35.4 964.6,37.05 964.6,39 L964.6,39 Z M961,12.6 C959.02,12.6 957.4,10.95 957.4,9 C957.4,7.05 959.05,5.4 961,5.4 C962.95,5.4 964.6,7.05 964.6,9 C964.6,10.95 962.95,12.6 961,12.6 L961,12.6 Z" id="Shape" fill="#E5E5E5"></path>
                        <path d="M851,92.2857143 L851,142.571429 C851,146.028571 853.828571,148.857143 857.285714,148.857143 L932.714286,148.857143 C936.171429,148.857143 939,146.028571 939,142.571429 L939,92.2857143 C939,88.8285714 936.171429,86 932.714286,86 L857.285714,86 C853.828571,86 851,88.8285714 851,92.2857143 L851,92.2857143 Z M932.714286,92.2857143 L895,123.714286 L857.285714,92.2857143 L932.714286,92.2857143 L932.714286,92.2857143 Z M857.285714,101.714286 L882.428571,120.571429 L857.285714,139.428571 L857.285714,101.714286 L857.285714,101.714286 Z M863.571429,142.571429 L885.571429,123.714286 L895,133.142857 L904.428571,123.714286 L926.428571,142.571429 L863.571429,142.571429 L863.571429,142.571429 Z M932.714286,139.428571 L907.571429,120.571429 L932.714286,101.714286 L932.714286,139.428571 L932.714286,139.428571 Z" id="Shape" fill="#E5E5E5"></path>
                        <path d="M1111.94625,249.05375 C1111.2375,248.345 1110.7125,247.61 1110.2925,246.74375 C1109.8725,245.93 1109.58375,245.01125 1109.4,244.06625 C1107.8775,244.9325 1106.355,245.90375 1104.85875,247.0325 C1103.33625,248.1875 1101.86625,249.5 1100.4225,250.9175 C1098.585,252.755 1096.93125,255.66875 1095.75,257.34875 L1087.875,257.34875 L1080,265.25 L1087.875,265.25 L1093.125,260 C1092.2325,262.02125 1090.4475,267.8225 1090.5,267.875 L1093.125,270.5 C1093.1775,270.5525 1098.97875,268.82 1101,267.875 L1095.75,273.125 L1095.75,281 L1103.625,273.125 L1103.625,265.25 C1105.305,264.06875 1108.21875,262.38875 1110.05625,260.5775 C1111.5,259.13375 1112.8125,257.61125 1113.915,256.115 C1115.07,254.5925 1116.04125,253.07 1116.9075,251.6 C1115.9625,251.39 1115.07,251.10125 1114.20375,250.7075 C1113.39,250.2875 1112.655,249.7625 1111.94625,249.05375 M1122,239 C1122,239 1121.76375,239.9975 1121.2125,241.7825 C1120.6875,243.62 1119.76875,245.93 1118.43,248.765 C1116.5925,248.555 1115.09625,247.89875 1114.0725,246.875 C1113.04875,245.85125 1112.41875,244.4075 1112.235,242.57 C1115.07,241.205 1117.35375,240.26 1119.165,239.735 C1121.0025,239.21 1122,239 1122,239" id="Shape" fill="#E5E5E5"></path>
                        <polygon id="Shape" fill="#E5E5E5" points="25 150.928571 16.25 149.785714 12.5 142 8.75 149.785714 0 150.928571 6.42857143 156.75 4.76785714 165.214286 12.5 161.053571 20.2321429 165.214286 18.5714286 156.75"></polygon>
                    </g>
                    <g id="circuit" transform="translate(453.000000, 0.000000)">
                        <g id="Group-6">
                            <path d="M333.997384,223 L240,223" id="Path-2" stroke="#E5E5E5" stroke-width="7" transform="translate(286.998692, 223.000000) scale(-1, -1) translate(-286.998692, -223.000000) "></path>
                            <g id="Oval" transform="translate(334.000000, 223.000000) scale(-1, -1) translate(-334.000000, -223.000000) ">
                                <use fill="#F5F5F5" fill-rule="evenodd" xlink:href="#path-3"></use>
                                <use stroke="#E5E5E5" mask="url(#mask-4)" stroke-width="14" xlink:href="#path-3"></use>
                            </g>
                            <path d="M338.256299,284 L297.26328,284 C295.60257,284 294.256299,282.6636 294.256299,280.998024 L294.256299,203.001976 C294.256299,201.34403 292.917183,200 291.258512,200 L264,200" id="Path-2" stroke="#E5E5E5" stroke-width="7" transform="translate(301.128149, 242.000000) scale(-1, -1) translate(-301.128149, -242.000000) "></path>
                            <g id="Oval" transform="translate(348.000000, 284.000000) scale(-1, -1) translate(-348.000000, -284.000000) ">
                                <use fill="#F5F5F5" fill-rule="evenodd" xlink:href="#path-5"></use>
                                <use stroke="#E5E5E5" mask="url(#mask-6)" stroke-width="14" xlink:href="#path-5"></use>
                            </g>
                            <path d="M293.993019,176 L250.994691,176" id="Path-2" stroke="#E5E5E5" stroke-width="7" transform="translate(273.496510, 176.000000) scale(-1, -1) translate(-273.496510, -176.000000) "></path>
                            <g id="Oval" transform="translate(297.000000, 176.000000) scale(-1, -1) translate(-297.000000, -176.000000) ">
                                <use fill="#F5F5F5" fill-rule="evenodd" xlink:href="#path-7"></use>
                                <use stroke="#E5E5E5" mask="url(#mask-8)" stroke-width="14" xlink:href="#path-7"></use>
                            </g>
                            <path d="M337,90.6673372 L265.99254,90.6673372 C264.339806,90.6673372 263,92.0126098 263,93.6737711 L263,153" id="Path-2" stroke="#E5E5E5" stroke-width="7" transform="translate(300.000000, 121.833669) scale(-1, -1) translate(-300.000000, -121.833669) "></path>
                            <g id="Oval" transform="translate(337.000000, 82.000000) scale(-1, -1) translate(-337.000000, -82.000000) ">
                                <use fill="#F5F5F5" fill-rule="evenodd" xlink:href="#path-9"></use>
                                <use stroke="#E5E5E5" mask="url(#mask-10)" stroke-width="14" xlink:href="#path-9"></use>
                            </g>
                            <path d="M306.993194,130 L254,130" id="Path-2" stroke="#E5E5E5" stroke-width="7" transform="translate(280.496597, 130.000000) scale(-1, -1) translate(-280.496597, -130.000000) "></path>
                            <g id="Oval" transform="translate(315.000000, 130.000000) scale(-1, -1) translate(-315.000000, -130.000000) ">
                                <use fill="#F5F5F5" fill-rule="evenodd" xlink:href="#path-11"></use>
                                <use stroke="#E5E5E5" mask="url(#mask-12)" stroke-width="14" xlink:href="#path-11"></use>
                            </g>
                            <path d="M270.498692,64.501308 L176.501308,64.501308" id="Path-2" stroke="#E5E5E5" stroke-width="7" transform="translate(223.500000, 64.501308) scale(-1, -1) rotate(-90.000000) translate(-223.500000, -64.501308) "></path>
                            <g id="Oval" transform="translate(223.500000, 17.500000) scale(-1, -1) rotate(-90.000000) translate(-223.500000, -17.500000) ">
                                <use fill="#F5F5F5" fill-rule="evenodd" xlink:href="#path-13"></use>
                                <use stroke="#E5E5E5" mask="url(#mask-14)" stroke-width="14" xlink:href="#path-13"></use>
                            </g>
                            <path d="M279.628149,92.3718506 L238.63513,92.3718506 C236.974421,92.3718506 235.628149,91.0354509 235.628149,89.3698747 L235.628149,11.3738266 C235.628149,9.71588107 234.289034,8.37185065 232.630363,8.37185065 L205.371851,8.37185065" id="Path-2" stroke="#E5E5E5" stroke-width="7" transform="translate(242.500000, 50.371851) scale(-1, -1) rotate(-90.000000) translate(-242.500000, -50.371851) "></path>
                            <g id="Oval" transform="translate(284.500000, 3.500000) scale(-1, -1) rotate(-90.000000) translate(-284.500000, -3.500000) ">
                                <use fill="#F5F5F5" fill-rule="evenodd" xlink:href="#path-15"></use>
                                <use stroke="#E5E5E5" mask="url(#mask-16)" stroke-width="14" xlink:href="#path-15"></use>
                            </g>
                            <path d="M196.99651,78.0034904 L153.998182,78.0034904" id="Path-2" stroke="#E5E5E5" stroke-width="7" transform="translate(176.500000, 78.003490) scale(-1, -1) rotate(-90.000000) translate(-176.500000, -78.003490) "></path>
                            <g id="Oval" transform="translate(176.500000, 54.500000) scale(-1, -1) rotate(-90.000000) translate(-176.500000, -54.500000) ">
                                <use fill="#F5F5F5" fill-rule="evenodd" xlink:href="#path-17"></use>
                                <use stroke="#E5E5E5" mask="url(#mask-18)" stroke-width="14" xlink:href="#path-17"></use>
                            </g>
                            <path d="M159.333669,20.3336686 L88.3262082,20.3336686 C86.6734742,20.3336686 85.3336686,21.6789412 85.3336686,23.3401025 L85.3336686,82.6663314" id="Path-2" stroke="#E5E5E5" stroke-width="7" transform="translate(122.333669, 51.500000) scale(-1, -1) rotate(-90.000000) translate(-122.333669, -51.500000) "></path>
                            <g id="Oval" transform="translate(82.500000, 14.500000) scale(-1, -1) rotate(-90.000000) translate(-82.500000, -14.500000) ">
                                <use fill="#F5F5F5" fill-rule="evenodd" xlink:href="#path-19"></use>
                                <use stroke="#E5E5E5" mask="url(#mask-20)" stroke-width="14" xlink:href="#path-19"></use>
                            </g>
                            <path d="M156.996597,71.0034029 L104.003403,71.0034029" id="Path-2" stroke="#E5E5E5" stroke-width="7" transform="translate(130.500000, 71.003403) scale(-1, -1) rotate(-90.000000) translate(-130.500000, -71.003403) "></path>
                            <g id="Oval" transform="translate(130.500000, 36.500000) scale(-1, -1) rotate(-90.000000) translate(-130.500000, -36.500000) ">
                                <use fill="#F5F5F5" fill-rule="evenodd" xlink:href="#path-21"></use>
                                <use stroke="#E5E5E5" mask="url(#mask-22)" stroke-width="14" xlink:href="#path-21"></use>
                            </g>
                            <path d="M175.498692,286.498692 L81.501308,286.498692" id="Path-2" stroke="#E5E5E5" stroke-width="7" transform="translate(128.500000, 286.498692) rotate(-90.000000) translate(-128.500000, -286.498692) "></path>
                            <g id="Oval" transform="translate(128.500000, 333.500000) rotate(-90.000000) translate(-128.500000, -333.500000) ">
                                <use fill="#F5F5F5" fill-rule="evenodd" xlink:href="#path-23"></use>
                                <use stroke="#E5E5E5" mask="url(#mask-24)" stroke-width="14" xlink:href="#path-23"></use>
                            </g>
                            <path d="M146.628149,342.628149 L105.63513,342.628149 C103.974421,342.628149 102.628149,341.29175 102.628149,339.626173 L102.628149,261.630125 C102.628149,259.97218 101.289034,258.628149 99.6303629,258.628149 L72.3718506,258.628149" id="Path-2" stroke="#E5E5E5" stroke-width="7" transform="translate(109.500000, 300.628149) rotate(-90.000000) translate(-109.500000, -300.628149) "></path>
                            <g id="Oval" transform="translate(67.500000, 347.500000) rotate(-90.000000) translate(-67.500000, -347.500000) ">
                                <use fill="#F5F5F5" fill-rule="evenodd" xlink:href="#path-25"></use>
                                <use stroke="#E5E5E5" mask="url(#mask-26)" stroke-width="14" xlink:href="#path-25"></use>
                            </g>
                            <path d="M195.99651,272.99651 L152.998182,272.99651" id="Path-2" stroke="#E5E5E5" stroke-width="7" transform="translate(175.500000, 272.996510) rotate(-90.000000) translate(-175.500000, -272.996510) "></path>
                            <g id="Oval" transform="translate(175.500000, 296.500000) rotate(-90.000000) translate(-175.500000, -296.500000) ">
                                <use fill="#F5F5F5" fill-rule="evenodd" xlink:href="#path-27"></use>
                                <use stroke="#E5E5E5" mask="url(#mask-28)" stroke-width="14" xlink:href="#path-27"></use>
                            </g>
                            <path d="M266.666331,268.333669 L195.658871,268.333669 C194.006137,268.333669 192.666331,269.678941 192.666331,271.340102 L192.666331,330.666331" id="Path-2" stroke="#E5E5E5" stroke-width="7" transform="translate(229.666331, 299.500000) rotate(-90.000000) translate(-229.666331, -299.500000) "></path>
                            <g id="Oval" transform="translate(269.500000, 336.500000) rotate(-90.000000) translate(-269.500000, -336.500000) ">
                                <use fill="#F5F5F5" fill-rule="evenodd" xlink:href="#path-29"></use>
                                <use stroke="#E5E5E5" mask="url(#mask-30)" stroke-width="14" xlink:href="#path-29"></use>
                            </g>
                            <path d="M247.996597,279.996597 L195.003403,279.996597" id="Path-2" stroke="#E5E5E5" stroke-width="7" transform="translate(221.500000, 279.996597) rotate(-90.000000) translate(-221.500000, -279.996597) "></path>
                            <g id="Oval" transform="translate(221.500000, 314.500000) rotate(-90.000000) translate(-221.500000, -314.500000) ">
                                <use fill="#F5F5F5" fill-rule="evenodd" xlink:href="#path-31"></use>
                                <use stroke="#E5E5E5" mask="url(#mask-32)" stroke-width="14" xlink:href="#path-31"></use>
                            </g>
                            <path d="M111,129 L17.0026159,129" id="Path-2" stroke="#E5E5E5" stroke-width="7"></path>
                            <g id="Oval">
                                <use fill="#F5F5F5" fill-rule="evenodd" xlink:href="#path-33"></use>
                                <use stroke="#E5E5E5" mask="url(#mask-34)" stroke-width="14" xlink:href="#path-33"></use>
                            </g>
                            <path d="M87,152 L46.0069809,152 C44.3462712,152 43,150.6636 43,148.998024 L43,71.001976 C43,69.3440304 41.6608848,68 40.0022136,68 L12.7437013,68" id="Path-2" stroke="#E5E5E5" stroke-width="7"></path>
                            <g id="Oval">
                                <use fill="#F5F5F5" fill-rule="evenodd" xlink:href="#path-35"></use>
                                <use stroke="#E5E5E5" mask="url(#mask-36)" stroke-width="14" xlink:href="#path-35"></use>
                            </g>
                            <path d="M98,176 L55.0016723,176" id="Path-2" stroke="#E5E5E5" stroke-width="7"></path>
                            <g id="Oval">
                                <use fill="#F5F5F5" fill-rule="evenodd" xlink:href="#path-37"></use>
                                <use stroke="#E5E5E5" mask="url(#mask-38)" stroke-width="14" xlink:href="#path-37"></use>
                            </g>
                            <path d="M88,199 L16.9925396,199 C15.3398056,199 14,200.345273 14,202.006434 L14,261.332663" id="Path-2" stroke="#E5E5E5" stroke-width="7"></path>
                            <g id="Oval">
                                <use fill="#F5F5F5" fill-rule="evenodd" xlink:href="#path-39"></use>
                                <use stroke="#E5E5E5" mask="url(#mask-40)" stroke-width="14" xlink:href="#path-39"></use>
                            </g>
                            <path d="M97,222 L44.0068057,222" id="Path-2" stroke="#E5E5E5" stroke-width="7"></path>
                            <g id="Oval">
                                <use fill="#F5F5F5" fill-rule="evenodd" xlink:href="#path-41"></use>
                                <use stroke="#E5E5E5" mask="url(#mask-42)" stroke-width="14" xlink:href="#path-41"></use>
                            </g>
                        </g>
                        <path d="M264.001254,223 L244,223" id="Path-2" stroke="#3C4146" stroke-width="7" stroke-linecap="round" transform="translate(254.000627, 223.000000) scale(-1, -1) translate(-254.000627, -223.000000) "></path>
                        <path d="M264.001254,200 L244,200" id="Path-2" stroke="#3C4146" stroke-width="7" stroke-linecap="round" transform="translate(254.000627, 200.000000) scale(-1, -1) translate(-254.000627, -200.000000) "></path>
                        <path d="M264.001254,176 L244,176" id="Path-2" stroke="#3C4146" stroke-width="7" stroke-linecap="round" transform="translate(254.000627, 176.000000) scale(-1, -1) translate(-254.000627, -176.000000) "></path>
                        <path d="M264.001254,153 L244,153" id="Path-2" stroke="#3C4146" stroke-width="7" stroke-linecap="round" transform="translate(254.000627, 153.000000) scale(-1, -1) translate(-254.000627, -153.000000) "></path>
                        <path d="M264.001254,130 L244,130" id="Path-2" stroke="#3C4146" stroke-width="7" stroke-linecap="round" transform="translate(254.000627, 130.000000) scale(-1, -1) translate(-254.000627, -130.000000) "></path>
                        <path d="M233.500627,97.499373 L213.499373,97.499373" id="Path-2" stroke="#586169" stroke-width="7" stroke-linecap="round" transform="translate(223.500000, 97.499373) scale(-1, -1) rotate(-90.000000) translate(-223.500000, -97.499373) "></path>
                        <path d="M210.500627,97.499373 L190.499373,97.499373" id="Path-2" stroke="#586169" stroke-width="7" stroke-linecap="round" transform="translate(200.500000, 97.499373) scale(-1, -1) rotate(-90.000000) translate(-200.500000, -97.499373) "></path>
                        <path d="M186.500627,97.499373 L166.499373,97.499373" id="Path-2" stroke="#586169" stroke-width="7" stroke-linecap="round" transform="translate(176.500000, 97.499373) scale(-1, -1) rotate(-90.000000) translate(-176.500000, -97.499373) "></path>
                        <path d="M163.500627,97.499373 L143.499373,97.499373" id="Path-2" stroke="#586169" stroke-width="7" stroke-linecap="round" transform="translate(153.500000, 97.499373) scale(-1, -1) rotate(-90.000000) translate(-153.500000, -97.499373) "></path>
                        <path d="M140.500627,97.499373 L120.499373,97.499373" id="Path-2" stroke="#586169" stroke-width="7" stroke-linecap="round" transform="translate(130.500000, 97.499373) scale(-1, -1) rotate(-90.000000) translate(-130.500000, -97.499373) "></path>
                        <path d="M138.500627,253.500627 L118.499373,253.500627" id="Path-2" stroke="#3C4146" stroke-width="7" stroke-linecap="round" transform="translate(128.500000, 253.500627) rotate(-90.000000) translate(-128.500000, -253.500627) "></path>
                        <path d="M161.500627,253.500627 L141.499373,253.500627" id="Path-2" stroke="#3C4146" stroke-width="7" stroke-linecap="round" transform="translate(151.500000, 253.500627) rotate(-90.000000) translate(-151.500000, -253.500627) "></path>
                        <path d="M185.500627,253.500627 L165.499373,253.500627" id="Path-2" stroke="#3C4146" stroke-width="7" stroke-linecap="round" transform="translate(175.500000, 253.500627) rotate(-90.000000) translate(-175.500000, -253.500627) "></path>
                        <path d="M208.500627,253.500627 L188.499373,253.500627" id="Path-2" stroke="#3C4146" stroke-width="7" stroke-linecap="round" transform="translate(198.500000, 253.500627) rotate(-90.000000) translate(-198.500000, -253.500627) "></path>
                        <path d="M231.500627,253.500627 L211.499373,253.500627" id="Path-2" stroke="#3C4146" stroke-width="7" stroke-linecap="round" transform="translate(221.500000, 253.500627) rotate(-90.000000) translate(-221.500000, -253.500627) "></path>
                        <path d="M107,129 L86.9987461,129" id="Path-2" stroke="#586169" stroke-width="7" stroke-linecap="round"></path>
                        <path d="M107,152 L86.9987461,152" id="Path-2" stroke="#586169" stroke-width="7" stroke-linecap="round"></path>
                        <path d="M107,176 L86.9987461,176" id="Path-2" stroke="#586169" stroke-width="7" stroke-linecap="round"></path>
                        <path d="M107,199 L86.9987461,199" id="Path-2" stroke="#586169" stroke-width="7" stroke-linecap="round"></path>
                        <path d="M107,222 L86.9987461,222" id="Path-2" stroke="#586169" stroke-width="7" stroke-linecap="round"></path>
                        <g id="Group-9" transform="translate(107.000000, 107.000000)">
                            <mask id="mask-44" fill="white">
                                <use xlink:href="#path-43"></use>
                            </mask>
                            <use id="Rectangle-5" fill="#586069" xlink:href="#path-43"></use>
                            <polygon id="Rectangle-5" fill="#3C4146" mask="url(#mask-44)" points="138 0 138 138 0 138"></polygon>
                        </g>
                        <rect id="Rectangle-7" fill="#2F3338" x="107" y="162" width="15" height="26"></rect>
                        <rect id="Rectangle-7" fill="#2F3338" transform="translate(176.500000, 115.000000) rotate(-270.000000) translate(-176.500000, -115.000000) " x="169" y="102" width="15" height="26"></rect>
                        <g id="Rectangle">
                            <use fill="black" fill-opacity="1" filter="url(#filter-46)" xlink:href="#path-45"></use>
                            <use fill="#FFFFFF" fill-rule="evenodd" xlink:href="#path-45"></use>
                        </g>
                        <g id="mark-github" transform="translate(151.000000, 150.000000)" fill="#333333">
                            <path d="M26,0 C11.635,0 0,11.635 0,26 C0,37.505 7.4425,47.2225 17.7775,50.6675 C19.0775,50.895 19.565,50.115 19.565,49.4325 C19.565,48.815 19.5325,46.7675 19.5325,44.59 C13,45.7925 11.31,42.9975 10.79,41.535 C10.4975,40.7875 9.23,38.48 8.125,37.8625 C7.215,37.375 5.915,36.1725 8.0925,36.14 C10.14,36.1075 11.6025,38.025 12.09,38.805 C14.43,42.7375 18.1675,41.6325 19.6625,40.95 C19.89,39.26 20.5725,38.1225 21.32,37.4725 C15.535,36.8225 9.49,34.58 9.49,24.635 C9.49,21.8075 10.4975,19.4675 12.155,17.6475 C11.895,16.9975 10.985,14.3325 12.415,10.7575 C12.415,10.7575 14.5925,10.075 19.565,13.4225 C21.645,12.8375 23.855,12.545 26.065,12.545 C28.275,12.545 30.485,12.8375 32.565,13.4225 C37.5375,10.0425 39.715,10.7575 39.715,10.7575 C41.145,14.3325 40.235,16.9975 39.975,17.6475 C41.6325,19.4675 42.64,21.775 42.64,24.635 C42.64,34.6125 36.5625,36.8225 30.7775,37.4725 C31.72,38.285 32.5325,39.845 32.5325,42.2825 C32.5325,45.76 32.5,48.555 32.5,49.4325 C32.5,50.115 32.9875,50.9275 34.2875,50.6675 C44.5575,47.2225 52,37.4725 52,26 C52,11.635 40.365,0 26,0 L26,0 Z" id="Shape"></path>
                        </g>
                    </g>
                </g>
            </g>
        </g>
    </g>
</svg>