<?xml version="1.0" encoding="utf-8"?>
<!-- Generator: Adobe Illustrator 23.0.1, SVG Export Plug-In . SVG Version: 6.00 Build 0)  -->
<svg version="1.1" id="Ebene_2" xmlns="http://www.w3.org/2000/svg" xmlns:xlink="http://www.w3.org/1999/xlink" x="0px" y="0px"
	 viewBox="0 0 404.9 321.7" style="enable-background:new 0 0 404.9 321.7;" xml:space="preserve">
<style type="text/css">
	.Top_x0020_12{fill:#F7F9FD;}
	.Right_x0020_8{fill:url(#SVGID_1_);}
	.Top_x0020_13{fill:#F7F9FD;}
	.Front_x0020_6{fill:url(#SVGID_2_);}
	.Top_x0020_14{fill:#F7F9FD;}
	.Right_x0020_10{fill:url(#SVGID_3_);}
	.Top_x0020_15{fill:#F7F9FD;}
	.Front_x0020_7{fill:url(#SVGID_4_);}
	.Windows_x0020_4{fill:#BDC3D9;}
	.Fenster_x0020_4{fill:#C1C7DF;}
	.st0{fill:url(#SVGID_5_);}
	.st1{fill:none;stroke:#F3EEBF;stroke-linecap:round;stroke-miterlimit:10;}
	.st2{fill:url(#SVGID_6_);}
	.st3{fill:#F7F9FD;}
	.st4{fill:url(#SVGID_7_);}
	.st5{fill:url(#SVGID_8_);}
	.st6{fill:url(#SVGID_9_);}
	.st7{fill:url(#SVGID_10_);}
	.st8{fill:#F2F4FC;}
	.st9{fill:#9CA6CA;}
	.st10{fill:#DDE1F0;}
	.st11{fill:#BFC5DB;}
	.st12{fill:url(#SVGID_11_);}
	.st13{fill:url(#SVGID_12_);}
	.st14{fill:url(#SVGID_13_);}
	.st15{fill:url(#SVGID_14_);}
	.st16{fill:#C1C7DF;}
	.st17{fill:url(#SVGID_15_);}
	.st18{fill:url(#SVGID_16_);}
	.st19{fill:none;stroke:#C1C7DF;stroke-linecap:round;stroke-linejoin:round;}
	.st20{fill:none;stroke:#C1C7DF;stroke-linecap:round;stroke-linejoin:round;stroke-dasharray:3.7023,3.7023;}
	.st21{fill:#A5ABBB;}
	.st22{fill:#D5DDF3;}
	.st23{fill:none;stroke:#C1C7DF;stroke-linecap:round;stroke-linejoin:round;stroke-dasharray:4.0863,4.0863;}
	.st24{fill:url(#SVGID_17_);}
	.st25{fill:url(#SVGID_18_);}
	.st26{fill:url(#SVGID_19_);}
	.st27{fill:url(#SVGID_20_);}
	.st28{fill:url(#SVGID_21_);}
	.st29{fill:#D6DDF2;}
	.st30{fill:#C1C7DD;}
	.st31{fill:#FCEE21;}
	.st32{opacity:0.75;fill:#D5DDF3;}
	.st33{fill:url(#SVGID_22_);}
	.st34{fill:url(#SVGID_23_);}
	.st35{clip-path:url(#SVGID_25_);}
	.st36{clip-path:url(#SVGID_27_);fill:#FFC100;}
	.st37{clip-path:url(#SVGID_27_);fill:#F6EB61;}
	.st38{clip-path:url(#SVGID_27_);fill:#439879;}
	.st39{clip-path:url(#SVGID_27_);fill:#28CDFB;}
	.st40{clip-path:url(#SVGID_27_);fill:#FDD757;}
	.st41{clip-path:url(#SVGID_27_);fill:#EC8B00;}
	.st42{fill:url(#SVGID_28_);}
	.st43{fill:url(#SVGID_29_);}
	.st44{fill:url(#SVGID_30_);}
	.st45{fill:url(#SVGID_31_);}
	.st46{fill:url(#SVGID_32_);}
	.st47{clip-path:url(#SVGID_34_);fill:#BFC4DA;}
	.st48{clip-path:url(#SVGID_36_);fill:#BFC4DA;}
	.st49{clip-path:url(#SVGID_38_);fill:#BFC4DA;}
	.st50{clip-path:url(#SVGID_40_);fill:#BFC4DA;}
	.st51{clip-path:url(#SVGID_42_);fill:#DCDFEF;}
	.st52{clip-path:url(#SVGID_44_);fill:#BFC4DA;}
	.st53{clip-path:url(#SVGID_46_);}
	.st54{clip-path:url(#SVGID_48_);fill:#FFC100;}
	.st55{clip-path:url(#SVGID_48_);fill:#F6EB61;}
	.st56{clip-path:url(#SVGID_48_);fill:#439879;}
	.st57{clip-path:url(#SVGID_48_);fill:#28CDFB;}
	.st58{clip-path:url(#SVGID_48_);fill:#FDD757;}
	.st59{clip-path:url(#SVGID_48_);fill:#EC8B00;}
	.st60{fill:url(#SVGID_49_);}
	.st61{fill:#C3C9D8;}
	.st62{clip-path:url(#SVGID_51_);}
	.st63{clip-path:url(#SVGID_53_);fill:#A6ABBA;}
	.st64{clip-path:url(#SVGID_55_);}
	.st65{clip-path:url(#SVGID_57_);fill:#A6ABBA;}
	.st66{clip-path:url(#SVGID_59_);}
	.st67{clip-path:url(#SVGID_61_);fill:#A6ABBA;}
	.st68{clip-path:url(#SVGID_63_);}
	.st69{clip-path:url(#SVGID_65_);fill:#A6ABBA;}
	.st70{clip-path:url(#SVGID_67_);}
	.st71{clip-path:url(#SVGID_69_);fill:#A6ABBA;}
	.st72{clip-path:url(#SVGID_71_);}
	.st73{clip-path:url(#SVGID_73_);fill:#A6ABBA;}
	.st74{clip-path:url(#SVGID_75_);}
	.st75{clip-path:url(#SVGID_77_);fill:#D6DDF2;}
	.st76{clip-path:url(#SVGID_79_);}
	.st77{clip-path:url(#SVGID_81_);fill:#C1C7DD;}
	.st78{clip-path:url(#SVGID_83_);}
	.st79{clip-path:url(#SVGID_85_);fill:#C1C7DD;}
	.st80{clip-path:url(#SVGID_87_);}
	.st81{clip-path:url(#SVGID_89_);fill:#C1C7DD;}
	.st82{clip-path:url(#SVGID_91_);}
	.st83{clip-path:url(#SVGID_93_);fill:#C1C7DD;}
	.st84{clip-path:url(#SVGID_95_);}
	.st85{clip-path:url(#SVGID_97_);enable-background:new    ;}
	.st86{clip-path:url(#SVGID_99_);}
	.st87{clip-path:url(#SVGID_101_);}
	.st88{clip-path:url(#SVGID_103_);fill:#D6DDF2;}
	.st89{clip-path:url(#SVGID_105_);}
	.st90{clip-path:url(#SVGID_107_);fill:#D6DDF2;}
	.st91{clip-path:url(#SVGID_109_);}
	.st92{clip-path:url(#SVGID_111_);fill:#A6ABBA;}
	.st93{clip-path:url(#SVGID_113_);}
	.st94{clip-path:url(#SVGID_115_);fill:#D6DDF2;}
	.st95{clip-path:url(#SVGID_117_);}
	.st96{clip-path:url(#SVGID_119_);enable-background:new    ;}
	.st97{clip-path:url(#SVGID_121_);}
	.st98{clip-path:url(#SVGID_123_);}
	.st99{clip-path:url(#SVGID_125_);fill:#D6DDF2;}
	.st100{clip-path:url(#SVGID_127_);}
	.st101{clip-path:url(#SVGID_129_);fill:#A6ABBA;}
	.st102{fill:url(#SVGID_130_);}
	.st103{fill:url(#SVGID_131_);}
	.st104{clip-path:url(#SVGID_133_);}
	.st105{clip-path:url(#SVGID_135_);fill:#A6ABBA;}
	.st106{clip-path:url(#SVGID_137_);}
	.st107{clip-path:url(#SVGID_139_);fill:#FFC100;}
	.st108{clip-path:url(#SVGID_139_);fill:#F6EB61;}
	.st109{clip-path:url(#SVGID_139_);fill:#439879;}
	.st110{clip-path:url(#SVGID_139_);fill:#28CDFB;}
	.st111{clip-path:url(#SVGID_139_);fill:#FDD757;}
	.st112{clip-path:url(#SVGID_139_);fill:#EC8B00;}
	.st113{opacity:0.4;fill:url(#SVGID_140_);}
	.st114{opacity:0.4;fill:url(#SVGID_141_);}
	.st115{fill:#A4AABA;}
	.st116{fill:#EAEDF9;}
	.st117{opacity:0.7;fill:url(#SVGID_142_);}
	.st118{fill:#DFE5F2;}
	.st119{fill:#B4BACC;}
	.st120{opacity:0.7;}
	.st121{fill:url(#SVGID_143_);}
	.st122{opacity:0.2;fill:url(#SVGID_144_);}
	.st123{fill:url(#SVGID_145_);}
	.st124{fill:url(#SVGID_146_);}
	.st125{fill:#CC8621;}
	.st126{fill:url(#SVGID_147_);}
	.st127{fill:#F8E200;}
	.st128{opacity:0.7;fill:#F6EB61;}
	.st129{display:none;fill:#0495D5;}
	.st130{clip-path:url(#SVGID_149_);}
	.st131{clip-path:url(#SVGID_151_);fill:#FFC100;}
	.st132{clip-path:url(#SVGID_151_);fill:#F6EB61;}
	.st133{clip-path:url(#SVGID_151_);fill:#439879;}
	.st134{clip-path:url(#SVGID_151_);fill:#28CDFB;}
	.st135{clip-path:url(#SVGID_151_);fill:#FDD757;}
	.st136{clip-path:url(#SVGID_151_);fill:#EC8B00;}
	.st137{opacity:0.1;fill:url(#SVGID_152_);}
</style>
<linearGradient id="SVGID_1_" gradientUnits="userSpaceOnUse" x1="-918.8864" y1="801.3845" x2="-918.8864" y2="800.3845">
	<stop  offset="0" style="stop-color:#FFFFFF"/>
	<stop  offset="1" style="stop-color:#B3BCD8"/>
</linearGradient>
<linearGradient id="SVGID_2_" gradientUnits="userSpaceOnUse" x1="-918.8864" y1="801.3845" x2="-918.8864" y2="802.3845">
	<stop  offset="0" style="stop-color:#D4DBF0"/>
	<stop  offset="1" style="stop-color:#FFFFFF"/>
</linearGradient>
<linearGradient id="SVGID_3_" gradientUnits="userSpaceOnUse" x1="-918.8864" y1="801.3845" x2="-918.8864" y2="800.3845">
	<stop  offset="0" style="stop-color:#FFFFFF"/>
	<stop  offset="1" style="stop-color:#B3BCD8"/>
</linearGradient>
<linearGradient id="SVGID_4_" gradientUnits="userSpaceOnUse" x1="-918.8864" y1="801.3845" x2="-918.8864" y2="802.3845">
	<stop  offset="0" style="stop-color:#D4DBF0"/>
	<stop  offset="1" style="stop-color:#FFFFFF"/>
</linearGradient>
<linearGradient id="SVGID_5_" gradientUnits="userSpaceOnUse" x1="1172.989" y1="224.2562" x2="1255.8351" y2="144.428" gradientTransform="matrix(1 0 0 1 -1121.0634 0)">
	<stop  offset="0" style="stop-color:#C1C7DF"/>
	<stop  offset="7.794535e-02" style="stop-color:#CDD2E5;stop-opacity:0.9221"/>
	<stop  offset="0.261" style="stop-color:#E3E6F1;stop-opacity:0.739"/>
	<stop  offset="0.4608" style="stop-color:#F3F4F9;stop-opacity:0.5392"/>
	<stop  offset="0.6876" style="stop-color:#FCFCFE;stop-opacity:0.3124"/>
	<stop  offset="1" style="stop-color:#FFFFFF;stop-opacity:0"/>
</linearGradient>
<polyline class="st0" points="47.9,238.5 8.6,215.9 112.2,158.3 149.9,179.9 "/>
<line class="st1" x1="249.4" y1="173.9" x2="261.3" y2="166.9"/>
<g>
	<linearGradient id="SVGID_6_" gradientUnits="userSpaceOnUse" x1="254.2496" y1="115.5214" x2="326.8122" y2="43.632">
		<stop  offset="0" style="stop-color:#C1C7DF"/>
		<stop  offset="7.526480e-02" style="stop-color:#CDD2E5;stop-opacity:0.9221"/>
		<stop  offset="0.252" style="stop-color:#E3E6F1;stop-opacity:0.739"/>
		<stop  offset="0.445" style="stop-color:#F3F4F9;stop-opacity:0.5392"/>
		<stop  offset="0.664" style="stop-color:#FCFCFE;stop-opacity:0.3124"/>
		<stop  offset="0.9656" style="stop-color:#FFFFFF;stop-opacity:0"/>
	</linearGradient>
	<polygon class="st2" points="266.6,119.9 223.4,95.6 304.9,48.8 348.1,73.1 	"/>
	<g>
		<polygon class="st3" points="245.8,113.2 206,90.2 234.4,73.8 274.2,96.8 		"/>
		<linearGradient id="SVGID_7_" gradientUnits="userSpaceOnUse" x1="229.5555" y1="101.5258" x2="221.9611" y2="121.4159">
			<stop  offset="0" style="stop-color:#D4DBF0"/>
			<stop  offset="1" style="stop-color:#FFFFFF"/>
		</linearGradient>
		<polygon class="st4" points="245.8,132 206,109 206,90.2 245.8,113.2 		"/>
		<linearGradient id="SVGID_8_" gradientUnits="userSpaceOnUse" x1="261.3429" y1="138.777" x2="259.5529" y2="105.215">
			<stop  offset="0" style="stop-color:#FFFFFF"/>
			<stop  offset="1" style="stop-color:#B3BCD8"/>
		</linearGradient>
		<polygon class="st5" points="274.2,96.8 245.8,113.2 245.8,132 274.2,115.6 		"/>
	</g>
	<g>
		<polygon class="st3" points="245.4,105.3 213.6,86.9 236.3,73.8 268.2,92.2 		"/>
		<linearGradient id="SVGID_9_" gradientUnits="userSpaceOnUse" x1="230.9858" y1="94.5242" x2="227.9249" y2="102.5409">
			<stop  offset="0" style="stop-color:#D4DBF0"/>
			<stop  offset="1" style="stop-color:#FFFFFF"/>
		</linearGradient>
		<polygon class="st6" points="245.4,109.8 213.6,91.5 213.6,86.9 245.4,105.3 		"/>
		<linearGradient id="SVGID_10_" gradientUnits="userSpaceOnUse" x1="257.4318" y1="112.8853" x2="256.5603" y2="96.5456">
			<stop  offset="0" style="stop-color:#FFFFFF"/>
			<stop  offset="1" style="stop-color:#B3BCD8"/>
		</linearGradient>
		<polygon class="st7" points="268.2,92.2 245.4,105.3 245.4,109.8 268.2,96.7 		"/>
	</g>
</g>
<g>
	<path id="XMLID_28_" class="st8" d="M14.9,272.7c-1.1,1.4-3.4,2.3-5.1,2s-2.3-1.6-1.2-2.9c1.1-1.4,3.4-2.3,5.1-2
		C15.5,270.1,16,271.4,14.9,272.7z"/>
	<path id="XMLID_27_" class="st9" d="M9.2,268.8h-1v5.1c0,0.2,0.1,0.3,0.2,0.4l0.5,0.3c0,0,0.1,0.1,0.3,0.1c0.1,0,0.2-0.1,0.3-0.1
		l0.4-0.2c0.2-0.1,0.3-0.3,0.3-0.6v-5H9.2z"/>
	<ellipse id="XMLID_26_" class="st10" cx="9.2" cy="264.5" rx="3.8" ry="6.8"/>
	<path id="XMLID_25_" class="st11" d="M13,264.5c0-2.4-0.5-4.1-1.3-5.3c-0.1,0-0.2,0-0.3,0c-2.1,0-3.8,2.5-3.8,6.8
		c0,2.3,0.5,4.1,1.3,5.3c0.1,0,0.2,0,0.3,0C11.3,271.2,13,268.8,13,264.5z"/>
</g>
<polygon id="XMLID_24_" class="st10" points="266.5,241.8 266.5,229.4 266.5,229.4 252.2,221.1 252.2,226.8 266.3,234.9 
	266.3,241.8 265.3,242.4 266.4,243 267.5,242.4 "/>
<path class="st8" d="M177.3,183.4c-2.2,1.3-5.7,1.3-7.9,0c-2.2-1.3-2.2-3.3,0-4.6c2.2-1.3,5.7-1.3,7.9,0
	C179.5,180.1,179.5,182.1,177.3,183.4z M342.1,173.6l-11.8-6.8l0,0c0,0-0.1,0-0.1-0.1c-6.5-3.7-17-3.8-23.5,0l0,0L276.9,184l0,0
	c0,0-0.1,0-0.1,0.1c-2,1.2-5.3,1.2-7.3,0l-27.5-15.9c0,0-0.1,0-0.1-0.1c-6.5-3.8-17-3.8-23.5,0l0,0c-2,1.2-5.3,1.2-7.3,0
	c0,0-0.1,0-0.1-0.1l0,0c-6.5-3.7-16.8-3.7-23.3,0l0,0l-7.5,4.3l0,0c-4.3-1.1-9.3-1.1-13.7,0l-7.3-4.2l0,0c0,0-0.1,0-0.1-0.1
	c0,0,0,0-0.1,0l0,0l0,0c-6.5-3.7-16.9-3.7-23.4,0l0,0l-9.4,5.4l0,0c0,0-0.1,0.1-0.1,0.1c-5.7,1-8.6-1-10.6-2.2l-12.3-6.8l-8,4.5
	l15.4,9.3l0.1,0l-0.1,0c6.4,3.7,16.8,3.7,23.3,0.1l1.8-1l7.9-4.6l0,0c2-1.2,5.3-1.2,7.3,0c0,0,0.1,0,0.1,0.1l0,0l7.3,4.2l0,0
	c-2,2.5-2,5.4,0,7.9l0,0l-4.7,2.7l-1.8,1l-1,0.6l0,0l-77.8,45.1l9.9,3.7l76.1-44.1l0,0l7.4-4.3c4.3,1.1,9.3,1.1,13.7,0l0,0l7.5,4.3
	l0,0c1.9,1.2,1.9,3-0.1,4.1c0,0-0.1,0-0.1,0.1l0,0c-6.3,3.7-6.3,9.7,0,13.4l0,0l62.5,36.1c1.8,1.1,1.8,2.9,0,4l-2,1.2l10,3.6l0,0
	c6.5-3.7,6.5-9.7,0.1-13.5l0,0l-9.6-5.5l-8.1-4.7l-33.8-19.5l-1.8-1l-9.1-5.3l0,0c-2-1.1-2-3-0.1-4.1c0,0,0.1,0,0.1-0.1
	c6.5-3.7,6.5-9.8,0.1-13.5l0,0l-0.1,0c0,0,0,0,0,0l0,0l-7.4-4.3c2-2.5,2-5.4,0-7.9l7.4-4.3l0,0c2-1.1,5.1-1.2,7.1-0.1
	c0,0,0.1,0,0.1,0.1c6.5,3.8,17,3.7,23.5,0l0,0c2-1.2,5.3-1.2,7.3,0c0,0,0.1,0,0.1,0.1l0,0l19.6,11.3l1.8,1l6.1,3.5h0l0,0
	c6.5,3.8,17,3.8,23.5,0c0,0,0.1,0,0.1-0.1l0,0l29.8-17.3l0,0c2-1.2,5.3-1.2,7.3,0c0,0,0.1,0,0.1,0.1l0,0l9.4,5.4"/>
<g>
	<path class="st3" d="M356.8,141.7l-2,1.2c1.2-0.7,2.9-0.6,4.8,0.5c0.7,0.4,1.4,1,2.1,1.6l2-1.2c-0.7-0.6-1.4-1.2-2.1-1.6
		C359.7,141.1,358,141,356.8,141.7z"/>
	<path class="st3" d="M385.4,150.4c-1.6-0.9-3.2-1.3-4.5-1.2c-1.9-3.4-4.5-6.4-7.5-8.2c-2.8-1.6-5.4-1.8-7.3-0.7l-2,1.2
		c1.9-1.1,4.4-0.9,7.3,0.7c3,1.7,5.7,4.7,7.5,8.2c1.3-0.1,2.9,0.3,4.5,1.2c5,2.9,9.1,10,9.1,15.8c0,2.9-1,4.9-2.7,5.9l2-1.2
		c1.6-1,2.7-3,2.7-5.9C394.6,160.3,390.5,153.3,385.4,150.4z"/>
</g>
<g>
	
		<linearGradient id="SVGID_11_" gradientUnits="userSpaceOnUse" x1="-11.5879" y1="486.6719" x2="34.2204" y2="529.2842" gradientTransform="matrix(-1 0 0 1 7.4166 0)">
		<stop  offset="0" style="stop-color:#E4E8F2"/>
		<stop  offset="1" style="stop-color:#B3BCD8"/>
	</linearGradient>
	<path class="st12" d="M371.4,142.1c3,1.7,5.7,4.7,7.5,8.2c1.3-0.1,2.9,0.3,4.5,1.2c5,2.9,9.1,10,9.1,15.8c0,5.8-4.1,8.1-9.2,5.2
		l-23.9-13.8c-3.7-2.1-6.7-7.3-6.7-11.6c0-4.3,3-6,6.7-3.8c0.7,0.4,1.4,1,2.1,1.6C362.8,140.7,366.8,139.4,371.4,142.1z"/>
</g>
<linearGradient id="SVGID_12_" gradientUnits="userSpaceOnUse" x1="346.1282" y1="256.2039" x2="452.7238" y2="195.7242">
	<stop  offset="0" style="stop-color:#C1C7DF"/>
	<stop  offset="4.307938e-02" style="stop-color:#CBD0E4;stop-opacity:0.9312"/>
	<stop  offset="0.1636" style="stop-color:#E2E5F0;stop-opacity:0.7387"/>
	<stop  offset="0.2935" style="stop-color:#F2F4F8;stop-opacity:0.5314"/>
	<stop  offset="0.438" style="stop-color:#FCFCFD;stop-opacity:0.3008"/>
	<stop  offset="0.6264" style="stop-color:#FFFFFF;stop-opacity:0"/>
</linearGradient>
<polygon class="st13" points="369.6,270.5 320.2,242.1 427.8,182.2 477.3,210.6 "/>
<linearGradient id="SVGID_13_" gradientUnits="userSpaceOnUse" x1="311.1639" y1="210.0941" x2="311.1639" y2="284.6425">
	<stop  offset="0" style="stop-color:#D4DBF0"/>
	<stop  offset="1" style="stop-color:#FFFFFF"/>
</linearGradient>
<polygon class="st14" points="335.9,289.9 286.4,261.5 286.4,202.4 335.9,230.8 "/>
<polygon class="Top_x0020_15" points="335.8,230.8 286.4,202.4 320.2,183 369.6,211.4 "/>
<linearGradient id="SVGID_14_" gradientUnits="userSpaceOnUse" x1="352.7659" y1="289.932" x2="352.7659" y2="211.3994">
	<stop  offset="0" style="stop-color:#FFFFFF"/>
	<stop  offset="1" style="stop-color:#B3BCD8"/>
</linearGradient>
<polygon class="st15" points="369.6,270.5 335.9,289.9 335.9,230.8 369.6,211.4 "/>
<g>
	<polygon class="st16" points="298.3,234 293,231 293,216.6 298.3,219.7 	"/>
	<polygon class="st16" points="307.6,239.3 302.3,236.3 302.3,221.9 307.6,225 	"/>
	<polygon class="st16" points="317.5,245.1 312.3,242 312.3,227.7 317.5,230.7 	"/>
	<polygon class="st16" points="327.8,250.9 322.6,247.9 322.6,233.5 327.8,236.6 	"/>
</g>
<g>
	<polygon class="st16" points="298.3,257.2 293,254.2 293,239.8 298.3,242.9 	"/>
	<polygon class="st16" points="307.6,262.5 302.3,259.5 302.3,245.1 307.6,248.2 	"/>
	<polygon class="st16" points="317.5,268.3 312.3,265.2 312.3,250.9 317.5,253.9 	"/>
	<polygon class="st16" points="327.8,274.1 322.6,271.1 322.6,256.7 327.8,259.8 	"/>
</g>
<g>
	<linearGradient id="SVGID_15_" gradientUnits="userSpaceOnUse" x1="311.6732" y1="217.705" x2="317.3401" y2="208.459">
		<stop  offset="0" style="stop-color:#D4DBF0"/>
		<stop  offset="1" style="stop-color:#FFFFFF"/>
	</linearGradient>
	<polygon class="st17" points="333.7,227 294.7,204.6 294.7,200.1 333.7,222.5 	"/>
	<polygon class="Top_x0020_14" points="333.7,222.5 294.7,200.1 321.3,184.8 360.3,207.2 	"/>
	<linearGradient id="SVGID_16_" gradientUnits="userSpaceOnUse" x1="337.4567" y1="204.8911" x2="351.4748" y2="222.7864">
		<stop  offset="0" style="stop-color:#FFFFFF"/>
		<stop  offset="1" style="stop-color:#B3BCD8"/>
	</linearGradient>
	<polygon class="st18" points="360.3,211.7 333.7,227 333.7,222.5 360.3,207.2 	"/>
</g>
<ellipse class="st3" cx="302.1" cy="144" rx="20.8" ry="6.1"/>
<g>
	<g>
		<line class="st19" x1="269.8" y1="162.3" x2="271.5" y2="161.3"/>
		<line class="st20" x1="274.7" y1="159.5" x2="298.8" y2="145.6"/>
		<line class="st19" x1="300.4" y1="144.7" x2="302.1" y2="143.7"/>
	</g>
</g>
<g>
	<g>
		<path class="st21" d="M278.2,153.3h-1.5v-6c0-2.9-2.3-5.2-5.2-5.2c-2.9,0-5.2,2.3-5.2,5.2v5.9h-1.5v-5.9c0-3.7,3-6.7,6.7-6.7
			c3.7,0,6.7,3,6.7,6.7V153.3z"/>
	</g>
	<path class="st22" d="M279.7,167.2c0,0.3-0.3,0.6-0.6,0.6h-15.1c-0.3,0-0.6-0.3-0.6-0.6v-15.1c0-0.3,0.3-0.6,0.6-0.6H279
		c0.3,0,0.6,0.3,0.6,0.6V167.2z"/>
	<circle class="st3" cx="271.4" cy="159.7" r="4.1"/>
	<path class="st11" d="M273.6,159c0-1.2-1-2.2-2.2-2.2c-1.2,0-2.2,1-2.2,2.2c0,0.8,0.5,1.5,1.1,1.9l-0.3,1.7h2.8l-0.3-1.7
		C273.2,160.5,273.6,159.8,273.6,159z"/>
</g>
<g>
	<g>
		<line class="st19" x1="302.4" y1="37.1" x2="302.4" y2="39.1"/>
		<line class="st23" x1="302.4" y1="43.2" x2="302.4" y2="139.2"/>
		<line class="st19" x1="302.4" y1="141.2" x2="302.4" y2="143.2"/>
	</g>
</g>
<linearGradient id="SVGID_17_" gradientUnits="userSpaceOnUse" x1="69.8864" y1="235.4054" x2="63.288" y2="255.4671">
	<stop  offset="0.1351" style="stop-color:#F2F4FC"/>
	<stop  offset="0.9656" style="stop-color:#FFFFFF;stop-opacity:0"/>
</linearGradient>
<path class="st24" d="M73.3,234.4l-21.5,12.4l9.9,3.7L83.4,238L73.3,234.4z"/>
<linearGradient id="SVGID_18_" gradientUnits="userSpaceOnUse" x1="244.5413" y1="254.0285" x2="237.9429" y2="274.0902">
	<stop  offset="0.1351" style="stop-color:#F2F4FC"/>
	<stop  offset="0.9656" style="stop-color:#FFFFFF;stop-opacity:0"/>
</linearGradient>
<path class="st25" d="M248,253l-21.5,12.4l9.9,3.7l21.7-12.5L248,253z"/>
<linearGradient id="SVGID_19_" gradientUnits="userSpaceOnUse" x1="69.2671" y1="212.8622" x2="170.4069" y2="212.8622">
	<stop  offset="0" style="stop-color:#F8E200;stop-opacity:0"/>
	<stop  offset="1" style="stop-color:#F8E200"/>
</linearGradient>
<path class="st26" d="M157.6,185.5l-1.8,1l-1,0.6l0,0l-85.5,49.5l9.9,3.7l83.8-48.6l0,0l7.4-4.3L157.6,185.5z"/>
<linearGradient id="SVGID_20_" gradientUnits="userSpaceOnUse" x1="180.1945" y1="178.4914" x2="285.0183" y2="178.4914">
	<stop  offset="0" style="stop-color:#F8E200"/>
	<stop  offset="1" style="stop-color:#F8E200;stop-opacity:0"/>
</linearGradient>
<path class="st27" d="M276.9,184L276.9,184c0,0-0.1,0-0.1,0.1c-2,1.2-5.3,1.2-7.3,0L242,168.3c0,0-0.1,0-0.1-0.1
	c-6.5-3.8-17-3.8-23.5,0l0,0c-2,1.2-5.3,1.2-7.3,0c0,0-0.1,0-0.1-0.1l0,0c-6.5-3.7-16.8-3.7-23.3,0l0,0l-7.5,4.3l0,0l8.1,12.6
	c2-2.5,2-5.4,0-7.9l7.4-4.3l0,0c2-1.1,5.1-1.2,7.1-0.1c0,0,0.1,0,0.1,0.1c6.5,3.8,17,3.7,23.5,0l0,0c2-1.2,5.3-1.2,7.3,0
	c0,0,0.1,0,0.1,0.1l0,0l19.6,11.3l1.8,1l6.1,3.5h0l0,0c6.5,3.8,17,3.8,23.5,0c0,0,0.1,0,0.1-0.1l0,0L276.9,184z M195.7,189.3
	 M195.8,189.4"/>
<linearGradient id="SVGID_21_" gradientUnits="userSpaceOnUse" x1="95.4653" y1="172.9135" x2="166.6541" y2="172.9135">
	<stop  offset="0" style="stop-color:#F8E200;stop-opacity:0"/>
	<stop  offset="1" style="stop-color:#F8E200"/>
</linearGradient>
<path class="st28" d="M166.7,172.5l-7.3-4.2l0,0c0,0-0.1,0-0.1-0.1c0,0,0,0-0.1,0l0,0l0,0c-6.5-3.7-16.9-3.7-23.4,0l0,0l-9.4,5.4
	l0,0c0,0-0.1,0.1-0.1,0.1c-5.7,1-8.6-1-10.6-2.2l-12.2-6.8l-8,4.5l15.4,9.2l0.1,0l-0.1,0c6.4,3.7,16.8,3.7,23.3,0.1l1.8-1l7.9-4.6
	l0,0c2-1.2,5.3-1.2,7.3,0c0,0,0.1,0,0.1,0.1l0,0l7.3,4.2l0,0L166.7,172.5z"/>
<g>
	<g>
		<g>
			<path class="st21" d="M302.5,33.7L302.5,33.7c-0.4,0-0.7-0.3-0.7-0.7l0-9.2c0-0.4,0.3-0.7,0.7-0.7l0,0c0.4,0,0.7,0.3,0.7,0.7
				l0,9.2C303.2,33.4,302.9,33.7,302.5,33.7z"/>
		</g>
		<ellipse transform="matrix(0.2587 -0.966 0.966 0.2587 198.5495 311.8354)" class="st21" cx="302.4" cy="26.6" rx="2" ry="2"/>
		<path class="st21" d="M289.6,23.7c0,0-1.8,3.5-2.1,6.5s-0.5,4.8,0.4,5c0.9,0.2,1.5-1.1,1.7-3.2c0.2-2.1,1-6,3.3-6.1
			C295.2,26,289.6,23.7,289.6,23.7z"/>
		<path class="st21" d="M292.9,26c2.3-0.1-3.3-2.3-3.3-2.3s-1.1,2-1.7,4.3c0.3-0.1,0.7-0.2,1.1-0.2c0.6,0.1,1,0.6,1.2,1.1
			C290.7,27.4,291.5,26.1,292.9,26z"/>
		<path class="st21" d="M314.7,23.8c0,0,1.8,3.5,2,6.6c0.2,3.1,0.5,4.8-0.4,5c-0.9,0.2-1.4-1.1-1.6-3.2c-0.2-2.1-1-6-3.3-6.1
			C309.1,26,314.7,23.8,314.7,23.8z"/>
		<path class="st21" d="M311.4,26.1c-2.3-0.1,3.3-2.3,3.3-2.3s1.1,2,1.7,4.3c-0.3-0.1-0.7-0.2-1.1-0.2c-0.6,0.1-1,0.5-1.2,1.1
			C313.6,27.5,312.7,26.2,311.4,26.1z"/>
		<path class="st29" d="M320.6,17.5L320.6,17.5c-0.9,0-1.7,0.8-1.7,1.7l0,2.2c-3.5-1.2-9.8-2-16.8-2c-7,0-13.2,0.7-16.7,1.8l0-2.2
			c0-0.9-0.8-1.7-1.7-1.7c-0.9,0-1.7,0.8-1.7,1.7l0,3.8c0,0.3,0.1,0.6,0.2,0.8c0.1,0.3,0.3,0.5,0.6,0.7c0.2,0.1,0.4,0.2,0.7,0.2
			c1.2,0.3,3.2,0.3,5.7,0.2c1.5,1.1,6.7,1.9,13,2c6.3,0,11.5-0.8,13-1.9c2.4,0.1,4.3,0.1,5.5-0.2c0.9,0,1.7-0.8,1.7-1.7l0-3.8
			C322.3,18.3,321.6,17.5,320.6,17.5z"/>
		<g>
			<path class="st30" d="M283.6,17.9c0.9,0,1.7,0.6,1.7,1.3l0-0.1c0-0.9-0.8-1.7-1.7-1.7c-0.9,0-1.7,0.8-1.7,1.7l0,0.1
				C281.9,18.5,282.7,17.9,283.6,17.9z"/>
			<path class="st30" d="M302.1,19.5c1.6,0,3.1,0,4.5,0.1C305.1,19.5,303.6,19.4,302.1,19.5c-1.6,0-3.1,0-4.5,0.1
				C299,19.5,300.5,19.5,302.1,19.5z"/>
			<path class="st30" d="M320.6,17.5L320.6,17.5c-0.9,0-1.7,0.8-1.7,1.7l0,0.1c0-0.7,0.8-1.3,1.7-1.3l0,0c0.9,0,1.7,0.6,1.7,1.3
				l0-0.1C322.3,18.3,321.6,17.5,320.6,17.5z"/>
			<path class="st30" d="M320.6,23.4c-1.2,0.2-3.1,0.2-5.5,0.1c-1.5,0.8-6.7,1.4-13,1.4c-6.3,0-11.5-0.6-13-1.5
				c-2.5,0-4.4,0-5.7-0.2c-0.3,0-0.5-0.1-0.7-0.2c-0.4-0.1-0.6-0.3-0.6-0.5c-0.1-0.2-0.2-0.4-0.2-0.6l0,0.9c0,0.3,0.1,0.6,0.2,0.8
				c0.1,0.3,0.3,0.5,0.6,0.7c0.2,0.1,0.4,0.2,0.7,0.2c1.2,0.3,3.2,0.3,5.7,0.2c1.5,1.1,6.7,1.9,13,2c6.3,0,11.5-0.8,13-1.9
				c2.4,0.1,4.3,0.1,5.5-0.2c0.9,0,1.7-0.8,1.7-1.7l0-0.9C322.3,22.9,321.6,23.4,320.6,23.4z"/>
		</g>
		<path class="st31" d="M310.4,21.7c0,0.5-3.7,0.8-8.2,0.8c-4.5,0-8.1-0.4-8.1-0.9c0-0.5,3.7-0.8,8.2-0.8
			C306.8,20.8,310.4,21.2,310.4,21.7z"/>
		<g>
			<path class="st32" d="M285.3,18.4c0,0-4.7,0-8.6,0c-3.9,0-5.6,0.2-5.6-0.6c0-0.8,1.7-1.3,5.7-1.3
				C280.7,16.5,285.3,18.4,285.3,18.4z"/>
			<path class="st32" d="M282.5,18.4c0,0,4.7,0,8.6,0c3.9,0,5.6,0.2,5.7-0.6c0-0.8-1.7-1.3-5.6-1.3
				C287.1,16.5,282.5,18.4,282.5,18.4z"/>
			<path class="st21" d="M285.4,18c0,0.5-0.8,0.5-1.7,0.5c-0.9,0-1.7,0-1.7-0.5c0-0.5,0.8-0.9,1.7-0.9
				C284.6,17.1,285.4,17.5,285.4,18z"/>
		</g>
		<g>
			<path class="st32" d="M322.3,18.5c0,0-4.7,0-8.6,0c-3.9,0-5.6,0.2-5.6-0.6c0-0.8,1.7-1.3,5.7-1.3
				C317.7,16.6,322.3,18.5,322.3,18.5z"/>
			<path class="st32" d="M319.5,18.5c0,0,4.7,0,8.6,0c3.9,0,5.6,0.2,5.7-0.6c0-0.8-1.7-1.3-5.6-1.3
				C324.1,16.6,319.5,18.5,319.5,18.5z"/>
			<path class="st21" d="M322.4,18.2c0,0.5-0.8,0.5-1.7,0.5c-0.9,0-1.7,0-1.7-0.5c0-0.5,0.8-0.9,1.7-0.9
				C321.6,17.2,322.4,17.6,322.4,18.2z"/>
		</g>
	</g>
	<g>
		
			<linearGradient id="SVGID_22_" gradientUnits="userSpaceOnUse" x1="401.9323" y1="144.1656" x2="401.9323" y2="126.8495" gradientTransform="matrix(1 -1.829659e-04 1.829659e-04 1 -99.8507 -116.9599)">
			<stop  offset="0" style="stop-color:#F8E200"/>
			<stop  offset="1" style="stop-color:#F8E200;stop-opacity:0"/>
		</linearGradient>
		<polyline class="st33" points="310.4,21.8 310.5,21.8 311,17.9 312.2,9.6 292,9.7 293.1,17.9 293.6,21.7 		"/>
		
			<linearGradient id="SVGID_23_" gradientUnits="userSpaceOnUse" x1="401.8665" y1="144.1656" x2="401.8665" y2="126.8495" gradientTransform="matrix(1 -1.829659e-04 1.829659e-04 1 -99.8507 -116.9599)">
			<stop  offset="0" style="stop-color:#F8E200"/>
			<stop  offset="1" style="stop-color:#F8E200;stop-opacity:0"/>
		</linearGradient>
		<path class="st34" d="M302,22.6c4.5,0,8.3-0.3,8.4-0.8l-16.8-0.1C293.8,22.2,297.5,22.6,302,22.6z"/>
	</g>
	<g>
		<g>
			<defs>
				<rect id="SVGID_24_" x="296.6" y="0" width="11.2" height="12.3"/>
			</defs>
			<clipPath id="SVGID_25_">
				<use xlink:href="#SVGID_24_"  style="overflow:visible;"/>
			</clipPath>
			<g class="st35">
				<defs>
					<rect id="SVGID_26_" x="296.6" y="0" width="11.2" height="12.3"/>
				</defs>
				<clipPath id="SVGID_27_">
					<use xlink:href="#SVGID_26_"  style="overflow:visible;"/>
				</clipPath>
				<path class="st36" d="M302.5,7.3v3.5c0.1,0,0.3-0.1,0.4-0.2l2.9-1.7c0.4-0.2,0.7-0.7,0.7-1.2V4.5c0-0.1,0-0.3-0.1-0.4l-3.2,1.8
					C302.6,6.4,302.5,6.8,302.5,7.3"/>
				<path class="st37" d="M307.6,3.4l-1.2,0.7c0,0.1,0.1,0.3,0.1,0.4v3.3c0,0.5-0.3,0.9-0.7,1.2l-2.9,1.7c-0.1,0.1-0.3,0.1-0.4,0.2
					v1.3c0.2,0,0.4-0.1,0.6-0.2l3.8-2.2c0.5-0.3,0.9-0.9,0.9-1.5V4C307.7,3.8,307.7,3.6,307.6,3.4"/>
				<path class="st38" d="M302.2,6.2c0.2-0.3,0.4-0.5,0.8-0.8l3.2-1.8c-0.1-0.1-0.2-0.2-0.4-0.3l-2.9-1.7c-0.4-0.2-0.9-0.2-1.4,0
					l-2.9,1.7c-0.2,0.1-0.3,0.2-0.4,0.3l3.2,1.8C301.8,5.7,302.1,5.9,302.2,6.2"/>
				<path class="st39" d="M298.7,3.3l2.9-1.7c0.4-0.2,0.9-0.2,1.4,0l2.9,1.7c0.2,0.1,0.3,0.2,0.4,0.3l1.2-0.7
					c-0.1-0.2-0.3-0.3-0.5-0.4l-3.8-2.2c-0.5-0.3-1.2-0.3-1.7,0l-3.8,2.2c-0.2,0.1-0.4,0.3-0.5,0.5l1.2,0.7
					C298.4,3.5,298.5,3.4,298.7,3.3"/>
				<path class="st40" d="M301.5,10.7L298.7,9c-0.4-0.2-0.7-0.7-0.7-1.2V4.5c0-0.1,0-0.3,0.1-0.4l-1.2-0.7c-0.1,0.2-0.1,0.4-0.1,0.5
					v4.3c0,0.6,0.3,1.2,0.9,1.5l3.8,2.2c0.2,0.1,0.4,0.2,0.6,0.2v-1.3C301.8,10.8,301.7,10.8,301.5,10.7"/>
				<path class="st41" d="M301.2,5.9L298,4.1c0,0.1-0.1,0.3-0.1,0.4v3.3c0,0.5,0.3,0.9,0.7,1.2l2.9,1.7c0.1,0.1,0.3,0.1,0.4,0.2V7.3
					C302,6.8,301.8,6.4,301.2,5.9"/>
			</g>
		</g>
	</g>
</g>
<linearGradient id="SVGID_28_" gradientUnits="userSpaceOnUse" x1="-329.9635" y1="120.2138" x2="-329.9635" y2="233.5964" gradientTransform="matrix(-1 0 0 1 -261.9008 0)">
	<stop  offset="0" style="stop-color:#D4DBF0"/>
	<stop  offset="1" style="stop-color:#FFFFFF"/>
</linearGradient>
<polygon class="st42" points="42.9,241.6 93.2,212.6 93.2,108.5 42.9,137.3 "/>
<polygon class="Top_x0020_13" points="43,137.3 93.2,108.5 59,88.8 8.8,117.6 "/>
<linearGradient id="SVGID_29_" gradientUnits="userSpaceOnUse" x1="-287.7604" y1="240.9337" x2="-287.7604" y2="117.6463" gradientTransform="matrix(-1 0 0 1 -261.9008 0)">
	<stop  offset="0" style="stop-color:#FFFFFF"/>
	<stop  offset="1" style="stop-color:#B3BCD8"/>
</linearGradient>
<polygon class="st43" points="8.8,221.2 42.9,240.9 42.9,137.3 8.8,117.6 "/>
<g>
	<polygon class="st16" points="81.2,140.6 86.5,137.5 86.5,122.9 81.2,126 	"/>
	<polygon class="st16" points="71.7,146 77,142.9 77,128.3 71.7,131.4 	"/>
	<polygon class="st16" points="61.6,151.8 67,148.7 67,134.1 61.6,137.2 	"/>
	<polygon class="st16" points="51.2,157.8 56.5,154.7 56.5,140.1 51.2,143.2 	"/>
</g>
<g>
	<polygon class="st16" points="81.2,164.2 86.5,161.1 86.5,146.5 81.2,149.6 	"/>
	<polygon class="st16" points="71.7,169.5 77,166.5 77,151.9 71.7,155 	"/>
	<polygon class="st16" points="61.6,175.3 67,172.3 67,157.7 61.6,160.8 	"/>
	<polygon class="st16" points="51.2,181.3 56.5,178.2 56.5,163.6 51.2,166.7 	"/>
</g>
<g>
	<polygon class="st16" points="81.2,187.7 86.5,184.6 86.5,170 81.2,173.1 	"/>
	<polygon class="st16" points="71.7,193.1 77,190 77,175.4 71.7,178.5 	"/>
	<polygon class="st16" points="61.6,198.9 67,195.8 67,181.2 61.6,184.3 	"/>
	<polygon class="st16" points="51.2,204.8 56.5,201.8 56.5,187.2 51.2,190.3 	"/>
</g>
<g>
	
		<linearGradient id="SVGID_30_" gradientUnits="userSpaceOnUse" x1="-329.4603" y1="124.0451" x2="-323.7097" y2="114.6625" gradientTransform="matrix(-1 0 0 1 -261.9008 0)">
		<stop  offset="0" style="stop-color:#D4DBF0"/>
		<stop  offset="1" style="stop-color:#FFFFFF"/>
	</linearGradient>
	<polygon class="st44" points="45.2,133.5 84.8,110.7 84.8,106.2 45.2,128.9 	"/>
	<polygon class="Top_x0020_12" points="45.2,128.9 84.8,106.2 57.8,90.7 18.2,113.4 	"/>
	
		<linearGradient id="SVGID_31_" gradientUnits="userSpaceOnUse" x1="-303.2957" y1="111.0418" x2="-289.0706" y2="129.2016" gradientTransform="matrix(-1 0 0 1 -261.9008 0)">
		<stop  offset="0" style="stop-color:#FFFFFF"/>
		<stop  offset="1" style="stop-color:#B3BCD8"/>
	</linearGradient>
	<polygon class="st45" points="18.2,117.9 45.2,133.5 45.2,128.9 18.2,113.4 	"/>
</g>
<g>
	<polygon class="st16" points="81.2,211.7 86.5,208.6 86.5,194 81.2,197.1 	"/>
	<polygon class="st16" points="71.7,217.1 77,214 77,199.4 71.7,202.5 	"/>
	<polygon class="st16" points="61.6,222.9 67,219.8 67,205.2 61.6,208.3 	"/>
	<polygon class="st16" points="51.2,228.8 56.5,225.8 56.5,211.2 51.2,214.2 	"/>
</g>
<g>
	<g>
		<path class="st3" d="M132.9,80.1l1.7,1c-1-0.6-2.5-0.5-4.1,0.4c-0.6,0.4-1.2,0.8-1.8,1.3l-1.7-1c0.6-0.5,1.2-1,1.8-1.3
			C130.4,79.6,131.9,79.5,132.9,80.1z"/>
		<path class="st3" d="M108.5,87.4c1.4-0.8,2.7-1.1,3.8-1.1c1.6-2.9,3.9-5.5,6.4-6.9c2.4-1.4,4.6-1.5,6.2-0.6l1.7,1
			c-1.6-0.9-3.8-0.8-6.2,0.6c-2.5,1.5-4.8,4-6.4,6.9c-1.1-0.1-2.4,0.3-3.8,1.1c-4.3,2.5-7.8,8.5-7.7,13.4c0,2.4,0.9,4.2,2.3,5
			l-1.7-1c-1.4-0.8-2.3-2.5-2.3-5C100.8,95.9,104.2,89.9,108.5,87.4z"/>
	</g>
	<g>
		<linearGradient id="SVGID_32_" gradientUnits="userSpaceOnUse" x1="119.7374" y1="63.4242" x2="119.1635" y2="109.907">
			<stop  offset="0" style="stop-color:#FFFFFF"/>
			<stop  offset="1" style="stop-color:#B3BCD8"/>
		</linearGradient>
		<path class="st46" d="M120.4,80.4c-2.5,1.5-4.8,4-6.4,6.9c-1.1-0.1-2.4,0.3-3.8,1.1c-4.3,2.5-7.8,8.5-7.7,13.4
			c0,4.9,3.5,6.9,7.8,4.4l20.3-11.7c3.1-1.8,5.7-6.2,5.7-9.8c0-3.6-2.6-5.1-5.7-3.3c-0.6,0.4-1.2,0.8-1.8,1.3
			C127.7,79.3,124.4,78.2,120.4,80.4z"/>
	</g>
</g>
<g>
	<g>
		<g>
			<defs>
				<path id="SVGID_33_" d="M18.8,62.2c0-0.1,0-0.2,0.1-0.2c0.1,0,0.2,0,0.2,0.1c0,0.1,3.9,15.3,16.8,17c0.1,0,0.2,0.1,0.1,0.2
					c0,0.1-0.1,0.1-0.2,0.1C22.8,77.7,18.8,62.3,18.8,62.2z"/>
			</defs>
			<clipPath id="SVGID_34_">
				<use xlink:href="#SVGID_33_"  style="overflow:visible;"/>
			</clipPath>
			<rect x="11.9" y="55.1" class="st47" width="31.1" height="31.3"/>
		</g>
		<g>
			<defs>
				<path id="SVGID_35_" d="M35.8,79.3c0-0.1,0.1-0.2,0.1-0.2c12.9-1.8,16.8-16.9,16.8-17c0-0.1,0.1-0.1,0.2-0.1
					c0.1,0,0.1,0.1,0.1,0.2c0,0.1-4,15.5-17.1,17.3C35.8,79.5,35.8,79.4,35.8,79.3z"/>
			</defs>
			<clipPath id="SVGID_36_">
				<use xlink:href="#SVGID_35_"  style="overflow:visible;"/>
			</clipPath>
			<rect x="28.8" y="55.1" class="st48" width="31.1" height="31.3"/>
		</g>
		<g>
			<defs>
				<path id="SVGID_37_" d="M35.8,79.4c-4.2-3-6.8-17.1-6.9-17.6c0-0.1,0-0.2,0.1-0.2c0.1,0,0.2,0,0.2,0.1c0,0.1,2.7,14.4,6.8,17.4
					c0.1,0.1,0.1,0.2,0,0.2C36,79.4,36,79.5,35.8,79.4C35.9,79.5,35.9,79.4,35.8,79.4z"/>
			</defs>
			<clipPath id="SVGID_38_">
				<use xlink:href="#SVGID_37_"  style="overflow:visible;"/>
			</clipPath>
			<rect x="22" y="54.7" class="st49" width="21" height="31.6"/>
		</g>
		<g>
			<defs>
				<path id="SVGID_39_" d="M35.8,79.4c-0.1-0.1,0-0.2,0-0.2c4.1-2.9,6.7-17.3,6.8-17.4c0-0.1,0.1-0.2,0.2-0.1
					c0.1,0,0.1,0.1,0.1,0.2c-0.1,0.4-2.7,14.6-6.9,17.6c0,0-0.1,0-0.1,0C35.9,79.5,35.8,79.4,35.8,79.4z"/>
			</defs>
			<clipPath id="SVGID_40_">
				<use xlink:href="#SVGID_39_"  style="overflow:visible;"/>
			</clipPath>
			<rect x="28.8" y="54.7" class="st50" width="21" height="31.6"/>
		</g>
		<g>
			<defs>
				<path id="SVGID_41_" d="M52.9,61.6c0,0.4,0,0.7,0,1.1c-0.3-2.5-2.5-4.5-5.1-4.5c-2.5,0-4.6,1.8-5,4.1c0-0.2,0-0.5,0-0.7
					c0-3.8-3.1-6.9-6.9-6.9c-3.8,0-6.9,3.1-6.9,6.9c0,0.3,0,0.5,0,0.7c-0.5-2.4-2.6-4.1-5-4.1c-2.6,0-4.8,2-5.1,4.5
					c0-0.3,0-0.7,0-1.1c0-9.4,7.6-17,17-17S52.9,52.2,52.9,61.6"/>
			</defs>
			<clipPath id="SVGID_42_">
				<use xlink:href="#SVGID_41_"  style="overflow:visible;"/>
			</clipPath>
			<rect x="12" y="37.7" class="st51" width="47.9" height="31.9"/>
		</g>
		<g>
			<defs>
				<path id="SVGID_43_" d="M29.1,61.6c0-3.8,3.1-6.9,6.9-6.9c3.8,0,6.9,3.1,6.9,6.9c0-11-6.9-17-6.9-17S29.1,50.5,29.1,61.6"/>
			</defs>
			<clipPath id="SVGID_44_">
				<use xlink:href="#SVGID_43_"  style="overflow:visible;"/>
			</clipPath>
			<rect x="22.1" y="37.7" class="st52" width="27.6" height="30.8"/>
		</g>
	</g>
	<g>
		<g>
			<defs>
				<rect id="SVGID_45_" x="30.1" y="80" width="11.2" height="12.3"/>
			</defs>
			<clipPath id="SVGID_46_">
				<use xlink:href="#SVGID_45_"  style="overflow:visible;"/>
			</clipPath>
			<g class="st53">
				<defs>
					<rect id="SVGID_47_" x="30.1" y="80" width="11.2" height="12.3"/>
				</defs>
				<clipPath id="SVGID_48_">
					<use xlink:href="#SVGID_47_"  style="overflow:visible;"/>
				</clipPath>
				<path class="st54" d="M36,87.3v3.5c0.1,0,0.3-0.1,0.4-0.2l2.9-1.7c0.4-0.2,0.7-0.7,0.7-1.2v-3.3c0-0.1,0-0.3-0.1-0.4l-3.2,1.8
					C36.1,86.3,36,86.8,36,87.3"/>
				<path class="st55" d="M41.1,83.4l-1.2,0.7c0,0.1,0.1,0.3,0.1,0.4v3.3c0,0.5-0.3,0.9-0.7,1.2l-2.9,1.7c-0.1,0.1-0.3,0.1-0.4,0.2
					v1.3c0.2,0,0.4-0.1,0.6-0.2l3.8-2.2c0.5-0.3,0.9-0.9,0.9-1.5v-4.3C41.2,83.8,41.2,83.6,41.1,83.4"/>
				<path class="st56" d="M35.7,86.2c0.2-0.3,0.4-0.5,0.8-0.8l3.2-1.8c-0.1-0.1-0.2-0.2-0.4-0.3l-2.9-1.7c-0.4-0.2-0.9-0.2-1.4,0
					l-2.9,1.7c-0.2,0.1-0.3,0.2-0.4,0.3l3.2,1.8C35.3,85.7,35.5,85.9,35.7,86.2"/>
				<path class="st57" d="M32.1,83.3l2.9-1.7c0.4-0.2,0.9-0.2,1.4,0l2.9,1.7c0.2,0.1,0.3,0.2,0.4,0.3l1.2-0.7
					c-0.1-0.2-0.3-0.3-0.5-0.4l-3.8-2.2c-0.5-0.3-1.2-0.3-1.7,0l-3.8,2.2c-0.2,0.1-0.4,0.3-0.5,0.5l1.2,0.7
					C31.9,83.5,32,83.3,32.1,83.3"/>
				<path class="st58" d="M35,90.6L32.1,89c-0.4-0.2-0.7-0.7-0.7-1.2v-3.3c0-0.1,0-0.3,0.1-0.4l-1.2-0.7c-0.1,0.2-0.1,0.4-0.1,0.5
					v4.3c0,0.6,0.3,1.2,0.9,1.5l3.8,2.2c0.2,0.1,0.4,0.2,0.6,0.2v-1.3C35.3,90.8,35.2,90.7,35,90.6"/>
				<path class="st59" d="M34.6,85.9l-3.1-1.8c0,0.1-0.1,0.3-0.1,0.4v3.3c0,0.5,0.3,0.9,0.7,1.2l2.9,1.7c0.1,0.1,0.3,0.1,0.4,0.2
					v-3.5C35.4,86.8,35.3,86.3,34.6,85.9"/>
			</g>
		</g>
	</g>
</g>
<g>
	<path id="XMLID_23_" class="st8" d="M223.3,147.2c-1.1,1.4-3.4,2.3-5.1,2c-1.7-0.2-2.3-1.6-1.2-2.9c1.1-1.4,3.4-2.3,5.1-2
		C223.8,144.5,224.4,145.8,223.3,147.2z"/>
	<path id="XMLID_22_" class="st9" d="M217.6,143.3h-1v5.1c0,0.2,0.1,0.3,0.2,0.4l0.5,0.3c0,0,0.1,0.1,0.3,0.1c0.1,0,0.2-0.1,0.3-0.1
		l0.4-0.2c0.2-0.1,0.3-0.3,0.3-0.6v-5H217.6z"/>
	<ellipse id="XMLID_21_" class="st10" cx="217.6" cy="138.9" rx="3.8" ry="6.8"/>
	<path id="XMLID_20_" class="st11" d="M221.4,138.9c0-2.4-0.5-4.1-1.3-5.3c-0.1,0-0.2,0-0.3,0c-2.1,0-3.8,2.5-3.8,6.8
		c0,2.3,0.5,4.1,1.3,5.3c0.1,0,0.2,0,0.3,0C219.7,145.7,221.4,143.3,221.4,138.9z"/>
</g>
<linearGradient id="SVGID_49_" gradientUnits="userSpaceOnUse" x1="-702.5923" y1="174.4057" x2="-709.1907" y2="194.4674" gradientTransform="matrix(-1 0 0 1 -357.5245 0)">
	<stop  offset="0.1351" style="stop-color:#F2F4FC"/>
	<stop  offset="0.9656" style="stop-color:#FFFFFF;stop-opacity:0"/>
</linearGradient>
<path class="st60" d="M331.6,177l21.7,12.5l9.9-3.7l-21.5-12.4L331.6,177z"/>
<g>
	<path id="XMLID_18_" class="st8" d="M235.7,206.8c-1.1,1.4-3.4,2.3-5.1,2c-1.7-0.2-2.3-1.6-1.2-2.9c1.1-1.4,3.4-2.3,5.1-2
		C236.2,204.1,236.8,205.4,235.7,206.8z"/>
	<path id="XMLID_17_" class="st9" d="M230,202.9h-1v5.1c0,0.2,0.1,0.3,0.2,0.4l0.5,0.3c0,0,0.1,0.1,0.3,0.1c0.1,0,0.2-0.1,0.3-0.1
		l0.4-0.2c0.2-0.1,0.3-0.3,0.3-0.6v-5H230z"/>
	<ellipse id="XMLID_16_" class="st10" cx="230" cy="198.5" rx="3.8" ry="6.8"/>
	<path id="XMLID_15_" class="st61" d="M233.8,198.5c0-2.4-0.5-4.1-1.3-5.3c-0.1,0-0.2,0-0.3,0c-2.1,0-3.8,2.5-3.8,6.8
		c0,2.3,0.5,4.1,1.3,5.3c0.1,0,0.2,0,0.3,0C232.1,205.3,233.8,202.9,233.8,198.5z"/>
</g>
<g>
	<g>
		<g>
			<g>
				<defs>
					<path id="SVGID_50_" d="M86.7,270c-0.3-0.1-0.4-0.3-0.4-0.6l1.3-6.2c0.1-0.3,0.3-0.4,0.6-0.4c0.3,0.1,0.4,0.3,0.4,0.6l-1.3,6.2
						C87.2,269.9,87,270.1,86.7,270"/>
				</defs>
				<clipPath id="SVGID_51_">
					<use xlink:href="#SVGID_50_"  style="overflow:visible;"/>
				</clipPath>
				<g class="st62">
					<defs>
						
							<rect id="SVGID_52_" x="-3799.4" y="1308" transform="matrix(0.3658 -0.9307 0.9307 0.3658 -2316.1541 440.1888)" width="5928.6" height="1223.1"/>
					</defs>
					<clipPath id="SVGID_53_">
						<use xlink:href="#SVGID_52_"  style="overflow:visible;"/>
					</clipPath>
					
						<rect x="79.5" y="261.7" transform="matrix(0.1986 -0.9801 0.9801 0.1986 -191.055 299.2047)" class="st63" width="15.8" height="9.4"/>
				</g>
			</g>
			<g>
				<defs>
					<path id="SVGID_54_" d="M89,265.4c-0.2,0.8-0.9,1.2-1.7,1.1c-0.8-0.2-1.2-0.9-1.1-1.7c0.2-0.8,0.9-1.2,1.7-1.1
						C88.7,263.9,89.2,264.7,89,265.4"/>
				</defs>
				<clipPath id="SVGID_55_">
					<use xlink:href="#SVGID_54_"  style="overflow:visible;"/>
				</clipPath>
				<g class="st64">
					<defs>
						
							<rect id="SVGID_56_" x="-3799.4" y="1308" transform="matrix(0.3658 -0.9307 0.9307 0.3658 -2316.1541 440.1888)" width="5928.6" height="1223.1"/>
					</defs>
					<clipPath id="SVGID_57_">
						<use xlink:href="#SVGID_56_"  style="overflow:visible;"/>
					</clipPath>
					
						<rect x="82" y="259.5" transform="matrix(0.1986 -0.9801 0.9801 0.1986 -189.5964 298.393)" class="st65" width="11.3" height="11.3"/>
				</g>
			</g>
			<g>
				<defs>
					<path id="SVGID_58_" d="M79.3,261.4c0,0-1.7,2.1-2.3,4.2c-0.6,2-1,3.2-0.4,3.5c0.6,0.3,1.1-0.5,1.6-1.9
						c0.4-1.4,1.5-3.9,3.1-3.7C82.8,263.7,79.3,261.4,79.3,261.4"/>
				</defs>
				<clipPath id="SVGID_59_">
					<use xlink:href="#SVGID_58_"  style="overflow:visible;"/>
				</clipPath>
				<g class="st66">
					<defs>
						
							<rect id="SVGID_60_" x="-3799.4" y="1308" transform="matrix(0.3658 -0.9307 0.9307 0.3658 -2316.1541 440.1888)" width="5928.6" height="1223.1"/>
					</defs>
					<clipPath id="SVGID_61_">
						<use xlink:href="#SVGID_60_"  style="overflow:visible;"/>
					</clipPath>
					
						<rect x="70.7" y="259.1" transform="matrix(0.1986 -0.9801 0.9801 0.1986 -196.8747 290.196)" class="st67" width="16.5" height="12.8"/>
				</g>
			</g>
			<g>
				<defs>
					<path id="SVGID_62_" d="M81.2,263.5c1.6,0.3-1.9-2-1.9-2s-1,1.2-1.7,2.7c0.3-0.1,0.5-0.1,0.8,0c0.4,0.2,0.6,0.5,0.7,0.9
						C79.5,264.1,80.3,263.3,81.2,263.5"/>
				</defs>
				<clipPath id="SVGID_63_">
					<use xlink:href="#SVGID_62_"  style="overflow:visible;"/>
				</clipPath>
				<g class="st68">
					<defs>
						
							<rect id="SVGID_64_" x="-3799.4" y="1308" transform="matrix(0.3658 -0.9307 0.9307 0.3658 -2316.1541 440.1888)" width="5928.6" height="1223.1"/>
					</defs>
					<clipPath id="SVGID_65_">
						<use xlink:href="#SVGID_64_"  style="overflow:visible;"/>
					</clipPath>
					
						<rect x="73.6" y="257.2" transform="matrix(0.1986 -0.9801 0.9801 0.1986 -194.2747 289.1469)" class="st69" width="12.1" height="12.4"/>
				</g>
			</g>
			<g>
				<defs>
					<path id="SVGID_66_" d="M96.4,265c0,0,0.8,2.6,0.5,4.7c-0.3,2.1-0.3,3.3-1,3.4c-0.7,0-0.8-1-0.7-2.4c0.2-1.4,0.2-4.2-1.4-4.6
						C92.2,265.7,96.4,265,96.4,265"/>
				</defs>
				<clipPath id="SVGID_67_">
					<use xlink:href="#SVGID_66_"  style="overflow:visible;"/>
				</clipPath>
				<g class="st70">
					<defs>
						
							<rect id="SVGID_68_" x="-3799.4" y="1308" transform="matrix(0.3658 -0.9307 0.9307 0.3658 -2316.1541 440.1888)" width="5928.6" height="1223.1"/>
					</defs>
					<clipPath id="SVGID_69_">
						<use xlink:href="#SVGID_68_"  style="overflow:visible;"/>
					</clipPath>
					
						<rect x="86.8" y="262.4" transform="matrix(0.1986 -0.9801 0.9801 0.1986 -187.2967 308.5532)" class="st71" width="16.5" height="12.8"/>
				</g>
			</g>
			<g>
				<defs>
					<path id="SVGID_70_" d="M93.8,266.1c-1.6-0.4,2.6-1.1,2.6-1.1s0.4,1.5,0.5,3.2c-0.2-0.1-0.5-0.3-0.7-0.3c-0.4,0-0.8,0.2-1,0.6
						C95.1,267.3,94.7,266.3,93.8,266.1"/>
				</defs>
				<clipPath id="SVGID_71_">
					<use xlink:href="#SVGID_70_"  style="overflow:visible;"/>
				</clipPath>
				<g class="st72">
					<defs>
						
							<rect id="SVGID_72_" x="-3799.4" y="1308" transform="matrix(0.3658 -0.9307 0.9307 0.3658 -2316.1541 440.1888)" width="5928.6" height="1223.1"/>
					</defs>
					<clipPath id="SVGID_73_">
						<use xlink:href="#SVGID_72_"  style="overflow:visible;"/>
					</clipPath>
					
						<rect x="89.2" y="260.4" transform="matrix(0.1986 -0.9801 0.9801 0.1986 -184.9461 307.0145)" class="st73" width="12.1" height="12.3"/>
				</g>
			</g>
			<g>
				<defs>
					<path id="SVGID_74_" d="M101.3,261.5c-0.6-0.1-1.3,0.3-1.4,0.9l-0.3,1.5c-2.2-1.3-6.4-2.7-11.2-3.7c-4.8-1-9.1-1.3-11.6-1.1
						l0.3-1.5c0.1-0.6-0.3-1.3-0.9-1.4c-0.6-0.1-1.3,0.3-1.4,0.9l-0.5,2.6c0,0.2,0,0.4,0,0.6c0,0.2,0.1,0.4,0.3,0.5
						c0.1,0.1,0.3,0.2,0.4,0.2c0.8,0.4,2.1,0.6,3.8,0.9c0.8,1,4.3,2.2,8.6,3.1c4.3,0.9,7.9,1.1,9.1,0.5c1.6,0.4,2.9,0.7,3.8,0.6
						c0.6,0.1,1.3-0.3,1.4-0.9l0.5-2.6C102.3,262.2,101.9,261.6,101.3,261.5"/>
				</defs>
				<clipPath id="SVGID_75_">
					<use xlink:href="#SVGID_74_"  style="overflow:visible;"/>
				</clipPath>
				<g class="st74">
					<defs>
						
							<rect id="SVGID_76_" x="-3799.4" y="1308" transform="matrix(0.3658 -0.9307 0.9307 0.3658 -2316.1541 440.1888)" width="5928.6" height="1223.1"/>
					</defs>
					<clipPath id="SVGID_77_">
						<use xlink:href="#SVGID_76_"  style="overflow:visible;"/>
					</clipPath>
					
						<rect x="80.5" y="243.8" transform="matrix(0.1986 -0.9801 0.9801 0.1986 -186.2407 296.3)" class="st75" width="15" height="36.5"/>
				</g>
			</g>
			<g>
				<defs>
					<path id="SVGID_78_" d="M76.1,256.7c0.6,0.1,1.1,0.6,1,1.1l0-0.1c0.1-0.6-0.3-1.3-0.9-1.4c-0.6-0.1-1.3,0.3-1.4,0.9l0,0.1
						C74.8,256.8,75.4,256.5,76.1,256.7"/>
				</defs>
				<clipPath id="SVGID_79_">
					<use xlink:href="#SVGID_78_"  style="overflow:visible;"/>
				</clipPath>
				<g class="st76">
					<defs>
						
							<rect id="SVGID_80_" x="-3799.4" y="1308" transform="matrix(0.3658 -0.9307 0.9307 0.3658 -2316.1541 440.1888)" width="5928.6" height="1223.1"/>
					</defs>
					<clipPath id="SVGID_81_">
						<use xlink:href="#SVGID_80_"  style="overflow:visible;"/>
					</clipPath>
					
						<rect x="71.1" y="251.5" transform="matrix(0.1986 -0.9801 0.9801 0.1986 -190.8652 280.3829)" class="st77" width="9.8" height="10.9"/>
				</g>
			</g>
			<g>
				<defs>
					<path id="SVGID_82_" d="M88.4,260.3c1.1,0.2,2.1,0.4,3.1,0.7C90.5,260.7,89.4,260.5,88.4,260.3c-1.1-0.2-2.1-0.4-3.1-0.6
						C86.3,259.8,87.3,260,88.4,260.3"/>
				</defs>
				<clipPath id="SVGID_83_">
					<use xlink:href="#SVGID_82_"  style="overflow:visible;"/>
				</clipPath>
				<g class="st78">
					<defs>
						
							<rect id="SVGID_84_" x="-3799.4" y="1308" transform="matrix(0.3658 -0.9307 0.9307 0.3658 -2316.1541 440.1888)" width="5928.6" height="1223.1"/>
					</defs>
					<clipPath id="SVGID_85_">
						<use xlink:href="#SVGID_84_"  style="overflow:visible;"/>
					</clipPath>
					
						<rect x="84.1" y="252.9" transform="matrix(0.1986 -0.9801 0.9801 0.1986 -184.265 295.2135)" class="st79" width="8.6" height="14.8"/>
				</g>
			</g>
			<g>
				<defs>
					<path id="SVGID_86_" d="M101.3,261.5c-0.6-0.1-1.3,0.3-1.4,0.9l0,0.1c0.1-0.5,0.7-0.8,1.3-0.6c0.6,0.1,1.1,0.6,1,1.1l0-0.1
						C102.3,262.2,101.9,261.6,101.3,261.5"/>
				</defs>
				<clipPath id="SVGID_87_">
					<use xlink:href="#SVGID_86_"  style="overflow:visible;"/>
				</clipPath>
				<g class="st80">
					<defs>
						
							<rect id="SVGID_88_" x="-3799.4" y="1308" transform="matrix(0.3658 -0.9307 0.9307 0.3658 -2316.1541 440.1888)" width="5928.6" height="1223.1"/>
					</defs>
					<clipPath id="SVGID_89_">
						<use xlink:href="#SVGID_88_"  style="overflow:visible;"/>
					</clipPath>
					
						<rect x="96.3" y="256.7" transform="matrix(0.1986 -0.9801 0.9801 0.1986 -175.8238 309.1754)" class="st81" width="9.8" height="10.9"/>
				</g>
			</g>
			<g>
				<defs>
					<path id="SVGID_90_" d="M100.5,265.5c-0.8,0-2.1-0.3-3.8-0.7c-1.1,0.3-4.8,0-9-0.9c-4.3-0.9-7.7-2-8.6-2.8
						c-1.7-0.3-3-0.6-3.8-0.9c-0.2,0-0.3-0.1-0.5-0.2c-0.2-0.1-0.4-0.3-0.4-0.4c-0.1-0.1-0.1-0.3-0.1-0.4l-0.1,0.6
						c0,0.2,0,0.4,0,0.6c0,0.2,0.1,0.4,0.3,0.5c0.1,0.1,0.3,0.2,0.4,0.2c0.8,0.4,2.1,0.6,3.8,0.9c0.8,1,4.3,2.2,8.6,3.1
						c4.3,0.9,7.9,1.1,9.1,0.5c1.6,0.4,2.9,0.7,3.8,0.6c0.6,0.1,1.3-0.3,1.4-0.9l0.1-0.6C101.7,265.4,101.1,265.6,100.5,265.5"/>
				</defs>
				<clipPath id="SVGID_91_">
					<use xlink:href="#SVGID_90_"  style="overflow:visible;"/>
				</clipPath>
				<g class="st82">
					<defs>
						
							<rect id="SVGID_92_" x="-3799.4" y="1308" transform="matrix(0.3658 -0.9307 0.9307 0.3658 -2316.1541 440.1888)" width="5928.6" height="1223.1"/>
					</defs>
					<clipPath id="SVGID_93_">
						<use xlink:href="#SVGID_92_"  style="overflow:visible;"/>
					</clipPath>
					
						<rect x="81.8" y="245.3" transform="matrix(0.1986 -0.9801 0.9801 0.1986 -188.0443 297.246)" class="st83" width="11.8" height="36.5"/>
				</g>
			</g>
			<g>
				<defs>
					
						<rect id="SVGID_94_" x="71.8" y="250.7" transform="matrix(0.1986 -0.9801 0.9801 0.1986 -192.4241 275.8451)" width="1.3" height="9.9"/>
				</defs>
				<clipPath id="SVGID_95_">
					<use xlink:href="#SVGID_94_"  style="overflow:visible;"/>
				</clipPath>
				<g class="st84">
					<defs>
						
							<rect id="SVGID_96_" x="-3799.4" y="1308" transform="matrix(0.3658 -0.9307 0.9307 0.3658 -2316.1541 440.1888)" width="5928.6" height="1223.1"/>
					</defs>
					<clipPath id="SVGID_97_">
						<use xlink:href="#SVGID_96_"  style="overflow:visible;"/>
					</clipPath>
					<g class="st85">
						<g>
							<defs>
								
									<rect id="SVGID_98_" x="70.8" y="250.6" transform="matrix(0.3658 -0.9307 0.9307 0.3658 -192.0041 229.6748)" width="3.4" height="10.2"/>
							</defs>
							<clipPath id="SVGID_99_">
								<use xlink:href="#SVGID_98_"  style="overflow:visible;"/>
							</clipPath>
							<g class="st86">
								<defs>
									<path id="SVGID_100_" d="M77.2,257.2c0,0-3.2-0.7-5.8-1.2c-2.7-0.6-3.9-0.6-3.8-1.2c0.1-0.5,1.4-0.7,4-0.1
										C74.3,255.3,77.2,257.2,77.2,257.2"/>
								</defs>
								<clipPath id="SVGID_101_">
									<use xlink:href="#SVGID_100_"  style="overflow:visible;"/>
								</clipPath>
								<g class="st87">
									<defs>
										
											<rect id="SVGID_102_" x="70.8" y="250.6" transform="matrix(0.3658 -0.9307 0.9307 0.3658 -192.0041 229.6748)" width="3.4" height="10.2"/>
									</defs>
									<clipPath id="SVGID_103_">
										<use xlink:href="#SVGID_102_"  style="overflow:visible;"/>
									</clipPath>
									
										<rect x="67.5" y="246.4" transform="matrix(0.1986 -0.9801 0.9801 0.1986 -192.4242 275.8431)" class="st88" width="9.8" height="18.4"/>
								</g>
							</g>
						</g>
					</g>
				</g>
			</g>
			<g>
				<defs>
					<path id="SVGID_104_" d="M75.2,256.8c0,0,3.2,0.7,5.8,1.2c2.7,0.6,3.8,0.9,3.9,0.4c0.1-0.5-1-1.1-3.7-1.7
						C78.6,256.2,75.2,256.8,75.2,256.8"/>
				</defs>
				<clipPath id="SVGID_105_">
					<use xlink:href="#SVGID_104_"  style="overflow:visible;"/>
				</clipPath>
				<g class="st89">
					<defs>
						
							<rect id="SVGID_106_" x="-3799.4" y="1308" transform="matrix(0.3658 -0.9307 0.9307 0.3658 -2316.1541 440.1888)" width="5928.6" height="1223.1"/>
					</defs>
					<clipPath id="SVGID_107_">
						<use xlink:href="#SVGID_106_"  style="overflow:visible;"/>
					</clipPath>
					
						<rect x="75.2" y="248" transform="matrix(0.1986 -0.9801 0.9801 0.1986 -187.8219 284.6832)" class="st90" width="9.8" height="18.4"/>
				</g>
			</g>
			<g>
				<defs>
					<path id="SVGID_108_" d="M77.2,257c-0.1,0.3-0.6,0.2-1.2,0.1c-0.6-0.1-1.1-0.2-1.1-0.6c0.1-0.3,0.6-0.5,1.3-0.4
						C76.9,256.2,77.3,256.6,77.2,257"/>
				</defs>
				<clipPath id="SVGID_109_">
					<use xlink:href="#SVGID_108_"  style="overflow:visible;"/>
				</clipPath>
				<g class="st91">
					<defs>
						
							<rect id="SVGID_110_" x="-3799.4" y="1308" transform="matrix(0.3658 -0.9307 0.9307 0.3658 -2316.1541 440.1888)" width="5928.6" height="1223.1"/>
					</defs>
					<clipPath id="SVGID_111_">
						<use xlink:href="#SVGID_110_"  style="overflow:visible;"/>
					</clipPath>
					
						<rect x="71.4" y="251.2" transform="matrix(0.1986 -0.9801 0.9801 0.1986 -190.4622 280.2281)" class="st92" width="9.5" height="10.8"/>
				</g>
			</g>
			<g>
				<defs>
					<path id="SVGID_112_" d="M102.3,262.4c0,0-3.2-0.7-5.8-1.2c-2.7-0.6-3.9-0.6-3.8-1.2s1.4-0.7,4-0.1
						C99.4,260.5,102.3,262.4,102.3,262.4"/>
				</defs>
				<clipPath id="SVGID_113_">
					<use xlink:href="#SVGID_112_"  style="overflow:visible;"/>
				</clipPath>
				<g class="st93">
					<defs>
						
							<rect id="SVGID_114_" x="-3799.4" y="1308" transform="matrix(0.3658 -0.9307 0.9307 0.3658 -2316.1541 440.1888)" width="5928.6" height="1223.1"/>
					</defs>
					<clipPath id="SVGID_115_">
						<use xlink:href="#SVGID_114_"  style="overflow:visible;"/>
					</clipPath>
					
						<rect x="92.7" y="251.6" transform="matrix(0.1986 -0.9801 0.9801 0.1986 -177.3826 304.6358)" class="st94" width="9.8" height="18.4"/>
				</g>
			</g>
			<g>
				<defs>
					
						<rect id="SVGID_116_" x="104.6" y="257.5" transform="matrix(0.1986 -0.9801 0.9801 0.1986 -172.7805 313.4744)" width="1.4" height="9.9"/>
				</defs>
				<clipPath id="SVGID_117_">
					<use xlink:href="#SVGID_116_"  style="overflow:visible;"/>
				</clipPath>
				<g class="st95">
					<defs>
						
							<rect id="SVGID_118_" x="-3799.4" y="1308" transform="matrix(0.3658 -0.9307 0.9307 0.3658 -2316.1541 440.1888)" width="5928.6" height="1223.1"/>
					</defs>
					<clipPath id="SVGID_119_">
						<use xlink:href="#SVGID_118_"  style="overflow:visible;"/>
					</clipPath>
					<g class="st96">
						<g>
							<defs>
								
									<rect id="SVGID_120_" x="103.8" y="257.2" transform="matrix(0.3658 -0.9307 0.9307 0.3658 -177.1986 264.5675)" width="3.4" height="10.2"/>
							</defs>
							<clipPath id="SVGID_121_">
								<use xlink:href="#SVGID_120_"  style="overflow:visible;"/>
							</clipPath>
							<g class="st97">
								<defs>
									<path id="SVGID_122_" d="M100.3,262c0,0,3.2,0.7,5.8,1.2c2.7,0.6,3.8,0.9,3.9,0.4c0.1-0.6-1-1.1-3.7-1.7
										C103.8,261.4,100.3,262,100.3,262"/>
								</defs>
								<clipPath id="SVGID_123_">
									<use xlink:href="#SVGID_122_"  style="overflow:visible;"/>
								</clipPath>
								<g class="st98">
									<defs>
										
											<rect id="SVGID_124_" x="103.4" y="256.6" transform="matrix(0.3658 -0.9307 0.9307 0.3658 -177.3047 264.1011)" width="3.4" height="11"/>
									</defs>
									<clipPath id="SVGID_125_">
										<use xlink:href="#SVGID_124_"  style="overflow:visible;"/>
									</clipPath>
									
										<rect x="100.4" y="253.2" transform="matrix(0.1986 -0.9801 0.9801 0.1986 -172.7802 313.4758)" class="st99" width="9.8" height="18.4"/>
								</g>
							</g>
						</g>
					</g>
				</g>
			</g>
			<g>
				<defs>
					<path id="SVGID_126_" d="M102.4,262.2c-0.1,0.3-0.6,0.2-1.2,0.1c-0.6-0.1-1.1-0.2-1.1-0.6c0.1-0.3,0.6-0.5,1.3-0.4
						C102,261.4,102.4,261.8,102.4,262.2"/>
				</defs>
				<clipPath id="SVGID_127_">
					<use xlink:href="#SVGID_126_"  style="overflow:visible;"/>
				</clipPath>
				<g class="st100">
					<defs>
						
							<rect id="SVGID_128_" x="-3799.4" y="1308" transform="matrix(0.3658 -0.9307 0.9307 0.3658 -2316.1541 440.1888)" width="5928.6" height="1223.1"/>
					</defs>
					<clipPath id="SVGID_129_">
						<use xlink:href="#SVGID_128_"  style="overflow:visible;"/>
					</clipPath>
					
						<rect x="96.5" y="256.4" transform="matrix(0.1986 -0.9801 0.9801 0.1986 -175.4206 309.0206)" class="st101" width="9.5" height="10.8"/>
				</g>
			</g>
			<g>
				
					<linearGradient id="SVGID_130_" gradientUnits="userSpaceOnUse" x1="540.0536" y1="929.1711" x2="540.0536" y2="917.4873" gradientTransform="matrix(0.9796 0.2012 -0.2012 0.9796 -254.5449 -753.458)">
					<stop  offset="0" style="stop-color:#F8E200"/>
					<stop  offset="1" style="stop-color:#F8E200;stop-opacity:0"/>
				</linearGradient>
				<polyline class="st102" points="93.7,263 93.8,263 94.7,260.4 96.6,255.2 83.2,252.5 82.8,258 82.6,260.6 				"/>
				
					<linearGradient id="SVGID_131_" gradientUnits="userSpaceOnUse" x1="540.0092" y1="929.1711" x2="540.0092" y2="917.4873" gradientTransform="matrix(0.9796 0.2012 -0.2012 0.9796 -254.5449 -753.458)">
					<stop  offset="0" style="stop-color:#F8E200"/>
					<stop  offset="1" style="stop-color:#F8E200;stop-opacity:0"/>
				</linearGradient>
				<path class="st103" d="M88.1,262.4c3,0.6,5.5,0.9,5.7,0.6l-11.1-2.3C82.7,261,85.1,261.7,88.1,262.4z"/>
			</g>
			<g>
				<defs>
					<path id="SVGID_132_" d="M93.7,262.9c-0.1,0.3-2.6,0.1-5.7-0.6c-3.1-0.6-5.5-1.4-5.4-1.7c0.1-0.3,2.6-0.1,5.7,0.6
						C91.4,261.8,93.8,262.6,93.7,262.9"/>
				</defs>
				<clipPath id="SVGID_133_">
					<use xlink:href="#SVGID_132_"  style="overflow:visible;"/>
				</clipPath>
				<g class="st104">
					<defs>
						
							<rect id="SVGID_134_" x="-3799.4" y="1308" transform="matrix(0.3658 -0.9307 0.9307 0.3658 -2316.1541 440.1888)" width="5928.6" height="1223.1"/>
					</defs>
					<clipPath id="SVGID_135_">
						<use xlink:href="#SVGID_134_"  style="overflow:visible;"/>
					</clipPath>
					
						<rect x="83.4" y="251.9" transform="matrix(0.1986 -0.9801 0.9801 0.1986 -185.8684 296.2349)" class="st105" width="9.7" height="19.8"/>
				</g>
			</g>
		</g>
		<g>
			<g>
				<defs>
					
						<rect id="SVGID_136_" x="87.1" y="251.3" transform="matrix(0.1596 -0.9872 0.9872 0.1596 -175.1188 302.2954)" width="5.8" height="5.3"/>
				</defs>
				<clipPath id="SVGID_137_">
					<use xlink:href="#SVGID_136_"  style="overflow:visible;"/>
				</clipPath>
				<g class="st106">
					<defs>
						
							<rect id="SVGID_138_" x="87.1" y="251.3" transform="matrix(0.1596 -0.9872 0.9872 0.1596 -175.1188 302.2954)" width="5.8" height="5.3"/>
					</defs>
					<clipPath id="SVGID_139_">
						<use xlink:href="#SVGID_138_"  style="overflow:visible;"/>
					</clipPath>
					<path class="st107" d="M90,254.6l-0.3,1.6c0.1,0,0.1,0,0.2,0l1.5-0.6c0.2-0.1,0.4-0.3,0.4-0.5l0.3-1.6c0-0.1,0-0.1,0-0.2
						l-1.6,0.6C90.2,254.1,90.1,254.3,90,254.6"/>
					<path class="st108" d="M92.7,253.1l-0.6,0.2c0,0.1,0,0.1,0,0.2l-0.3,1.6c0,0.2-0.2,0.4-0.4,0.5l-1.5,0.6c-0.1,0-0.1,0-0.2,0
						l-0.1,0.6c0.1,0,0.2,0,0.3,0l1.9-0.7c0.3-0.1,0.5-0.3,0.5-0.6l0.3-2C92.7,253.3,92.7,253.2,92.7,253.1"/>
					<path class="st109" d="M90,254c0.1-0.1,0.2-0.2,0.4-0.3l1.6-0.6c0-0.1-0.1-0.1-0.2-0.2l-1.2-1c-0.2-0.1-0.4-0.2-0.6-0.1
						l-1.5,0.6c-0.1,0-0.1,0.1-0.2,0.1l1.3,1.1C89.8,253.8,89.9,253.9,90,254"/>
					<path class="st110" d="M88.5,252.4l1.5-0.6c0.2-0.1,0.5,0,0.6,0.1l1.2,1c0.1,0.1,0.1,0.1,0.2,0.2l0.6-0.2
						c-0.1-0.1-0.1-0.2-0.2-0.2l-1.6-1.3c-0.2-0.2-0.5-0.2-0.8-0.1l-1.9,0.7c-0.1,0-0.2,0.1-0.3,0.2l0.5,0.4
						C88.4,252.5,88.4,252.4,88.5,252.4"/>
					<path class="st111" d="M89.3,256.1l-1.2-1c-0.2-0.1-0.3-0.4-0.2-0.6l0.3-1.6c0-0.1,0-0.1,0.1-0.2l-0.5-0.4
						c0,0.1-0.1,0.2-0.1,0.2l-0.3,2c0,0.3,0.1,0.6,0.3,0.8l1.6,1.3c0.1,0.1,0.2,0.1,0.3,0.1l0.1-0.6
						C89.4,256.1,89.4,256.1,89.3,256.1"/>
					<path class="st112" d="M89.5,253.8l-1.3-1.1c0,0.1,0,0.1-0.1,0.2l-0.3,1.6c0,0.2,0.1,0.5,0.2,0.6l1.2,1c0.1,0,0.1,0.1,0.2,0.1
						l0.3-1.6C89.8,254.3,89.8,254.1,89.5,253.8"/>
				</g>
			</g>
		</g>
	</g>
	<ellipse class="st3" cx="86.8" cy="283.5" rx="15" ry="4.4"/>
</g>
<g>
	
		<linearGradient id="SVGID_140_" gradientUnits="userSpaceOnUse" x1="-1038.0785" y1="230.9047" x2="-1046.6865" y2="239.5974" gradientTransform="matrix(-1 0 0 1 -920.3924 0)">
		<stop  offset="0" style="stop-color:#F8E200;stop-opacity:0"/>
		<stop  offset="1" style="stop-color:#F8E200"/>
	</linearGradient>
	<polygon class="st113" points="123.6,240.3 131,236 119.9,229.6 112.4,233.9 	"/>
	
		<linearGradient id="SVGID_141_" gradientUnits="userSpaceOnUse" x1="-1021.7819" y1="222.2198" x2="-1030.3899" y2="230.9125" gradientTransform="matrix(-1 0 0 1 -920.3924 0)">
		<stop  offset="0" style="stop-color:#F8E200;stop-opacity:0"/>
		<stop  offset="1" style="stop-color:#F8E200"/>
	</linearGradient>
	<polygon class="st114" points="107.3,231.7 114.7,227.4 103.6,220.9 96.1,225.2 	"/>
	<g>
		<path class="st115" d="M123.4,231.9l-11.3-6.2c-0.4-0.2-1.1-0.2-1.6,0l-6.3,3.5c-0.1,0-0.1,0.3-0.1,0.4c0,0.2,0,0.4,0.3,0.6l4,2.3
			l1.1,0.1l0.8,0.5l-0.1,0.1l0,0.4l1.2,0.7l1.4,0l3.4,2c0.4,0.2,1.1,0.2,1.6,0l3.8-2.2l0,0l1.6-0.9c0,0,0,0,0,0l0,0
			c0.2-0.1,0.3-0.3,0.3-0.4C123.6,232.4,123.7,232,123.4,231.9z"/>
		<g>
			<path class="st16" d="M116.3,235.7l-3.4-2l-1.4,0l-1.3-0.7l0.4-0.3l-1.1-0.6l-1.1-0.1l-4-2.3c-0.4-0.2-0.4-0.7,0-0.9l6.1-3.5
				c0.4-0.2,1.1-0.2,1.6,0l11.1,6.4c0.4,0.2,0.4,0.7,0,0.9l-5.4,3.1C117.4,236,116.7,236,116.3,235.7z"/>
			<path class="st116" d="M109,226.2l1.6-0.9c0.4-0.2,1.1-0.2,1.6,0l11.1,6.4c0.4,0.2,0.4,0.7,0,0.9l-1.6,0.9L109,226.2z"/>
			<g>
				<g>
					<path class="st3" d="M114.6,231c-0.1,0-0.2-0.1-0.3-0.1c-0.6-0.3-1.2-0.2-1.7,0l0,0c0.3,0,0.6,0,0.9,0.2
						c0.4,0.2,0.4,0.6-0.1,0.9c-0.4,0.3-1.2,0.3-1.7,0c-0.5-0.3-0.5-0.7,0.2-1.1c0.5-0.3,1-0.4,1.5-0.4c0.4,0,0.8,0.1,1.1,0.2
						c0.1,0,0.2,0.1,0.3,0.1L114.6,231z M112,231.8c0.3,0.2,0.7,0.1,1.1-0.1c0.3-0.2,0.4-0.4,0.1-0.6c-0.2-0.1-0.5-0.2-0.8-0.1
						c-0.1,0-0.1,0-0.2,0.1C111.8,231.3,111.7,231.6,112,231.8L112,231.8z"/>
					<path class="st3" d="M113.9,233.1l0.7-0.4l-1.1-0.6l0.2-0.1l2.6-0.3l0.4,0.2l-1.5,0.9l0.3,0.2l-0.3,0.1l-0.3-0.2l-0.7,0.4
						L113.9,233.1z M114.8,232.6l0.8-0.5c0.1-0.1,0.3-0.1,0.4-0.2l0,0c-0.2,0-0.4,0.1-0.6,0.1l-1.4,0.1l0,0L114.8,232.6z"/>
				</g>
				<g>
					<path class="st3" d="M115.7,234.1c-0.1,0-0.2-0.1-0.3-0.1c-0.1-0.1-0.2-0.2-0.2-0.3c0-0.1,0.1-0.2,0.2-0.3c0.3-0.2,0.7-0.2,1,0
						c0.1,0.1,0.2,0.1,0.2,0.2l-0.1,0c0,0-0.1-0.1-0.2-0.1c-0.2-0.1-0.5-0.1-0.8,0c-0.2,0.1-0.2,0.3,0,0.4c0.1,0,0.1,0.1,0.2,0.1
						l0.3-0.2l-0.2-0.1l0.1-0.1l0.3,0.2L115.7,234.1z"/>
					<path class="st3" d="M116.7,233.7c0.1,0,0.2,0.1,0.2,0.1c0.1,0.1,0.2,0.1,0.2,0.2c0,0,0,0.1-0.1,0.1c-0.1,0.1-0.2,0.1-0.4,0
						l0,0c0.1,0.1,0.1,0.2,0,0.2c-0.1,0-0.2,0.1-0.3,0.1c-0.1,0-0.3,0-0.4-0.1c-0.1,0-0.1-0.1-0.2-0.1L116.7,233.7z M116.5,234
						l0.1,0.1c0.1,0.1,0.3,0.1,0.4,0c0.1-0.1,0.1-0.1-0.1-0.2c-0.1,0-0.1,0-0.1-0.1L116.5,234z M116,234.3
						C116,234.3,116.1,234.3,116,234.3c0.2,0.1,0.4,0.2,0.5,0.1c0.1-0.1,0.1-0.2-0.1-0.2l-0.1-0.1L116,234.3z"/>
				</g>
				<polygon class="st3" points="117.6,232.6 118.1,233.5 116.6,233.2 				"/>
			</g>
			<g>
				<path class="st3" d="M111.7,225.5c-0.3,0.6-0.8,1.1-1.3,1.6c-0.5,0.5-1.1,0.9-1.7,1.2c-1.2,0.7-2.5,1.1-3.9,1.2
					c0.6-0.4,1.1-0.7,1.7-1.1l1.7-1C109.4,226.8,110.5,226.2,111.7,225.5z"/>
			</g>
		</g>
	</g>
</g>
<g>
	<linearGradient id="SVGID_142_" gradientUnits="userSpaceOnUse" x1="168.0321" y1="271.1366" x2="207.968" y2="185.4668">
		<stop  offset="0.1725" style="stop-color:#C1C7DF"/>
		<stop  offset="0.237" style="stop-color:#CDD2E5;stop-opacity:0.9221"/>
		<stop  offset="0.3885" style="stop-color:#E3E6F1;stop-opacity:0.739"/>
		<stop  offset="0.5538" style="stop-color:#F3F4F9;stop-opacity:0.5392"/>
		<stop  offset="0.7415" style="stop-color:#FCFCFE;stop-opacity:0.3124"/>
		<stop  offset="1" style="stop-color:#FFFFFF;stop-opacity:0"/>
	</linearGradient>
	<polygon class="st117" points="171.3,268.4 125.4,241.9 199.5,199.3 245.5,225.8 	"/>
	<g>
		<g>
			<g>
				<path class="st16" d="M205,245.9l-40.5-22.4c-1.8-1-4.7-1-6.5,0l-40.2,21.9c-0.7,0.7-0.8,3.4,1,4.5l39.2,22.6c1.8,1,4.7,1,6.5,0
					l39.2-22.6C205.5,248.8,205.1,246.3,205,245.9z M159.7,268.4c0.9-0.5,2.4-0.5,3.3,0c0.9,0.5,0.9,1.4,0,1.9
					c-0.9,0.5-2.4,0.5-3.3,0C158.7,269.7,158.7,268.9,159.7,268.4z M196.6,247.1c0.9-0.5,2.4-0.5,3.3,0c0.9,0.5,0.9,1.4,0,1.9
					c-0.9,0.5-2.4,0.5-3.3,0C195.7,248.4,195.7,247.6,196.6,247.1z M122.7,247.1c0.9-0.5,2.4-0.5,3.3,0c0.9,0.5,0.9,1.4,0,1.9
					c-0.9,0.5-2.4,0.5-3.3,0S121.8,247.6,122.7,247.1z M159.7,225.7c0.9-0.5,2.4-0.5,3.3,0c0.9,0.5,0.9,1.4,0,1.9
					c-0.9,0.5-2.4,0.5-3.3,0C158.7,227.1,158.7,226.3,159.7,225.7z"/>
				<path class="st118" d="M203.8,244.5l-39.2-22.6c-1.8-1-4.7-1-6.5,0l-39.2,22.6c-1.8,1-1.8,2.7,0,3.7l39.2,22.6
					c1.8,1,4.7,1,6.5,0l39.2-22.6C205.5,247.3,205.5,245.6,203.8,244.5z M159.7,266.8c0.9-0.5,2.4-0.5,3.3,0c0.9,0.5,0.9,1.4,0,1.9
					c-0.9,0.5-2.4,0.5-3.3,0C158.7,268.2,158.7,267.3,159.7,266.8z M196.6,245.5c0.9-0.5,2.4-0.5,3.3,0c0.9,0.5,0.9,1.4,0,1.9
					c-0.9,0.5-2.4,0.5-3.3,0C195.7,246.8,195.7,246,196.6,245.5z M122.7,245.5c0.9-0.5,2.4-0.5,3.3,0s0.9,1.4,0,1.9s-2.4,0.5-3.3,0
					C121.8,246.8,121.8,246,122.7,245.5z M159.7,224.1c0.9-0.5,2.4-0.5,3.3,0c0.9,0.5,0.9,1.4,0,1.9c-0.9,0.5-2.4,0.5-3.3,0
					C158.7,225.5,158.7,224.7,159.7,224.1z"/>
				<polygon class="st3" points="153.3,266.7 155.9,265.2 130.5,250.5 127.8,252 				"/>
				<polygon class="st3" points="157.8,264.2 161,262.3 156.6,259.8 153.4,261.6 				"/>
				<polygon class="st3" points="185.6,238.3 188.1,236.9 176.8,230.4 174.4,231.8 				"/>
				<polygon class="st3" points="190.2,254.3 198.4,249.6 187.4,243.2 179.1,247.9 				"/>
				<polygon class="Fenster_x0020_4" points="190.2,260 198.4,255.2 198.4,249.6 190.2,254.3 				"/>
				<polygon class="st119" points="190.2,260 190.2,254.3 179.2,247.9 179.2,253.6 				"/>
				<polygon class="st3" points="181.7,259.8 188.1,256.1 179,250.8 172.6,254.5 				"/>
				<polygon class="Fenster_x0020_4" points="181.7,265.4 188.1,261.7 188.1,256 181.7,259.7 				"/>
				<polygon class="st119" points="181.7,265.4 181.7,259.8 172.6,254.5 172.6,260.2 				"/>
				<polygon class="st3" points="128.6,242.3 135.8,238.1 130.7,235.1 123.5,239.3 				"/>
				<polygon class="Windows_x0020_4" points="128.6,243.3 135.8,239.1 135.8,238.1 128.6,242.3 				"/>
				<polygon class="st21" points="123.5,239.3 128.6,242.3 128.6,243.3 123.5,240.3 				"/>
				<g>
					<ellipse class="st16" cx="162.4" cy="233.3" rx="5.2" ry="3"/>
				</g>
				<g>
					<ellipse class="st3" cx="162.4" cy="232.3" rx="5.2" ry="3"/>
				</g>
				<g>
					<polygon class="st3" points="163.4,231.2 164.9,230.4 163.2,229.4 161.8,230.3 					"/>
					<polygon class="st3" points="170.1,230.8 171.5,230 169.4,228.8 168,229.6 					"/>
					<polygon class="st3" points="171,230.8 169.7,231.6 171.8,232.8 173.1,232 					"/>
					<polygon class="st3" points="171.4,239.2 175.3,236.9 171.8,234.9 167.9,237.2 					"/>
					<polygon class="st3" points="171.9,239.5 175.8,237.3 178.8,239 174.9,241.2 					"/>
					<polygon class="st3" points="176.4,247.3 181.3,244.5 176.8,241.9 171.8,244.7 					"/>
					<polygon class="st3" points="162.1,254.3 166.8,251.6 162.5,249.1 157.8,251.8 					"/>
					<polygon class="st3" points="150.4,239.9 152.3,238.9 150.6,237.9 148.7,239 					"/>
					<polygon class="st3" points="153.5,242.3 155.4,241.1 153.7,240.1 151.7,241.2 					"/>
					<polygon class="st3" points="157.3,240 159.2,239 157.6,238.1 155.8,239.1 					"/>
					<polygon class="st3" points="153.8,246.6 155.9,245.4 153.9,244.2 151.9,245.4 					"/>
					<polygon class="st3" points="165.2,249.4 166.9,248.4 165,247.3 163.3,248.3 					"/>
					<polygon class="st3" points="169.2,250.3 171.7,248.9 170.2,248 167.7,249.5 					"/>
					<polygon class="st3" points="140.6,246.9 142,246.1 139.9,244.9 138.6,245.7 					"/>
					<polygon class="st3" points="141.9,238.1 150.1,233.4 149.2,232.9 141,237.6 					"/>
					<polygon class="st3" points="136.2,245.3 143.8,240.8 143.1,240.4 135.4,244.8 					"/>
					<polygon class="st3" points="152.6,252.6 155.2,251 153.4,250 150.8,251.5 					"/>
					<polygon class="st3" points="162,246.3 163.9,245.2 161,243.5 159,244.6 					"/>
				</g>
				<g class="st120">
					<path class="st21" d="M187.3,256.5l-1.6,0.9l-3.5-1.8l0.3-0.2c0,0,2,0.9,2.6,1.2c0.5,0.2,1.2,0.2,0.9-0.3
						c-0.2-0.3-2.1-1.7-2.1-1.7l0.4-0.2L187.3,256.5z"/>
					<path class="st21" d="M184.1,258.4l-1.6,0.9l-3.5-1.8l0.3-0.2c0,0,2,0.9,2.6,1.2c0.5,0.2,1.2,0.2,0.9-0.3
						c-0.2-0.3-2.1-1.7-2.1-1.7l0.4-0.2L184.1,258.4z"/>
				</g>
				<g class="st120">
					<path class="st21" d="M197.5,250.1l-4.4-2.4c0,0-0.2-0.2-0.5,0s-1,0.6-1,0.6s-0.2,0.1,0.1,0.3c0.3,0.2,4.1,2.5,4.1,2.5l0.4-0.2
						c0,0-2.4-1.5-3.6-2.3c-0.1-0.1-0.1-0.2,0.1-0.3s0.4-0.2,0.6-0.1s4,2.1,4,2.1L197.5,250.1z"/>
					<path class="st21" d="M192.9,252.7l-4.4-2.4c0,0-0.2-0.2-0.5,0s-1,0.6-1,0.6s-0.2,0.1,0.1,0.3c0.3,0.2,4.1,2.5,4.1,2.5l0.4-0.2
						c0,0-2.4-1.5-3.6-2.3c-0.1-0.1-0.1-0.2,0.1-0.3c0.2-0.1,0.4-0.2,0.6-0.1s4,2.1,4,2.1L192.9,252.7z"/>
				</g>
				<g>
					<polygon class="st21" points="191.4,258.1 197.4,254.7 197.4,251.2 191.4,254.6 					"/>
					<polygon class="st21" points="193.4,257.4 195.4,256.2 195.4,255.4 193.4,256.5 					"/>
				</g>
				<g>
					<polygon class="st21" points="182.7,263.7 187.1,261.2 187.1,257.7 182.7,260.2 					"/>
				</g>
			</g>
		</g>
		<g>
			<g>
				<path class="st21" d="M140.8,252l0.3,0.2l-0.5,0.3l0,0c0.1,0,0.1,0,0.2,0c0.1,0,0.1,0,0.2,0.1c0,0,0,0,0,0c0,0,0,0,0,0
					c0.2,0.1,0.3,0.2,0.3,0.4c0,0.1-0.1,0.2-0.2,0.3c0,0,0,0-0.1,0c0,0-0.1,0-0.1,0c-0.1,0-0.1,0-0.2,0c-0.1,0-0.1,0-0.2,0
					c-0.1,0-0.2,0-0.3,0c-0.1,0-0.2-0.1-0.3-0.1c-0.1,0-0.1-0.1-0.2-0.2c0-0.1-0.1-0.1,0-0.2l0,0l-0.1,0.1l-0.3-0.2L140.8,252z
					 M140.5,252.6c-0.1,0-0.2,0-0.3,0.1c-0.1,0.1-0.1,0.1-0.1,0.2c0,0.1,0.1,0.1,0.2,0.2c0.1,0.1,0.2,0.1,0.3,0.1
					c0.1,0,0.2,0,0.3-0.1c0.1-0.1,0.1-0.1,0.1-0.2c0-0.1-0.1-0.1-0.2-0.2C140.8,252.6,140.7,252.6,140.5,252.6z"/>
				<path class="st21" d="M142,254.4l-0.3-0.2l0.1-0.1l0,0c-0.1,0-0.2,0-0.3,0c-0.1,0-0.2,0-0.2-0.1c0,0,0,0,0,0c0,0,0,0,0,0
					c-0.1-0.1-0.2-0.1-0.2-0.2c0-0.1-0.1-0.1-0.1-0.2c0-0.1,0-0.1,0.1-0.2c0-0.1,0.1-0.1,0.2-0.1c0.1,0,0.2-0.1,0.2-0.1
					c0.1,0,0.2,0,0.3,0c0.1,0,0.2,0,0.3,0c0.1,0,0.2,0.1,0.3,0.1c0.1,0,0.1,0.1,0.2,0.2c0,0.1,0,0.1,0,0.2l0.2-0.1l0.3,0.2
					L142,254.4z M142.3,253.9c0.1-0.1,0.1-0.1,0.1-0.2c0-0.1-0.1-0.1-0.2-0.2c-0.1-0.1-0.2-0.1-0.4-0.1c-0.1,0-0.2,0-0.3,0.1
					c-0.1,0.1-0.1,0.1-0.1,0.2c0,0.1,0.1,0.1,0.2,0.2c0.1,0.1,0.2,0.1,0.3,0.1C142.1,254,142.2,253.9,142.3,253.9L142.3,253.9z"/>
				<path class="st21" d="M143.7,253.6l0.3,0.2l-1.5,0.8l-0.3-0.2L143.7,253.6z"/>
				<path class="st21" d="M143.4,254.7c0,0-0.1,0.1,0,0.2c0,0.1,0.1,0.1,0.1,0.1c0.1,0,0.1,0.1,0.2,0.1s0.1,0,0.2,0l0.3,0.2
					c-0.1,0-0.3,0-0.5,0c-0.2,0-0.3-0.1-0.5-0.1c-0.2-0.1-0.3-0.2-0.3-0.4c0-0.1,0.1-0.2,0.2-0.3c0.2-0.1,0.4-0.1,0.6-0.1
					c0.2,0,0.4,0.1,0.6,0.2c0.2,0.1,0.3,0.2,0.3,0.4c0,0.1-0.1,0.2-0.2,0.3c0,0,0,0-0.1,0c0,0,0,0-0.1,0c0,0,0,0,0,0c0,0,0,0,0,0
					L143.4,254.7z M144.3,254.9c0-0.1,0.1-0.1,0-0.2c0-0.1-0.1-0.1-0.1-0.1c0,0,0,0,0,0c0,0,0,0,0,0c-0.1,0-0.2-0.1-0.3-0.1
					c-0.1,0-0.2,0-0.3,0L144.3,254.9z"/>
				<path class="st21" d="M145.2,254.9l0.3,0.2l-0.1,0.1l0,0c0.1,0,0.1,0,0.2,0c0.1,0,0.1,0,0.2,0.1c0,0,0,0,0,0c0,0,0,0,0,0
					c0,0,0,0,0,0c0,0,0,0,0,0c0.1,0,0.1,0.1,0.1,0.1c0,0,0,0.1,0,0.1c0,0,0,0,0,0c0,0,0,0,0,0c0,0.1,0,0.1-0.1,0.2s-0.1,0.1-0.2,0.1
					l-0.6,0.3l-0.3-0.2l0.5-0.3c0,0,0,0,0.1,0c0,0,0,0,0.1,0c0,0,0,0,0.1-0.1c0,0,0,0,0-0.1c0,0,0-0.1,0-0.1c0,0,0-0.1-0.1-0.1
					c0,0,0,0,0,0c0,0,0,0,0,0c0,0,0,0,0,0c0,0,0,0,0,0c0,0-0.1,0-0.1,0c0,0-0.1,0-0.1,0c0,0-0.1,0-0.1,0c0,0-0.1,0-0.1,0
					c0,0,0,0-0.1,0c0,0,0,0,0,0c0,0,0,0,0,0c0,0,0,0,0,0l-0.5,0.3l-0.3-0.2L145.2,254.9z"/>
				<path class="st21" d="M146.7,257l-0.3-0.2l0.1-0.1l0,0c-0.1,0-0.2,0-0.3,0c-0.1,0-0.2,0-0.2-0.1c0,0,0,0,0,0c0,0,0,0,0,0
					c-0.1-0.1-0.2-0.1-0.2-0.2c0-0.1-0.1-0.1-0.1-0.2c0-0.1,0-0.1,0.1-0.2c0-0.1,0.1-0.1,0.2-0.1c0.1,0,0.2-0.1,0.2-0.1
					c0.1,0,0.2,0,0.3,0c0.1,0,0.2,0,0.3,0c0.1,0,0.2,0.1,0.3,0.1c0.1,0,0.1,0.1,0.2,0.2c0,0.1,0,0.1,0,0.2l0.2-0.1l0.3,0.2
					L146.7,257z M146.9,256.6c0.1-0.1,0.1-0.1,0.1-0.2c0-0.1-0.1-0.1-0.2-0.2c-0.1-0.1-0.2-0.1-0.4-0.1c-0.1,0-0.2,0-0.3,0.1
					c-0.1,0.1-0.1,0.1-0.1,0.2c0,0.1,0.1,0.1,0.2,0.2c0.1,0.1,0.2,0.1,0.3,0.1C146.7,256.6,146.9,256.6,146.9,256.6L146.9,256.6z"/>
			</g>
			<g>
				<path class="st21" d="M137.5,251.2l-0.9,0.5c0,0,0.1,0,0.1,0l1.2,0.2c0.2,0,0.4,0,0.5-0.1l0.8-0.5c0,0,0.1,0,0.1-0.1l-1.3-0.2
					C137.7,251.1,137.6,251.2,137.5,251.2z"/>
				<path class="st119" d="M139.7,251.4l-0.5-0.1c0,0,0,0-0.1,0.1l-0.8,0.5c-0.1,0.1-0.3,0.1-0.5,0.1l-1.2-0.2c-0.1,0-0.1,0-0.1,0
					l-0.3,0.2c0.1,0,0.1,0,0.2,0.1l1.5,0.2c0.2,0,0.4,0,0.6-0.1l1.1-0.6C139.7,251.5,139.7,251.5,139.7,251.4z"/>
				<path class="st21" d="M137.7,251c0.1,0,0.2,0,0.4,0l1.3,0.2c0,0,0-0.1,0-0.1l-0.3-0.7c0-0.1-0.2-0.2-0.3-0.2l-1.2-0.2
					c-0.1,0-0.1,0-0.2,0l0.3,0.7C137.7,250.9,137.7,251,137.7,251z"/>
				<path class="st119" d="M137.5,250.1l1.2,0.2c0.2,0,0.3,0.1,0.3,0.2l0.3,0.7c0,0,0,0.1,0,0.1l0.5,0.1c0,0,0-0.1,0-0.1l-0.4-0.9
					c-0.1-0.1-0.2-0.2-0.4-0.2l-1.5-0.2c-0.1,0-0.2,0-0.2,0l0.1,0.3C137.4,250.1,137.4,250.1,137.5,250.1z"/>
				<path class="st119" d="M136.4,251.6l-0.3-0.7c0-0.1,0-0.2,0.1-0.3l0.8-0.5c0,0,0.1,0,0.1,0l-0.1-0.3c-0.1,0-0.1,0-0.2,0.1
					l-1.1,0.6c-0.2,0.1-0.2,0.2-0.2,0.3l0.4,0.9c0,0,0.1,0.1,0.1,0.1L136.4,251.6C136.4,251.6,136.4,251.6,136.4,251.6z"/>
				<path class="st21" d="M137.5,250.8l-0.3-0.7c0,0-0.1,0-0.1,0l-0.8,0.5c-0.1,0.1-0.2,0.2-0.1,0.3l0.3,0.7c0,0,0,0.1,0.1,0.1
					l0.9-0.5C137.5,251.1,137.5,251,137.5,250.8z"/>
			</g>
			<g>
				<path class="st119" d="M148.5,256.4l0.8,0.5l-0.3,0.2l-0.4-0.2l-0.3,0.1l0.4,0.2l-0.3,0.2l-0.4-0.2l-0.6,0.3l-0.4-0.2
					L148.5,256.4z"/>
				<path class="st119" d="M149.5,257l0.3,0.2l-0.3,0.1l-0.3-0.2L149.5,257z M149.2,257.2l0.3,0.2l-1.1,0.6l-0.3-0.2L149.2,257.2z"
					/>
				<path class="st119" d="M149.7,257.5l0.3,0.2l-0.1,0.1c0.1,0,0.3,0,0.5,0.1c0.4,0.2,0.1,0.4,0,0.5l-0.7,0.4l-0.3-0.2l0.6-0.3
					c0.1-0.1,0.2-0.1,0.1-0.2c-0.2-0.1-0.3,0-0.4,0l-0.6,0.3l-0.3-0.2L149.7,257.5z"/>
			</g>
		</g>
	</g>
</g>
<linearGradient id="SVGID_143_" gradientUnits="userSpaceOnUse" x1="180.2032" y1="220.8213" x2="262.8773" y2="220.8213">
	<stop  offset="0" style="stop-color:#F8E200"/>
	<stop  offset="1" style="stop-color:#F8E200;stop-opacity:0"/>
</linearGradient>
<path class="st121" d="M180.2,189.7L180.2,189.7l7.5,4.3l0,0c1.9,1.2,1.9,3-0.1,4.1c0,0-0.1,0-0.1,0.1l0,0c-6.3,3.7-6.3,9.7,0,13.4
	l0,0l62.5,36.1c1.8,1.1,1.8,2.9,0,4l-2,1.2l10,3.6l0,0c6.5-3.7,6.5-9.7,0.1-13.5l0,0l-9.6-5.5l-8.1-4.7l-33.8-19.5l-1.8-1l-9.1-5.3
	l0,0c-2-1.1-2-3-0.1-4.1c0,0,0.1,0,0.1-0.1c6.5-3.7,6.5-9.8,0.1-13.5l0,0l-0.1,0c0,0,0,0,0,0l0,0l-7.4-4.3L180.2,189.7z"/>
<g>
	<g>
		<linearGradient id="SVGID_144_" gradientUnits="userSpaceOnUse" x1="188.0007" y1="180.3871" x2="241.7222" y2="128.5331">
			<stop  offset="0" style="stop-color:#C1C7DF"/>
			<stop  offset="7.794535e-02" style="stop-color:#CDD2E5;stop-opacity:0.9221"/>
			<stop  offset="0.261" style="stop-color:#E3E6F1;stop-opacity:0.739"/>
			<stop  offset="0.4608" style="stop-color:#F3F4F9;stop-opacity:0.5392"/>
			<stop  offset="0.6876" style="stop-color:#FCFCFE;stop-opacity:0.3124"/>
			<stop  offset="1" style="stop-color:#FFFFFF;stop-opacity:0"/>
		</linearGradient>
		<polygon class="st122" points="188.6,186.7 187.8,160.8 190.4,142.2 223.3,123 261.8,145.1 		"/>
		<g>
			<g>
				<linearGradient id="SVGID_145_" gradientUnits="userSpaceOnUse" x1="169.1899" y1="172.9001" x2="189.7187" y2="190.093">
					<stop  offset="0" style="stop-color:#D5DDF3"/>
					<stop  offset="1" style="stop-color:#A5ABBB"/>
				</linearGradient>
				<path class="st123" d="M199,171.5c-0.1,0.4-0.1,0.8-0.3,1.2c-0.9,3-3.3,5.9-7.4,8.3c-10.3,6-27,6-37.3,0c-4-2.3-6.5-5.2-7.4-8.3
					c-0.1-0.4-0.2-0.8-0.3-1.2v2.4c0,1-0.1,1.7,0,2.6c0.5,3.5,3.1,6.8,7.6,9.5c10.3,6,27,6,37.3,0c4.6-2.6,7.1-6,7.6-9.5
					c0.1-0.9,0-1.7,0-2.6V171.5z"/>
			</g>
			<ellipse class="st3" cx="172.7" cy="173.1" rx="26.4" ry="15.2"/>
		</g>
	</g>
	<linearGradient id="SVGID_146_" gradientUnits="userSpaceOnUse" x1="151.3414" y1="172.8416" x2="193.9337" y2="172.8416">
		<stop  offset="0" style="stop-color:#FDBE00"/>
		<stop  offset="1" style="stop-color:#EC8B00"/>
	</linearGradient>
	<ellipse class="st124" cx="172.6" cy="172.8" rx="21.3" ry="12.3"/>
	<g>
		<path class="st125" d="M156.2,166.7c9.1-5.2,23.8-5.2,32.9,0c1.8,1,3.3,2.2,4.4,3.5c-0.8-2.2-2.8-4.3-5.7-6
			c-8.3-4.8-21.8-4.8-30.1,0c-3,1.7-4.9,3.8-5.7,6C152.9,169,154.4,167.8,156.2,166.7z"/>
	</g>
	<linearGradient id="SVGID_147_" gradientUnits="userSpaceOnUse" x1="172.6766" y1="185.2249" x2="172.6766" y2="86.1948">
		<stop  offset="0" style="stop-color:#F8E200"/>
		<stop  offset="1" style="stop-color:#F8E200;stop-opacity:0"/>
	</linearGradient>
	<path class="st126" d="M194,172.9C194,172.9,194,172.9,194,172.9l11.2-86.7h-65l11.2,86.7c0,0,0,0,0,0v0.8h0
		c0.3,2.9,2.4,5.7,6.2,7.9c8.3,4.8,21.8,4.8,30.1,0c3.8-2.2,5.9-5,6.2-7.9h0V172.9z"/>
	<circle class="st127" cx="185.3" cy="128.5" r="0.4"/>
	<g>
		<circle class="st127" cx="179.6" cy="111.2" r="0.3"/>
		<circle class="st127" cx="185" cy="93.1" r="0.4"/>
		<circle class="st127" cx="197.3" cy="96.5" r="0.3"/>
		<circle class="st127" cx="165.9" cy="85.4" r="0.4"/>
		<circle class="st127" cx="148.7" cy="139.1" r="0.4"/>
		<circle class="st127" cx="190.7" cy="159" r="0.3"/>
		<circle class="st127" cx="199.2" cy="128.2" r="0.4"/>
		<circle class="st127" cx="193.9" cy="113.1" r="0.4"/>
		<circle class="st127" cx="191.8" cy="80" r="0.3"/>
		<circle class="st127" cx="147" cy="84.1" r="0.3"/>
	</g>
	<circle class="st127" cx="165.5" cy="154.8" r="0.7"/>
	<path id="bg_1_" class="st128" d="M157.4,127.2c0,0,0.2-0.6,0.3-0.8c0.1-0.1,0.4-0.6,0.4-0.6l28.8,0c0,0,0.3,0.5,0.4,0.6
		c0.1,0.2,0.3,0.7,0.3,0.7l-2.3,16.1l-12.1,8.5c0,0-0.6,0.1-0.8,0.1c-0.2,0-0.7-0.1-0.7-0.1l-4-3.8L157.6,130L157.4,127.2z"/>
	<g>
		<polygon class="st129" points="157.1,126.8 157.7,125.8 187.1,125.6 187.8,126.6 185.6,143.4 173.3,152.1 171.8,152.1 
			167.8,148.2 157.5,130 		"/>
		<g>
			<g>
				<defs>
					<rect id="SVGID_148_" x="156.7" y="117.5" width="31.6" height="34.5"/>
				</defs>
				<clipPath id="SVGID_149_">
					<use xlink:href="#SVGID_148_"  style="overflow:visible;"/>
				</clipPath>
				<g class="st130">
					<defs>
						<rect id="SVGID_150_" x="156.7" y="117.5" width="31.6" height="34.5"/>
					</defs>
					<clipPath id="SVGID_151_">
						<use xlink:href="#SVGID_150_"  style="overflow:visible;"/>
					</clipPath>
					<path class="st131" d="M173.2,138.1v9.9c0.4-0.1,0.8-0.2,1.2-0.4l8.2-4.7c1.2-0.7,1.9-2,1.9-3.3v-9.4c0-0.4-0.1-0.7-0.2-1.1
						l-8.9,5.1C173.6,135.4,173.2,136.6,173.2,138.1"/>
					<path class="st132" d="M187.6,127.1l-3.2,1.9c0.1,0.4,0.2,0.7,0.2,1.1v9.4c0,1.4-0.7,2.7-1.9,3.3l-8.2,4.7
						c-0.4,0.2-0.8,0.4-1.2,0.4v3.7c0.6-0.1,1.1-0.3,1.6-0.6l10.6-6.1c1.5-0.8,2.4-2.4,2.4-4.1v-12.2
						C187.9,128.2,187.8,127.6,187.6,127.1"/>
					<path class="st133" d="M172.5,135c0.5-0.8,1.2-1.5,2.2-2.1l8.9-5.2c-0.3-0.4-0.6-0.7-1.1-0.9l-8.2-4.7c-1.2-0.7-2.7-0.7-3.9,0
						l-8.1,4.7c-0.4,0.2-0.8,0.6-1.1,1l8.9,5.1C171.3,133.5,172,134.2,172.5,135"/>
					<path class="st134" d="M162.4,126.8l8.1-4.7c1.2-0.7,2.7-0.7,3.9,0l8.2,4.7c0.4,0.2,0.8,0.6,1.1,0.9l3.2-1.9
						c-0.4-0.5-0.9-0.9-1.4-1.3l-10.6-6.1c-1.5-0.8-3.3-0.8-4.8,0l-10.6,6.1c-0.6,0.3-1,0.8-1.4,1.3l3.2,1.9
						C161.6,127.3,162,127,162.4,126.8"/>
					<path class="st135" d="M170.5,147.5l-8.1-4.7c-1.2-0.7-1.9-2-1.9-3.3v-9.4c0-0.4,0.1-0.7,0.2-1.1l-3.2-1.9
						c-0.2,0.5-0.3,1-0.3,1.5v12.2c0,1.7,0.9,3.3,2.4,4.1l10.6,6.1c0.5,0.3,1.1,0.5,1.6,0.6v-3.7
						C171.3,147.9,170.9,147.7,170.5,147.5"/>
					<path class="st136" d="M169.5,134.1l-8.8-5.1c-0.1,0.3-0.2,0.7-0.2,1.1v9.4c0,1.4,0.7,2.7,1.9,3.3l8.1,4.7
						c0.4,0.2,0.8,0.3,1.2,0.4v-9.9C171.7,136.6,171.3,135.4,169.5,134.1"/>
				</g>
			</g>
		</g>
	</g>
	<circle class="st127" cx="162.9" cy="176.4" r="0.7"/>
	<circle class="st127" cx="181.6" cy="168.2" r="0.7"/>
	<circle class="st127" cx="159.2" cy="163" r="0.7"/>
	<circle class="st127" cx="156.4" cy="101" r="0.5"/>
	<circle class="st127" cx="192.9" cy="147.1" r="0.9"/>
	<linearGradient id="SVGID_152_" gradientUnits="userSpaceOnUse" x1="151.3414" y1="172.8416" x2="193.9337" y2="172.8416">
		<stop  offset="0" style="stop-color:#FDBE00"/>
		<stop  offset="1" style="stop-color:#EC8B00"/>
	</linearGradient>
	<ellipse class="st137" cx="172.6" cy="172.8" rx="21.3" ry="12.3"/>
</g>
</svg>
