<?xml version="1.0" encoding="utf-8"?>
<!-- Generator: Adobe Illustrator 21.1.0, SVG Export Plug-In . SVG Version: 6.00 Build 0)  -->
<svg version="1.1" id="Layer_1" xmlns="http://www.w3.org/2000/svg" xmlns:xlink="http://www.w3.org/1999/xlink" x="0px" y="0px"
	 viewBox="0 0 172.3 145.5" style="enable-background:new 0 0 172.3 145.5;" xml:space="preserve">
<style type="text/css">
	.st0{fill:#FFFFFF;stroke:#F79D79;stroke-linejoin:round;}
	.st1{fill:#FFFFFF;stroke:#F79D79;stroke-width:0.65;stroke-linejoin:round;}
	.st2{fill:none;stroke:#F79D79;stroke-width:0.65;stroke-linejoin:round;}
	.st3{fill:#FFFFFF;stroke:#F79D79;stroke-width:1.0396;stroke-linejoin:round;}
	.st4{fill:url(#SVGID_1_);stroke:#F79D79;stroke-width:0.52;stroke-miterlimit:10;}
	.st5{fill:none;stroke:#F79D79;stroke-width:0.75;stroke-linejoin:round;stroke-dasharray:3,3;}
	.st6{fill:url(#SVGID_2_);stroke:#F79D79;stroke-width:0.52;stroke-miterlimit:10;}
	.st7{fill:#FFFFFF;stroke:#F79D79;stroke-width:0.5198;stroke-linejoin:round;}
	.st8{fill:none;stroke:#F79D79;stroke-width:0.5198;stroke-linejoin:round;}
	.st9{fill:#FFFFFF;stroke:#F79D79;stroke-width:0.52;stroke-miterlimit:10;}
	.st10{fill:#FFFFFF;stroke:#F79D79;stroke-width:0.4;stroke-linejoin:round;stroke-miterlimit:10;}
</style>
<title>feat</title>
<polygon class="st0" points="0.3,90.6 0.3,107.8 85.7,145.3 172,107.8 172,90.6 85.7,53.1 "/>
<polyline class="st1" points="172,90.6 85.7,128.1 0.3,90.6 "/>
<line class="st2" x1="85.7" y1="145.3" x2="85.7" y2="128.1"/>
<polygon class="st3" points="43,90.6 86.1,72 128.9,90.6 86.1,109.2 "/>
<linearGradient id="SVGID_1_" gradientUnits="userSpaceOnUse" x1="86.1" y1="-1177.45" x2="128.97" y2="-1177.45" gradientTransform="matrix(1 0 0 -1 0 -1092)">
	<stop  offset="0" style="stop-color:#FFFFFF"/>
	<stop  offset="6.000000e-02" style="stop-color:#FFF7F3"/>
	<stop  offset="1" style="stop-color:#FEE4D8"/>
</linearGradient>
<polygon class="st4" points="86.1,88.6 86.1,72 128.9,90.6 109.8,98.9 "/>
<line class="st5" x1="43" y1="39.7" x2="43" y2="90.6"/>
<line class="st5" x1="128.9" y1="39.7" x2="128.9" y2="90.6"/>
<linearGradient id="SVGID_2_" gradientUnits="userSpaceOnUse" x1="43" y1="-1177.45" x2="86.03" y2="-1177.45" gradientTransform="matrix(1 0 0 -1 0 -1092)">
	<stop  offset="0" style="stop-color:#FFFFFF"/>
	<stop  offset="6.000000e-02" style="stop-color:#FFF7F3"/>
	<stop  offset="1" style="stop-color:#FEE4D8"/>
</linearGradient>
<polygon class="st6" points="62.3,98.9 86.1,88.6 86.1,72 43,90.6 "/>
<polygon class="st0" points="128.9,40 128.9,19.6 86,0.3 43,19.6 43,40 86,58.1 "/>
<polyline class="st7" points="43,19.6 86,37.8 128.9,19.6 "/>
<line id="_Line_" class="st8" x1="86" y1="37.8" x2="86" y2="58.1"/>
<polygon class="st9" points="62.3,98.9 86.1,88.6 109.8,98.9 86.1,109.2 "/>
<path class="st10" d="M-237.9-56.2"/>
</svg>
