<?xml version="1.0"?>
<svg xmlns="http://www.w3.org/2000/svg" height="512px" viewBox="0 0 496 496" width="512px"><g><path d="m496 192v-72c0-22.054688-17.945312-40-40-40h-226.929688c-1.375-2.886719-2.839843-5.753906-4.46875-8.527344l9.292969-18.585937-30.773437-30.78125-18.585938 9.292969c-8.871094-5.214844-18.328125-9.152344-28.199218-11.726563l-6.566407-19.671875h-43.53125l-6.558593 19.671875c-9.871094 2.574219-19.328126 6.503906-28.199219 11.726563l-18.601563-9.292969-30.773437 30.773437 9.292969 18.585938c-5.214844 8.871094-9.152344 18.328125-11.726563 28.199218l-19.671875 6.566407v43.53125l19.671875 6.558593c2.574219 9.871094 6.503906 19.328126 11.726563 28.199219l-9.292969 18.601563 30.78125 30.78125 18.585937-9.292969c9.328125 5.488281 19.296875 9.542969 29.726563 12.117187l10.800781 14.503907v164.769531h-96v40c0 22.054688 17.945312 40 40 40h336c22.054688 0 40-17.945312 40-40v-56h64v-192h-64v-16zm-16-72v56h-48v-56c0-13.230469 10.769531-24 24-24s24 10.769531 24 24zm-369.511719 102.40625-2.921875-.636719c-11.125-2.417969-21.679687-6.808593-31.367187-13.035156l-3.832031-2.46875-16.328126 8.167969-14.472656-14.472656 8.167969-16.328126-2.46875-3.832031c-6.226563-9.6875-10.617187-20.242187-13.035156-31.367187l-.964844-4.449219-17.265625-5.753906v-20.46875l17.265625-5.761719.964844-4.449219c2.417969-11.125 6.808593-21.679687 13.035156-31.367187l2.46875-3.832032-8.167969-16.3125 14.472656-14.472656 16.328126 8.167969 3.832031-2.46875c9.6875-6.226563 20.242187-10.617187 31.367187-13.035156l4.449219-.964844 5.753906-17.265625h20.46875l5.761719 17.265625 4.449219.964844c11.125 2.417969 21.679687 6.808593 31.367187 13.035156l3.832032 2.46875 16.328124-8.167969 14.472657 14.472656-8.167969 16.328126 2.472656 3.832031c.796875 1.242187 1.476563 2.535156 2.214844 3.808593h-19.136719c-15.105469-20.054687-38.601562-32.007812-63.832031-32.007812-44.113281 0-80 35.886719-80 80 0 38.414062 27.054688 70.921875 64 78.390625v18.058594zm1.511719-102.40625v35.65625c-9.640625-5.609375-16-16.03125-16-27.65625 0-14.503906 9.761719-26.648438 23.015625-30.558594-4.414063 6.429688-7.015625 14.191406-7.015625 22.558594zm28.664062-38.160156c-4.121093-1.128906-8.351562-1.839844-12.664062-1.839844-26.472656 0-48 21.527344-48 48 0 20.472656 13.144531 38.441406 32 45.136719v16.785156c-27.894531-7.144531-48-32.320313-48-61.921875 0-35.289062 28.710938-64 64-64 15.777344 0 30.734375 5.816406 42.296875 16h-18.296875c-3.96875 0-7.71875.761719-11.335938 1.839844zm-84.664062 398.160156c-13.230469 0-24-10.769531-24-24v-24h320v24c0 9 2.984375 17.3125 8.015625 24zm200-96v-128h224v128zm224-144h-224v-16h224zm-240-32v192h176v56c0 13.230469-10.769531 24-24 24s-24-10.769531-24-24v-40h-240v-296c0-13.230469 10.769531-24 24-24h272.207031c-5.078125 6.703125-8.207031 14.960938-8.207031 24v88zm0 0" data-original="#000000" class="active-path" data-old_color="#ffffff" fill="#ffffff"/><path d="m338.34375 282.34375-37.65625 37.65625 37.65625 37.65625 11.3125-11.3125-26.34375-26.34375 26.34375-26.34375zm0 0" data-original="#000000" class="active-path" data-old_color="#ffffff" fill="#ffffff"/><path d="m386.34375 293.65625 26.34375 26.34375-26.34375 26.34375 11.3125 11.3125 37.65625-37.65625-37.65625-37.65625zm0 0" data-original="#000000" class="active-path" data-old_color="#ffffff" fill="#ffffff"/><path d="m352.113281 366.710938 15.972657-96.003907 15.78125 2.625-15.96875 96.007813zm0 0" data-original="#000000" class="active-path" data-old_color="#ffffff" fill="#ffffff"/><path d="m144 112h16v16h-16zm0 0" data-original="#000000" class="active-path" data-old_color="#ffffff" fill="#ffffff"/><path d="m176 112h224v16h-224zm0 0" data-original="#000000" class="active-path" data-old_color="#ffffff" fill="#ffffff"/><path d="m144 144h256v16h-256zm0 0" data-original="#000000" class="active-path" data-old_color="#ffffff" fill="#ffffff"/><path d="m144 176h96v16h-96zm0 0" data-original="#000000" class="active-path" data-old_color="#ffffff" fill="#ffffff"/><path d="m256 176h144v16h-144zm0 0" data-original="#000000" class="active-path" data-old_color="#ffffff" fill="#ffffff"/><path d="m144 208h80v16h-80zm0 0" data-original="#000000" class="active-path" data-old_color="#ffffff" fill="#ffffff"/><path d="m144 240h80v16h-80zm0 0" data-original="#000000" class="active-path" data-old_color="#ffffff" fill="#ffffff"/><path d="m144 272h80v16h-80zm0 0" data-original="#000000" class="active-path" data-old_color="#ffffff" fill="#ffffff"/></g> </svg>
