<svg id="Capa_1" enable-background="new 0 0 512.002 512.002" height="512" viewBox="0 0 512.002 512.002" width="512" xmlns="http://www.w3.org/2000/svg"><g><g><g><g><path d="m185.594 471.391 8.283-82.831v-14.554h124.249v14.554l8.284 82.831v11.282h-140.816z" fill="#c5dcf5"/></g><path d="m362.968 471.396h-213.932c-4.971 0-9 4.029-9 9v15.132c0 4.97 4.029 9 9 9h213.932c4.97 0 9-4.03 9-9v-15.132c0-4.97-4.029-9-9-9z" fill="#e9f5fc"/><path d="m362.968 471.396h-23c4.97 0 9 4.029 9 9v15.132c0 4.97-4.03 9-9 9h23c4.97 0 9-4.03 9-9v-15.132c0-4.97-4.029-9-9-9z" fill="#c5e0fa"/><path d="m7.504 330.339v25.09c0 18.298 14.834 33.132 33.132 33.132h430.73c18.298 0 33.132-14.834 33.132-33.132v-25.09z" fill="#e9f5fc"/><path d="m481.499 330.339v25.09c0 18.298-14.834 33.132-33.132 33.132h23c18.298 0 33.132-14.834 33.132-33.132v-25.09z" fill="#c5e0fa"/><path d="m471.367 7.528h-430.731c-18.298 0-33.132 14.834-33.132 33.132v298.198h496.995v-298.198c0-18.298-14.834-33.132-33.132-33.132z" fill="#355b90"/><path d="m471.367 7.528h-23c18.298 0 33.132 14.834 33.132 33.132v298.198h23v-298.198c0-18.298-14.834-33.132-33.132-33.132z" fill="#2b4983"/><path d="m40.635 338.859v-289.913c0-4.575 3.709-8.283 8.283-8.283h414.166c4.575 0 8.283 3.708 8.283 8.283v289.913z" fill="#7fe0fc"/><path d="m463.085 40.662h-23.001c4.575 0 8.283 3.709 8.283 8.284v289.913h23.001v-289.913c0-4.575-3.709-8.284-8.283-8.284z" fill="#6cbef2"/></g><path d="m40.635 73.795h430.733v231.933h-430.733z" fill="#e9f5fc"/><path d="m448.367 73.795h23.001v231.933h-23.001z" fill="#c5e0fa"/></g><path d="m512 40.633c0-22.405-18.228-40.633-40.633-40.633h-430.732c-22.405 0-40.633 18.228-40.633 40.633v314.77c0 22.404 18.227 40.632 40.633 40.632h144.954l-6.784 67.836h-29.77c-9.098 0-16.5 7.402-16.5 16.5v15.132c0 9.098 7.402 16.5 16.5 16.5h21.558c4.143 0 7.5-3.357 7.5-7.5s-3.357-7.5-7.5-7.5h-21.558c-.827 0-1.5-.673-1.5-1.5v-15.133c0-.827.673-1.5 1.5-1.5h213.933c.827 0 1.5.673 1.5 1.5v15.132c0 .827-.673 1.5-1.5 1.5h-162.375c-4.143 0-7.5 3.357-7.5 7.5s3.357 7.5 7.5 7.5h162.375c9.099 0 16.5-7.402 16.5-16.5v-15.132c0-9.098-7.401-16.5-16.5-16.5h-29.77l-6.784-67.836h80.087c4.143 0 7.5-3.357 7.5-7.5s-3.357-7.5-7.5-7.5h-275.533v-9.067c0-4.143-3.357-7.5-7.5-7.5s-7.5 3.357-7.5 7.5v9.067h-18.132v-9.067c0-4.143-3.357-7.5-7.5-7.5s-7.5 3.357-7.5 7.5v9.067h-18.134v-9.067c0-4.143-3.357-7.5-7.5-7.5s-7.5 3.357-7.5 7.5v9.067h-9.066c-14.134 0-25.633-11.498-25.633-25.632v-9.07h481.997v9.07c0 14.134-11.499 25.632-25.633 25.632h-34.699c-4.143 0-7.5 3.357-7.5 7.5s3.357 7.5 7.5 7.5h34.699c22.405 0 40.633-18.228 40.633-40.632zm-318.12 423.237 1.814-18.137h120.615l1.814 18.137zm120.929-33.137h-117.615l3.47-34.699h110.675zm149.06-248.499h-46.533v-44.566c0-12.829 10.438-23.267 23.267-23.267s23.267 10.438 23.267 23.267v44.566zm-23.267-82.833c-21.101 0-38.267 17.166-38.267 38.267v44.566h-46.534v-11.434c0-21.101-17.166-38.267-38.267-38.267s-38.267 17.166-38.267 38.267v11.434h-46.533v-44.566c0-21.101-17.166-38.267-38.267-38.267s-38.268 17.166-38.268 38.267v44.566h-46.533v-11.434c0-21.101-17.166-38.267-38.267-38.267-8.748 0-16.814 2.957-23.267 7.915v-59.18h415.734v26.049c-6.45-4.959-14.516-7.916-23.264-7.916zm-84.801 97.833h46.534v44.566c0 12.829-10.438 23.267-23.267 23.267-12.83 0-23.268-10.438-23.268-23.267v-44.566zm-15-15h-46.533v-11.434c0-12.829 10.438-23.267 23.267-23.267s23.267 10.438 23.267 23.267v11.434zm-108.066 15h46.533v11.434c0 12.829-10.438 23.267-23.267 23.267s-23.267-10.438-23.267-23.267v-11.434zm-15-15h-46.534v-44.566c0-12.829 10.438-23.267 23.268-23.267 12.829 0 23.267 10.438 23.267 23.267v44.566zm-108.067 15h46.533v44.566c0 12.829-10.438 23.267-23.267 23.267s-23.267-10.438-23.267-23.267v-44.566zm-15-15h-46.534v-11.434c0-12.829 10.438-23.267 23.267-23.267s23.267 10.438 23.267 23.267zm-46.534 15h46.533v44.566c0 21.101 17.166 38.267 38.267 38.267s38.267-17.166 38.267-38.267v-44.566h46.534v11.434c0 21.101 17.166 38.267 38.267 38.267s38.267-17.166 38.267-38.267v-11.434h46.533v44.566c0 21.101 17.167 38.267 38.268 38.267s38.267-17.166 38.267-38.267v-44.566h46.533v100.967h-415.736zm415.735-130.966h-415.735v-17.35c0-.432.352-.783.783-.783h414.168c.432 0 .783.352.783.783v17.35zm-415.735 246.933h415.734v18.131h-415.734zm430.735 18.131v-282.414c0-8.703-7.08-15.783-15.783-15.783h-414.169c-8.703 0-15.783 7.08-15.783 15.783v282.414h-18.132v-290.699c0-14.134 11.499-25.633 25.633-25.633h430.731c14.134 0 25.634 11.499 25.634 25.633v290.699z"/></g></svg>