<?xml version="1.0" encoding="utf-8"?>
<!-- Generator: Adobe Illustrator 18.0.0, SVG Export Plug-In . SVG Version: 6.00 Build 0)  -->
<!DOCTYPE svg PUBLIC "-//W3C//DTD SVG 1.1//EN" "http://www.w3.org/Graphics/SVG/1.1/DTD/svg11.dtd">
<svg version="1.1" id="Layer_1" xmlns="http://www.w3.org/2000/svg" xmlns:xlink="http://www.w3.org/1999/xlink" x="0px" y="0px"
	 viewBox="0 0 129.5 129.5" enable-background="new 0 0 129.5 129.5" xml:space="preserve">
<g>
	<g>
		<path fill="#FF7058" d="M64.8,106.9c-11.3,0-21.9-4.4-29.8-12.4c-8-8-12.4-18.6-12.4-29.8c0-23.3,18.9-42.2,42.2-42.2
			c11.3,0,21.9,4.4,29.8,12.4c8,8,12.4,18.6,12.4,29.8C106.9,88,88,106.9,64.8,106.9L64.8,106.9z"/>
		<path fill="#FFFFFF" d="M94.3,64.6c0-2.7-1.5-5.1-3.6-6.5c1.1-1.3,1.8-3,1.8-4.9c0-4.2-3.4-7.6-7.6-7.6c-0.8,0-1.5,0.2-2.2,0.4
			c0-0.2,0.1-0.4,0.1-0.5c0-4.2-3.4-7.6-7.6-7.6c-4.2,0-7.6,3.4-7.6,7.6V84c0,4.2,3.4,7.6,7.6,7.6c4.2,0,7.6-3.4,7.6-7.6
			c0-0.2,0-0.4-0.1-0.5c0.7,0.2,1.5,0.4,2.2,0.4c4.2,0,7.6-3.4,7.6-7.6c0-2-0.8-3.7-2-5.1C92.7,69.8,94.3,67.4,94.3,64.6z"/>
		<path fill="#FFFFFF" d="M84.9,45.7c-2.9,0-5.3,1.6-6.6,3.9"/>
		<path fill="#FFFFFF" d="M92.5,76.2c0-4.2-3.4-7.6-7.6-7.6"/>
		<path fill="#FFFFFF" d="M94.3,64.6c0-4.2-3.4-7.6-7.6-7.6"/>
		<path fill="#FFFFFF" d="M82.7,84c0-1.2-0.3-2.4-0.8-3.4"/>
		<path fill="#FFFFFF" d="M35.2,64.6c0-2.7,1.5-5.1,3.6-6.5c-1.1-1.3-1.8-3-1.8-4.9c0-4.2,3.4-7.6,7.6-7.6c0.8,0,1.5,0.2,2.2,0.4
			c0-0.2-0.1-0.4-0.1-0.5c0-4.2,3.4-7.6,7.6-7.6c4.2,0,7.6,3.4,7.6,7.6V84c0,4.2-3.4,7.6-7.6,7.6c-4.2,0-7.6-3.4-7.6-7.6
			c0-0.2,0-0.4,0.1-0.5c-0.7,0.2-1.5,0.4-2.2,0.4c-4.2,0-7.6-3.4-7.6-7.6c0-2,0.8-3.7,2-5.1C36.8,69.8,35.2,67.4,35.2,64.6z"/>
		<path fill="#FFFFFF" d="M44.6,45.7c2.9,0,5.3,1.6,6.6,3.9"/>
		<path fill="#FFFFFF" d="M37,76.2c0-4.2,3.4-7.6,7.6-7.6"/>
		<path fill="#FFFFFF" d="M35.2,64.6c0-4.2,3.4-7.6,7.6-7.6"/>
		<path fill="#FFFFFF" d="M46.8,84c0-1.2,0.3-2.4,0.8-3.4"/>
		<g>
			<path fill="#231F20" d="M95,64.6c0-2.6-1.2-5.1-3.3-6.6c1-1.4,1.5-3.1,1.5-4.7c0-4.6-3.7-8.3-8.3-8.3c-0.5,0-1,0-1.5,0.2
				c-0.2-4.4-3.9-7.9-8.3-7.9c-4.6,0-8.3,3.7-8.3,8.3V84c0,4.6,3.7,8.3,8.3,8.3c4.5,0,8.1-3.5,8.3-7.9c0.5,0.1,1,0.1,1.5,0.1
				c4.6,0,8.3-3.7,8.3-8.3c0-1.8-0.6-3.5-1.6-4.9C93.7,69.8,95,67.3,95,64.6z M91.7,76.2c0,3.8-3.1,6.8-6.8,6.8
				c-0.5,0-1-0.1-1.5-0.2c-0.1-0.9-0.4-1.8-0.8-2.6l-1.3,0.7c0.4,0.8,0.6,1.7,0.7,2.5c0,0,0,0.1,0,0.1c0,0.1,0,0.2,0,0.3
				c0,0.1,0,0.1,0,0.2v0c0,3.8-3.1,6.8-6.8,6.8c-3.8,0-6.8-3.1-6.8-6.8V45.5c0-3.8,3.1-6.8,6.8-6.8c3.8,0,6.8,3.1,6.8,6.8
				c-1.8,0.7-3.4,2-4.3,3.8l1.3,0.7c0.9-1.6,2.3-2.7,3.9-3.2c0,0,0,0,0,0c0.8-0.2,1.4-0.3,2-0.3c3.8,0,6.8,3.1,6.8,6.8
				c0,1.4-0.5,2.8-1.3,3.9c-1.1-0.6-2.4-0.9-3.7-0.9v1.5c1.3,0,2.5,0.4,3.5,1c0,0,0,0,0,0c0,0,0,0,0.1,0.1c2.1,1.3,3.3,3.4,3.3,5.8
				c0,2.2-1.1,4.3-2.9,5.6c-1.5-1.4-3.5-2.3-5.7-2.3v1.5c2,0,3.8,0.9,5,2.2c0,0,0,0,0,0.1C91.1,72.9,91.7,74.6,91.7,76.2z"/>
			<path fill="#231F20" d="M54.4,37.2c-4.5,0-8.1,3.5-8.3,7.9c-0.5-0.1-1-0.2-1.5-0.2c-4.6,0-8.3,3.7-8.3,8.3c0,1.7,0.5,3.3,1.5,4.7
				c-2.1,1.6-3.3,4-3.3,6.6c0,2.7,1.3,5.1,3.4,6.7c-1.1,1.4-1.6,3.1-1.6,4.9c0,4.6,3.7,8.3,8.3,8.3c0.5,0,1,0,1.5-0.1
				c0.2,4.4,3.9,7.9,8.3,7.9c4.6,0,8.3-3.7,8.3-8.3V45.5C62.8,40.9,59,37.2,54.4,37.2z M61.3,84c0,3.8-3.1,6.8-6.8,6.8
				c-3.8,0-6.8-3.1-6.8-6.8l0,0c0-0.1,0-0.1,0-0.2c0-0.1,0-0.2,0-0.3c0,0,0-0.1,0-0.1c0.1-0.8,0.3-1.7,0.7-2.5L47,80.2
				c-0.4,0.9-0.7,1.7-0.8,2.6c-0.5,0.1-1.1,0.2-1.5,0.2c-3.8,0-6.8-3.1-6.8-6.8c0-1.4,0.4-2.7,1.2-3.9c0.1-0.1,0.2-0.2,0.3-0.4
				c0.1-0.1,0.1-0.2,0.2-0.3c1.3-1.4,3.1-2.3,5.1-2.3v-1.5c-2.2,0-4.2,0.9-5.7,2.3c-1.8-1.3-2.9-3.3-2.9-5.6c0-2.4,1.2-4.6,3.3-5.8
				c0,0,0,0,0,0c1-0.6,2.2-1,3.5-1v-1.5c-1.3,0-2.6,0.3-3.7,0.9c-0.8-1.2-1.3-2.5-1.3-3.9c0-3.8,3.1-6.8,6.8-6.8
				c0.6,0,1.3,0.1,2,0.3c0,0,0,0,0,0c1.6,0.5,3,1.7,3.9,3.2l1.3-0.7c-1-1.8-2.5-3.1-4.3-3.8c0-3.8,3.1-6.8,6.8-6.8
				c3.8,0,6.8,3.1,6.8,6.8V84z"/>
		</g>
		<path fill="#231F20" d="M40.5,8.5c-0.2,0-0.4-0.1-0.5-0.2c-0.3-0.3-0.3-0.8,0-1.1l1.3-1.3c0.3-0.3,0.8-0.3,1.1,0
			c0.3,0.3,0.3,0.8,0,1.1L41,8.2C40.9,8.4,40.7,8.5,40.5,8.5z"/>
		<path fill="#231F20" d="M36.4,12.5c-0.2,0-0.4-0.1-0.5-0.2c-0.3-0.3-0.3-0.8,0-1.1l1.3-1.3c0.3-0.3,0.8-0.3,1.1,0
			c0.3,0.3,0.3,0.8,0,1.1L37,12.3C36.8,12.4,36.6,12.5,36.4,12.5z"/>
		<path fill="#231F20" d="M41.8,12.5c-0.2,0-0.4-0.1-0.5-0.2L39.9,11c-0.3-0.3-0.3-0.8,0-1.1c0.3-0.3,0.8-0.3,1.1,0l1.3,1.3
			c0.3,0.3,0.3,0.8,0,1.1C42.1,12.4,42,12.5,41.8,12.5z"/>
		<path fill="#231F20" d="M37.7,8.5c-0.2,0-0.4-0.1-0.5-0.2L35.9,7c-0.3-0.3-0.3-0.8,0-1.1c0.3-0.3,0.8-0.3,1.1,0l1.3,1.3
			c0.3,0.3,0.3,0.8,0,1.1C38.1,8.4,37.9,8.5,37.7,8.5z"/>
		<path fill="#231F20" d="M115.1,9.8c-0.2,0-0.4-0.1-0.5-0.2c-0.3-0.3-0.3-0.8,0-1.1l1.3-1.3c0.3-0.3,0.8-0.3,1.1,0
			c0.3,0.3,0.3,0.8,0,1.1l-1.3,1.3C115.5,9.8,115.3,9.8,115.1,9.8z"/>
		<path fill="#231F20" d="M111.1,13.9c-0.2,0-0.4-0.1-0.5-0.2c-0.3-0.3-0.3-0.8,0-1.1l1.3-1.3c0.3-0.3,0.8-0.3,1.1,0
			c0.3,0.3,0.3,0.8,0,1.1l-1.3,1.3C111.5,13.8,111.3,13.9,111.1,13.9z"/>
		<path fill="#231F20" d="M116.4,13.9c-0.2,0-0.4-0.1-0.5-0.2l-1.3-1.3c-0.3-0.3-0.3-0.8,0-1.1c0.3-0.3,0.8-0.3,1.1,0l1.3,1.3
			c0.3,0.3,0.3,0.8,0,1.1C116.8,13.8,116.6,13.9,116.4,13.9z"/>
		<path fill="#231F20" d="M112.4,9.8c-0.2,0-0.4-0.1-0.5-0.2l-1.3-1.3c-0.3-0.3-0.3-0.8,0-1.1c0.3-0.3,0.8-0.3,1.1,0l1.3,1.3
			c0.3,0.3,0.3,0.8,0,1.1C112.8,9.8,112.6,9.8,112.4,9.8z"/>
		<path fill="#231F20" d="M14.2,96.2c-0.2,0-0.4-0.1-0.5-0.2c-0.3-0.3-0.3-0.8,0-1.1l1.3-1.3c0.3-0.3,0.8-0.3,1.1,0
			c0.3,0.3,0.3,0.8,0,1.1l-1.3,1.3C14.6,96.1,14.4,96.2,14.2,96.2z"/>
		<path fill="#231F20" d="M10.2,100.2c-0.2,0-0.4-0.1-0.5-0.2c-0.3-0.3-0.3-0.8,0-1.1l1.3-1.3c0.3-0.3,0.8-0.3,1.1,0
			c0.3,0.3,0.3,0.8,0,1.1l-1.3,1.3C10.5,100.1,10.3,100.2,10.2,100.2z"/>
		<path fill="#231F20" d="M15.5,100.2c-0.2,0-0.4-0.1-0.5-0.2l-1.3-1.3c-0.3-0.3-0.3-0.8,0-1.1c0.3-0.3,0.8-0.3,1.1,0l1.3,1.3
			c0.3,0.3,0.3,0.8,0,1.1C15.9,100.1,15.7,100.2,15.5,100.2z"/>
		<path fill="#231F20" d="M11.4,96.2c-0.2,0-0.4-0.1-0.5-0.2l-1.3-1.3c-0.3-0.3-0.3-0.8,0-1.1c0.3-0.3,0.8-0.3,1.1,0l1.3,1.3
			c0.3,0.3,0.3,0.8,0,1.1C11.8,96.1,11.6,96.2,11.4,96.2z"/>
		<path fill="#231F20" d="M12.1,11.1H4.6c-0.4,0-0.8-0.3-0.8-0.8c0-0.4,0.3-0.8,0.8-0.8h7.5c0.4,0,0.8,0.3,0.8,0.8
			C12.8,10.8,12.5,11.1,12.1,11.1z"/>
		<path fill="#231F20" d="M17,11.1h-2.1c-0.4,0-0.8-0.3-0.8-0.8c0-0.4,0.3-0.8,0.8-0.8H17c0.4,0,0.8,0.3,0.8,0.8
			C17.8,10.8,17.4,11.1,17,11.1z"/>
		<path fill="#231F20" d="M14.2,13.8h-2.1c-0.4,0-0.8-0.3-0.8-0.8c0-0.4,0.3-0.8,0.8-0.8h2.1c0.4,0,0.8,0.3,0.8,0.8
			C14.9,13.5,14.6,13.8,14.2,13.8z"/>
		<path fill="#231F20" d="M64.7,114.5c-0.3,0-0.7,0-1,0l0-1.5c0.3,0,0.7,0,1,0L64.7,114.5z M65.7,114.5l0-1.5c0.3,0,0.7,0,1,0
			l0.1,1.5C66.4,114.5,66.1,114.5,65.7,114.5z M62.7,114.5c-0.3,0-0.7,0-1-0.1l0.1-1.5c0.3,0,0.7,0,1,0.1L62.7,114.5z M67.7,114.4
			l-0.1-1.5c0.3,0,0.7,0,1-0.1l0.1,1.5C68.4,114.4,68.1,114.4,67.7,114.4z M60.7,114.3c-0.3,0-0.7-0.1-1-0.1l0.2-1.5
			c0.3,0,0.7,0.1,1,0.1L60.7,114.3z M69.8,114.3l-0.1-1.5c0.3,0,0.7-0.1,1-0.1l0.2,1.5C70.4,114.2,70.1,114.2,69.8,114.3z
			 M58.6,114.1c-0.3,0-0.7-0.1-1-0.1l0.2-1.5c0.3,0,0.6,0.1,1,0.1L58.6,114.1z M71.8,114l-0.2-1.5c0.3,0,0.7-0.1,1-0.1l0.2,1.5
			C72.5,113.9,72.1,114,71.8,114z M56.6,113.9c-0.3-0.1-0.7-0.1-1-0.2l0.3-1.5c0.3,0.1,0.6,0.1,1,0.2L56.6,113.9z M73.8,113.7
			l-0.3-1.5c0.3-0.1,0.6-0.1,1-0.2l0.3,1.5C74.5,113.6,74.1,113.6,73.8,113.7z M54.6,113.5c-0.3-0.1-0.7-0.1-1-0.2l0.3-1.5
			c0.3,0.1,0.6,0.1,1,0.2L54.6,113.5z M75.8,113.3l-0.3-1.5c0.3-0.1,0.6-0.1,1-0.2l0.4,1.5C76.4,113.1,76.1,113.2,75.8,113.3z
			 M52.6,113c-0.3-0.1-0.7-0.2-1-0.3l0.4-1.4c0.3,0.1,0.6,0.2,1,0.2L52.6,113z M77.8,112.8l-0.4-1.4c0.3-0.1,0.6-0.2,0.9-0.3
			l0.4,1.4C78.4,112.6,78.1,112.7,77.8,112.8z M50.7,112.5c-0.3-0.1-0.6-0.2-1-0.3l0.5-1.4c0.3,0.1,0.6,0.2,0.9,0.3L50.7,112.5z
			 M79.7,112.2l-0.5-1.4c0.3-0.1,0.6-0.2,0.9-0.3l0.5,1.4C80.3,112,80,112.1,79.7,112.2z M48.8,111.9c-0.3-0.1-0.6-0.2-1-0.3
			l0.5-1.4c0.3,0.1,0.6,0.2,0.9,0.3L48.8,111.9z M81.6,111.6l-0.5-1.4c0.3-0.1,0.6-0.2,0.9-0.3l0.5,1.4
			C82.3,111.3,81.9,111.5,81.6,111.6z M46.8,111.2c-0.3-0.1-0.6-0.2-0.9-0.4l0.6-1.4c0.3,0.1,0.6,0.2,0.9,0.4L46.8,111.2z
			 M83.5,110.8l-0.6-1.4c0.3-0.1,0.6-0.3,0.9-0.4l0.6,1.4C84.2,110.6,83.8,110.7,83.5,110.8z M45,110.4c-0.3-0.1-0.6-0.3-0.9-0.4
			l0.6-1.4c0.3,0.1,0.6,0.3,0.9,0.4L45,110.4z M85.4,110l-0.6-1.4c0.3-0.1,0.6-0.3,0.9-0.4l0.7,1.4C86,109.8,85.7,109.9,85.4,110z
			 M43.1,109.6c-0.3-0.1-0.6-0.3-0.9-0.4l0.7-1.3c0.3,0.1,0.6,0.3,0.9,0.4L43.1,109.6z M87.2,109.2l-0.7-1.3
			c0.3-0.1,0.6-0.3,0.9-0.5l0.7,1.3C87.8,108.8,87.5,109,87.2,109.2z M41.3,108.7c-0.3-0.2-0.6-0.3-0.9-0.5l0.7-1.3
			c0.3,0.2,0.6,0.3,0.9,0.5L41.3,108.7z M89,108.2l-0.7-1.3c0.3-0.2,0.6-0.3,0.9-0.5l0.8,1.3C89.6,107.9,89.3,108,89,108.2z
			 M39.6,107.7c-0.3-0.2-0.6-0.3-0.9-0.5l0.8-1.3c0.3,0.2,0.6,0.3,0.8,0.5L39.6,107.7z M90.8,107.2l-0.8-1.3
			c0.3-0.2,0.6-0.3,0.8-0.5l0.8,1.3C91.4,106.8,91.1,107,90.8,107.2z M37.8,106.6c-0.3-0.2-0.6-0.4-0.8-0.6l0.8-1.2
			c0.3,0.2,0.5,0.4,0.8,0.5L37.8,106.6z M92.5,106.1l-0.8-1.2c0.3-0.2,0.5-0.4,0.8-0.6l0.9,1.2C93.1,105.7,92.8,105.9,92.5,106.1z
			 M36.2,105.5c-0.3-0.2-0.6-0.4-0.8-0.6l0.9-1.2c0.3,0.2,0.5,0.4,0.8,0.6L36.2,105.5z M94.2,104.9l-0.9-1.2
			c0.3-0.2,0.5-0.4,0.8-0.6l0.9,1.2C94.7,104.5,94.4,104.7,94.2,104.9z M34.5,104.3c-0.3-0.2-0.5-0.4-0.8-0.6l0.9-1.2
			c0.3,0.2,0.5,0.4,0.8,0.6L34.5,104.3z M95.8,103.7l-0.9-1.2c0.3-0.2,0.5-0.4,0.8-0.6l1,1.2C96.3,103.2,96,103.5,95.8,103.7z
			 M32.9,103c-0.3-0.2-0.5-0.4-0.8-0.7l1-1.1c0.2,0.2,0.5,0.4,0.7,0.6L32.9,103z M97.3,102.4l-1-1.1c0.2-0.2,0.5-0.4,0.7-0.7l1,1.1
			C97.8,101.9,97.6,102.1,97.3,102.4z M31.4,101.7c-0.3-0.2-0.5-0.5-0.7-0.7l1-1.1c0.2,0.2,0.5,0.4,0.7,0.7L31.4,101.7z M98.8,101
			l-1-1.1c0.2-0.2,0.5-0.5,0.7-0.7l1,1.1C99.3,100.5,99.1,100.8,98.8,101z M29.9,100.3c-0.2-0.2-0.5-0.5-0.7-0.7l1.1-1.1
			c0.2,0.2,0.5,0.5,0.7,0.7L29.9,100.3z M100.3,99.6l-1.1-1.1c0.2-0.2,0.5-0.5,0.7-0.7l1.1,1C100.8,99.1,100.5,99.3,100.3,99.6z
			 M28.5,98.8c-0.2-0.2-0.5-0.5-0.7-0.7l1.1-1c0.2,0.2,0.4,0.5,0.7,0.7L28.5,98.8z M101.7,98.1l-1.1-1c0.2-0.2,0.4-0.5,0.7-0.7
			l1.1,1C102.1,97.6,101.9,97.9,101.7,98.1z M27.1,97.3c-0.2-0.3-0.4-0.5-0.7-0.8l1.2-1c0.2,0.3,0.4,0.5,0.6,0.8L27.1,97.3z
			 M103,96.6l-1.2-1c0.2-0.3,0.4-0.5,0.6-0.8l1.2,0.9C103.4,96.1,103.2,96.3,103,96.6z M25.8,95.8c-0.2-0.3-0.4-0.5-0.6-0.8l1.2-0.9
			c0.2,0.3,0.4,0.5,0.6,0.8L25.8,95.8z M104.3,95l-1.2-0.9c0.2-0.3,0.4-0.5,0.6-0.8l1.2,0.9C104.7,94.5,104.5,94.7,104.3,95z
			 M24.6,94.2c-0.2-0.3-0.4-0.5-0.6-0.8l1.2-0.9c0.2,0.3,0.4,0.5,0.6,0.8L24.6,94.2z M105.5,93.4l-1.2-0.9c0.2-0.3,0.4-0.5,0.6-0.8
			l1.2,0.8C105.9,92.8,105.7,93.1,105.5,93.4z M23.4,92.5c-0.2-0.3-0.4-0.6-0.6-0.8l1.3-0.8c0.2,0.3,0.4,0.6,0.5,0.8L23.4,92.5z
			 M106.6,91.7l-1.3-0.8c0.2-0.3,0.4-0.6,0.5-0.8l1.3,0.8C107,91.1,106.8,91.4,106.6,91.7z M22.3,90.8c-0.2-0.3-0.4-0.6-0.5-0.9
			l1.3-0.8c0.2,0.3,0.3,0.6,0.5,0.8L22.3,90.8z M107.7,90l-1.3-0.8c0.2-0.3,0.3-0.6,0.5-0.9l1.3,0.7C108,89.4,107.8,89.7,107.7,90z
			 M21.3,89c-0.2-0.3-0.3-0.6-0.5-0.9l1.3-0.7c0.2,0.3,0.3,0.6,0.5,0.9L21.3,89z M108.7,88.2l-1.3-0.7c0.2-0.3,0.3-0.6,0.5-0.9
			l1.3,0.7C109,87.6,108.8,87.9,108.7,88.2z M20.3,87.2c-0.2-0.3-0.3-0.6-0.5-0.9l1.4-0.7c0.1,0.3,0.3,0.6,0.4,0.9L20.3,87.2z
			 M109.6,86.4l-1.4-0.7c0.1-0.3,0.3-0.6,0.4-0.9l1.4,0.6C109.9,85.8,109.7,86.1,109.6,86.4z M19.5,85.4c-0.1-0.3-0.3-0.6-0.4-0.9
			l1.4-0.6c0.1,0.3,0.3,0.6,0.4,0.9L19.5,85.4z M110.4,84.5l-1.4-0.6c0.1-0.3,0.3-0.6,0.4-0.9l1.4,0.6
			C110.7,83.9,110.6,84.2,110.4,84.5z M18.7,83.5c-0.1-0.3-0.3-0.6-0.4-0.9l1.4-0.5c0.1,0.3,0.2,0.6,0.4,0.9L18.7,83.5z M111.2,82.7
			l-1.4-0.5c0.1-0.3,0.2-0.6,0.3-0.9l1.4,0.5C111.4,82,111.3,82.4,111.2,82.7z M17.9,81.6c-0.1-0.3-0.2-0.6-0.3-1l1.4-0.5
			c0.1,0.3,0.2,0.6,0.3,0.9L17.9,81.6z M111.9,80.8l-1.4-0.5c0.1-0.3,0.2-0.6,0.3-0.9l1.4,0.5C112.1,80.1,112,80.4,111.9,80.8z
			 M17.3,79.7c-0.1-0.3-0.2-0.6-0.3-1l1.4-0.4c0.1,0.3,0.2,0.6,0.3,0.9L17.3,79.7z M112.5,78.8l-1.4-0.4c0.1-0.3,0.2-0.6,0.3-0.9
			l1.4,0.4C112.7,78.2,112.6,78.5,112.5,78.8z M16.7,77.8c-0.1-0.3-0.2-0.7-0.3-1l1.5-0.4c0.1,0.3,0.2,0.6,0.2,1L16.7,77.8z
			 M113,76.9l-1.5-0.4c0.1-0.3,0.2-0.6,0.2-1l1.5,0.3C113.2,76.2,113.1,76.5,113,76.9z M16.2,75.8c-0.1-0.3-0.1-0.7-0.2-1l1.5-0.3
			c0.1,0.3,0.1,0.6,0.2,1L16.2,75.8z M113.5,74.9l-1.5-0.3c0.1-0.3,0.1-0.6,0.2-1l1.5,0.3C113.6,74.2,113.5,74.6,113.5,74.9z
			 M15.8,73.8c-0.1-0.3-0.1-0.7-0.2-1l1.5-0.2c0.1,0.3,0.1,0.6,0.2,1L15.8,73.8z M113.9,72.9l-1.5-0.2c0.1-0.3,0.1-0.6,0.1-1
			l1.5,0.2C114,72.2,113.9,72.6,113.9,72.9z M15.5,71.8c0-0.3-0.1-0.7-0.1-1l1.5-0.2c0,0.3,0.1,0.7,0.1,1L15.5,71.8z M114.1,70.9
			l-1.5-0.2c0-0.3,0.1-0.7,0.1-1l1.5,0.2C114.2,70.2,114.2,70.5,114.1,70.9z M15.2,69.8c0-0.3-0.1-0.7-0.1-1l1.5-0.1
			c0,0.3,0.1,0.7,0.1,1L15.2,69.8z M114.3,68.9l-1.5-0.1c0-0.3,0.1-0.7,0.1-1l1.5,0.1C114.4,68.2,114.4,68.5,114.3,68.9z M15.1,67.8
			c0-0.3,0-0.7-0.1-1l1.5-0.1c0,0.3,0,0.7,0,1L15.1,67.8z M114.5,66.8l-1.5-0.1c0-0.3,0-0.7,0-1l1.5,0
			C114.5,66.2,114.5,66.5,114.5,66.8z M15,65.7c0-0.3,0-0.7,0-1l1.5,0v0c0,0.3,0,0.6,0,1L15,65.7z M113,64.8L113,64.8
			c0-0.4,0-0.7,0-1l1.5,0c0,0.3,0,0.7,0,1L113,64.8z M16.5,63.7l-1.5,0c0-0.3,0-0.7,0-1l1.5,0.1C16.5,63.1,16.5,63.4,16.5,63.7z
			 M113,62.8c0-0.3,0-0.7,0-1l1.5-0.1c0,0.3,0,0.7,0.1,1L113,62.8z M16.6,61.8l-1.5-0.1c0-0.3,0-0.7,0.1-1l1.5,0.1
			C16.6,61.1,16.6,61.4,16.6,61.8z M112.9,60.8c0-0.3-0.1-0.7-0.1-1l1.5-0.1c0,0.3,0.1,0.7,0.1,1L112.9,60.8z M16.7,59.8l-1.5-0.2
			c0-0.3,0.1-0.7,0.1-1l1.5,0.2C16.8,59.2,16.8,59.5,16.7,59.8z M112.7,58.9c0-0.3-0.1-0.7-0.1-1l1.5-0.2c0,0.3,0.1,0.7,0.1,1
			L112.7,58.9z M17,57.9l-1.5-0.2c0-0.3,0.1-0.7,0.2-1l1.5,0.2C17.1,57.2,17,57.5,17,57.9z M112.4,56.9c-0.1-0.3-0.1-0.6-0.2-1
			l1.5-0.3c0.1,0.3,0.1,0.7,0.2,1L112.4,56.9z M17.3,55.9l-1.5-0.3c0.1-0.3,0.1-0.7,0.2-1l1.5,0.3C17.4,55.3,17.4,55.6,17.3,55.9z
			 M112,55c-0.1-0.3-0.1-0.6-0.2-1l1.5-0.3c0.1,0.3,0.1,0.7,0.2,1L112,55z M17.7,54l-1.5-0.3c0.1-0.3,0.2-0.7,0.2-1l1.5,0.4
			C17.8,53.3,17.8,53.7,17.7,54z M111.6,53.1c-0.1-0.3-0.2-0.6-0.2-1l1.4-0.4c0.1,0.3,0.2,0.7,0.3,1L111.6,53.1z M18.2,52.1
			l-1.4-0.4c0.1-0.3,0.2-0.7,0.3-1l1.4,0.4C18.3,51.4,18.3,51.8,18.2,52.1z M111.1,51.2c-0.1-0.3-0.2-0.6-0.3-0.9l1.4-0.5
			c0.1,0.3,0.2,0.6,0.3,1L111.1,51.2z M18.7,50.2l-1.4-0.5c0.1-0.3,0.2-0.6,0.3-1l1.4,0.5C18.9,49.6,18.8,49.9,18.7,50.2z
			 M110.5,49.3c-0.1-0.3-0.2-0.6-0.3-0.9l1.4-0.5c0.1,0.3,0.2,0.6,0.3,1L110.5,49.3z M19.4,48.3l-1.4-0.5c0.1-0.3,0.2-0.6,0.4-1
			l1.4,0.5C19.6,47.7,19.5,48,19.4,48.3z M109.8,47.4c-0.1-0.3-0.2-0.6-0.4-0.9l1.4-0.6c0.1,0.3,0.3,0.6,0.4,0.9L109.8,47.4z
			 M20.1,46.5l-1.4-0.6c0.1-0.3,0.3-0.6,0.4-0.9l1.4,0.6C20.3,45.9,20.2,46.2,20.1,46.5z M109.1,45.6c-0.1-0.3-0.3-0.6-0.4-0.9
			l1.4-0.6c0.1,0.3,0.3,0.6,0.4,0.9L109.1,45.6z M20.8,44.7l-1.4-0.6c0.1-0.3,0.3-0.6,0.4-0.9l1.4,0.7C21.1,44.1,21,44.4,20.8,44.7z
			 M108.2,43.8c-0.1-0.3-0.3-0.6-0.4-0.9l1.3-0.7c0.2,0.3,0.3,0.6,0.5,0.9L108.2,43.8z M21.7,42.9l-1.3-0.7c0.2-0.3,0.3-0.6,0.5-0.9
			l1.3,0.7C22,42.3,21.8,42.6,21.7,42.9z M107.3,42c-0.2-0.3-0.3-0.6-0.5-0.9l1.3-0.7c0.2,0.3,0.3,0.6,0.5,0.9L107.3,42z M22.6,41.2
			l-1.3-0.7c0.2-0.3,0.3-0.6,0.5-0.9l1.3,0.8C22.9,40.6,22.8,40.9,22.6,41.2z M106.4,40.3c-0.2-0.3-0.3-0.6-0.5-0.8l1.3-0.8
			c0.2,0.3,0.4,0.6,0.5,0.9L106.4,40.3z M23.6,39.5l-1.3-0.8c0.2-0.3,0.4-0.6,0.5-0.9l1.3,0.8C24,38.9,23.8,39.2,23.6,39.5z
			 M105.3,38.6c-0.2-0.3-0.4-0.6-0.5-0.8L106,37c0.2,0.3,0.4,0.6,0.6,0.8L105.3,38.6z M24.7,37.8L23.4,37c0.2-0.3,0.4-0.6,0.6-0.8
			l1.2,0.9C25,37.3,24.9,37.6,24.7,37.8z M104.2,37c-0.2-0.3-0.4-0.5-0.6-0.8l1.2-0.9c0.2,0.3,0.4,0.5,0.6,0.8L104.2,37z M25.8,36.2
			l-1.2-0.9c0.2-0.3,0.4-0.5,0.6-0.8l1.2,0.9C26.2,35.7,26,36,25.8,36.2z M103.1,35.4c-0.2-0.3-0.4-0.5-0.6-0.8l1.2-0.9
			c0.2,0.3,0.4,0.5,0.6,0.8L103.1,35.4z M27,34.7l-1.2-0.9c0.2-0.3,0.4-0.5,0.6-0.8l1.2,1C27.4,34.2,27.2,34.4,27,34.7z M101.8,33.9
			c-0.2-0.3-0.4-0.5-0.6-0.7l1.1-1c0.2,0.3,0.4,0.5,0.7,0.8L101.8,33.9z M28.3,33.2l-1.1-1c0.2-0.3,0.4-0.5,0.7-0.8l1.1,1
			C28.7,32.7,28.5,32.9,28.3,33.2z M100.6,32.4c-0.2-0.2-0.4-0.5-0.7-0.7l1.1-1c0.2,0.2,0.5,0.5,0.7,0.7L100.6,32.4z M29.6,31.7
			l-1.1-1c0.2-0.2,0.5-0.5,0.7-0.7l1.1,1C30,31.2,29.8,31.5,29.6,31.7z M99.2,30.9c-0.2-0.2-0.5-0.5-0.7-0.7l1-1.1
			c0.2,0.2,0.5,0.5,0.7,0.7L99.2,30.9z M31,30.3l-1-1.1c0.2-0.2,0.5-0.5,0.7-0.7l1,1.1C31.4,29.8,31.2,30.1,31,30.3z M97.8,29.6
			c-0.2-0.2-0.5-0.4-0.7-0.7l1-1.1c0.3,0.2,0.5,0.5,0.7,0.7L97.8,29.6z M32.4,28.9l-1-1.1c0.3-0.2,0.5-0.5,0.8-0.7l1,1.1
			C32.9,28.5,32.6,28.7,32.4,28.9z M96.3,28.3c-0.2-0.2-0.5-0.4-0.8-0.6l1-1.2c0.3,0.2,0.5,0.4,0.8,0.7L96.3,28.3z M33.9,27.6
			l-1-1.2c0.3-0.2,0.5-0.4,0.8-0.6l0.9,1.2C34.4,27.2,34.1,27.4,33.9,27.6z M94.8,27c-0.3-0.2-0.5-0.4-0.8-0.6l0.9-1.2
			c0.3,0.2,0.5,0.4,0.8,0.6L94.8,27z M35.4,26.4l-0.9-1.2c0.3-0.2,0.5-0.4,0.8-0.6l0.9,1.2C35.9,26,35.7,26.2,35.4,26.4z M93.3,25.8
			c-0.3-0.2-0.5-0.4-0.8-0.6l0.9-1.2c0.3,0.2,0.6,0.4,0.8,0.6L93.3,25.8z M37,25.2L36.1,24c0.3-0.2,0.6-0.4,0.8-0.6l0.8,1.2
			C37.5,24.9,37.3,25.1,37,25.2z M91.7,24.7c-0.3-0.2-0.5-0.4-0.8-0.5l0.8-1.3c0.3,0.2,0.6,0.4,0.8,0.6L91.7,24.7z M38.6,24.1
			l-0.8-1.3c0.3-0.2,0.6-0.4,0.9-0.5l0.8,1.3C39.2,23.8,38.9,24,38.6,24.1z M90,23.6c-0.3-0.2-0.6-0.3-0.8-0.5l0.8-1.3
			c0.3,0.2,0.6,0.3,0.9,0.5L90,23.6z M40.3,23.1l-0.8-1.3c0.3-0.2,0.6-0.3,0.9-0.5l0.7,1.3C40.9,22.8,40.6,22.9,40.3,23.1z
			 M88.3,22.6c-0.3-0.2-0.6-0.3-0.9-0.5l0.7-1.3c0.3,0.2,0.6,0.3,0.9,0.5L88.3,22.6z M42,22.1l-0.7-1.3c0.3-0.2,0.6-0.3,0.9-0.5
			l0.7,1.3C42.6,21.8,42.3,22,42,22.1z M86.6,21.7c-0.3-0.1-0.6-0.3-0.9-0.4l0.7-1.4c0.3,0.1,0.6,0.3,0.9,0.4L86.6,21.7z M43.8,21.3
			l-0.7-1.4c0.3-0.1,0.6-0.3,0.9-0.4l0.6,1.4C44.4,21,44.1,21.1,43.8,21.3z M84.8,20.8c-0.3-0.1-0.6-0.3-0.9-0.4l0.6-1.4
			c0.3,0.1,0.6,0.3,0.9,0.4L84.8,20.8z M45.6,20.4L45,19.1c0.3-0.1,0.6-0.3,0.9-0.4l0.6,1.4C46.2,20.2,45.9,20.3,45.6,20.4z
			 M83,20.1c-0.3-0.1-0.6-0.2-0.9-0.4l0.5-1.4c0.3,0.1,0.6,0.2,0.9,0.4L83,20.1z M47.4,19.7l-0.5-1.4c0.3-0.1,0.6-0.2,1-0.4l0.5,1.4
			C48,19.5,47.7,19.6,47.4,19.7z M81.2,19.3c-0.3-0.1-0.6-0.2-0.9-0.3l0.5-1.4c0.3,0.1,0.6,0.2,1,0.3L81.2,19.3z M49.3,19l-0.5-1.4
			c0.3-0.1,0.6-0.2,1-0.3l0.5,1.4C49.9,18.8,49.6,18.9,49.3,19z M79.3,18.7c-0.3-0.1-0.6-0.2-0.9-0.3l0.4-1.4c0.3,0.1,0.6,0.2,1,0.3
			L79.3,18.7z M51.2,18.4L50.7,17c0.3-0.1,0.7-0.2,1-0.3l0.4,1.4C51.8,18.2,51.5,18.3,51.2,18.4z M77.4,18.2c-0.3-0.1-0.6-0.2-1-0.2
			l0.4-1.5c0.3,0.1,0.7,0.2,1,0.3L77.4,18.2z M53.1,17.9l-0.4-1.5c0.3-0.1,0.7-0.2,1-0.2l0.3,1.5C53.7,17.8,53.4,17.8,53.1,17.9z
			 M75.5,17.7c-0.3-0.1-0.6-0.1-1-0.2l0.3-1.5c0.3,0.1,0.7,0.1,1,0.2L75.5,17.7z M55,17.5L54.7,16c0.3-0.1,0.7-0.1,1-0.2l0.3,1.5
			C55.6,17.3,55.3,17.4,55,17.5z M73.6,17.3c-0.3-0.1-0.6-0.1-1-0.2l0.2-1.5c0.3,0.1,0.7,0.1,1,0.2L73.6,17.3z M56.9,17.1l-0.2-1.5
			c0.3-0.1,0.7-0.1,1-0.2l0.2,1.5C57.6,17,57.2,17.1,56.9,17.1z M71.6,17c-0.3,0-0.6-0.1-1-0.1l0.2-1.5c0.3,0,0.7,0.1,1,0.1L71.6,17
			z M58.9,16.8l-0.2-1.5c0.3,0,0.7-0.1,1-0.1l0.2,1.5C59.5,16.8,59.2,16.8,58.9,16.8z M69.7,16.7c-0.3,0-0.7-0.1-1-0.1l0.1-1.5
			c0.3,0,0.7,0.1,1,0.1L69.7,16.7z M60.8,16.6l-0.1-1.5c0.3,0,0.7-0.1,1-0.1l0.1,1.5C61.5,16.6,61.2,16.6,60.8,16.6z M67.7,16.6
			c-0.3,0-0.7,0-1,0l0.1-1.5c0.3,0,0.7,0,1,0.1L67.7,16.6z M62.8,16.5L62.7,15c0.3,0,0.7,0,1,0l0,1.5C63.5,16.5,63.1,16.5,62.8,16.5
			z M65.7,16.5c-0.3,0-0.7,0-1,0V15c0.3,0,0.7,0,1,0L65.7,16.5z"/>
		<path fill="#231F20" d="M64.8,104.2c-0.2,0-0.4,0-0.7,0l0-1.5c0.2,0,0.4,0,0.6,0l0.4,0l0,1.5L64.8,104.2z M66.1,104.2l-0.1-1.5
			c0.3,0,0.7,0,1,0l0.1,1.5C66.8,104.2,66.5,104.2,66.1,104.2z M63.1,104.2c-0.3,0-0.7,0-1-0.1l0.1-1.5c0.3,0,0.7,0,1,0.1
			L63.1,104.2z M68.2,104.1l-0.1-1.5c0.3,0,0.7-0.1,1-0.1l0.2,1.5C68.8,104,68.5,104.1,68.2,104.1z M61.1,104.1
			c-0.3,0-0.7-0.1-1-0.1l0.2-1.5c0.3,0,0.6,0.1,1,0.1L61.1,104.1z M70.2,103.9l-0.2-1.5c0.3,0,0.6-0.1,1-0.1l0.2,1.5
			C70.9,103.8,70.5,103.8,70.2,103.9z M59,103.8c-0.3,0-0.7-0.1-1-0.2l0.3-1.5c0.3,0.1,0.6,0.1,1,0.2L59,103.8z M72.2,103.5
			l-0.3-1.5c0.3-0.1,0.6-0.1,1-0.2l0.3,1.5C72.9,103.4,72.5,103.5,72.2,103.5z M57,103.5c-0.3-0.1-0.7-0.1-1-0.2l0.3-1.5
			c0.3,0.1,0.6,0.1,1,0.2L57,103.5z M74.2,103.1l-0.4-1.5c0.3-0.1,0.6-0.2,0.9-0.2l0.4,1.4C74.9,102.9,74.5,103,74.2,103.1z M55,103
			c-0.3-0.1-0.7-0.2-1-0.3l0.4-1.4c0.3,0.1,0.6,0.2,0.9,0.3L55,103z M76.2,102.6l-0.4-1.4c0.3-0.1,0.6-0.2,0.9-0.3l0.5,1.4
			C76.8,102.4,76.5,102.5,76.2,102.6z M53.1,102.5c-0.3-0.1-0.6-0.2-1-0.3l0.5-1.4c0.3,0.1,0.6,0.2,0.9,0.3L53.1,102.5z M78.1,101.9
			l-0.5-1.4c0.3-0.1,0.6-0.2,0.9-0.3l0.5,1.4C78.7,101.7,78.4,101.8,78.1,101.9z M51.1,101.8c-0.3-0.1-0.6-0.2-1-0.4l0.6-1.4
			c0.3,0.1,0.6,0.2,0.9,0.3L51.1,101.8z M80,101.2l-0.6-1.4c0.3-0.1,0.6-0.3,0.9-0.4l0.6,1.4C80.6,100.9,80.3,101.1,80,101.2z
			 M49.2,101.1c-0.3-0.1-0.6-0.3-0.9-0.4l0.6-1.4c0.3,0.1,0.6,0.3,0.9,0.4L49.2,101.1z M81.9,100.3L81.2,99c0.3-0.1,0.6-0.3,0.9-0.4
			l0.7,1.3C82.5,100,82.2,100.2,81.9,100.3z M47.4,100.2c-0.3-0.1-0.6-0.3-0.9-0.5l0.7-1.3c0.3,0.2,0.6,0.3,0.9,0.4L47.4,100.2z
			 M83.7,99.4L83,98.1c0.3-0.2,0.6-0.3,0.9-0.5l0.8,1.3C84.3,99.1,84,99.3,83.7,99.4z M45.6,99.3c-0.3-0.2-0.6-0.3-0.9-0.5l0.8-1.3
			c0.3,0.2,0.6,0.3,0.8,0.5L45.6,99.3z M85.5,98.4l-0.8-1.3c0.3-0.2,0.6-0.3,0.8-0.5l0.8,1.3C86,98,85.7,98.2,85.5,98.4z M43.8,98.3
			c-0.3-0.2-0.6-0.4-0.9-0.6l0.8-1.3c0.3,0.2,0.5,0.4,0.8,0.5L43.8,98.3z M87.2,97.3L86.3,96c0.3-0.2,0.5-0.4,0.8-0.6l0.9,1.2
			C87.7,96.9,87.4,97.1,87.2,97.3z M42.1,97.1c-0.3-0.2-0.6-0.4-0.8-0.6l0.9-1.2c0.3,0.2,0.5,0.4,0.8,0.6L42.1,97.1z M88.8,96.1
			l-0.9-1.2c0.3-0.2,0.5-0.4,0.8-0.6l0.9,1.2C89.4,95.7,89.1,95.9,88.8,96.1z M40.5,95.9c-0.3-0.2-0.5-0.4-0.8-0.6l1-1.2
			c0.3,0.2,0.5,0.4,0.8,0.6L40.5,95.9z M90.4,94.8l-1-1.1c0.2-0.2,0.5-0.4,0.7-0.6l1,1.1C90.9,94.3,90.7,94.6,90.4,94.8z M38.9,94.6
			c-0.3-0.2-0.5-0.4-0.8-0.7l1-1.1c0.2,0.2,0.5,0.4,0.7,0.6L38.9,94.6z M91.9,93.4l-1-1.1c0.2-0.2,0.5-0.5,0.7-0.7l1.1,1.1
			C92.4,93,92.2,93.2,91.9,93.4z M37.4,93.3c-0.2-0.2-0.5-0.5-0.7-0.7l1.1-1.1c0.2,0.2,0.5,0.5,0.7,0.7L37.4,93.3z M93.4,92l-1.1-1
			c0.2-0.2,0.4-0.5,0.7-0.7l1.1,1C93.8,91.5,93.6,91.7,93.4,92z M36,91.8c-0.2-0.2-0.5-0.5-0.7-0.8l1.1-1c0.2,0.2,0.4,0.5,0.7,0.7
			L36,91.8z M94.7,90.5l-1.1-1c0.2-0.2,0.4-0.5,0.6-0.8l1.2,0.9C95.2,90,94.9,90.2,94.7,90.5z M34.6,90.3c-0.2-0.3-0.4-0.5-0.7-0.8
			l1.2-0.9c0.2,0.3,0.4,0.5,0.6,0.8L34.6,90.3z M96,88.9L94.8,88c0.2-0.3,0.4-0.5,0.6-0.8l1.2,0.9C96.4,88.4,96.2,88.6,96,88.9z
			 M33.4,88.7c-0.2-0.3-0.4-0.5-0.6-0.8L34,87c0.2,0.3,0.4,0.5,0.6,0.8L33.4,88.7z M97.2,87.3L96,86.4c0.2-0.3,0.4-0.5,0.5-0.8
			l1.3,0.8C97.6,86.7,97.4,87,97.2,87.3z M32.2,87.1c-0.2-0.3-0.4-0.6-0.6-0.8l1.3-0.8c0.2,0.3,0.4,0.5,0.5,0.8L32.2,87.1z
			 M98.3,85.6l-1.3-0.8c0.2-0.3,0.3-0.6,0.5-0.8l1.3,0.8C98.7,85,98.5,85.3,98.3,85.6z M31,85.4c-0.2-0.3-0.4-0.6-0.5-0.9l1.3-0.8
			c0.2,0.3,0.3,0.6,0.5,0.8L31,85.4z M99.4,83.8L98,83.1c0.2-0.3,0.3-0.6,0.5-0.9l1.3,0.7C99.7,83.2,99.5,83.5,99.4,83.8z M30,83.6
			c-0.2-0.3-0.3-0.6-0.5-0.9l1.3-0.7c0.1,0.3,0.3,0.6,0.5,0.9L30,83.6z M100.3,82l-1.3-0.7c0.1-0.3,0.3-0.6,0.4-0.9l1.4,0.6
			C100.6,81.4,100.4,81.7,100.3,82z M29.1,81.8c-0.1-0.3-0.3-0.6-0.4-0.9l1.4-0.6c0.1,0.3,0.3,0.6,0.4,0.9L29.1,81.8z M101.1,80.1
			l-1.4-0.6c0.1-0.3,0.3-0.6,0.4-0.9l1.4,0.6C101.4,79.5,101.3,79.8,101.1,80.1z M28.3,79.9c-0.1-0.3-0.3-0.6-0.4-0.9l1.4-0.5
			c0.1,0.3,0.2,0.6,0.4,0.9L28.3,79.9z M101.9,78.2l-1.4-0.5c0.1-0.3,0.2-0.6,0.3-0.9l1.4,0.5C102.1,77.6,102,77.9,101.9,78.2z
			 M27.5,78c-0.1-0.3-0.2-0.6-0.3-1l1.4-0.5c0.1,0.3,0.2,0.6,0.3,0.9L27.5,78z M102.5,76.3l-1.4-0.4c0.1-0.3,0.2-0.6,0.3-0.9
			l1.4,0.4C102.7,75.7,102.6,76,102.5,76.3z M26.9,76.1c-0.1-0.3-0.2-0.7-0.3-1l1.4-0.4c0.1,0.3,0.2,0.6,0.3,0.9L26.9,76.1z
			 M103.1,74.4l-1.5-0.4c0.1-0.3,0.2-0.6,0.2-1l1.5,0.3C103.2,73.7,103.2,74,103.1,74.4z M26.4,74.1c-0.1-0.3-0.2-0.7-0.2-1l1.5-0.3
			c0.1,0.3,0.1,0.6,0.2,1L26.4,74.1z M103.5,72.4l-1.5-0.3c0.1-0.3,0.1-0.6,0.2-1l1.5,0.3C103.6,71.7,103.6,72,103.5,72.4z
			 M25.9,72.1c-0.1-0.3-0.1-0.7-0.2-1l1.5-0.2c0.1,0.3,0.1,0.6,0.2,1L25.9,72.1z M103.9,70.4l-1.5-0.2c0-0.3,0.1-0.6,0.1-1l1.5,0.2
			C103.9,69.7,103.9,70,103.9,70.4z M25.6,70.1c0-0.3-0.1-0.7-0.1-1l1.5-0.2c0,0.3,0.1,0.7,0.1,1L25.6,70.1z M104.1,68.3l-1.5-0.1
			c0-0.3,0.1-0.7,0.1-1l1.5,0.1C104.1,67.7,104.1,68,104.1,68.3z M25.4,68.1c0-0.3-0.1-0.7-0.1-1l1.5-0.1c0,0.3,0,0.7,0.1,1
			L25.4,68.1z M104.2,66.3l-1.5-0.1c0-0.3,0-0.7,0-1l1.5,0C104.2,65.6,104.2,66,104.2,66.3z M25.3,66c0-0.3,0-0.7,0-1l1.5,0
			c0,0.3,0,0.7,0,1L25.3,66z M104.2,64.7h-1.5c0-0.3,0-0.7,0-1l1.5,0C104.2,64.1,104.2,64.4,104.2,64.7z M26.8,64l-1.5,0
			c0-0.3,0-0.7,0-1l1.5,0.1C26.8,63.4,26.8,63.7,26.8,64z M102.7,62.8c0-0.3,0-0.7-0.1-1l1.5-0.1c0,0.3,0,0.7,0.1,1L102.7,62.8z
			 M26.9,62l-1.5-0.1c0-0.3,0.1-0.7,0.1-1l1.5,0.1C26.9,61.4,26.9,61.7,26.9,62z M102.5,60.8c0-0.3-0.1-0.7-0.1-1l1.5-0.2
			c0,0.3,0.1,0.7,0.1,1L102.5,60.8z M27,60.1l-1.5-0.2c0-0.3,0.1-0.7,0.1-1l1.5,0.2C27.1,59.4,27.1,59.8,27,60.1z M102.3,58.9
			c-0.1-0.3-0.1-0.6-0.2-1l1.5-0.3c0.1,0.3,0.1,0.7,0.2,1L102.3,58.9z M27.3,58.2l-1.5-0.3c0.1-0.3,0.1-0.7,0.2-1l1.5,0.3
			C27.4,57.5,27.4,57.8,27.3,58.2z M101.9,57c-0.1-0.3-0.1-0.6-0.2-1l1.5-0.3c0.1,0.3,0.2,0.7,0.2,1L101.9,57z M27.7,56.2l-1.5-0.3
			c0.1-0.3,0.2-0.7,0.2-1l1.5,0.4C27.9,55.6,27.8,55.9,27.7,56.2z M101.5,55.1c-0.1-0.3-0.2-0.6-0.3-0.9l1.4-0.4
			c0.1,0.3,0.2,0.7,0.3,1L101.5,55.1z M28.2,54.3l-1.4-0.4c0.1-0.3,0.2-0.7,0.3-1l1.4,0.4C28.4,53.7,28.3,54,28.2,54.3z M100.9,53.2
			c-0.1-0.3-0.2-0.6-0.3-0.9l1.4-0.5c0.1,0.3,0.2,0.6,0.3,1L100.9,53.2z M28.8,52.5L27.4,52c0.1-0.3,0.2-0.6,0.3-1l1.4,0.5
			C29,51.8,28.9,52.2,28.8,52.5z M100.3,51.3c-0.1-0.3-0.2-0.6-0.4-0.9l1.4-0.6c0.1,0.3,0.3,0.6,0.4,1L100.3,51.3z M29.5,50.6
			l-1.4-0.6c0.1-0.3,0.3-0.6,0.4-0.9l1.4,0.6C29.7,50,29.6,50.3,29.5,50.6z M99.6,49.5c-0.1-0.3-0.3-0.6-0.4-0.9l1.4-0.6
			c0.1,0.3,0.3,0.6,0.4,0.9L99.6,49.5z M30.2,48.8l-1.4-0.6c0.1-0.3,0.3-0.6,0.4-0.9l1.3,0.7C30.5,48.2,30.4,48.5,30.2,48.8z
			 M98.7,47.7c-0.1-0.3-0.3-0.6-0.5-0.9l1.3-0.7c0.2,0.3,0.3,0.6,0.5,0.9L98.7,47.7z M31.1,47.1l-1.3-0.7c0.2-0.3,0.3-0.6,0.5-0.9
			l1.3,0.7C31.4,46.5,31.3,46.8,31.1,47.1z M97.8,46c-0.2-0.3-0.3-0.6-0.5-0.8l1.3-0.8c0.2,0.3,0.3,0.6,0.5,0.9L97.8,46z M32.1,45.4
			l-1.3-0.8c0.2-0.3,0.4-0.6,0.5-0.9l1.3,0.8C32.4,44.8,32.2,45.1,32.1,45.4z M96.8,44.3c-0.2-0.3-0.4-0.5-0.5-0.8l1.2-0.8
			c0.2,0.3,0.4,0.6,0.6,0.9L96.8,44.3z M33.1,43.7l-1.2-0.8c0.2-0.3,0.4-0.6,0.6-0.8l1.2,0.9C33.5,43.2,33.3,43.4,33.1,43.7z
			 M95.7,42.7c-0.2-0.3-0.4-0.5-0.6-0.8l1.2-0.9c0.2,0.3,0.4,0.5,0.6,0.8L95.7,42.7z M34.2,42.1L33,41.2c0.2-0.3,0.4-0.5,0.6-0.8
			l1.2,0.9C34.6,41.6,34.4,41.9,34.2,42.1z M94.5,41.1c-0.2-0.3-0.4-0.5-0.6-0.8l1.1-1c0.2,0.3,0.4,0.5,0.6,0.8L94.5,41.1z
			 M35.4,40.6l-1.2-1c0.2-0.3,0.4-0.5,0.7-0.8l1.1,1C35.9,40.1,35.6,40.3,35.4,40.6z M93.2,39.6c-0.2-0.2-0.4-0.5-0.7-0.7l1.1-1
			c0.2,0.2,0.5,0.5,0.7,0.8L93.2,39.6z M36.7,39.1l-1.1-1c0.2-0.3,0.5-0.5,0.7-0.7l1.1,1C37.2,38.6,36.9,38.9,36.7,39.1z M91.9,38.2
			c-0.2-0.2-0.5-0.5-0.7-0.7l1-1.1c0.2,0.2,0.5,0.5,0.7,0.7L91.9,38.2z M38.1,37.7L37,36.6c0.2-0.2,0.5-0.5,0.7-0.7l1,1.1
			C38.6,37.2,38.3,37.5,38.1,37.7z M90.5,36.8c-0.2-0.2-0.5-0.4-0.7-0.7l1-1.1c0.3,0.2,0.5,0.5,0.8,0.7L90.5,36.8z M39.5,36.3
			l-1-1.1c0.3-0.2,0.5-0.4,0.8-0.7l1,1.1C40,35.9,39.8,36.1,39.5,36.3z M89,35.5c-0.3-0.2-0.5-0.4-0.8-0.6l0.9-1.2
			c0.3,0.2,0.5,0.4,0.8,0.6L89,35.5z M41,35.1l-0.9-1.2c0.3-0.2,0.5-0.4,0.8-0.6l0.9,1.2C41.5,34.7,41.3,34.9,41,35.1z M87.5,34.3
			c-0.3-0.2-0.5-0.4-0.8-0.6l0.9-1.2c0.3,0.2,0.6,0.4,0.8,0.6L87.5,34.3z M42.6,33.9l-0.9-1.2c0.3-0.2,0.6-0.4,0.8-0.6l0.8,1.2
			C43.1,33.5,42.8,33.7,42.6,33.9z M85.9,33.2c-0.3-0.2-0.5-0.4-0.8-0.5l0.8-1.3c0.3,0.2,0.6,0.4,0.9,0.6L85.9,33.2z M44.2,32.8
			l-0.8-1.3c0.3-0.2,0.6-0.4,0.9-0.5l0.8,1.3C44.8,32.4,44.5,32.6,44.2,32.8z M84.2,32.1c-0.3-0.2-0.6-0.3-0.8-0.5l0.7-1.3
			c0.3,0.2,0.6,0.3,0.9,0.5L84.2,32.1z M45.9,31.8l-0.7-1.3c0.3-0.2,0.6-0.3,0.9-0.5l0.7,1.3C46.4,31.4,46.2,31.6,45.9,31.8z
			 M82.5,31.2c-0.3-0.2-0.6-0.3-0.9-0.4l0.7-1.3c0.3,0.2,0.6,0.3,0.9,0.5L82.5,31.2z M47.6,30.8l-0.7-1.3c0.3-0.2,0.6-0.3,0.9-0.4
			l0.6,1.4C48.2,30.5,47.9,30.7,47.6,30.8z M80.8,30.3c-0.3-0.1-0.6-0.3-0.9-0.4l0.6-1.4c0.3,0.1,0.6,0.3,0.9,0.4L80.8,30.3z
			 M49.4,30l-0.6-1.4c0.3-0.1,0.6-0.3,0.9-0.4l0.6,1.4C50,29.7,49.7,29.9,49.4,30z M79,29.5c-0.3-0.1-0.6-0.2-0.9-0.4l0.5-1.4
			c0.3,0.1,0.6,0.2,1,0.4L79,29.5z M51.2,29.2l-0.5-1.4c0.3-0.1,0.6-0.2,1-0.4l0.5,1.4C51.8,29,51.5,29.1,51.2,29.2z M77.1,28.8
			c-0.3-0.1-0.6-0.2-0.9-0.3l0.5-1.4c0.3,0.1,0.6,0.2,1,0.3L77.1,28.8z M53.1,28.6l-0.5-1.4c0.3-0.1,0.6-0.2,1-0.3l0.4,1.4
			C53.7,28.4,53.4,28.5,53.1,28.6z M75.3,28.2c-0.3-0.1-0.6-0.2-0.9-0.3l0.4-1.5c0.3,0.1,0.7,0.2,1,0.3L75.3,28.2z M54.9,28
			l-0.4-1.4c0.3-0.1,0.7-0.2,1-0.3l0.3,1.5C55.6,27.9,55.3,28,54.9,28z M73.4,27.7c-0.3-0.1-0.6-0.1-1-0.2l0.3-1.5
			c0.3,0.1,0.7,0.1,1,0.2L73.4,27.7z M56.8,27.6l-0.3-1.5c0.3-0.1,0.7-0.1,1-0.2l0.3,1.5C57.5,27.4,57.2,27.5,56.8,27.6z M71.5,27.3
			c-0.3-0.1-0.6-0.1-1-0.2l0.2-1.5c0.3,0.1,0.7,0.1,1,0.2L71.5,27.3z M58.8,27.2l-0.2-1.5c0.3-0.1,0.7-0.1,1-0.1l0.2,1.5
			C59.4,27.1,59.1,27.2,58.8,27.2z M69.5,27.1c-0.3,0-0.6-0.1-1-0.1l0.1-1.5c0.3,0,0.7,0.1,1,0.1L69.5,27.1z M60.7,27l-0.2-1.5
			c0.3,0,0.7-0.1,1-0.1l0.1,1.5C61.4,26.9,61,26.9,60.7,27z M67.6,26.9c-0.3,0-0.7,0-1-0.1l0.1-1.5c0.3,0,0.7,0,1,0.1L67.6,26.9z
			 M62.7,26.8l-0.1-1.5c0.3,0,0.7,0,1,0l0,1.5C63.3,26.8,63,26.8,62.7,26.8z M65.6,26.8c-0.3,0-0.6,0-0.9,0l-0.1,0v-1.5h0.1
			c0.3,0,0.6,0,0.9,0L65.6,26.8z"/>
		<path fill="#231F20" d="M64.8,109.7L64.8,109.7c-12,0-23.3-4.7-31.8-13.2C24.5,88,19.8,76.8,19.8,64.8C19.8,40,40,19.8,64.7,19.8
			c12,0,23.3,4.7,31.8,13.2c8.5,8.5,13.2,19.8,13.2,31.8C109.7,89.5,89.5,109.7,64.8,109.7L64.8,109.7z M64.8,21.3
			c-24,0-43.4,19.5-43.4,43.4c0,11.6,4.5,22.5,12.7,30.7c8.2,8.2,19.1,12.7,30.7,12.7h0c24,0,43.4-19.5,43.4-43.4
			c0-11.6-4.5-22.5-12.7-30.7C87.3,25.8,76.4,21.3,64.8,21.3z"/>
		<g>
			<path fill="#231F20" d="M128.8,64h-4.4v-6.2c0-0.3-0.2-0.6-0.5-0.7c-0.3-0.1-0.6-0.1-0.8,0.2l-6.9,6.9c-0.1,0.1-0.2,0.3-0.2,0.5
				c0,0.2,0.1,0.4,0.2,0.5l6.9,6.9c0.1,0.1,0.3,0.2,0.5,0.2c0.1,0,0.2,0,0.3-0.1c0.3-0.1,0.5-0.4,0.5-0.7v-6.2h4.4V64z M122.9,69.9
				l-5.1-5.1l5.1-5.1V69.9z"/>
			<path fill="#231F20" d="M6.4,57.3c-0.2-0.2-0.5-0.3-0.8-0.2c-0.3,0.1-0.5,0.4-0.5,0.7V64l-4.4,0v1.5l4.4,0v6.2
				c0,0.3,0.2,0.6,0.5,0.7c0.1,0,0.2,0.1,0.3,0.1c0.2,0,0.4-0.1,0.5-0.2l6.9-6.9c0.3-0.3,0.3-0.8,0-1.1L6.4,57.3z M6.6,69.9V59.6
				l5.1,5.1L6.6,69.9z"/>
			<path fill="#231F20" d="M71.7,5.1l-6.2,0V0.8H64v4.4l-6.2,0c-0.3,0-0.6,0.2-0.7,0.5c-0.1,0.3-0.1,0.6,0.2,0.8l6.9,6.9
				c0.1,0.1,0.3,0.2,0.5,0.2c0.2,0,0.4-0.1,0.5-0.2l6.9-6.9c0.2-0.2,0.3-0.5,0.2-0.8C72.3,5.3,72,5.1,71.7,5.1z M64.7,11.8l-5.1-5.1
				l10.3,0L64.7,11.8z"/>
			<path fill="#231F20" d="M65.3,116.1c-0.3-0.3-0.8-0.3-1.1,0l-6.9,6.9c-0.2,0.2-0.3,0.5-0.2,0.8c0.1,0.3,0.4,0.5,0.7,0.5l6.2,0
				l0,4.4h1.5l0-4.4l6.2,0c0.3,0,0.6-0.2,0.7-0.5s0.1-0.6-0.2-0.8L65.3,116.1z M59.6,122.9l5.1-5.1l5.1,5.1L59.6,122.9z"/>
			<path fill="#231F20" d="M107.4,23.1l3.1-3.1l-1.1-1.1l-3.1,3.1l-4.4-4.4c-0.2-0.2-0.5-0.3-0.8-0.2c-0.3,0.1-0.5,0.4-0.5,0.7
				l0,9.8c0,0.4,0.3,0.8,0.8,0.8l9.8,0c0.3,0,0.6-0.2,0.7-0.5c0.1-0.3,0.1-0.6-0.2-0.8L107.4,23.1z M102.2,27.3l0-7.3l7.3,7.3
				L102.2,27.3z"/>
			<path fill="#231F20" d="M28,100.7l-9.8,0c-0.3,0-0.6,0.2-0.7,0.5c-0.1,0.3-0.1,0.6,0.2,0.8l4.4,4.4l-3.1,3.1l1.1,1.1l3.1-3.1
				l4.4,4.4c0.1,0.1,0.3,0.2,0.5,0.2c0.1,0,0.2,0,0.3-0.1c0.3-0.1,0.5-0.4,0.5-0.7v-9.8C28.8,101,28.5,100.7,28,100.7z M27.3,109.5
				l-7.3-7.3l7.3,0V109.5z"/>
			<path fill="#231F20" d="M28.3,17.5c-0.3-0.1-0.6-0.1-0.8,0.2l-4.4,4.4L20,19L19,20l3.1,3.1l-4.4,4.4c-0.2,0.2-0.3,0.5-0.2,0.8
				c0.1,0.3,0.4,0.5,0.7,0.5l9.8,0c0.2,0,0.4-0.1,0.5-0.2c0.1-0.1,0.2-0.3,0.2-0.5l0-9.8C28.8,17.9,28.6,17.6,28.3,17.5z M27.3,27.3
				l-7.3,0l7.3-7.3L27.3,27.3z"/>
		</g>
		<path fill="#231F20" d="M101.5,112c-0.1,0-0.2,0-0.3-0.1c-0.3-0.1-0.5-0.4-0.5-0.7l0-9.8c0-0.4,0.3-0.8,0.8-0.8h9.8
			c0.3,0,0.6,0.2,0.7,0.5c0.1,0.3,0.1,0.6-0.2,0.8l-9.8,9.8C101.8,111.9,101.6,112,101.5,112z M102.2,102.2l0,7.3l7.3-7.3H102.2z"/>
		
			<rect x="105.6" y="107.4" transform="matrix(0.7071 0.7071 -0.7071 0.7071 108.1827 -44.812)" fill="#231F20" width="5.1" height="1.5"/>
		<circle fill="#FFFFFF" cx="119" cy="34.8" r="3.1"/>
		<path fill="#231F20" d="M119,38.6c-2.1,0-3.8-1.7-3.8-3.8c0-2.1,1.7-3.8,3.8-3.8c2.1,0,3.8,1.7,3.8,3.8
			C122.8,36.9,121.1,38.6,119,38.6z M119,32.5c-1.3,0-2.3,1-2.3,2.3s1,2.3,2.3,2.3c1.3,0,2.3-1,2.3-2.3S120.3,32.5,119,32.5z"/>
		<circle fill="#84DBFF" cx="9.4" cy="39.8" r="2.6"/>
		<circle fill="#4CDBC4" cx="117.2" cy="89" r="1.8"/>
		<circle fill="#FFD05B" cx="88.7" cy="120.2" r="2.9"/>
		<circle fill="#FF7058" cx="94.3" cy="7.1" r="1.8"/>
		<circle fill="#E6E9EE" cx="29.9" cy="120.1" r="1.8"/>
	</g>
</g>
</svg>
