<?xml version="1.0" encoding="utf-8"?>
<!-- Generator: Adobe Illustrator 18.0.0, SVG Export Plug-In . SVG Version: 6.00 Build 0)  -->
<!DOCTYPE svg PUBLIC "-//W3C//DTD SVG 1.1//EN" "http://www.w3.org/Graphics/SVG/1.1/DTD/svg11.dtd">
<svg version="1.1" id="Layer_1" xmlns="http://www.w3.org/2000/svg" xmlns:xlink="http://www.w3.org/1999/xlink" x="0px" y="0px"
	 viewBox="0 0 129.5 129.5" enable-background="new 0 0 129.5 129.5" xml:space="preserve">
<g>
	<g>
		<path fill="#231F20" d="M35.5,77.4h-1v-1.5h1V77.4z M32.5,77.4h-1v-1.5h1V77.4z M29.5,77.4h-1v-1.5h1V77.4z M26.5,77.4h-1v-1.5h1
			V77.4z M23.5,77.4h-1v-0.8L21.7,77l-0.5-0.9l1.3-0.8l0.3,0.5h0.7V77.4z M37.5,75.7L36.2,75l0.5-0.9l1.3,0.8L37.5,75.7z M20.2,74.4
			l-0.5-0.9l1.3-0.8l0.5,0.9L20.2,74.4z M39,73.1l-1.3-0.8l0.5-0.9l1.3,0.8L39,73.1z M18.7,71.8l-0.5-0.9l1.3-0.8L20,71L18.7,71.8z
			 M40.5,70.5l-1.3-0.8l0.5-0.9l1.3,0.8L40.5,70.5z M17.2,69.2l-0.5-0.9l1.3-0.8l0.5,0.9L17.2,69.2z M42,67.9l-1.3-0.8l0.5-0.9
			l1.3,0.8L42,67.9z M15.7,66.6l-0.5-0.9l1.3-0.8l0.5,0.9L15.7,66.6z M43.5,65.3l-0.8-0.4l-0.4,0.2l-0.4-0.7l1.3-0.8l0.4,0.7
			c0.1,0.2,0.1,0.5,0,0.8L43.5,65.3z M16.8,64l-1.3-0.8l0.5-0.9l1.3,0.8L16.8,64z M40.9,62.7l-0.5-0.9l1.3-0.8l0.5,0.9L40.9,62.7z
			 M18.3,61.4L17,60.6l0.5-0.9l1.3,0.8L18.3,61.4z M39.4,60.1l-0.5-0.9l1.3-0.8l0.5,0.9L39.4,60.1z M19.8,58.8L18.5,58l0.5-0.9
			l1.3,0.8L19.8,58.8z M37.9,57.5l-0.5-0.9l1.3-0.8l0.5,0.9L37.9,57.5z M21.3,56.2L20,55.5l0.5-0.9l1.3,0.8L21.3,56.2z M36.4,54.9
			l-0.5-0.9l1.3-0.8l0.5,0.9L36.4,54.9z M35,53.6h-1v-1.5h1V53.6z M32,53.6h-1v-1.5h1V53.6z M29,53.6h-1v-1.5h1V53.6z M26,53.6h-1
			v-1.5h1V53.6z M23,53.6h-0.6v-0.3l-0.8-0.5l0.2-0.3c0.1-0.2,0.4-0.4,0.6-0.4H23V53.6z"/>
		<path fill="#231F20" d="M106.6,77.4h-1v-1.5h1V77.4z M103.6,77.4h-1v-1.5h1V77.4z M100.6,77.4h-1v-1.5h1V77.4z M97.6,77.4h-1v-1.5
			h1V77.4z M94.6,77.4h-1v-0.8L92.8,77l-0.5-0.9l1.3-0.8l0.3,0.5h0.7V77.4z M108.5,75.7l-1.3-0.8l0.5-0.9l1.3,0.8L108.5,75.7z
			 M91.3,74.4l-0.5-0.9l1.3-0.8l0.5,0.9L91.3,74.4z M110,73.1l-1.3-0.8l0.5-0.9l1.3,0.8L110,73.1z M89.8,71.8l-0.5-0.9l1.3-0.8
			l0.5,0.9L89.8,71.8z M111.5,70.5l-1.3-0.8l0.5-0.9l1.3,0.8L111.5,70.5z M88.3,69.2l-0.5-0.9l1.3-0.8l0.5,0.9L88.3,69.2z M113,67.9
			l-1.3-0.8l0.5-0.9l1.3,0.8L113,67.9z M86.8,66.6l-0.5-0.9l1.3-0.8l0.5,0.9L86.8,66.6z M114.5,65.3l-0.8-0.4l-0.4,0.2l-0.4-0.7
			l1.3-0.8l0.4,0.7c0.1,0.2,0.1,0.5,0,0.8L114.5,65.3z M87.9,64l-1.3-0.8l0.5-0.9l1.3,0.8L87.9,64z M111.9,62.7l-0.5-0.9l1.3-0.8
			l0.5,0.9L111.9,62.7z M89.4,61.4l-1.3-0.8l0.5-0.9l1.3,0.8L89.4,61.4z M110.4,60.1l-0.5-0.9l1.3-0.8l0.5,0.9L110.4,60.1z
			 M90.9,58.8L89.6,58l0.5-0.9l1.3,0.8L90.9,58.8z M108.9,57.5l-0.5-0.9l1.3-0.8l0.5,0.9L108.9,57.5z M92.4,56.2l-1.3-0.8l0.5-0.9
			l1.3,0.8L92.4,56.2z M107.4,54.9l-0.5-0.9l1.3-0.8l0.5,0.9L107.4,54.9z M106,53.6h-1v-1.5h1V53.6z M103,53.6h-1v-1.5h1V53.6z
			 M100,53.6h-1v-1.5h1V53.6z M97,53.6h-1v-1.5h1V53.6z M94,53.6h-0.6v-0.3l-0.8-0.5l0.2-0.3c0.1-0.2,0.4-0.4,0.6-0.4H94V53.6z"/>
		<g>
			<path fill="#231F20" d="M13.3,38.6l-0.5-0.9l1.3-0.8l0.5,0.9L13.3,38.6z M11.8,36l-0.5-0.9l1.3-0.8l0.5,0.9L11.8,36z M10.3,33.4
				l-0.5-0.9l1.3-0.8l0.5,0.9L10.3,33.4z M8.8,30.8l-0.5-0.9l1.3-0.8l0.5,0.9L8.8,30.8z M7.3,28.2l-0.5-0.9l1.3-0.8l0.5,0.9
				L7.3,28.2z M5.8,25.6l-0.5-0.9L6.6,24l0.5,0.9L5.8,25.6z M48.4,17.4l-0.5-0.9l1.3-0.8l0.5,0.9L48.4,17.4z M46.9,14.8L46.4,14
				l1.3-0.8l0.5,0.9L46.9,14.8z M45.4,12.2l-0.5-0.9l1.3-0.8l0.5,0.9L45.4,12.2z M43.9,9.6l-0.5-0.9L44.7,8l0.5,0.9L43.9,9.6z
				 M42.4,7l-0.5-0.9l1.3-0.8l0.5,0.9L42.4,7z M40.9,4.4l-0.5-0.9l1.3-0.8l0.5,0.9L40.9,4.4z"/>
			<path fill="#231F20" d="M42.1,126l-1.3-0.8l0.5-0.9l1.3,0.8L42.1,126z M43.6,123.4l-1.3-0.8l0.5-0.9l1.3,0.8L43.6,123.4z
				 M45.1,120.8l-1.3-0.8l0.5-0.9l1.3,0.8L45.1,120.8z M46.6,118.2l-1.3-0.8l0.5-0.9l1.3,0.8L46.6,118.2z M48.1,115.6l-1.3-0.8
				l0.5-0.9l1.3,0.8L48.1,115.6z M49.6,113l-1.3-0.8l0.5-0.9l1.3,0.8L49.6,113z M6.2,106.2l-1.3-0.8l0.5-0.9l1.3,0.8L6.2,106.2z
				 M7.7,103.6l-1.3-0.8l0.5-0.9l1.3,0.8L7.7,103.6z M9.2,101l-1.3-0.8l0.5-0.9l1.3,0.8L9.2,101z M10.7,98.4l-1.3-0.8l0.5-0.9
				l1.3,0.8L10.7,98.4z M12.2,95.8L10.9,95l0.5-0.9l1.3,0.8L12.2,95.8z M13.7,93.2l-1.3-0.8l0.5-0.9l1.3,0.8L13.7,93.2z M15.2,90.6
				l-1.3-0.8l0.5-0.9l1.3,0.8L15.2,90.6z"/>
			<path fill="#231F20" d="M87.8,126.7l-0.5-0.9l1.3-0.8l0.5,0.9L87.8,126.7z M86.3,124.1l-0.5-0.9l1.3-0.8l0.5,0.9L86.3,124.1z
				 M84.8,121.5l-0.5-0.9l1.3-0.8l0.5,0.9L84.8,121.5z M83.3,118.9l-0.5-0.9l1.3-0.8l0.5,0.9L83.3,118.9z M81.8,116.3l-0.5-0.9
				l1.3-0.8l0.5,0.9L81.8,116.3z M80.3,113.7l-0.5-0.9l1.3-0.8l0.5,0.9L80.3,113.7z M122.9,105.5l-0.5-0.9l1.3-0.8l0.5,0.9
				L122.9,105.5z M121.4,102.9l-0.5-0.9l1.3-0.8l0.5,0.9L121.4,102.9z M119.9,100.3l-0.5-0.9l1.3-0.8l0.5,0.9L119.9,100.3z
				 M118.4,97.7l-0.5-0.9l1.3-0.8l0.5,0.9L118.4,97.7z M116.9,95.1l-0.5-0.9l1.3-0.8l0.5,0.9L116.9,95.1z M115.4,92.5l-0.5-0.9
				l1.3-0.8l0.5,0.9L115.4,92.5z"/>
		</g>
		<path fill="#231F20" d="M71.1,56.8h-1v-1.5h1V56.8z M68.1,56.8h-1v-1.5h1V56.8z M65.1,56.8h-1v-1.5h1V56.8z M62.1,56.8h-1v-1.5h1
			V56.8z M59.1,56.8h-1V56l-0.8,0.5l-0.5-0.9l1.3-0.8l0.3,0.5h0.7V56.8z M73,55.2l-1.3-0.8l0.5-0.9l1.3,0.8L73,55.2z M55.8,53.9
			L55.3,53l1.3-0.8l0.5,0.9L55.8,53.9z M74.5,52.6l-1.3-0.8l0.5-0.9l1.3,0.8L74.5,52.6z M54.3,51.3l-0.5-0.9l1.3-0.8l0.5,0.9
			L54.3,51.3z M76,50l-1.3-0.8l0.5-0.9l1.3,0.8L76,50z M52.8,48.7l-0.5-0.9l1.3-0.8l0.5,0.9L52.8,48.7z M77.5,47.4l-1.3-0.8l0.5-0.9
			l1.3,0.8L77.5,47.4z M51.3,46.1l-0.5-0.9l1.3-0.8l0.5,0.9L51.3,46.1z M79,44.8l-0.8-0.4l-0.4,0.2l-0.4-0.7l1.3-0.8l0.4,0.7
			c0.1,0.2,0.1,0.5,0,0.8L79,44.8z M52.4,43.5l-1.3-0.8l0.5-0.9l1.3,0.8L52.4,43.5z M76.4,42.2l-0.5-0.9l1.3-0.8l0.5,0.9L76.4,42.2z
			 M53.9,40.9l-1.3-0.8l0.5-0.9l1.3,0.8L53.9,40.9z M74.9,39.6l-0.5-0.9l1.3-0.8l0.5,0.9L74.9,39.6z M55.4,38.3l-1.3-0.8l0.5-0.9
			l1.3,0.8L55.4,38.3z M73.4,37l-0.5-0.9l1.3-0.8l0.5,0.9L73.4,37z M56.9,35.7l-1.3-0.8l0.5-0.9l1.3,0.8L56.9,35.7z M71.9,34.4
			l-0.5-0.9l1.3-0.8l0.5,0.9L71.9,34.4z M70.5,33.1h-1v-1.5h1V33.1z M67.5,33.1h-1v-1.5h1V33.1z M64.5,33.1h-1v-1.5h1V33.1z
			 M61.5,33.1h-1v-1.5h1V33.1z M58.5,33.1h-0.6v-0.3l-0.8-0.5l0.2-0.3c0.1-0.2,0.4-0.4,0.6-0.4h0.6V33.1z"/>
		<path fill="#231F20" d="M71.1,97.9h-1v-1.5h1V97.9z M68.1,97.9h-1v-1.5h1V97.9z M65.1,97.9h-1v-1.5h1V97.9z M62.1,97.9h-1v-1.5h1
			V97.9z M59.1,97.9h-1V97l-0.8,0.5l-0.5-0.9l1.3-0.8l0.3,0.5h0.7V97.9z M73,96.2l-1.3-0.8l0.5-0.9l1.3,0.8L73,96.2z M55.8,94.9
			L55.3,94l1.3-0.8l0.5,0.9L55.8,94.9z M74.5,93.6l-1.3-0.8l0.5-0.9l1.3,0.8L74.5,93.6z M54.3,92.3l-0.5-0.9l1.3-0.8l0.5,0.9
			L54.3,92.3z M76,91l-1.3-0.8l0.5-0.9l1.3,0.8L76,91z M52.8,89.7l-0.5-0.9l1.3-0.8l0.5,0.9L52.8,89.7z M77.5,88.4l-1.3-0.8l0.5-0.9
			l1.3,0.8L77.5,88.4z M51.3,87.1l-0.5-0.9l1.3-0.8l0.5,0.9L51.3,87.1z M79,85.8l-0.8-0.4l-0.4,0.2L77.4,85l1.3-0.8l0.4,0.7
			c0.1,0.2,0.1,0.5,0,0.8L79,85.8z M52.4,84.5l-1.3-0.8l0.5-0.9l1.3,0.8L52.4,84.5z M76.4,83.2l-0.5-0.9l1.3-0.8l0.5,0.9L76.4,83.2z
			 M53.9,81.9l-1.3-0.8l0.5-0.9l1.3,0.8L53.9,81.9z M74.9,80.6l-0.5-0.9l1.3-0.8l0.5,0.9L74.9,80.6z M55.4,79.3l-1.3-0.8l0.5-0.9
			l1.3,0.8L55.4,79.3z M73.4,78l-0.5-0.9l1.3-0.8l0.5,0.9L73.4,78z M56.9,76.7L55.6,76l0.5-0.9l1.3,0.8L56.9,76.7z M71.9,75.4
			l-0.5-0.9l1.3-0.8l0.5,0.9L71.9,75.4z M70.5,74.2h-1v-1.5h1V74.2z M67.5,74.2h-1v-1.5h1V74.2z M64.5,74.2h-1v-1.5h1V74.2z
			 M61.5,74.2h-1v-1.5h1V74.2z M58.5,74.2h-0.6v-0.3l-0.8-0.5l0.2-0.3c0.1-0.2,0.4-0.4,0.6-0.4h0.6V74.2z"/>
		<circle fill="#FFFFFF" cx="17.4" cy="44.2" r="4.8"/>
		<circle fill="#FF7058" cx="17.4" cy="44.2" r="2.8"/>
		<circle fill="#FFFFFF" cx="41.1" cy="44.2" r="4.8"/>
		<circle fill="#84DBFF" cx="41.1" cy="44.2" r="2.8"/>
		<circle fill="#FFFFFF" cx="88.4" cy="44.2" r="4.8"/>
		<circle fill="#FF7058" cx="88.4" cy="44.2" r="2.8"/>
		<circle fill="#FFFFFF" cx="112.1" cy="44.2" r="4.8"/>
		<circle fill="#CED5E0" cx="112.1" cy="44.2" r="2.8"/>
		<circle fill="#FFFFFF" cx="88.4" cy="85.3" r="4.8"/>
		<circle fill="#84DBFF" cx="88.4" cy="85.3" r="2.8"/>
		<circle fill="#FFFFFF" cx="112.1" cy="85.3" r="4.8"/>
		<circle fill="#FFD05B" cx="112.1" cy="85.3" r="2.8"/>
		<circle fill="#FFFFFF" cx="17.4" cy="85.3" r="4.8"/>
		<circle fill="#CED5E0" cx="17.4" cy="85.3" r="2.8"/>
		<circle fill="#FFFFFF" cx="41.1" cy="85.3" r="4.8"/>
		<circle fill="#FF7058" cx="41.1" cy="85.3" r="2.8"/>
		<circle fill="#FFFFFF" cx="76.6" cy="23.7" r="4.8"/>
		<circle fill="#84DBFF" cx="76.6" cy="23.7" r="2.8"/>
		<circle fill="#FFFFFF" cx="52.9" cy="64.7" r="4.8"/>
		<circle fill="#FFD05B" cx="52.9" cy="64.7" r="2.8"/>
		<circle fill="#FFFFFF" cx="76.6" cy="64.7" r="4.8"/>
		<circle fill="#CED5E0" cx="76.6" cy="64.7" r="2.8"/>
		<circle fill="#FFFFFF" cx="5.5" cy="64.7" r="4.8"/>
		<circle fill="#CED5E0" cx="5.5" cy="64.7" r="2.8"/>
		<circle fill="#FFFFFF" cx="124" cy="64.7" r="4.8"/>
		<circle fill="#CED5E0" cx="124" cy="64.7" r="2.8"/>
		<circle fill="#FFFFFF" cx="52.9" cy="105.8" r="4.8"/>
		<circle fill="#CED5E0" cx="52.9" cy="105.8" r="2.8"/>
		<circle fill="#FFFFFF" cx="76.6" cy="105.8" r="4.8"/>
		<circle fill="#FFD05B" cx="76.6" cy="105.8" r="2.8"/>
		<circle fill="#FFFFFF" cx="52.9" cy="23.7" r="4.8"/>
		<path fill="#231F20" d="M124,59.2c-0.7,0-1.4,0.1-2.1,0.4l-6.4-11c1.3-1,2.1-2.6,2.1-4.4c0-3-2.5-5.5-5.5-5.5
			c-2.8,0-5.1,2.1-5.5,4.8H93.9c-0.4-2.7-2.7-4.8-5.5-4.8c-0.7,0-1.4,0.1-2.1,0.4l-6.4-11c1.3-1,2.1-2.6,2.1-4.4
			c0-3-2.5-5.5-5.5-5.5c-2.8,0-5.1,2.1-5.5,4.8H58.4c-0.4-2.7-2.7-4.8-5.5-4.8c-3,0-5.5,2.5-5.5,5.5c0,1.8,0.8,3.3,2.1,4.4l-6.4,11
			c-0.6-0.3-1.3-0.4-2.1-0.4c-2.8,0-5.1,2.1-5.5,4.8H22.8c-0.4-2.7-2.7-4.8-5.5-4.8c-3,0-5.5,2.5-5.5,5.5c0,1.8,0.8,3.3,2.1,4.4
			l-6.4,11c-0.6-0.3-1.3-0.4-2.1-0.4c-3,0-5.5,2.5-5.5,5.5c0,3,2.5,5.5,5.5,5.5c0.7,0,1.4-0.1,2.1-0.4l6.4,11
			c-1.3,1-2.1,2.6-2.1,4.4c0,3,2.5,5.5,5.5,5.5c2.8,0,5.1-2.1,5.5-4.8h12.8c0.4,2.7,2.7,4.8,5.5,4.8c0.7,0,1.4-0.1,2.1-0.4l6.4,11
			c-1.3,1-2.1,2.6-2.1,4.4c0,3,2.5,5.5,5.5,5.5c2.8,0,5.1-2.1,5.5-4.8h12.7c0.4,2.7,2.7,4.8,5.5,4.8c3,0,5.5-2.5,5.5-5.5
			c0-1.8-0.8-3.3-2.1-4.4l6.4-11c0.6,0.3,1.3,0.4,2.1,0.4c2.8,0,5.1-2.1,5.5-4.8h12.8c0.4,2.7,2.7,4.8,5.5,4.8c3,0,5.5-2.5,5.5-5.5
			c0-1.8-0.8-3.3-2.1-4.4l6.4-11c0.6,0.3,1.3,0.4,2.1,0.4c3,0,5.5-2.5,5.5-5.5C129.5,61.7,127,59.2,124,59.2z M112.1,40.2
			c2.2,0,4,1.8,4,4c0,2.2-1.8,4-4,4c-2.2,0-4-1.8-4-4C108.1,42,109.9,40.2,112.1,40.2z M92.5,44.2c0,2.2-1.8,4-4,4c-2.2,0-4-1.8-4-4
			c0-2.2,1.8-4,4-4C90.7,40.2,92.5,42,92.5,44.2z M76.6,19.7c2.2,0,4,1.8,4,4c0,2.2-1.8,4-4,4c-2.2,0-4-1.8-4-4
			C72.6,21.5,74.4,19.7,76.6,19.7z M48.9,23.7c0-2.2,1.8-4,4-4c2.2,0,4,1.8,4,4c0,2.2-1.8,4-4,4C50.7,27.7,48.9,25.9,48.9,23.7z
			 M50.8,28.8c0.6,0.3,1.3,0.4,2.1,0.4c2.8,0,5.1-2.1,5.5-4.8h12.7c0.4,2.7,2.7,4.8,5.5,4.8c0.7,0,1.4-0.1,2.1-0.4l6.4,11
			c-1.3,1-2.1,2.6-2.1,4.4c0,1.8,0.8,3.3,2.1,4.4l-6.4,11c-0.6-0.3-1.3-0.4-2.1-0.4c-2.8,0-5.1,2.1-5.5,4.8H58.4
			c-0.4-2.7-2.7-4.8-5.5-4.8c-0.7,0-1.4,0.1-2.1,0.4l-6.4-11c1.3-1,2.1-2.6,2.1-4.4c0-1.8-0.8-3.3-2.1-4.4L50.8,28.8z M76.6,68.8
			c-2.2,0-4-1.8-4-4c0-2.2,1.8-4,4-4c2.2,0,4,1.8,4,4C80.6,67,78.8,68.8,76.6,68.8z M48.9,64.7c0-2.2,1.8-4,4-4c2.2,0,4,1.8,4,4
			c0,2.2-1.8,4-4,4C50.7,68.8,48.9,67,48.9,64.7z M41.1,40.2c2.2,0,4,1.8,4,4c0,2.2-1.8,4-4,4c-2.2,0-4-1.8-4-4
			C37,42,38.8,40.2,41.1,40.2z M13.3,44.2c0-2.2,1.8-4,4-4c2.2,0,4,1.8,4,4c0,2.2-1.8,4-4,4C15.2,48.3,13.3,46.5,13.3,44.2z
			 M1.5,64.7c0-2.2,1.8-4,4-4c2.2,0,4,1.8,4,4c0,2.2-1.8,4-4,4C3.3,68.8,1.5,67,1.5,64.7z M8.9,69.1c1.3-1,2.1-2.6,2.1-4.4
			c0-1.8-0.8-3.3-2.1-4.4l6.4-11c0.6,0.3,1.3,0.4,2.1,0.4c2.8,0,5.1-2.1,5.5-4.8h12.8c0.4,2.7,2.7,4.8,5.5,4.8
			c0.7,0,1.4-0.1,2.1-0.4l3.2,5.5l3.2,5.5c-1.3,1-2.1,2.6-2.1,4.4c0,1.8,0.8,3.3,2.1,4.4l-6.4,11c-0.6-0.3-1.3-0.4-2.1-0.4
			c-2.8,0-5.1,2.1-5.5,4.8H22.8c-0.4-2.7-2.7-4.8-5.5-4.8c-0.7,0-1.4,0.1-2.1,0.4L8.9,69.1z M17.4,89.3c-2.2,0-4-1.8-4-4
			c0-2.2,1.8-4,4-4c2.2,0,4,1.8,4,4C21.4,87.5,19.6,89.3,17.4,89.3z M37,85.3c0-2.2,1.8-4,4-4c2.2,0,4,1.8,4,4c0,2.2-1.8,4-4,4
			C38.8,89.3,37,87.5,37,85.3z M52.9,109.8c-2.2,0-4-1.8-4-4c0-2.2,1.8-4,4-4c2.2,0,4,1.8,4,4C56.9,108,55.1,109.8,52.9,109.8z
			 M80.6,105.8c0,2.2-1.8,4-4,4c-2.2,0-4-1.8-4-4c0-2.2,1.8-4,4-4C78.8,101.8,80.6,103.6,80.6,105.8z M78.7,100.7
			c-0.6-0.3-1.3-0.4-2.1-0.4c-2.8,0-5.1,2.1-5.5,4.8H58.4c-0.4-2.7-2.7-4.8-5.5-4.8c-0.7,0-1.4,0.1-2.1,0.4l-6.4-11
			c1.3-1,2.1-2.6,2.1-4.4c0-1.8-0.8-3.3-2.1-4.4l6.4-11c0.6,0.3,1.3,0.4,2.1,0.4c2.8,0,5.1-2.1,5.5-4.8h12.7
			c0.4,2.7,2.7,4.8,5.5,4.8c0.7,0,1.4-0.1,2.1-0.4l6.4,11c-1.3,1-2.1,2.6-2.1,4.4c0,1.8,0.8,3.3,2.1,4.4L78.7,100.7z M88.4,89.3
			c-2.2,0-4-1.8-4-4c0-2.2,1.8-4,4-4c2.2,0,4,1.8,4,4C92.5,87.5,90.7,89.3,88.4,89.3z M116.2,85.3c0,2.2-1.8,4-4,4c-2.2,0-4-1.8-4-4
			c0-2.2,1.8-4,4-4C114.3,81.2,116.2,83,116.2,85.3z M114.2,80.2c-0.6-0.3-1.3-0.4-2.1-0.4c-2.8,0-5.1,2.1-5.5,4.8H93.9
			c-0.4-2.7-2.7-4.8-5.5-4.8c-0.7,0-1.4,0.1-2.1,0.4l-6.4-11c1.3-1,2.1-2.6,2.1-4.4c0-1.8-0.8-3.3-2.1-4.4l6.4-11
			c0.6,0.3,1.3,0.4,2.1,0.4c2.8,0,5.1-2.1,5.5-4.8h12.8c0.4,2.7,2.7,4.8,5.5,4.8c0.7,0,1.4-0.1,2.1-0.4l6.4,11
			c-1.3,1-2.1,2.6-2.1,4.4c0,1.8,0.8,3.3,2.1,4.4L114.2,80.2z M124,68.8c-2.2,0-4-1.8-4-4c0-2.2,1.8-4,4-4c2.2,0,4,1.8,4,4
			C128,67,126.2,68.8,124,68.8z"/>
		<circle fill="#CED5E0" cx="52.9" cy="23.7" r="2.8"/>
		<path fill="#231F20" d="M115.3,14.1c-0.2,0-0.4-0.1-0.5-0.2c-0.3-0.3-0.3-0.8,0-1.1l1.3-1.3c0.3-0.3,0.8-0.3,1.1,0
			c0.3,0.3,0.3,0.8,0,1.1l-1.3,1.3C115.7,14,115.5,14.1,115.3,14.1z"/>
		<path fill="#231F20" d="M111.3,18.1c-0.2,0-0.4-0.1-0.5-0.2c-0.3-0.3-0.3-0.8,0-1.1l1.3-1.3c0.3-0.3,0.8-0.3,1.1,0
			c0.3,0.3,0.3,0.8,0,1.1l-1.3,1.3C111.7,18.1,111.5,18.1,111.3,18.1z"/>
		<path fill="#231F20" d="M116.6,18.1c-0.2,0-0.4-0.1-0.5-0.2l-1.3-1.3c-0.3-0.3-0.3-0.8,0-1.1c0.3-0.3,0.8-0.3,1.1,0l1.3,1.3
			c0.3,0.3,0.3,0.8,0,1.1C117,18.1,116.8,18.1,116.6,18.1z"/>
		<path fill="#231F20" d="M112.6,14.1c-0.2,0-0.4-0.1-0.5-0.2l-1.3-1.3c-0.3-0.3-0.3-0.8,0-1.1c0.3-0.3,0.8-0.3,1.1,0l1.3,1.3
			c0.3,0.3,0.3,0.8,0,1.1C113,14,112.8,14.1,112.6,14.1z"/>
		<path fill="#231F20" d="M14,120.4c-0.2,0-0.4-0.1-0.5-0.2c-0.3-0.3-0.3-0.8,0-1.1l1.3-1.3c0.3-0.3,0.8-0.3,1.1,0
			c0.3,0.3,0.3,0.8,0,1.1l-1.3,1.3C14.3,120.3,14.2,120.4,14,120.4z"/>
		<path fill="#231F20" d="M9.9,124.4c-0.2,0-0.4-0.1-0.5-0.2c-0.3-0.3-0.3-0.8,0-1.1l1.3-1.3c0.3-0.3,0.8-0.3,1.1,0s0.3,0.8,0,1.1
			l-1.3,1.3C10.3,124.3,10.1,124.4,9.9,124.4z"/>
		<path fill="#231F20" d="M15.3,124.4c-0.2,0-0.4-0.1-0.5-0.2l-1.3-1.3c-0.3-0.3-0.3-0.8,0-1.1c0.3-0.3,0.8-0.3,1.1,0l1.3,1.3
			c0.3,0.3,0.3,0.8,0,1.1C15.6,124.3,15.4,124.4,15.3,124.4z"/>
		<path fill="#231F20" d="M11.2,120.4c-0.2,0-0.4-0.1-0.5-0.2l-1.3-1.3c-0.3-0.3-0.3-0.8,0-1.1c0.3-0.3,0.8-0.3,1.1,0l1.3,1.3
			c0.3,0.3,0.3,0.8,0,1.1C11.6,120.3,11.4,120.4,11.2,120.4z"/>
		<path fill="#231F20" d="M18.7,7.9c-0.2,0-0.4-0.1-0.5-0.2c-0.3-0.3-0.3-0.8,0-1.1l1.3-1.3c0.3-0.3,0.8-0.3,1.1,0
			c0.3,0.3,0.3,0.8,0,1.1l-1.3,1.3C19.1,7.8,18.9,7.9,18.7,7.9z"/>
		<path fill="#231F20" d="M14.7,11.9c-0.2,0-0.4-0.1-0.5-0.2c-0.3-0.3-0.3-0.8,0-1.1l1.3-1.3c0.3-0.3,0.8-0.3,1.1,0
			c0.3,0.3,0.3,0.8,0,1.1l-1.3,1.3C15.1,11.9,14.9,11.9,14.7,11.9z"/>
		<path fill="#231F20" d="M20,11.9c-0.2,0-0.4-0.1-0.5-0.2l-1.3-1.3c-0.3-0.3-0.3-0.8,0-1.1c0.3-0.3,0.8-0.3,1.1,0l1.3,1.3
			c0.3,0.3,0.3,0.8,0,1.1C20.4,11.9,20.2,11.9,20,11.9z"/>
		<path fill="#231F20" d="M16,7.9c-0.2,0-0.4-0.1-0.5-0.2l-1.3-1.3c-0.3-0.3-0.3-0.8,0-1.1C14.5,5,15,5,15.2,5.3l1.3,1.3
			c0.3,0.3,0.3,0.8,0,1.1C16.4,7.8,16.2,7.9,16,7.9z"/>
		<circle fill="#FFD05B" cx="34" cy="12.1" r="2.2"/>
		<circle fill="#FF7058" cx="100.3" cy="23.7" r="2.2"/>
		<circle fill="#84DBFF" cx="29.2" cy="105.8" r="2.2"/>
		<circle fill="#E6E9EE" cx="104.8" cy="101" r="2.2"/>
	</g>
</g>
</svg>
