<?xml version="1.0" encoding="utf-8"?>
<!-- Generator: Adobe Illustrator 18.0.0, SVG Export Plug-In . SVG Version: 6.00 Build 0)  -->
<!DOCTYPE svg PUBLIC "-//W3C//DTD SVG 1.1//EN" "http://www.w3.org/Graphics/SVG/1.1/DTD/svg11.dtd">
<svg version="1.1" id="Layer_1" xmlns="http://www.w3.org/2000/svg" xmlns:xlink="http://www.w3.org/1999/xlink" x="0px" y="0px"
	 viewBox="0 0 129.5 129.5" enable-background="new 0 0 129.5 129.5" xml:space="preserve">
<g>
	<g>
		<polygon fill="#E6E9EE" points="68.9,48.9 82,48.9 81.7,54.3 		"/>
		<g>
			<path fill="#231F20" d="M116.3,3.9c-0.2,0-0.4-0.1-0.5-0.2c-0.3-0.3-0.3-0.8,0-1.1l1.3-1.3c0.3-0.3,0.8-0.3,1.1,0
				c0.3,0.3,0.3,0.8,0,1.1l-1.3,1.3C116.7,3.8,116.5,3.9,116.3,3.9z"/>
		</g>
		<g>
			<path fill="#231F20" d="M112.3,7.9c-0.2,0-0.4-0.1-0.5-0.2c-0.3-0.3-0.3-0.8,0-1.1l1.3-1.3c0.3-0.3,0.8-0.3,1.1,0
				c0.3,0.3,0.3,0.8,0,1.1l-1.3,1.3C112.7,7.8,112.5,7.9,112.3,7.9z"/>
		</g>
		<g>
			<path fill="#231F20" d="M117.6,7.9c-0.2,0-0.4-0.1-0.5-0.2l-1.3-1.3c-0.3-0.3-0.3-0.8,0-1.1c0.3-0.3,0.8-0.3,1.1,0l1.3,1.3
				c0.3,0.3,0.3,0.8,0,1.1C117.9,7.8,117.7,7.9,117.6,7.9z"/>
		</g>
		<g>
			<path fill="#231F20" d="M113.6,3.9c-0.2,0-0.4-0.1-0.5-0.2l-1.3-1.3c-0.3-0.3-0.3-0.8,0-1.1c0.3-0.3,0.8-0.3,1.1,0l1.3,1.3
				c0.3,0.3,0.3,0.8,0,1.1C114,3.8,113.8,3.9,113.6,3.9z"/>
		</g>
		<g>
			<path fill="#231F20" d="M61.1,29.2c-0.2,0-0.4-0.1-0.5-0.2c-0.3-0.3-0.3-0.8,0-1.1l1.3-1.3c0.3-0.3,0.8-0.3,1.1,0
				c0.3,0.3,0.3,0.8,0,1.1L61.6,29C61.5,29.1,61.3,29.2,61.1,29.2z"/>
		</g>
		<g>
			<path fill="#231F20" d="M57.1,33.2c-0.2,0-0.4-0.1-0.5-0.2c-0.3-0.3-0.3-0.8,0-1.1l1.3-1.3c0.3-0.3,0.8-0.3,1.1,0
				c0.3,0.3,0.3,0.8,0,1.1l-1.3,1.3C57.5,33.1,57.3,33.2,57.1,33.2z"/>
		</g>
		<g>
			<path fill="#231F20" d="M62.4,33.2c-0.2,0-0.4-0.1-0.5-0.2l-1.3-1.3c-0.3-0.3-0.3-0.8,0-1.1c0.3-0.3,0.8-0.3,1.1,0l1.3,1.3
				c0.3,0.3,0.3,0.8,0,1.1C62.8,33.1,62.6,33.2,62.4,33.2z"/>
		</g>
		<g>
			<path fill="#231F20" d="M58.4,29.2c-0.2,0-0.4-0.1-0.5-0.2l-1.3-1.3c-0.3-0.3-0.3-0.8,0-1.1c0.3-0.3,0.8-0.3,1.1,0l1.3,1.3
				c0.3,0.3,0.3,0.8,0,1.1C58.8,29.1,58.6,29.2,58.4,29.2z"/>
		</g>
		<g>
			<path fill="#231F20" d="M27.3,7.9c-0.2,0-0.4-0.1-0.5-0.2c-0.3-0.3-0.3-0.8,0-1.1L28,5.3c0.3-0.3,0.8-0.3,1.1,0
				c0.3,0.3,0.3,0.8,0,1.1l-1.3,1.3C27.7,7.8,27.5,7.9,27.3,7.9z"/>
		</g>
		<g>
			<path fill="#231F20" d="M23.3,11.9c-0.2,0-0.4-0.1-0.5-0.2c-0.3-0.3-0.3-0.8,0-1.1l1.3-1.3c0.3-0.3,0.8-0.3,1.1,0
				c0.3,0.3,0.3,0.8,0,1.1l-1.3,1.3C23.7,11.8,23.5,11.9,23.3,11.9z"/>
		</g>
		<g>
			<path fill="#231F20" d="M28.6,11.9c-0.2,0-0.4-0.1-0.5-0.2l-1.3-1.3c-0.3-0.3-0.3-0.8,0-1.1c0.3-0.3,0.8-0.3,1.1,0l1.3,1.3
				c0.3,0.3,0.3,0.8,0,1.1C28.9,11.8,28.7,11.9,28.6,11.9z"/>
		</g>
		<g>
			<path fill="#231F20" d="M24.6,7.9c-0.2,0-0.4-0.1-0.5-0.2l-1.3-1.3c-0.3-0.3-0.3-0.8,0-1.1c0.3-0.3,0.8-0.3,1.1,0l1.3,1.3
				c0.3,0.3,0.3,0.8,0,1.1C25,7.8,24.8,7.9,24.6,7.9z"/>
		</g>
		<rect x="14.7" y="22.7" fill="#FFFFFF" width="13.9" height="96.7"/>
		<rect x="16.6" y="24.7" fill="#84DBFF" width="10" height="92.7"/>
		<polygon fill="#FFFFFF" points="81.9,48.9 85,41.9 75.4,22.7 65.9,41.9 69,48.9 		"/>
		<line fill="#FFFFFF" x1="75.4" y1="22.7" x2="75.4" y2="38.6"/>
		<path fill="#FFFFFF" d="M52.9,117.2l0-80.4H41.2l0,80.4c0,1.2,1,2.1,2.1,2.1h7.3C51.9,119.4,52.9,118.4,52.9,117.2z"/>
		<path fill="#FF7058" d="M41.2,101.6v15.7c0,1.2,1,2.1,2.1,2.1h7.3c1.2,0,2.1-1,2.1-2.1v-15.7L41.2,101.6z"/>
		<polygon fill="#FFFFFF" points="41.2,36.9 47,22.7 52.9,36.9 		"/>
		<line fill="#FFFFFF" x1="47" y1="36.9" x2="47" y2="101.6"/>
		<g>
			<path fill="#231F20" d="M72.9,128.4H48.5c-0.4,0-0.8-0.3-0.8-0.8c0-0.4,0.3-0.8,0.8-0.8h24.4c0.4,0,0.8,0.3,0.8,0.8
				C73.6,128,73.3,128.4,72.9,128.4z"/>
		</g>
		<g>
			<path fill="#231F20" d="M81,128.4h-4.3c-0.4,0-0.8-0.3-0.8-0.8c0-0.4,0.3-0.8,0.8-0.8H81c0.4,0,0.8,0.3,0.8,0.8
				C81.8,128,81.4,128.4,81,128.4z"/>
		</g>
		<g>
			<path fill="#231F20" d="M105.7,123.4H81.3c-0.4,0-0.8-0.3-0.8-0.8c0-0.4,0.3-0.8,0.8-0.8h24.4c0.4,0,0.8,0.3,0.8,0.8
				C106.4,123.1,106.1,123.4,105.7,123.4z"/>
		</g>
		<g>
			<path fill="#231F20" d="M113.8,123.4h-4.3c-0.4,0-0.8-0.3-0.8-0.8c0-0.4,0.3-0.8,0.8-0.8h4.3c0.4,0,0.8,0.3,0.8,0.8
				C114.6,123.1,114.2,123.4,113.8,123.4z"/>
		</g>
		<g>
			<path fill="#231F20" d="M18.4,124.9h-5.3c-0.4,0-0.8-0.3-0.8-0.8c0-0.4,0.3-0.8,0.8-0.8h5.3c0.4,0,0.8,0.3,0.8,0.8
				C19.2,124.6,18.8,124.9,18.4,124.9z"/>
		</g>
		<g>
			<path fill="#231F20" d="M61.4,124.9H23.9c-0.4,0-0.8-0.3-0.8-0.8c0-0.4,0.3-0.8,0.8-0.8h37.5c0.4,0,0.8,0.3,0.8,0.8
				C62.1,124.6,61.8,124.9,61.4,124.9z"/>
		</g>
		<path fill="#FF7058" d="M99.3,79.4v31.2c0,3.8,3.1,6.8,6.8,6.8c3.8,0,6.8-3.1,6.8-6.8V79.4H99.3z"/>
		<rect x="93.5" y="51.2" fill="#FFFFFF" width="25.4" height="5.1"/>
		<g>
			<path fill="#231F20" d="M97.7,22h-8c-0.4,0-0.8-0.3-0.8-0.8c0-0.4,0.3-0.8,0.8-0.8h8c0.4,0,0.8,0.3,0.8,0.8
				C98.4,21.7,98.1,22,97.7,22z"/>
		</g>
		<g>
			<path fill="#231F20" d="M100.8,24.9h-3.9c-0.4,0-0.8-0.3-0.8-0.8c0-0.4,0.3-0.8,0.8-0.8h3.9c0.4,0,0.8,0.3,0.8,0.8
				C101.6,24.6,101.2,24.9,100.8,24.9z"/>
		</g>
		<g>
			<path fill="#231F20" d="M105,22h-3.7c-0.4,0-0.8-0.3-0.8-0.8c0-0.4,0.3-0.8,0.8-0.8h3.7c0.4,0,0.8,0.3,0.8,0.8
				C105.8,21.7,105.4,22,105,22z"/>
		</g>
		<g>
			<path fill="#231F20" d="M94.1,24.9h-0.8c-0.4,0-0.8-0.3-0.8-0.8c0-0.4,0.3-0.8,0.8-0.8h0.8c0.4,0,0.8,0.3,0.8,0.8
				C94.8,24.6,94.5,24.9,94.1,24.9z"/>
		</g>
		<path fill="#231F20" d="M110.3,44.9c-2.7,0-4.9-2.2-4.9-4.9s2.2-4.9,4.9-4.9c2.7,0,4.9,2.2,4.9,4.9S113.1,44.9,110.3,44.9z
			 M110.3,36.6c-1.9,0-3.4,1.5-3.4,3.4s1.5,3.4,3.4,3.4c1.9,0,3.4-1.5,3.4-3.4S112.2,36.6,110.3,36.6z"/>
		<circle fill="#FFFFFF" cx="75.4" cy="39.6" r="2.7"/>
		<path fill="#231F20" d="M111.3,118.6c2.7-1.7,4.4-4.7,4.4-8V57.1h3.1c0.4,0,0.8-0.3,0.8-0.8v-5.1c0-0.4-0.3-0.8-0.8-0.8H93.5
			c-0.4,0-0.8,0.3-0.8,0.8v5.1c0,0.4,0.3,0.8,0.8,0.8h3.1v53.5c0,3.4,1.8,6.3,4.4,8H78.7c0.6-0.7,1-1.6,1.1-2.6l3-67
			c0,0,0-0.1,0-0.1l3-6.6c0.1-0.2,0.1-0.4,0-0.6l-9.6-19.2c-0.3-0.5-1.1-0.5-1.3,0l-9.6,19.2c-0.1,0.2-0.1,0.4,0,0.6l3,6.6
			c0,0,0,0.1,0,0.1l3,67c0,1,0.4,1.9,1.1,2.6H53.2c0.2-0.4,0.4-0.9,0.4-1.4V36.9c0-0.1,0-0.2-0.1-0.3c0,0,0,0,0,0l-5.8-14.2
			c-0.2-0.6-1.2-0.6-1.4,0l-5.8,14.2c0,0,0,0,0,0c0,0.1-0.1,0.2-0.1,0.3v80.4c0,0.5,0.1,1,0.4,1.4H29.3l0-95.9
			c0-0.4-0.3-0.8-0.8-0.8H14.7c-0.2,0-0.4,0.1-0.5,0.2c-0.1,0.1-0.2,0.3-0.2,0.5l0,95.9H0.8v1.5h128v-1.5H111.3z M15.4,118.6v-2.8
			h3.1v-1.5h-3.1l0-5.8h3.1V107h-3.1l0-5.8h3.1v-1.5h-3.1v-5.8h3.1v-1.5h-3.1l0-5.8h3.1V85h-3.1l0-5.8h3.1v-1.5h-3.1l0-5.8h3.1v-1.5
			h-3.1v-5.8h3.1V63h-3.1l0-5.8h3.1v-1.5h-3.1l0-5.8h3.1v-1.5h-3.1l0-5.8h3.1v-1.5h-3.1v-5.8h3.1v-1.5h-3.1l0-5.8h3.1v-1.5h-3.1
			v-2.8h12.4l0,95.2H15.4z M47,24.7l4.7,11.4h-9.4L47,24.7z M42,37.6h4.3v63.2H42V37.6z M52.1,117.2c0,0.8-0.6,1.4-1.4,1.4h-7.3
			c-0.8,0-1.4-0.6-1.4-1.4v-14.9h10.1V117.2z M52.1,100.8h-4.3V37.6h4.3V100.8z M75.4,37.6c1.1,0,2,0.9,2,2s-0.9,2-2,2s-2-0.9-2-2
			S74.3,37.6,75.4,37.6z M66.7,42l8-16.1v10.3c-1.5,0.3-2.7,1.7-2.7,3.4c0,1.9,1.6,3.5,3.5,3.5c1.9,0,3.5-1.6,3.5-3.5
			c0-1.7-1.2-3-2.7-3.4V25.9l8,16.1l-2.8,6.2H69.5L66.7,42z M75.4,118.6c-1.5,0-2.8-1.2-2.8-2.7l-2.9-66.3h11.5l-2.9,66.3
			C78.2,117.4,76.9,118.6,75.4,118.6z M94.2,55.6V52h23.9v3.6H94.2z M98.1,110.6v-5.7h6.2v-1.5h-6.2v-5.5h6.2v-1.5h-6.2v-5.5h6.2
			v-1.5h-6.2V84h6.2v-1.5h-6.2V77h6.2v-1.5h-6.2V70h6.2v-1.5h-6.2V63h6.2v-1.5h-6.2v-4.4h16.1v53.5c0,4.4-3.6,8-8,8
			C101.7,118.6,98.1,115,98.1,110.6z"/>
		<circle fill="#E6E9EE" cx="55.6" cy="9.2" r="2.7"/>
		<circle fill="#FFD05B" cx="94.1" cy="34.3" r="2.7"/>
		<circle fill="#FFD05B" cx="62.4" cy="98.4" r="2.7"/>
		<circle fill="#84DBFF" cx="118.8" cy="18.5" r="2.7"/>
		<circle fill="#FF7058" cx="4.4" cy="18.5" r="2.7"/>
	</g>
</g>
</svg>
