<?xml version="1.0" encoding="utf-8"?>
<!-- Generator: Adobe Illustrator 18.0.0, SVG Export Plug-In . SVG Version: 6.00 Build 0)  -->
<!DOCTYPE svg PUBLIC "-//W3C//DTD SVG 1.1//EN" "http://www.w3.org/Graphics/SVG/1.1/DTD/svg11.dtd">
<svg version="1.1" id="Layer_1" xmlns="http://www.w3.org/2000/svg" xmlns:xlink="http://www.w3.org/1999/xlink" x="0px" y="0px"
	 viewBox="0 0 129.5 129.5" enable-background="new 0 0 129.5 129.5" xml:space="preserve">
<g>
	<g>
		<g>
			<path fill="#231F20" d="M116.1,117.5c-0.2,0-0.4-0.1-0.5-0.2c-0.3-0.3-0.3-0.8,0-1.1l1.3-1.3c0.3-0.3,0.8-0.3,1.1,0
				c0.3,0.3,0.3,0.8,0,1.1l-1.3,1.3C116.5,117.5,116.3,117.5,116.1,117.5z"/>
		</g>
		<g>
			<path fill="#231F20" d="M112.1,121.6c-0.2,0-0.4-0.1-0.5-0.2c-0.3-0.3-0.3-0.8,0-1.1l1.3-1.3c0.3-0.3,0.8-0.3,1.1,0
				c0.3,0.3,0.3,0.8,0,1.1l-1.3,1.3C112.4,121.5,112.2,121.6,112.1,121.6z"/>
		</g>
		<g>
			<path fill="#231F20" d="M117.4,121.6c-0.2,0-0.4-0.1-0.5-0.2l-1.3-1.3c-0.3-0.3-0.3-0.8,0-1.1s0.8-0.3,1.1,0l1.3,1.3
				c0.3,0.3,0.3,0.8,0,1.1C117.8,121.5,117.6,121.6,117.4,121.6z"/>
		</g>
		<g>
			<path fill="#231F20" d="M113.3,117.5c-0.2,0-0.4-0.1-0.5-0.2l-1.3-1.3c-0.3-0.3-0.3-0.8,0-1.1c0.3-0.3,0.8-0.3,1.1,0l1.3,1.3
				c0.3,0.3,0.3,0.8,0,1.1C113.7,117.5,113.5,117.5,113.3,117.5z"/>
		</g>
		<g>
			<g>
				<path fill="#231F20" d="M127.5,18.9c-0.2,0-0.4-0.1-0.5-0.2c-0.3-0.3-0.3-0.8,0-1.1l1.3-1.3c0.3-0.3,0.8-0.3,1.1,0
					c0.3,0.3,0.3,0.8,0,1.1l-1.3,1.3C127.8,18.8,127.7,18.9,127.5,18.9z"/>
			</g>
			<g>
				<path fill="#231F20" d="M123.4,22.9c-0.2,0-0.4-0.1-0.5-0.2c-0.3-0.3-0.3-0.8,0-1.1l1.3-1.3c0.3-0.3,0.8-0.3,1.1,0
					c0.3,0.3,0.3,0.8,0,1.1l-1.3,1.3C123.8,22.8,123.6,22.9,123.4,22.9z"/>
			</g>
			<g>
				<path fill="#231F20" d="M128.8,22.9c-0.2,0-0.4-0.1-0.5-0.2l-1.3-1.3c-0.3-0.3-0.3-0.8,0-1.1c0.3-0.3,0.8-0.3,1.1,0l1.3,1.3
					c0.3,0.3,0.3,0.8,0,1.1C129.1,22.8,128.9,22.9,128.8,22.9z"/>
			</g>
			<g>
				<path fill="#231F20" d="M124.7,18.9c-0.2,0-0.4-0.1-0.5-0.2l-1.3-1.3c-0.3-0.3-0.3-0.8,0-1.1c0.3-0.3,0.8-0.3,1.1,0l1.3,1.3
					c0.3,0.3,0.3,0.8,0,1.1C125.1,18.8,124.9,18.9,124.7,18.9z"/>
			</g>
		</g>
		<g>
			<g>
				<path fill="#231F20" d="M4.8,2.8c-0.2,0-0.4-0.1-0.5-0.2C4,2.3,4,1.8,4.2,1.5l1.3-1.3c0.3-0.3,0.8-0.3,1.1,0
					c0.3,0.3,0.3,0.8,0,1.1L5.3,2.6C5.2,2.7,5,2.8,4.8,2.8z"/>
			</g>
			<g>
				<path fill="#231F20" d="M0.8,6.8c-0.2,0-0.4-0.1-0.5-0.2c-0.3-0.3-0.3-0.8,0-1.1l1.3-1.3C1.8,4,2.3,4,2.6,4.2
					c0.3,0.3,0.3,0.8,0,1.1L1.3,6.6C1.1,6.7,0.9,6.8,0.8,6.8z"/>
			</g>
			<g>
				<path fill="#231F20" d="M6.1,6.8c-0.2,0-0.4-0.1-0.5-0.2L4.2,5.3C4,5,4,4.5,4.2,4.2C4.5,4,5,4,5.3,4.2l1.3,1.3
					c0.3,0.3,0.3,0.8,0,1.1C6.4,6.7,6.3,6.8,6.1,6.8z"/>
			</g>
			<g>
				<path fill="#231F20" d="M2,2.8c-0.2,0-0.4-0.1-0.5-0.2L0.2,1.3c-0.3-0.3-0.3-0.8,0-1.1c0.3-0.3,0.8-0.3,1.1,0l1.3,1.3
					c0.3,0.3,0.3,0.8,0,1.1C2.4,2.7,2.2,2.8,2,2.8z"/>
			</g>
		</g>
		<g>
			<g>
				<path fill="#231F20" d="M61.5,125.5c-0.2,0-0.4-0.1-0.5-0.2c-0.3-0.3-0.3-0.8,0-1.1l1.3-1.3c0.3-0.3,0.8-0.3,1.1,0
					s0.3,0.8,0,1.1l-1.3,1.3C61.9,125.4,61.7,125.5,61.5,125.5z"/>
			</g>
			<g>
				<path fill="#231F20" d="M57.5,129.5c-0.2,0-0.4-0.1-0.5-0.2c-0.3-0.3-0.3-0.8,0-1.1l1.3-1.3c0.3-0.3,0.8-0.3,1.1,0
					c0.3,0.3,0.3,0.8,0,1.1l-1.3,1.3C57.9,129.4,57.7,129.5,57.5,129.5z"/>
			</g>
			<g>
				<path fill="#231F20" d="M62.8,129.5c-0.2,0-0.4-0.1-0.5-0.2L61,128c-0.3-0.3-0.3-0.8,0-1.1c0.3-0.3,0.8-0.3,1.1,0l1.3,1.3
					c0.3,0.3,0.3,0.8,0,1.1C63.2,129.4,63,129.5,62.8,129.5z"/>
			</g>
			<g>
				<path fill="#231F20" d="M58.8,125.5c-0.2,0-0.4-0.1-0.5-0.2L57,124c-0.3-0.3-0.3-0.8,0-1.1c0.3-0.3,0.8-0.3,1.1,0l1.3,1.3
					c0.3,0.3,0.3,0.8,0,1.1C59.2,125.4,59,125.5,58.8,125.5z"/>
			</g>
		</g>
		<g>
			<path fill="#231F20" d="M62.8,38.3v1.5c13.8,0,25,11.2,25,25s-11.2,25-25,25c-13.8,0-25-11.2-25-25c0-0.3,0-0.6,0-1l-1.5-0.1
				c0,0.3,0,0.7,0,1c0,14.6,11.9,26.5,26.5,26.5c14.6,0,26.5-11.9,26.5-26.5C89.3,50.2,77.4,38.3,62.8,38.3z"/>
			<path fill="#231F20" d="M51.3,42.6l-0.7-1.3c-0.3,0.2-0.6,0.3-0.9,0.5l0.7,1.3C50.7,42.9,51,42.8,51.3,42.6z"/>
			<path fill="#231F20" d="M53.9,41.4L53.4,40c-0.3,0.1-0.6,0.3-1,0.4l0.6,1.4C53.3,41.7,53.6,41.6,53.9,41.4z"/>
			<path fill="#231F20" d="M48.8,44.1l-0.8-1.2c-0.3,0.2-0.6,0.4-0.8,0.6l0.9,1.2C48.2,44.5,48.5,44.3,48.8,44.1z"/>
			<path fill="#231F20" d="M62.5,39.8l0-1.5c-0.3,0-0.7,0-1,0l0.1,1.5C61.8,39.8,62.1,39.8,62.5,39.8z"/>
			<path fill="#231F20" d="M56.7,40.6l-0.4-1.5c-0.3,0.1-0.7,0.2-1,0.3l0.4,1.4C56.1,40.7,56.4,40.6,56.7,40.6z"/>
			<path fill="#231F20" d="M59.5,40l-0.2-1.5c-0.3,0-0.7,0.1-1,0.2l0.3,1.5C58.9,40.1,59.2,40.1,59.5,40z"/>
			<path fill="#231F20" d="M46.5,45.9l-1-1.1c-0.3,0.2-0.5,0.5-0.8,0.7l1,1.1C46,46.3,46.2,46.1,46.5,45.9z"/>
			<path fill="#231F20" d="M39.7,55.3l-1.4-0.6c-0.1,0.3-0.3,0.6-0.4,1l1.4,0.5C39.5,55.9,39.6,55.6,39.7,55.3z"/>
			<path fill="#231F20" d="M44.4,47.9l-1.1-1c-0.2,0.3-0.5,0.5-0.7,0.8l1.1,1C44,48.4,44.2,48.2,44.4,47.9z"/>
			<path fill="#231F20" d="M38.2,60.9l-1.5-0.2c-0.1,0.3-0.1,0.7-0.1,1l1.5,0.2C38.1,61.5,38.1,61.2,38.2,60.9z"/>
			<path fill="#231F20" d="M38.8,58l-1.4-0.4c-0.1,0.3-0.2,0.7-0.3,1l1.5,0.3C38.6,58.7,38.7,58.3,38.8,58z"/>
			<path fill="#231F20" d="M41,52.7l-1.3-0.7c-0.2,0.3-0.3,0.6-0.5,0.9l1.3,0.7C40.7,53.2,40.8,52.9,41,52.7z"/>
			<path fill="#231F20" d="M42.6,50.2l-1.2-0.9c-0.2,0.3-0.4,0.6-0.6,0.8L42,51C42.2,50.7,42.4,50.5,42.6,50.2z"/>
		</g>
		<g>
			<circle fill="#84DBFF" cx="62.8" cy="64.8" r="21.7"/>
		</g>
		<g>
			<path fill="#FFFFFF" d="M80.5,65.5c-0.4,0-0.8-0.3-0.8-0.8c0-5.7-2.8-11-7.5-14.1c-0.3-0.2-0.4-0.7-0.2-1c0.2-0.3,0.7-0.4,1-0.2
				c5.1,3.4,8.2,9.2,8.2,15.4C81.3,65.2,81,65.5,80.5,65.5z"/>
		</g>
		<g>
			<path fill="#FFFFFF" d="M68.5,48.7c-0.1,0-0.2,0-0.2,0c-1.7-0.6-3.5-0.9-5.4-0.9c-0.4,0-0.8-0.3-0.8-0.8s0.3-0.8,0.8-0.8
				c2,0,4,0.3,5.9,1c0.4,0.1,0.6,0.6,0.5,0.9C69.1,48.5,68.8,48.7,68.5,48.7z"/>
		</g>
		<circle fill="#FFFFFF" cx="22.1" cy="22.8" r="8.6"/>
		<g>
			<circle fill="#ACB3BA" cx="22.1" cy="22.8" r="6"/>
		</g>
		<circle fill="#FFFFFF" cx="120.2" cy="81.9" r="8.6"/>
		<g>
			<circle fill="#FFD05B" cx="120.2" cy="81.9" r="6"/>
		</g>
		<circle fill="#FFFFFF" cx="18.7" cy="104.7" r="8.6"/>
		<g>
			<path fill="#231F20" d="M100.9,72l-1.4,0.5l0.3,0.9l1.4-0.5C101.1,72.6,101,72.3,100.9,72z"/>
			<path fill="#231F20" d="M103.6,86.8c0.1,0.3,0.1,0.6,0.2,1l1.5-0.3c-0.1-0.3-0.1-0.7-0.2-1L103.6,86.8z"/>
			<polygon fill="#231F20" points="98.4,69.8 98.8,70.7 100.2,70.1 99.8,69.2 			"/>
			<path fill="#231F20" d="M101.9,74.8l-1.4,0.5c0.1,0.3,0.2,0.6,0.3,0.9l1.4-0.5C102.2,75.5,102,75.2,101.9,74.8z"/>
			<path fill="#231F20" d="M104.5,83.5l-1.5,0.3c0.1,0.3,0.1,0.6,0.2,1l1.5-0.3C104.6,84.2,104.6,83.9,104.5,83.5z"/>
			<path fill="#231F20" d="M101.5,78.2c0.1,0.3,0.2,0.6,0.3,0.9l1.4-0.4c-0.1-0.3-0.2-0.6-0.3-1L101.5,78.2z"/>
			<path fill="#231F20" d="M103.7,80.6l-1.4,0.4c0.1,0.3,0.2,0.6,0.3,1l1.5-0.4C103.9,81.3,103.8,80.9,103.7,80.6z"/>
			<polygon fill="#231F20" points="83.7,41.4 83.1,40.6 81.9,41.5 82.5,42.3 			"/>
			<polygon fill="#231F20" points="93.7,59.9 95.1,59.2 94.6,58.3 93.3,59 			"/>
			<polygon fill="#231F20" points="95.1,62.5 96.4,61.9 96,61 94.7,61.6 			"/>
			<polygon fill="#231F20" points="92.3,57.3 93.6,56.5 93.1,55.7 91.8,56.4 			"/>
			<polygon fill="#231F20" points="87.7,49.6 88.9,48.8 88.4,48 87.1,48.8 			"/>
			<polygon fill="#231F20" points="86,47.1 87.2,46.3 86.7,45.5 85.4,46.3 			"/>
			<polygon fill="#231F20" points="84.3,44.7 85.5,43.8 84.9,43 83.7,43.9 			"/>
			<polygon fill="#231F20" points="89.3,52.1 90.5,51.3 90,50.5 88.7,51.3 			"/>
			<polygon fill="#231F20" points="90.8,54.7 92.1,53.9 91.6,53.1 90.3,53.8 			"/>
			<path fill="#231F20" d="M57.5,16.5c-0.3-0.2-0.6-0.4-0.9-0.5l-0.8,1.3c0.3,0.2,0.6,0.3,0.8,0.5L57.5,16.5z"/>
			<path fill="#231F20" d="M31.9,11.8l-0.5-1.4c-0.3,0.1-0.7,0.2-1,0.4l0.6,1.4C31.3,12,31.6,11.9,31.9,11.8z"/>
			<path fill="#231F20" d="M60.1,18.2c-0.3-0.2-0.6-0.4-0.8-0.6l-0.8,1.2c0.3,0.2,0.5,0.4,0.8,0.6L60.1,18.2z"/>
			<path fill="#231F20" d="M34.7,11.2l-0.2-1.5c-0.3,0-0.7,0.1-1,0.2l0.3,1.5C34.1,11.3,34.4,11.2,34.7,11.2z"/>
			<path fill="#231F20" d="M40.7,9.8c-0.3,0-0.7-0.1-1-0.1l-0.2,1.5c0.3,0,0.6,0.1,1,0.1L40.7,9.8z"/>
			<path fill="#231F20" d="M54.9,15c-0.3-0.2-0.6-0.3-0.9-0.5l-0.7,1.3c0.3,0.2,0.6,0.3,0.9,0.5L54.9,15z"/>
			<path fill="#231F20" d="M49.5,12.3c-0.3-0.1-0.6-0.3-0.9-0.4L48,13.3c0.3,0.1,0.6,0.2,0.9,0.4L49.5,12.3z"/>
			<path fill="#231F20" d="M43.7,10.3c-0.3-0.1-0.7-0.2-1-0.2l-0.3,1.5c0.3,0.1,0.6,0.1,1,0.2L43.7,10.3z"/>
			<path fill="#231F20" d="M52.3,13.6c-0.3-0.2-0.6-0.3-0.9-0.4l-0.6,1.4c0.3,0.1,0.6,0.3,0.9,0.4L52.3,13.6z"/>
			<path fill="#231F20" d="M46.6,11.2c-0.3-0.1-0.6-0.2-1-0.3l-0.4,1.4c0.3,0.1,0.6,0.2,0.9,0.3L46.6,11.2z"/>
			<path fill="#231F20" d="M37.3,11l0.3,0l0-1.5l-0.3,0c-0.2,0-0.5,0-0.7,0l0.1,1.5C36.8,11,37.1,11,37.3,11z"/>
			<path fill="#231F20" d="M66.3,24.9l1-1.1c-0.3-0.2-0.5-0.4-0.8-0.7l-1,1.1C65.8,24.5,66,24.7,66.3,24.9z"/>
			<polygon fill="#231F20" points="70.7,28.9 71.7,27.8 71,27.1 70,28.2 			"/>
			<path fill="#231F20" d="M62.5,20c-0.3-0.2-0.5-0.4-0.8-0.6l-0.9,1.2c0.3,0.2,0.5,0.4,0.8,0.6L62.5,20z"/>
			<polygon fill="#231F20" points="68.5,26.9 69.5,25.8 68.8,25.1 67.8,26.2 			"/>
			<polygon fill="#231F20" points="72.8,31 73.9,30 73.2,29.2 72.1,30.3 			"/>
			<polygon fill="#231F20" points="76.8,35.4 78,34.4 77.3,33.6 76.2,34.6 			"/>
			<path fill="#231F20" d="M74.9,33.2l1.1-1c-0.2-0.2-0.5-0.5-0.7-0.7l-1.1,1C74.4,32.7,74.6,32.9,74.9,33.2z"/>
			<path fill="#231F20" d="M103,56.8l-1.4-0.6c-0.1,0.3-0.3,0.6-0.4,0.9l1.4,0.6C102.7,57.4,102.9,57.1,103,56.8z"/>
			<path fill="#231F20" d="M105.2,51.2l-1.4-0.5c-0.1,0.3-0.2,0.6-0.3,0.9l1.4,0.5C105,51.8,105.1,51.5,105.2,51.2z"/>
			<polygon fill="#231F20" points="83.9,84.9 85.1,85.8 85.7,85 84.6,84.1 			"/>
			<polygon fill="#231F20" points="82.7,86.4 82,87.2 83.1,88.1 83.8,87.4 			"/>
			<path fill="#231F20" d="M26.4,116.1c0.3,0.2,0.6,0.3,1,0.4l0.6-1.4c-0.3-0.1-0.6-0.3-0.9-0.4L26.4,116.1z"/>
			<polygon fill="#231F20" points="85.8,82.6 87,83.5 87.6,82.7 86.4,81.8 			"/>
			<path fill="#231F20" d="M38.3,116.2l0.2,1.5c0.3,0,0.7-0.1,1-0.2l-0.2-1.5C39,116.1,38.6,116.1,38.3,116.2z"/>
			<path fill="#231F20" d="M41.2,115.7l0.3,1.5c0.3-0.1,0.7-0.2,1-0.2l-0.4-1.5C41.8,115.5,41.5,115.6,41.2,115.7z"/>
			<path fill="#231F20" d="M32.3,117.8c0.3,0,0.7,0.1,1,0.1l0.1-1.5c-0.3,0-0.6,0-1-0.1L32.3,117.8z"/>
			<path fill="#231F20" d="M23.7,114.4c0.3,0.2,0.6,0.4,0.8,0.6l0.8-1.2c-0.3-0.2-0.5-0.4-0.8-0.6L23.7,114.4z"/>
			<path fill="#231F20" d="M29.3,117.2c0.3,0.1,0.7,0.2,1,0.3l0.3-1.5c-0.3-0.1-0.6-0.1-0.9-0.2L29.3,117.2z"/>
			<path fill="#231F20" d="M35.4,116.4l0,1.5c0.3,0,0.7,0,1,0l-0.1-1.5C36.1,116.4,35.7,116.4,35.4,116.4z"/>
			<path fill="#231F20" d="M44,114.9l0.4,1.4c0.3-0.1,0.6-0.2,1-0.3l-0.5-1.4C44.7,114.7,44.4,114.8,44,114.9z"/>
			<path fill="#231F20" d="M57.4,108.6l0.8,1.3c0.3-0.2,0.6-0.4,0.9-0.5l-0.8-1.3C58,108.3,57.7,108.5,57.4,108.6z"/>
			<path fill="#231F20" d="M52.2,111.5l0.7,1.3c0.3-0.2,0.6-0.3,0.9-0.5l-0.7-1.3C52.8,111.2,52.5,111.4,52.2,111.5z"/>
			<path fill="#231F20" d="M54.9,110.1l0.7,1.3c0.3-0.2,0.6-0.3,0.9-0.5l-0.8-1.3C55.4,109.8,55.1,110,54.9,110.1z"/>
			<path fill="#231F20" d="M49.6,112.8l0.6,1.4c0.3-0.1,0.6-0.3,0.9-0.4l-0.6-1.4C50.2,112.5,49.9,112.7,49.6,112.8z"/>
			<path fill="#231F20" d="M46.8,113.9l0.5,1.4c0.3-0.1,0.6-0.2,0.9-0.4l-0.6-1.4C47.4,113.7,47.1,113.8,46.8,113.9z"/>
			<path fill="#231F20" d="M104.1,54l-1.4-0.5c-0.1,0.3-0.2,0.6-0.4,0.9l1.4,0.6C103.9,54.6,104,54.3,104.1,54z"/>
			<polygon fill="#231F20" points="78,91.6 79.1,92.6 79.8,91.9 78.7,90.9 			"/>
			<polygon fill="#231F20" points="98.6,66.4 97.2,67 97.4,67.5 96.3,66.9 95.8,67.8 97.1,68.5 97.6,67.8 97.6,67.9 99,67.3 			"/>
			<polygon fill="#231F20" points="95.6,71.1 96.1,70.2 94.8,69.5 94.3,70.3 			"/>
			<polygon fill="#231F20" points="71.6,97.8 72.6,99 73.4,98.3 72.4,97.2 			"/>
			<path fill="#231F20" d="M104.4,48.8l1.4,0.5c0.1-0.3,0.2-0.6,0.3-1l-1.4-0.4C104.6,48.2,104.5,48.5,104.4,48.8z"/>
			<polygon fill="#231F20" points="80,89.4 81.1,90.4 81.8,89.6 80.7,88.7 			"/>
			<polygon fill="#231F20" points="92.7,72.8 94,73.7 94.5,72.8 93.3,72 			"/>
			<polygon fill="#231F20" points="62.4,105.3 63.2,106.6 64.1,106 63.2,104.8 			"/>
			<polygon fill="#231F20" points="67.1,101.7 68.1,102.9 68.8,102.3 67.9,101.1 			"/>
			<polygon fill="#231F20" points="69.4,99.8 70.4,101 71.1,100.3 70.1,99.2 			"/>
			<polygon fill="#231F20" points="88.2,79.4 87.6,80.2 88.8,81.1 89.4,80.3 			"/>
			<path fill="#231F20" d="M105.2,45.9l1.4,0.4c0.1-0.3,0.2-0.7,0.3-1l-1.5-0.4C105.4,45.3,105.3,45.6,105.2,45.9z"/>
			<path fill="#231F20" d="M96.4,65.2l1.1-0.5c-0.1,0.2-0.2,0.3-0.3,0.5l1.3,0.7c0.2-0.3,0.3-0.6,0.5-0.9l-1.3-0.7
				c0,0-0.1,0.1-0.1,0.1l-0.4-0.8L96,64.3L96.4,65.2z"/>
			<polygon fill="#231F20" points="100.5,62.3 99.1,61.6 98.7,62.5 100,63.2 			"/>
			<polygon fill="#231F20" points="101.8,59.6 100.4,58.9 100,59.8 101.3,60.5 			"/>
			<polygon fill="#231F20" points="64.8,103.6 65.7,104.8 66.5,104.1 65.6,103 			"/>
			<polygon fill="#231F20" points="76.6,93 75.9,93.7 77,94.8 77.7,94.1 			"/>
			<polygon fill="#231F20" points="91.1,75.3 92.3,76.2 92.9,75.3 91.6,74.5 			"/>
			<polygon fill="#231F20" points="89.4,77.8 90.6,78.6 91.2,77.8 90,77 			"/>
			<path fill="#231F20" d="M13.2,77.1c-0.3-0.2-0.5-0.4-0.8-0.6l-0.9,1.2c0.3,0.2,0.5,0.4,0.8,0.6L13.2,77.1z"/>
			<path fill="#231F20" d="M2,62.8l-1.4,0.4c0.1,0.3,0.2,0.7,0.3,1l1.4-0.5C2.2,63.4,2.1,63.1,2,62.8z"/>
			<path fill="#231F20" d="M5,71.3c0.2,0.3,0.4,0.5,0.7,0.8l1.1-1c-0.2-0.2-0.4-0.5-0.6-0.8L5,71.3z"/>
			<path fill="#231F20" d="M1.5,60l-1.5,0.1c0,0.3,0.1,0.7,0.1,1l1.5-0.2C1.6,60.6,1.6,60.3,1.5,60z"/>
			<path fill="#231F20" d="M4.4,68l-1.3,0.8c0.2,0.3,0.4,0.6,0.6,0.9L5,68.8C4.8,68.6,4.6,68.3,4.4,68z"/>
			<path fill="#231F20" d="M3,65.5l-1.4,0.6C1.8,66.4,2,66.7,2.1,67l1.3-0.7C3.3,66.1,3.2,65.8,3,65.5z"/>
			<path fill="#231F20" d="M10.9,75.3c-0.3-0.2-0.5-0.4-0.7-0.6l-1,1.1c0.3,0.2,0.5,0.4,0.8,0.7L10.9,75.3z"/>
			<polygon fill="#231F20" points="53.3,94.2 54.3,94.4 54.6,92.9 53.6,92.8 			"/>
			<polygon fill="#231F20" points="56.3,94.7 57.3,94.9 57.5,93.4 56.5,93.2 			"/>
			<polygon fill="#231F20" points="50.4,93.7 51.3,93.9 51.6,92.4 50.6,92.2 			"/>
			<polygon fill="#231F20" points="68.3,95.9 69.3,96 69.4,94.5 68.4,94.4 			"/>
			<path fill="#231F20" d="M17.3,79.9l-0.8,1.3c0.3,0.2,0.6,0.4,0.9,0.5l0.8-1.3C17.9,80.3,17.6,80.1,17.3,79.9z"/>
			<polygon fill="#231F20" points="59.3,95.1 60.3,95.2 60.5,93.7 59.5,93.6 			"/>
			<polygon fill="#231F20" points="66.4,94.3 65.4,94.2 65.3,95.7 66.3,95.8 			"/>
			<polygon fill="#231F20" points="63.4,94 62.4,94 62.3,95.4 63.3,95.5 			"/>
			<path fill="#231F20" d="M7,73.6c0.2,0.2,0.5,0.5,0.7,0.7l1.1-1.1c-0.2-0.2-0.5-0.5-0.7-0.7L7,73.6z"/>
			<path fill="#231F20" d="M98,92.1l0.3,1.5c0.3-0.1,0.7-0.2,1-0.2l-0.4-1.5C98.6,91.9,98.3,92,98,92.1z"/>
			<path fill="#231F20" d="M100.9,91.3l0.4,1.4c0.3-0.1,0.7-0.2,1-0.3l-0.4-1.4C101.5,91.1,101.2,91.2,100.9,91.3z"/>
			<polygon fill="#231F20" points="80.3,94.5 80.4,96 81.4,95.9 81.3,94.4 			"/>
			<path fill="#231F20" d="M95.1,92.7l0.3,1.5c0.3-0.1,0.7-0.1,1-0.2L96,92.5C95.7,92.6,95.4,92.6,95.1,92.7z"/>
			<polygon fill="#231F20" points="41.5,91.7 42.5,91.9 42.9,90.5 41.9,90.2 			"/>
			<path fill="#231F20" d="M83.3,94.3l0.1,1.5c0.3,0,0.7-0.1,1-0.1l-0.1-1.5C83.9,94.2,83.6,94.3,83.3,94.3z"/>
			<polygon fill="#231F20" points="38.6,90.9 39.6,91.1 40,89.7 39.1,89.4 			"/>
			<path fill="#231F20" d="M89.2,93.7l0.2,1.5c0.3,0,0.7-0.1,1-0.1l-0.2-1.5C89.9,93.6,89.5,93.6,89.2,93.7z"/>
			<polygon fill="#231F20" points="86.2,94 86.4,95.5 87.4,95.4 87.2,93.9 			"/>
			<path fill="#231F20" d="M92.1,93.2l0.2,1.5c0.3-0.1,0.7-0.1,1-0.2l-0.3-1.5C92.8,93.1,92.5,93.2,92.1,93.2z"/>
			<path fill="#231F20" d="M30.1,87.9c0.3,0.1,0.6,0.2,0.9,0.4l0.5-1.4c-0.3-0.1-0.6-0.2-0.9-0.4L30.1,87.9z"/>
			<polygon fill="#231F20" points="72.4,94.6 71.4,94.5 71.3,96 72.3,96.1 			"/>
			<polygon fill="#231F20" points="27.3,86.8 28.2,87.1 28.8,85.8 27.8,85.4 			"/>
			<polygon fill="#231F20" points="77.3,94.6 77.4,96.1 78.4,96 78.3,94.5 			"/>
			<path fill="#231F20" d="M22.7,84.6l0.7-1.3c-0.3-0.1-0.6-0.3-0.9-0.4l-0.7,1.3C22.1,84.3,22.4,84.5,22.7,84.6z"/>
			<path fill="#231F20" d="M25.4,85.9l0.6-1.4c-0.3-0.1-0.6-0.3-0.9-0.4l-0.6,1.4C24.8,85.7,25.1,85.8,25.4,85.9z"/>
			<path fill="#231F20" d="M35.7,90c0.3,0.1,0.6,0.2,1,0.3l0.5-1.4c-0.3-0.1-0.6-0.2-0.9-0.3L35.7,90z"/>
			<path fill="#231F20" d="M14.8,78.3L14,79.5c0.3,0.2,0.6,0.4,0.8,0.6l0.8-1.2C15.4,78.7,15.1,78.5,14.8,78.3z"/>
			<path fill="#231F20" d="M32.9,89c0.3,0.1,0.6,0.2,0.9,0.3l0.5-1.4c-0.3-0.1-0.6-0.2-0.9-0.3L32.9,89z"/>
			<polygon fill="#231F20" points="75.3,94.6 74.9,94.6 74.3,94.6 74.3,95.3 73.8,95.8 74.8,96.9 75.6,96.2 75.3,96 			"/>
			<path fill="#231F20" d="M125.2,74c0.1-0.5,0.2-1,0.3-1.5c1-8.2-4.6-16.7-15.9-23.9c-8.1-5.2-18.4-9.2-29.8-11.9l0.1-0.1l-0.6-0.8
				l-0.7,0.6c-3.9-0.9-7.9-1.6-12-2.1c-5-0.6-9.8-0.9-14.5-1c7.1-6.7,14.6-12.2,21.8-15.7c11.5-5.6,21.1-6.1,27.1-1.4
				c6.2,4.9,7.9,14.7,4.7,27.6l1.5,0.4c3.3-13.5,1.4-23.9-5.3-29.1c-6.5-5.1-16.7-4.7-28.7,1.2c-2.9,1.4-5.8,3.1-8.8,5.1
				c-0.1-0.1-0.2-0.2-0.4-0.3l-0.9,1.1c-4.5,3.1-9,6.9-13.3,11.1c-10.8,0.1-20.6,1.6-28.7,4.3c-0.2-2-0.3-3.9-0.3-5.7
				c0.4,0,0.8,0.1,1.2,0.1c5.1,0,9.3-4.2,9.3-9.3c0-3.4-1.8-6.4-4.5-8c0.5-0.5,1-0.9,1.6-1.3c0.3-0.2,0.5-0.3,0.8-0.5l-0.7-1.3
				c-0.3,0.2-0.6,0.4-0.9,0.6c-0.8,0.5-1.5,1.2-2.2,1.9c-1-0.4-2.2-0.6-3.4-0.6c-5.1,0-9.3,4.2-9.3,9.3c0,4.3,2.9,7.9,6.8,9
				c0,2.1,0.1,4.2,0.4,6.5C8.6,42.4,1.1,48.9,0.1,57l0.7,0.1L0.1,57c0,0.3-0.1,0.7-0.1,1l1.5,0.1c0-0.3,0-0.6,0.1-0.9h0
				c0.9-7.5,7.9-13.6,18.5-17.5c1,7.3,3.4,15.3,7.1,23.6c-4.3,7.8-7.3,15.6-9,22.9c-0.8,3.3-1.2,6.4-1.3,9.3
				c-4.3,0.8-7.6,4.6-7.6,9.2c0,5.1,4.2,9.3,9.3,9.3s9.3-4.2,9.3-9.3c0-5.1-4.2-9.3-9.3-9.3c-0.1,0-0.2,0-0.3,0
				c0.1-2.7,0.5-5.7,1.2-8.8c1.6-6.9,4.4-14.2,8.3-21.5c2.6,5.5,5.7,11.2,9.5,16.7c2.3,3.4,4.7,6.7,7.2,9.8l-0.2,0.9l1,0.2l0-0.1
				c4.6,5.5,9.5,10.4,14.5,14.5l0.8,1.2c0.1-0.1,0.3-0.2,0.4-0.3c2.8,2.2,5.6,4.1,8.3,5.8c6.9,4.1,13.3,6.2,18.9,6.2
				c3.6,0,6.9-0.9,9.6-2.7c6.6-4.4,9.4-13.6,7.9-26c2.7-1,5.1-2.1,7.3-3.3c1.7,2,4.2,3.2,7,3.2c5.1,0,9.3-4.2,9.3-9.3
				C129.5,78.6,127.8,75.7,125.2,74z M14.2,22.8c0-4.3,3.5-7.8,7.8-7.8s7.8,3.5,7.8,7.8s-3.5,7.8-7.8,7.8S14.2,27.1,14.2,22.8z
				 M26.5,104.7c0,4.3-3.5,7.8-7.8,7.8c-4.3,0-7.8-3.5-7.8-7.8c0-4.3,3.5-7.8,7.8-7.8C23,96.9,26.5,100.4,26.5,104.7z M21.4,39.2
				c7.6-2.6,16.8-4.1,27-4.3c-3.3,3.4-6.5,7-9.6,10.9c-4.1,5.2-7.7,10.5-10.7,15.9C24.6,53.8,22.4,46.1,21.4,39.2z M105.7,89.8
				c-0.1-0.4-0.1-0.7-0.2-1.1l-1.5,0.2c0.1,0.5,0.1,0.9,0.2,1.4c-0.4,0.2-0.9,0.3-1.3,0.5l0.5,1.4c0.4-0.1,0.7-0.2,1.1-0.4
				c1.3,11.6-1.2,20.2-7.3,24.2c-6.4,4.3-15.9,3-26.9-3.5C62.7,108,55,101.4,48,93.2l0.4,0.1l0.3-1.5l-1-0.2l-0.2,1
				c-3.1-3.6-6-7.5-8.8-11.7c-3.9-5.8-7.2-11.7-9.8-17.5C32,57.8,35.7,52.2,40,46.8c3.4-4.3,6.9-8.2,10.6-11.8
				c5.1,0,10.4,0.3,15.8,1c5,0.6,9.8,1.5,14.4,2.6l-0.8,0.6l0.6,0.8l1.2-0.9l-0.2-0.3c10.4,2.6,19.8,6.4,27.2,11.2
				c10.8,6.9,16.2,14.9,15.2,22.5c0,0.3-0.1,0.6-0.2,0.9c-1.1-0.5-2.4-0.8-3.7-0.8c-5.1,0-9.3,4.2-9.3,9.3c0,1.8,0.5,3.5,1.4,4.9
				C110.3,87.9,108.1,88.9,105.7,89.8z M120.2,89.7c-4.3,0-7.8-3.5-7.8-7.8c0-4.3,3.5-7.8,7.8-7.8s7.8,3.5,7.8,7.8
				C128,86.2,124.5,89.7,120.2,89.7z"/>
		</g>
		<g>
			<circle fill="#FF7058" cx="18.7" cy="104.7" r="6"/>
		</g>
		<g>
			<circle fill="#FF7058" cx="64.6" cy="3.8" r="1.8"/>
		</g>
		<g>
			<circle fill="#84DBFF" cx="108.2" cy="7.5" r="3"/>
		</g>
		<g>
			<circle fill="#E6E9EE" cx="85.5" cy="106" r="3"/>
		</g>
		<g>
			<circle fill="#FFD05B" cx="10.1" cy="59.8" r="2.2"/>
		</g>
	</g>
</g>
</svg>
