<?xml version="1.0" encoding="iso-8859-1"?>
<!-- Generator: Adobe Illustrator 21.0.0, SVG Export Plug-In . SVG Version: 6.00 Build 0)  -->
<svg xmlns="http://www.w3.org/2000/svg" xmlns:xlink="http://www.w3.org/1999/xlink" version="1.1" id="Capa_1" x="0px" y="0px" viewBox="0 0 507.548 507.548" style="enable-background:new 0 0 507.548 507.548;" xml:space="preserve" width="512" height="512">
<g>
	<g>
		<g>
			<g>
				<rect x="7.5" y="16.679" style="fill:#FEFEFE;" width="492.548" height="474.189"/>
			</g>
		</g>
	</g>
	<g>
		<g>
			<g>
				<path style="fill:#CB5ECE;" d="M160.664,241.717c-14.586-0.176-70.595,3.371-105.355,65.101c0,0,20.195,82.068,105.355,82.068      s105.355-82.068,105.355-82.068C231.259,245.088,175.25,241.541,160.664,241.717z"/>
			</g>
		</g>
	</g>
	<g>
		<g>
			<g>
				<rect x="470.048" y="16.679" style="fill:#D8D8D3;" width="30" height="474.189"/>
			</g>
		</g>
	</g>
	<g>
		<g>
			<g>
				<path style="fill:#AC4FC2;" d="M160.664,241.717c-3.213-0.039-8.437,0.104-15,1.009c23.231,3.202,63.251,15.96,90.355,64.093      c0,0-17.787,72.27-90.355,81.17c4.762,0.584,9.756,0.898,15,0.898c85.16,0,105.355-82.068,105.355-82.068      C231.259,245.088,175.25,241.541,160.664,241.717z"/>
			</g>
		</g>
	</g>
	<g>
		<g>
			<g>
				<path style="fill:#F8C091;" d="M225.722,369.901c-5.348-4.27-12.127-6.823-19.503-6.823h-16.251V261.472h-59.62v101.606H115.11      c-17.275,0-31.28,14.004-31.28,31.28v37.738h153.668v-37.738C237.498,384.458,232.899,375.633,225.722,369.901"/>
			</g>
		</g>
	</g>
	<g>
		<g>
			<g>
				<path style="fill:#AC4FC2;" d="M256.136,442.713v-39.162c0-21.466-17.402-38.867-38.867-38.867l-57.035,39.098l-56.175-39.098      c-21.466,0-38.867,17.402-38.867,38.867v39.162H256.136z"/>
			</g>
		</g>
	</g>
	<g>
		<g>
			<g>
				<ellipse style="fill:#F8C091;" cx="160.664" cy="271.647" rx="72.523" ry="77.126"/>
			</g>
		</g>
	</g>
	<g>
		<g>
			<g>
				<path style="fill:#FFB084;" d="M160.664,194.521c-5.144,0-10.159,0.578-15,1.661c32.854,7.35,57.523,38.339,57.523,75.465      s-24.669,68.116-57.523,75.465c4.841,1.083,9.856,1.661,15,1.661c40.053,0,72.523-34.531,72.523-77.126      C233.187,229.052,200.718,194.521,160.664,194.521z"/>
			</g>
		</g>
	</g>
	<g>
		<g>
			<g>
				<path style="fill:#CB5ECE;" d="M266.019,306.818c-0.437-71.839-47.435-129.909-105.355-129.909S55.746,234.979,55.309,306.818      c0,0,36.598-40.556,102.791-40.556C229.421,266.262,266.019,306.818,266.019,306.818z"/>
			</g>
		</g>
	</g>
	<g>
		<g>
			<g>
				<path style="fill:#AC4FC2;" d="M160.664,176.908c-5.093,0-10.1,0.458-15,1.326c44.815,7.938,80.537,50.908,88.631,105.88      c21.047,10.879,31.724,22.704,31.724,22.704C265.583,234.979,218.585,176.908,160.664,176.908z"/>
			</g>
		</g>
	</g>
	<g>
		<g>
			<g>
				<path style="fill:#D8D8D3;" d="M236.917,442.852v-37.478c0-8.386-7.956-15.185-17.77-15.185H105.008      c-9.814,0-17.77,6.798-17.77,15.185v37.478H236.917z"/>
			</g>
		</g>
	</g>
	<g>
		<g>
			<g>
				<rect x="7.5" y="16.679" style="fill:#3277D9;" width="492.548" height="43.655"/>
			</g>
		</g>
	</g>
	<g>
		<g>
			<g>
				<rect x="470.048" y="16.679" style="fill:#244DC4;" width="30" height="43.655"/>
			</g>
		</g>
	</g>
	<g>
		<g>
			<g>
				<rect x="313.299" y="236.458" style="fill:#F7C848;" width="127.792" height="42.607"/>
			</g>
		</g>
	</g>
	<g>
		<g>
			<g>
				<rect x="411.09" y="236.458" style="fill:#E9AC3F;" width="30" height="42.607"/>
			</g>
		</g>
	</g>
	<g>
		<g>
			<g>
				<rect x="313.299" y="102.464" style="fill:#F7C848;" width="127.792" height="42.607"/>
			</g>
		</g>
	</g>
	<g>
		<g>
			<g>
				<rect x="411.09" y="102.464" style="fill:#E9AC3F;" width="30" height="42.607"/>
			</g>
		</g>
	</g>
	<g>
		<g>
			<g>
				<rect x="77.366" y="103.673" style="fill:#F7C848;" width="156.449" height="29.147"/>
			</g>
		</g>
	</g>
	<g>
		<g>
			<g>
				<rect x="203.815" y="103.673" style="fill:#F1B22B;" width="30" height="29.147"/>
			</g>
		</g>
	</g>
	<g>
		<path style="fill:#18191B;" d="M305.799,279.065c0,4.142,3.357,7.5,7.5,7.5h127.792c4.143,0,7.5-3.358,7.5-7.5v-42.607    c0-4.142-3.357-7.5-7.5-7.5H313.299c-4.143,0-7.5,3.358-7.5,7.5V279.065z M320.799,243.958h112.792v27.607H320.799V243.958z"/>
		<path style="fill:#18191B;" d="M313.299,152.572h127.792c4.143,0,7.5-3.358,7.5-7.5v-42.607c0-4.142-3.357-7.5-7.5-7.5H313.299    c-4.143,0-7.5,3.358-7.5,7.5v42.607C305.799,149.214,309.156,152.572,313.299,152.572z M320.799,109.964h112.792v27.607H320.799    V109.964z"/>
		<path style="fill:#18191B;" d="M233.815,140.32c4.143,0,7.5-3.358,7.5-7.5v-29.147c0-4.142-3.357-7.5-7.5-7.5H77.366    c-4.143,0-7.5,3.358-7.5,7.5v29.147c0,4.142,3.357,7.5,7.5,7.5H233.815z M84.866,111.173h141.449v14.147H84.866V111.173z"/>
		<path style="fill:#18191B;" d="M47.815,306.869c0.003,0.34,0.022,0.682,0.073,1.026c0.006,0.043,0.018,0.084,0.025,0.126    c0.032,0.196,0.066,0.393,0.114,0.589c0.331,1.346,7.809,30.75,32.048,55.272c-13.407,8.136-22.383,22.873-22.383,39.668v39.162    c0,4.142,3.357,7.5,7.5,7.5h20.622c0.462,0.089,0.937,0.139,1.425,0.139h149.679c0.488,0,0.963-0.05,1.425-0.139h17.795    c4.143,0,7.5-3.358,7.5-7.5v-39.162c0-16.795-8.976-31.532-22.382-39.668c24.238-24.521,31.716-53.924,32.047-55.273    c0.048-0.197,0.082-0.393,0.114-0.59c0.007-0.042,0.018-0.083,0.024-0.125c0.05-0.344,0.07-0.686,0.073-1.026    c0-0.033,0.007-0.064,0.007-0.097c-0.222-36.455-11.869-70.751-32.795-96.571c-21.32-26.306-49.753-40.793-80.061-40.793    s-58.74,14.487-80.061,40.793c-20.926,25.819-32.573,60.116-32.795,96.571C47.808,306.805,47.815,306.836,47.815,306.869z     M63.797,308.972c3.512-3.257,10.158-8.87,19.759-14.682c4.148,15.802,12.602,30.116,24.415,41.053    c4.585,4.245,9.581,7.888,14.877,10.891v9.343h-7.738c-0.285,0-0.569,0.016-0.853,0.049c-3.296,0.377-6.749,0.9-8.813,1.213    l-1.015,0.152c-0.321,0.047-0.631,0.121-0.935,0.206c-2.68,0.033-5.304,0.296-7.858,0.767    C75.884,340.52,66.807,317.965,63.797,308.972z M189.968,370.578h5.438l-17.668,12.112h-34.679l-17.402-12.112h4.691    c4.143,0,7.5-3.358,7.5-7.5v-10.333c7.348,2.31,15.024,3.529,22.816,3.529c7.431,0,14.763-1.104,21.804-3.211v10.016    C182.468,367.22,185.825,370.578,189.968,370.578z M229.417,435.213H94.738v-29.838c0-4.166,4.703-7.685,10.271-7.685h75.088    c0.013,0,0.026,0,0.039,0h39.011c5.567,0,10.271,3.52,10.271,7.685V435.213z M160.664,341.274    c-15.611,0-30.705-6.015-42.502-16.937c-10.569-9.785-17.875-22.894-20.916-37.321c15.628-7.242,36.05-13.253,60.854-13.253    c27.319,0,49.344,6.304,65.869,13.782c-3.135,14.336-10.492,27.346-21.056,37.026    C191.158,335.342,176.153,341.274,160.664,341.274z M72.691,403.551c0-16.543,12.873-30.137,29.129-31.289l14.981,10.427h-11.793    c-13.935,0-25.271,10.176-25.271,22.685v29.838h-7.047V403.551z M248.637,435.213h-4.22v-29.838    c0-12.509-11.336-22.685-25.271-22.685h-14.88l15.213-10.429c16.27,1.138,29.157,14.737,29.157,31.291V435.213z M217.269,357.183    c-0.003,0-0.006,0-0.01,0c-3.571-1.061-7.272-1.606-11.04-1.606h-8.751v-8.797c5.552-3.04,10.79-6.763,15.579-11.151    c11.873-10.88,20.407-25.183,24.628-40.986c9.693,5.705,16.332,11.177,19.843,14.367c-3.023,9.019-12.103,31.534-31.827,48.953    C222.958,357.46,220.146,357.183,217.269,357.183z M160.664,184.408c48.886,0,89.73,45.791,96.782,105.142    c-17.341-12.735-50.532-30.788-99.347-30.788c-45.251,0-77.197,17.888-94.197,30.613    C71.012,230.105,111.824,184.408,160.664,184.408z"/>
		<path style="fill:#18191B;" d="M500.048,9.179H7.5c-4.143,0-7.5,3.358-7.5,7.5v43.655v176.124c0,4.142,3.357,7.5,7.5,7.5    s7.5-3.358,7.5-7.5V67.835h274.059c4.143,0,7.5-3.358,7.5-7.5s-3.357-7.5-7.5-7.5H15V24.179h477.548v28.655H319.059    c-4.143,0-7.5,3.358-7.5,7.5s3.357,7.5,7.5,7.5h173.489v415.534H15v-216.91c0-4.142-3.357-7.5-7.5-7.5s-7.5,3.358-7.5,7.5v224.41    c0,4.142,3.357,7.5,7.5,7.5h492.548c4.143,0,7.5-3.358,7.5-7.5V60.335V16.679C507.548,12.537,504.19,9.179,500.048,9.179z"/>
		<path style="fill:#18191B;" d="M313.299,330.273h127.792c4.143,0,7.5-3.358,7.5-7.5s-3.357-7.5-7.5-7.5H313.299    c-4.143,0-7.5,3.358-7.5,7.5S309.156,330.273,313.299,330.273z"/>
		<path style="fill:#18191B;" d="M313.299,186.857h127.792c4.143,0,7.5-3.358,7.5-7.5s-3.357-7.5-7.5-7.5H313.299    c-4.143,0-7.5,3.358-7.5,7.5S309.156,186.857,313.299,186.857z"/>
		<path style="fill:#18191B;" d="M313.299,366.424h127.792c4.143,0,7.5-3.358,7.5-7.5s-3.357-7.5-7.5-7.5H313.299    c-4.143,0-7.5,3.358-7.5,7.5S309.156,366.424,313.299,366.424z"/>
		<path style="fill:#18191B;" d="M313.299,402.575h127.792c4.143,0,7.5-3.358,7.5-7.5s-3.357-7.5-7.5-7.5H313.299    c-4.143,0-7.5,3.358-7.5,7.5S309.156,402.575,313.299,402.575z"/>
		<path style="fill:#18191B;" d="M313.299,438.727h127.792c4.143,0,7.5-3.358,7.5-7.5s-3.357-7.5-7.5-7.5H313.299    c-4.143,0-7.5,3.358-7.5,7.5S309.156,438.727,313.299,438.727z"/>
	</g>
</g>















</svg>
