<?xml version="1.0" encoding="UTF-8"?>
<svg width="423px" height="284px" viewBox="0 0 423 284" version="1.1" xmlns="http://www.w3.org/2000/svg" xmlns:xlink="http://www.w3.org/1999/xlink">
    <!-- Generator: Sketch 51 (57462) - http://www.bohemiancoding.com/sketch -->
    <title>be-in-the-know</title>
    <desc>Created with Sketch.</desc>
    <defs>
        <polygon id="path-1" points="0 0.413166356 12.5676722 0.413166356 12.5676722 12.9410966 0 12.9410966"></polygon>
    </defs>
    <g id="Page-1" stroke="none" stroke-width="1" fill="none" fill-rule="evenodd">
        <g id="Intro_v3_LogOut_English" transform="translate(-144.000000, -1816.000000)">
            <g id="be-in-the-know" transform="translate(144.000000, 1816.000000)">
                <polygon id="Fill-1" fill-opacity="0.5" fill="#1E1E1E" points="7 14 7 283 412 283 412 22.9004816"></polygon>
                <polygon id="Fill-3" fill="#FFFFFF" points="18 272 423 272 423 11.9004816 18 3"></polygon>
                <polygon id="Fill-4" fill="#515151" points="18 3 18 272 221 272 221 11.9004527"></polygon>
                <polygon id="Fill-5" fill-opacity="0.5" fill="#B7C4E4" points="249 99.6998828 250.609659 168 392 166.858734 385.462562 87"></polygon>
                <polygon id="Fill-7" fill="#EFF3FB" points="18 43 423 43 423 21.0586647 18 19"></polygon>
                <polygon id="Fill-8" fill="#EFF3FB" points="18 19.0919856 423 20 423 3.46685921 18 2"></polygon>
                <g id="Group-132">
                    <path d="M32.6709818,11.2366429 C32.6709818,13.0434405 31.2009694,14.5087411 29.388362,14.5087411 C27.5748806,14.5087411 26.1057421,13.0434405 26.1057421,11.2366429 C26.1057421,9.42897423 27.5748806,7.96454479 29.388362,7.96454479 C31.2009694,7.96454479 32.6709818,9.42897423 32.6709818,11.2366429" id="Fill-9" fill="#FC846D"></path>
                    <path d="M43.8324136,11.2366429 C43.8324136,13.0434405 42.3624012,14.5087411 40.5497938,14.5087411 C38.7371864,14.5087411 37.267174,13.0434405 37.267174,11.2366429 C37.267174,9.42897423 38.7371864,7.96454479 40.5497938,7.96454479 C42.3624012,7.96454479 43.8324136,9.42897423 43.8324136,11.2366429" id="Fill-11" fill="#F9D452"></path>
                    <path d="M55.0744252,11.2366429 C55.0744252,13.0434405 53.6052868,14.5087411 51.7926793,14.5087411 C49.9791979,14.5087411 48.5100595,13.0434405 48.5100595,11.2366429 C48.5100595,9.42897423 49.9791979,7.96454479 51.7926793,7.96454479 C53.6052868,7.96454479 55.0744252,9.42897423 55.0744252,11.2366429" id="Fill-13" fill="#57BE8B"></path>
                    <polygon id="Fill-15" fill="#757575" points="244.582795 54.9604466 244.582795 67.9852442 390.162964 67.9852442 391.971202 53.2137595"></polygon>
                    <polygon id="Fill-17" fill="#757575" points="245.955622 173.484885 245.955622 177.519253 391.535792 177.519253 393.344029 172.942148"></polygon>
                    <polygon id="Fill-19" fill="#757575" points="245.955622 183.747913 245.955622 187.782281 391.535792 187.782281 393.344029 183.205177"></polygon>
                    <polygon id="Fill-21" fill="#428DC6" points="40.6425217 87.781438 40.6425217 91.8166773 186.221817 91.8166773 188.030929 87.2387018"></polygon>
                    <polygon id="Fill-23" fill="#428DC6" points="40.6425217 98.0443791 40.6425217 102.079618 186.221817 102.079618 188.030929 97.5016429"></polygon>
                    <polygon id="Fill-25" fill="#B2B2B2" points="40.6425217 122.168263 40.6425217 126.202631 186.221817 126.202631 188.030929 121.625526"></polygon>
                    <polygon id="Fill-27" fill="#B2B2B2" points="40.6425217 132.431204 40.6425217 136.465572 186.221817 136.465572 188.030929 131.888467"></polygon>
                    <polygon id="Fill-29" fill="#B2B2B2" points="40.6425217 142.693796 40.6425217 146.729036 100.887685 146.729036 101.636675 142.15106"></polygon>
                    <polygon id="Fill-31" fill="#B2B2B2" points="40.6425217 163.221944 40.6425217 167.257183 153.833476 167.257183 155.239689 162.679207"></polygon>
                    <polygon id="Fill-33" fill="#B2B2B2" points="40.6425217 173.484885 40.6425217 177.519253 186.221817 177.519253 188.030929 172.942148"></polygon>
                    <polygon id="Fill-35" fill="#B2B2B2" points="40.6425217 183.747913 40.6425217 187.782281 122.037685 187.782281 123.048865 183.205177"></polygon>
                    <polygon id="Fill-37" fill="#B2B2B2" points="40.6425217 195.057298 40.6425217 199.092537 122.037685 199.092537 123.048865 194.514562"></polygon>
                    <polygon id="Fill-39" fill="#428DC6" points="40.6425217 109.368313 40.6425217 113.402681 111.96609 113.402681 112.852292 108.825577"></polygon>
                    <polygon id="Fill-41" fill="#757575" points="244.582795 73.1732098 244.582795 77.2084491 299.97482 77.2084491 300.662632 72.6313448"></polygon>
                    <polygon id="Fill-43" fill="#ECA264" points="41.6158587 54.9604466 41.6158587 67.9852442 187.196028 67.9852442 189.00514 53.2137595"></polygon>
                    <polygon id="Fill-45" fill="#ECA264" points="41.6158587 73.1732098 41.6158587 77.2084491 97.0078835 77.2084491 97.6956955 72.6313448"></polygon>
                    <polygon id="Fill-47" fill="#757575" points="245.955622 195.056427 245.955622 199.092537 301.347647 199.092537 302.035459 194.514562"></polygon>
                    <polygon id="Fill-49" fill="#757575" points="245.955622 220.390011 245.955622 224.42525 360.940831 224.42525 362.369767 219.847275"></polygon>
                    <polygon id="Fill-51" fill="#757575" points="245.955622 230.653039 245.955622 234.688279 391.535792 234.688279 393.344029 230.110303"></polygon>
                    <polygon id="Fill-53" fill="#757575" points="245.955622 241.961553 245.955622 245.997664 327.707364 245.997664 328.72204 241.42056"></polygon>
                    <polygon id="Fill-55" fill="#757575" points="245.955622 254.324178 245.955622 258.360288 327.707364 258.360288 328.72204 253.782313"></polygon>
                    <polygon id="Fill-57" fill="#377BB5" points="253.700106 93.0317791 259.61424 164.643337 396.132246 153.440147 390.104496 80.4486626"></polygon>
                    <path d="M17.1529122,18.9903656 L422.450712,21.0114699" id="Stroke-59" stroke="#DDDDDD"></path>
                    <path d="M66.3225545,37.409508 L27.0665814,37.409508 C25.7739843,37.409508 24.7269719,36.3658515 24.7269719,35.0782687 L24.7269719,26.4554712 C24.7269719,25.1678883 25.7739843,24.1242319 27.0665814,24.1242319 L66.3225545,24.1242319 C67.6142777,24.1242319 68.6612901,25.1678883 68.6612901,26.4554712 L68.6612901,35.0782687 C68.6612901,36.3658515 67.6142777,37.409508 66.3225545,37.409508" id="Fill-61" fill="#CCCCCC"></path>
                    <path d="M413.412408,38.5915926 L391.925931,38.5915926 C390.634207,38.5915926 389.586321,37.5479362 389.586321,36.2603534 L389.586321,27.6375558 C389.586321,26.349973 390.634207,25.3063166 391.925931,25.3063166 L413.412408,25.3063166 C414.704131,25.3063166 415.751143,26.349973 415.751143,27.6375558 L415.751143,36.2603534 C415.751143,37.5479362 414.704131,38.5915926 413.412408,38.5915926" id="Fill-63" fill="#377BB5"></path>
                    <path d="M367.729719,28.3953828 L344.253219,55.3797387 L344.550368,83.8929902 L336.649706,83.8929902 L333.408163,56.6734196 C333.185301,54.8004135 333.544502,52.9038859 334.436822,51.2408307 L349.521492,23.1152479 L367.729719,28.3953828 Z" id="Fill-65" fill="#323333"></path>
                    <polygon id="Fill-67" fill="#F2CEAD" points="303.744938 53.7302736 298.770319 56.0458319 300.650221 56.7706417 299.275471 58.9720773 299.073585 61.6613656 303.220558 61.032384 306.379949 56.2923718"></polygon>
                    <polygon id="Fill-69" fill="#323333" points="313.428143 9.71088344 313.187802 29.3330184 302.967632 54.1769202 306.439903 56.5464908 323.055762 32.985816 325.169888 7.56084663"></polygon>
                    <path d="M302.108872,6.83403313 C302.108872,6.83403313 293.758118,9.52332147 295.13986,6.25383681 C295.621416,5.11696564 300.167792,3.98009448 302.443602,2.37018037 C309.117213,-2.34805276 315.404531,4.19962822 315.404531,7.83238896 C315.404531,12.303211 308.676734,10.945935 308.676734,10.945935 L305.861686,10.1470761 C304.55161,9.53813129 302.819407,8.54848712 302.26706,7.21647485 L302.108872,6.83403313 Z" id="Fill-71" fill="#F14742"></path>
                    <path d="M298.366284,7.73159509 L302.812154,15.9344908 L304.704292,14.4186626 L307.854069,18.3258405 L311.852468,15.3447117 L325.572875,18.9774724 L319.584453,9.76838037 L314.966412,7.41884663 L311.119209,10.0671902 C311.119209,10.0671902 309.236685,4.1990184 307.223065,6.93360736 L306.834149,9.06970552 L305.669151,10.097681 L302.927517,6.97193865 C302.927517,6.97193865 301.329906,6.42484663 298.366284,7.73159509" id="Fill-73" fill="#F2CEAD"></path>
                    <path d="M356.083585,30.5027325 L370.818668,10.2002172 L338.886537,1.89713742 C331.836246,0.762879755 322.285535,3.75794724 316.505992,7.93867117 L319.576238,19.5948675 L331.116971,22.7066712 L356.083585,30.5027325 Z" id="Fill-75" fill="#323333"></path>
                    <path d="M317.954155,13.7323583 L321.815341,29.2164564 L318.291506,57.6486896 L322.421874,59.1836834 L332.247885,31.7053767 C332.557269,30.8420515 332.635052,29.913389 332.475116,29.0108613 L331.623872,14.0956344 C331.387901,9.96195337 327.590515,6.9564319 323.498601,7.6638184 L321.721827,7.97133988 C319.026513,8.4374135 317.29431,11.0857571 317.954155,13.7323583" id="Fill-77" fill="#515151"></path>
                    <polygon id="Fill-79" fill="#323333" points="337.711926 83.8930773 325.491246 86.2086356 344.119851 90.3597399 344.541977 83.118611"></polygon>
                    <polygon id="Fill-81" fill="#323333" points="367.422956 75.4566221 358.216589 83.8929902 374.662899 80.778573 373.915657 74.9243399 371.458936 71.7306466"></polygon>
                    <polygon id="Fill-83" fill="#F2CEAD" points="318.573798 57.5147914 314.620845 61.6667669 316.721862 61.6998712 316.221079 64.4109387 317.044356 67.1786319 320.833002 65.0207546 322.10375 59.1098957"></polygon>
                    <path d="M370.599127,13.7016933 L369.41228,11.907092 L353.057737,26.5879755 L352.804286,52.708135 C352.820018,53.5514233 353.053367,54.375546 353.481611,55.1020982 L365.902429,76.153816 L373.080319,72.8625521 L362.527168,50.6007853 L371.920565,29.3591534 C374.177148,24.2549939 373.679861,18.3580736 370.599127,13.7016933" id="Fill-85" fill="#515151"></path>
                    <path d="M220.919965,128.781542 C220.919965,128.781542 223.155573,126.666352 221.352579,123.389027 C221.352579,123.389027 219.7908,127.121101 214.221009,129.565591 C208.650343,132.010082 209.608211,141.098082 215.672668,143.289064 C221.737998,145.480045 221.302763,137.415665 221.302763,137.415665 L220.864031,132.69569 L220.919965,128.781542 Z" id="Fill-87" fill="#FAA330"></path>
                    <path d="M220.919965,128.781542 L227.591829,134.745542 L225.411281,136.078426 L228.181757,140.581481 L223.795317,143.477236 L226.458294,153.378033 L216.385825,152.024242 L214.799575,143.742941 L213.937843,142.315101 L216.051969,138.810401 C216.051969,138.810401 214.002517,136.003506 216.696083,135.851923 L218.759519,136.94088 L220.767021,135.499101 L218.629298,131.678168 C218.629298,131.678168 217.327087,129.909702 220.919965,128.781542" id="Fill-89" fill="#F2CEAD"></path>
                    <path d="M225.503135,207.336988 L197.579018,191.904288 L207.511652,161.877822 C209.098776,154.545221 213.553385,148.146509 219.887898,144.09646 L230.83783,144.886607 L230.83783,164.231712 L225.503135,207.336988 Z" id="Fill-91" fill="#323333"></path>
                    <polygon id="Fill-93" fill="#323333" points="212.989764 154.930973 233.86796 147.391034 256.753659 127.616445 260.527448 130.317059 241.300175 156.213329 214.893264 167.841648"></polygon>
                    <path d="M218.374449,145.15118 L235.936815,133.015843 L253.260588,109.743524 L257.697718,111.114739 L245.789918,139.036469 L233.968641,151.073364 C229.448484,155.675733 221.659691,154.017033 219.421462,147.975499 L218.374449,145.15118 Z" id="Fill-95" fill="#515151"></path>
                    <path d="M202.089998,204.642647 L207.815355,232.952045 L204.408632,267.175788 L212.120517,268.237739 L219.918924,234.007898 L225.410058,194.68261 L212.990114,189.86245 C204.899802,189.457358 200.617364,196.702843 202.089998,204.642647" id="Fill-97" fill="#323333"></path>
                    <polygon id="Fill-99" fill="#323333" points="211.733874 267.466147 215.111756 274.080908 221.839553 278.870577 210.850293 278.870577 203.367388 270.531779 206.48308 266.209926"></polygon>
                    <polygon id="Fill-101" fill="#F2CEAD" points="256.753833 127.616445 256.107098 121.378028 258.071776 115.780789 259.194823 116.340948 260.272424 124.876629 261.51171 121.698617 262.213505 124.527292 260.526749 130.317059"></polygon>
                    <polygon id="Fill-103" fill="#F2CEAD" points="253.260151 109.743872 252.386184 103.257173 256.59783 96.4699215 257.698155 98.429173 256.71232 103.737185 258.212921 108.973762 257.698155 111.114216"></polygon>
                    <path d="M105.802088,192.103088 C105.802088,192.103088 114.195667,199.825101 114.335502,228.458573 C114.475336,257.093788 104.455305,276.09391 104.455305,276.09391 L97.3919045,276.09391 C97.3919045,276.09391 108.97721,240.138291 95.9612207,216.293616 C95.9612207,216.293616 91.6053694,244.071604 68.5466256,265.321076 L64.5508488,261.088953 C64.5508488,261.088953 79.9746174,238.116315 80.1100822,211.485653 C80.1363012,206.209874 78.4102165,200.097775 78.4102165,200.097775 L105.802088,192.103088 Z" id="Fill-105" fill="#FFFFFF"></path>
                    <path d="M70.8775829,161.479177 L79.5604444,205.995741 L111.628039,205.079275 L106.374624,172.576956 C106.374624,172.576956 103.261554,152.520109 89.7307977,154.657079 C80.7673928,156.074465 72.2601986,151.075717 70.8775829,161.479177" id="Fill-107" fill="#CCCCCC"></path>
                    <path d="M91.6321128,135.015778 L94.8719083,143.349348 C95.592931,145.204931 94.6621562,147.291373 92.7979847,148.002244 L91.6959124,148.422146 L92.2281583,154.53076 L83.6903752,155.270379 L82.189774,138.030882 L91.6321128,135.015778 Z" id="Fill-109" fill="#F7D3A9"></path>
                    <path d="M86.9154006,150.749552 C86.9154006,150.749552 90.1857849,147.913037 89.9087374,145.379687 C89.9087374,145.379687 85.0844399,143.37862 86.3936424,141.982141 C87.7019709,140.585663 90.4916733,143.053675 90.4916733,143.053675 C90.4916733,143.053675 88.5680721,139.370387 88.99282,138.335442 C88.99282,138.335442 95.2434316,137.786607 93.91238,134.202632 C93.91238,134.202632 92.0377209,132.78089 88.0856424,132.899368 C84.1326899,133.017847 82.542944,139.827748 82.542944,139.827748 L86.9154006,150.749552 Z" id="Fill-111" fill="#377BB5"></path>
                    <path d="M88.7025756,133.333034 C85.018805,132.355587 80.8823194,133.271182 77.9606479,135.712188 C75.0389764,138.154065 73.41165,142.053402 73.7350178,145.84036 C73.9613752,148.499157 75.0634475,151.27382 74.0216789,153.732249 C73.4859372,154.994568 72.4502864,155.969402 71.4338628,156.892838 C68.4649971,159.596065 65.3947512,162.254863 63.0927223,165.540899 C60.7906934,168.826936 59.3023277,172.883083 59.9385756,176.839918 C60.2086314,178.521267 60.8710983,180.15993 61.9757926,181.458838 C62.5569806,182.141832 63.2552802,182.727255 63.7665508,183.462519 C65.5931417,186.093439 64.5671045,189.767145 65.6866562,192.763955 C67.1225839,196.611022 71.6444888,198.328961 75.7407719,198.742764 C81.3621273,199.311636 87.422214,198.124237 91.5648174,194.296335 C95.7074207,190.46582 97.2490983,183.64285 94.058245,178.996053 C92.4789868,176.695304 89.7941603,174.673329 90.0572244,171.898666 C90.2206562,170.175501 91.5254888,168.806028 92.2771004,167.244899 C93.7803236,164.119157 92.7831273,160.002899 90.015274,157.905133 C88.9944806,157.130666 87.7814145,156.616679 86.8357822,155.751611 C85.89015,154.887415 85.2512802,153.470899 85.8176107,152.324445 C86.2537202,151.440212 87.2753876,150.963685 87.7324723,150.090777 C88.4150405,148.785771 87.5865198,147.206347 86.6225343,146.091255 C85.6576748,144.977034 84.4690798,143.871525 84.330993,142.406225 C84.224369,141.291133 84.7627326,140.229182 85.2844909,139.238666 C86.3166459,137.283771 87.3479269,135.328875 88.3792079,133.373979" id="Fill-113" fill="#377BB5"></path>
                    <path d="M95.1497424,154.403047 L108.42093,146.185341 C108.529302,146.097353 108.622817,145.992813 108.697978,145.874335 L124.137478,121.569685 L128.664627,122.608985 L118.85697,151.332188 L109.26693,162.661697 C105.311356,167.335501 98.4996576,167.440912 94.5344696,163.519795 C93.0111452,162.01355 92.5269676,159.745906 93.1833167,157.709991 C93.6141824,156.372752 94.2582961,154.955366 95.1497424,154.403047" id="Fill-115" fill="#FFFFFF"></path>
                    <polygon id="Fill-117" fill="#F7D3A9" points="124.137478 121.569336 123.048515 113.469238 125.379385 115.357054 127.855333 111.114477 130.186203 107.806661 131.934137 113.469238 128.664627 122.609508"></polygon>
                    <polygon id="Fill-119" fill="#FFFFFF" points="68.546713 265.320989 73.9609382 277.901492 59.7913122 267.229713 64.5509362 261.088866"></polygon>
                    <polygon id="Fill-121" fill="#FFFFFF" points="104.604229 276.050613 115.310324 284 95.8645599 281.790724 97.3922541 275.49481"></polygon>
                    <g id="Group-125" transform="translate(0.000000, 128.061350)">
                        <mask id="mask-2" fill="white">
                            <use xlink:href="#path-1"></use>
                        </mask>
                        <g id="Clip-124"></g>
                        <path d="M4.47401157,1.81124049 C1.78219339,2.80611166 0.403947522,5.79856564 1.40201777,8.48175583 C2.40008802,11.164946 5.40303843,12.5379031 8.09485661,11.5430319 C10.7858008,10.5481607 12.1631727,7.55570675 11.1651025,4.87251656 C10.1670322,2.19019755 7.16582975,0.816369325 4.47401157,1.81124049 M8.46891446,12.5500994 C5.22037934,13.7505656 1.5969124,12.0936086 0.392585951,8.85461472 C-0.812614462,5.61649202 0.850544629,2.00551043 4.09907975,0.804173006 C7.34761488,-0.396293252 10.9710818,1.2606638 12.1754083,4.4987865 C13.3797347,7.73778037 11.7174496,11.348762 8.46891446,12.5500994" id="Fill-123" fill="#FFFFFF" mask="url(#mask-2)"></path>
                    </g>
                    <path d="M178.336276,225.656991 C175.644457,226.651863 174.266212,229.644317 175.264282,232.327507 C176.262352,235.010697 179.265302,236.383654 181.957121,235.388783 C184.648065,234.393912 186.025437,231.401458 185.027367,228.718267 C184.029296,226.035948 181.028094,224.66212 178.336276,225.656991 M182.331179,236.39585 C179.082643,237.596317 175.459176,235.93936 174.25485,232.700366 C173.04965,229.462243 174.712809,225.851261 177.961344,224.649924 C181.209879,223.449458 184.833346,225.107286 186.037672,228.345409 C187.241999,231.583531 185.579714,235.194513 182.331179,236.39585" id="Fill-126" fill="#FFFFFF"></path>
                    <path d="M27.448068,157.16499 C28.2687229,159.373395 27.1395576,161.826598 24.9240514,162.645493 C22.7094192,163.464389 20.2474543,162.337972 19.4259254,160.130438 C18.6043965,157.922033 19.7344357,155.468831 21.949068,154.649935 C24.1645742,153.831039 26.626539,154.956585 27.448068,157.16499" id="Fill-128" fill="#FFFFFF"></path>
                    <path d="M377.330158,104.430982 C378.151687,106.638515 377.021648,109.092589 374.807016,109.911485 C372.59151,110.73038 370.130419,109.603963 369.30889,107.396429 C368.487361,105.188025 369.616526,102.733951 371.832032,101.915055 C374.047538,101.09616 376.508629,102.222577 377.330158,104.430982" id="Fill-130" fill="#FFFFFF"></path>
                </g>
            </g>
        </g>
    </g>
</svg>
