<svg id="Layer_3" enable-background="new 0 0 64 64" height="512" viewBox="0 0 64 64" width="512" xmlns="http://www.w3.org/2000/svg"><path d="m30 47c7.168 0 13-5.832 13-13s-5.832-13-13-13-13 5.832-13 13 5.832 13 13 13zm-4.331-2.891c.559-.692 1.403-1.109 2.331-1.109h2 6.305c-1.787 1.256-3.959 2-6.305 2-1.537 0-3.001-.319-4.331-.891zm12.81-3.109h-8.479c-.552 0-1-.449-1-1v-2c0-.551.448-1 1-1h10.574c-.422 1.483-1.138 2.842-2.095 4zm2.521-7c0 .338-.021.67-.051 1h-10.949-2c-1.654 0-3-1.346-3-3v-7.786c1.502-.77 3.199-1.214 5-1.214 6.065 0 11 4.935 11 11zm-18-8.479v6.479c0 2.486 1.829 4.538 4.209 4.92-.13.336-.209.698-.209 1.08v2c0 .376.077.732.204 1.064-1.35.214-2.529.971-3.3 2.085-2.953-1.974-4.904-5.337-4.904-9.149 0-3.408 1.559-6.459 4-8.479z"/><path d="m63 12v-6c0-2.757-2.243-5-5-5h-30c-2.757 0-5 2.243-5 5v6c0 2.414 1.721 4.434 4 4.899v.383c-7.946 1.422-14 8.369-14 16.718 0 3.042.814 5.894 2.219 8.367l-12.891 12.89c-.856.857-1.328 1.995-1.328 3.207 0 2.501 2.034 4.536 4.535 4.536 1.211 0 2.351-.472 3.207-1.329l12.891-12.89c.443.252.9.481 1.367.693v2.526c0 2.757 2.243 5 5 5h30c2.757 0 5-2.243 5-5v-6c0-2.486-1.829-4.538-4.209-4.92.13-.336.209-.698.209-1.08v-2c0-.382-.079-.744-.209-1.08 2.38-.382 4.209-2.434 4.209-4.92v-6c0-2.486-1.829-4.538-4.209-4.92.13-.336.209-.698.209-1.08v-2c0-.382-.079-.744-.209-1.08 2.38-.382 4.209-2.434 4.209-4.92zm-34 5h1 25.034.966c.552 0 1 .449 1 1v2c0 .551-.448 1-1 1h-15.068c-2.958-2.492-6.77-4-10.932-4-.338 0-.667.031-1 .051zm1 2c8.271 0 15 6.729 15 15s-6.729 15-15 15-15-6.729-15-15 6.729-15 15-15zm16.719 18h9.281c.552 0 1 .449 1 1v2c0 .551-.448 1-1 1h-10.526c.573-1.26.994-2.599 1.245-4zm-39.391 23.257c-.479.479-1.116.743-1.793.743-1.397 0-2.535-1.138-2.535-2.536 0-.678.264-1.314.742-1.793l9.258-9.257 3.586 3.586zm10.672-10.671-3.586-3.586 1.925-1.925c1.011 1.367 2.219 2.575 3.586 3.586zm43-3.586v6c0 1.654-1.346 3-3 3h-30c-1.654 0-3-1.346-3-3v-1.753c.65.2 1.32.35 2 .471v2.282h2v-2.051c.333.02.662.051 1 .051s.667-.031 1-.051v2.051h2v-2.281c4.798-.859 8.895-3.734 11.396-7.719h11.604 2c1.654 0 3 1.346 3 3zm0-20v6c0 1.654-1.346 3-3 3h-2-9.051c.02-.333.051-.662.051-1 0-4.195-1.535-8.032-4.062-11h13.062 2c1.654 0 3 1.346 3 3zm0-14c0 1.654-1.346 3-3 3h-2-.966-27.034c-1.654 0-3-1.346-3-3v-6c0-1.654 1.346-3 3-3h30c1.654 0 3 1.346 3 3z"/><path d="m27 25h2v8h-2z"/><path d="m57 25h2v8h-2z"/><path d="m34 33c1.654 0 3-1.346 3-3v-2c0-1.654-1.346-3-3-3s-3 1.346-3 3v2c0 1.654 1.346 3 3 3zm-1-5c0-.551.448-1 1-1s1 .449 1 1v2c0 .551-.448 1-1 1s-1-.449-1-1z"/><path d="m52 25c-1.654 0-3 1.346-3 3v2c0 1.654 1.346 3 3 3s3-1.346 3-3v-2c0-1.654-1.346-3-3-3zm1 5c0 .551-.448 1-1 1s-1-.449-1-1v-2c0-.551.448-1 1-1s1 .449 1 1z"/><path d="m57 5h2v8h-2z"/><path d="m53 5h2v8h-2z"/><path d="m34 5h-4c-1.654 0-3 1.346-3 3s1.346 3 3 3h4c1.654 0 3-1.346 3-3s-1.346-3-3-3zm0 4h-4c-.552 0-1-.449-1-1s.448-1 1-1h4c.552 0 1 .449 1 1s-.448 1-1 1z"/><path d="m52 45c-1.654 0-3 1.346-3 3s1.346 3 3 3h4c1.654 0 3-1.346 3-3s-1.346-3-3-3zm5 3c0 .551-.448 1-1 1h-4c-.552 0-1-.449-1-1s.448-1 1-1h4c.552 0 1 .449 1 1z"/></svg>