<?xml version="1.0" encoding="UTF-8"?>
<svg width="180px" height="180px" viewBox="0 0 180 180" version="1.1" xmlns="http://www.w3.org/2000/svg" xmlns:xlink="http://www.w3.org/1999/xlink">
    <!-- Generator: Sketch 51 (57462) - http://www.bohemiancoding.com/sketch -->
    <title>Concept/Share</title>
    <desc>Created with Sketch.</desc>
    <defs>
        <polygon id="path-1" points="0.559566212 0.518314721 24.9954067 0.518314721 24.9954067 24.8704 0.559566212 24.8704"></polygon>
        <polygon id="path-3" points="0 0.453695431 24.4321222 0.453695431 24.4321222 24.8022437 0 24.8022437"></polygon>
        <polygon id="path-5" points="0.418330705 0.125641514 24.6021429 0.125641514 24.6021429 24.2264518 0.418330705 24.2264518"></polygon>
    </defs>
    <g id="Concept/Share" stroke="none" stroke-width="1" fill="none" fill-rule="evenodd">
        <polygon id="Fill-1" fill="#757575" points="89 134 93 134 93 95 89 95"></polygon>
        <polygon id="Fill-2" fill="#757575" points="114.514712 37 118 39.5567587 90.4859712 76 87 73.4425677"></polygon>
        <polygon id="Fill-3" fill="#757575" points="81.9617989 75 85 78.0382457 42.0375255 121 39 117.96243"></polygon>
        <polygon id="Fill-4" fill="#757575" points="41.9682242 55 72 70.1733859 70.0317758 74 40 58.8266141"></polygon>
        <polygon id="Fill-5" fill="#757575" points="101.869948 86 143 106.076053 141.129375 110 100 89.9246317"></polygon>
        <g id="Group-35" transform="translate(28.000000, 23.000000)">
            <path d="M92.4261111,1.99408325 C98.3560159,1.12750457 103.866841,5.21552487 104.736397,11.1244487 C105.605952,17.0340528 101.503889,22.5266924 95.5739841,23.3925909 C89.6447619,24.2591695 84.133254,20.1711492 83.264381,14.2622254 C82.3948254,8.35330152 86.4968889,2.85998173 92.4261111,1.99408325" id="Fill-6" fill="#377BB5"></path>
            <g id="Group-10" transform="translate(81.222222, 0.000000)">
                <mask id="mask-2" fill="white">
                    <use xlink:href="#path-1"></use>
                </mask>
                <g id="Clip-9"></g>
                <path d="M12.7843095,3.23926294 C12.328373,3.23926294 11.8662937,3.27191269 11.4021667,3.33993299 C8.89519841,3.70656244 6.68172222,5.02343553 5.16853175,7.0490802 C3.65534127,9.07472487 3.02535714,11.5663086 3.39256349,14.0646944 C3.75976984,16.5630802 5.08184921,18.7696589 7.11445238,20.2769888 C9.14637302,21.7843188 11.6451508,22.4135066 14.1541667,22.0468772 C19.3291825,21.2904914 22.922754,16.4794152 22.1637698,11.3221157 C21.4730397,6.62735431 17.4105635,3.23926294 12.7843095,3.23926294 M12.7522302,24.8704 C10.144246,24.8704 7.61475397,24.0398721 5.48454762,22.4597604 C2.86700794,20.5177807 1.16475397,17.6765726 0.691071429,14.4592122 C0.218071429,11.2418518 1.03029365,8.03333401 2.9782619,5.42475533 C4.92623016,2.81617665 7.77788095,1.11975025 11.0062937,0.64768934 C17.6719762,-0.326361421 23.8878651,4.28541523 24.8652619,10.927598 C25.8419762,17.5691005 21.2150397,23.7650701 14.5500397,24.7391208 C13.9494048,24.826867 13.3487698,24.8704 12.7522302,24.8704" id="Fill-8" fill="#CCCCCC" mask="url(#mask-2)"></path>
            </g>
            <path d="M65.5434667,103.874419 C73.5141651,103.874419 79.9757683,110.313902 79.9757683,118.257313 C79.9757683,126.200044 73.5141651,132.639526 65.5434667,132.639526 C57.5727683,132.639526 51.1111651,126.200044 51.1111651,118.257313 C51.1111651,110.313902 57.5727683,103.874419 65.5434667,103.874419" id="Fill-11" fill="#377BB5"></path>
            <path d="M65.5434667,105.234825 C58.3385778,105.234825 52.4762444,111.076409 52.4762444,118.257313 C52.4762444,125.437536 58.3385778,131.27912 65.5434667,131.27912 C72.7483556,131.27912 78.6106889,125.437536 78.6106889,118.257313 C78.6106889,111.076409 72.7483556,105.234825 65.5434667,105.234825 M65.5434667,133.999932 C56.8328952,133.999932 49.7460857,126.937384 49.7460857,118.257313 C49.7460857,109.576561 56.8328952,102.514013 65.5434667,102.514013 C74.2540381,102.514013 81.3408476,109.576561 81.3408476,118.257313 C81.3408476,126.937384 74.2540381,133.999932 65.5434667,133.999932" id="Fill-13" fill="#CCCCCC"></path>
            <path d="M12.216027,86.1592792 C18.2087254,86.1592792 23.0670429,91.0009645 23.0670429,96.9731472 C23.0670429,102.94533 18.2087254,107.787015 12.216027,107.787015 C6.22332857,107.787015 1.36501111,102.94533 1.36501111,96.9731472 C1.36501111,91.0009645 6.22332857,86.1592792 12.216027,86.1592792" id="Fill-15" fill="#FFFFFF"></path>
            <g id="Group-19" transform="translate(0.000000, 84.345178)">
                <mask id="mask-4" fill="white">
                    <use xlink:href="#path-3"></use>
                </mask>
                <g id="Clip-18"></g>
                <path d="M12.216027,3.17450761 C6.98504286,3.17450761 2.73009048,7.4148934 2.73009048,12.6279695 C2.73009048,17.8410457 6.98504286,22.0814315 12.216027,22.0814315 C17.4470111,22.0814315 21.7019635,17.8410457 21.7019635,12.6279695 C21.7019635,7.4148934 17.4470111,3.17450761 12.216027,3.17450761 M12.216027,24.8022437 C5.48004286,24.8022437 -6.82539683e-05,19.3408934 -6.82539683e-05,12.6279695 C-6.82539683e-05,5.91504569 5.48004286,0.453695431 12.216027,0.453695431 C18.9520111,0.453695431 24.4321222,5.91504569 24.4321222,12.6279695 C24.4321222,19.3408934 18.9520111,24.8022437 12.216027,24.8022437" id="Fill-17" fill="#CCCCCC" mask="url(#mask-4)"></path>
            </g>
            <path d="M9.94514921,25.5079543 C13.5714825,24.3346041 17.4653714,26.3126345 18.6427524,29.9265533 C19.8201333,33.5397919 17.8353079,37.4203503 14.2089746,38.5937005 C10.5833238,39.7670508 6.68875238,37.7890203 5.51137143,34.1757817 C4.33399048,30.5618629 6.31949841,26.6813046 9.94514921,25.5079543" id="Fill-20" fill="#F14742"></path>
            <path d="M10.366754,26.8019046 C8.96003968,27.2569604 7.81542063,28.2310112 7.14311905,29.5444832 C6.4715,30.8579553 6.35342063,32.3530416 6.81003968,33.7556203 C7.26665873,35.1575188 8.24405556,36.2982193 9.56203968,36.9675391 C10.8800238,37.6375391 12.3816111,37.7552142 13.7876429,37.3001584 C15.1943571,36.8444223 16.3389762,35.8710518 17.0112778,34.5568995 C17.6828968,33.2441076 17.8016587,31.7483411 17.3443571,30.3464426 C16.4010873,27.4521787 13.2695952,25.861864 10.366754,26.8019046 M12.0683254,40.2944122 C10.780373,40.2944122 9.50265873,39.9917218 8.32186508,39.3917827 C6.35478571,38.3925645 4.89551587,36.689336 4.21297619,34.5956711 C3.53111905,32.5020061 3.70789683,30.2695797 4.71054762,28.3085543 C5.71388095,26.3482091 7.42296032,24.893935 9.52381746,24.213732 C13.8599921,22.8111533 18.5333413,25.1850619 19.9414206,29.5063919 C20.6232778,31.5993766 20.4465,33.831803 19.4431667,35.7928284 C18.4405159,37.7538538 16.7314365,39.2081279 14.6305794,39.8876508 C13.790373,40.159732 12.9269603,40.2944122 12.0683254,40.2944122" id="Fill-22" fill="#CCCCCC"></path>
            <path d="M112.721702,74.8715137 C118.311019,72.926133 124.42521,75.8646102 126.377273,81.4347929 C128.330019,87.0056558 125.380765,93.0989147 119.790765,95.0442954 C114.201448,96.9896761 108.087257,94.051199 106.135194,88.480336 C104.18313,82.9094731 107.131702,76.8168944 112.721702,74.8715137" id="Fill-24" fill="#FAA330"></path>
            <g id="Group-28" transform="translate(103.746032, 72.781726)">
                <mask id="mask-6" fill="white">
                    <use xlink:href="#path-5"></use>
                </mask>
                <g id="Clip-27"></g>
                <path d="M12.5176413,2.84767005 C11.4788159,2.84767005 10.4358952,3.02248223 9.42573651,3.37414721 C7.06619683,4.19515228 5.16941905,5.88273604 4.08349841,8.12536548 C2.99826032,10.3686751 2.8535619,12.8990305 3.67806984,15.2498122 C5.37964127,20.1044213 10.7252921,22.6721878 15.5945302,20.977802 C17.9540698,20.156797 19.8515302,18.4692132 20.9367683,16.2259036 C22.0226889,13.9832741 22.1667048,11.4529188 21.3428794,9.10213706 C20.519054,6.75067513 18.825673,4.85971066 16.5746571,3.77818782 C15.2873873,3.15920305 13.905927,2.84767005 12.5176413,2.84767005 M12.5005778,24.2264518 C10.707546,24.2264518 8.92270476,23.8237716 7.2600381,23.024533 C4.35241905,21.6267157 2.16487937,19.1847868 1.10011746,16.1476802 C0.0360380952,13.1098934 0.222371429,9.84151777 1.62499048,6.94385279 C3.02692698,4.04618782 5.47792698,1.86613706 8.52546667,0.805700508 C11.5723238,-0.255416244 14.8526095,-0.0697208122 17.7609111,1.32741624 C20.6678476,2.7252335 22.8553873,5.16784264 23.9201492,8.20426904 C24.9849111,11.2420558 24.7985778,14.5104315 23.3959587,17.4080964 C21.9933397,20.3064416 19.5423397,22.4864924 16.4948,23.5469289 C15.1904667,24.0006244 13.8431333,24.2264518 12.5005778,24.2264518" id="Fill-26" fill="#CCCCCC" mask="url(#mask-6)"></path>
            </g>
            <path d="M59.9045286,40.9513523 C68.2943063,40.9513523 75.0958143,47.7295756 75.0958143,56.0906315 C75.0958143,64.4516873 68.2943063,71.2299107 59.9045286,71.2299107 C51.5147508,71.2299107 44.7132429,64.4516873 44.7132429,56.0906315 C44.7132429,47.7295756 51.5147508,40.9513523 59.9045286,40.9513523" id="Fill-29" fill="#4B6DAA"></path>
            <path d="M66.8715524,44.973801 C66.1180286,44.973801 65.506473,44.3643391 65.506473,43.6133949 L65.506473,28.9584203 C65.506473,28.4611919 65.7788063,28.002735 66.2169968,27.764664 C66.4217587,27.6531107 66.6463143,27.5980142 66.8715524,27.5980142 C67.1281873,27.5980142 67.3848222,27.6707959 67.6093778,27.8136386 C68.1697429,28.1727858 68.5990603,28.5074457 68.9587587,28.8659127 L81.6696952,41.533334 C82.0293937,41.891801 82.3645206,42.3189685 82.7255841,42.8780954 C82.9951873,43.2964203 83.0142984,43.8283391 82.774727,44.2650294 C82.5358381,44.7024 82.0758063,44.973801 81.5768698,44.973801 L66.8715524,44.973801 Z M48.2969175,54.176268 L69.4945524,54.176268 L69.4945524,52.9226538 L48.2969175,52.9226538 L48.2969175,54.176268 Z M48.2969175,62.1244406 L69.4945524,62.1244406 L69.4945524,60.8708264 L48.2969175,60.8708264 L48.2969175,62.1244406 Z M48.2969175,70.0732934 L69.4945524,70.0732934 L69.4945524,68.8196792 L48.2969175,68.8196792 L48.2969175,70.0732934 Z M37.9591714,84.7167046 C35.5573143,84.7167046 33.6032032,82.768603 33.6032032,80.3749685 L33.6032032,30.6970193 C33.6032032,28.3033848 35.5573143,26.3559635 37.9591714,26.3559635 L62.883473,26.3559635 C63.6376794,26.3559635 64.2485524,26.9647452 64.2485524,27.7163695 L64.2485524,44.6064914 C64.2485524,45.5002782 64.9781873,46.2274152 65.8743619,46.2274152 L82.8231873,46.2274152 C83.5773937,46.2274152 84.1882667,46.836197 84.1882667,47.5878213 L84.1882667,80.3749685 C84.1882667,82.768603 82.2341556,84.7167046 79.8322984,84.7167046 L37.9591714,84.7167046 Z" id="Fill-31" fill="#333333"></path>
            <path d="M62.8836095,24.9954893 L37.9586254,24.9954893 C34.8046095,24.9954893 32.2382603,27.5530528 32.2382603,30.6969513 L32.2382603,80.3755807 C32.2382603,83.5194792 34.8046095,86.0770426 37.9586254,86.0770426 L79.8324349,86.0770426 C82.9871333,86.0770426 85.5534825,83.5194792 85.5534825,80.3755807 L85.5534825,47.5877533 C85.5534825,46.4572558 84.8620698,45.4879665 83.8778476,45.0771239 C83.9112921,45.0254284 83.9426889,44.9723726 83.9727206,44.9179563 C84.451181,44.0445756 84.4136413,42.9800579 83.8737524,42.1427279 C83.4601333,41.5012964 83.0663079,41.0013472 82.6349429,40.5714589 L69.9233238,27.9033574 C69.4919587,27.473469 68.9909746,27.0809919 68.3466571,26.6687888 C67.8982286,26.3824234 67.3856413,26.2375401 66.8710063,26.2375401 C66.4218952,26.2375401 65.971419,26.347733 65.5625778,26.5701594 C65.5079746,26.6000883 65.4547365,26.6320579 65.402181,26.6647076 C64.989927,25.684535 64.0173079,24.9954893 62.8836095,24.9954893 M66.8716889,28.9583523 C67.3071492,29.2372355 67.681181,29.516799 67.9931016,29.8276518 L80.7040381,42.4957533 C81.0159587,42.8059259 81.2964825,43.1786772 81.5770063,43.6133269 L66.8716889,43.6133269 L66.8716889,28.9583523 M47.9284825,71.4336315 L69.8625778,71.4336315 C70.4229429,71.4336315 70.8597683,70.9983015 70.8597683,70.4398548 L70.8597683,68.4523015 C70.8597683,67.8931746 70.4229429,67.4592051 69.8625778,67.4592051 L47.9284825,67.4592051 C47.3681175,67.4592051 46.9319746,67.8931746 46.9319746,68.4523015 L46.9319746,70.4398548 C46.9319746,70.9983015 47.3681175,71.4336315 47.9284825,71.4336315 M47.9284825,63.4847787 L69.8625778,63.4847787 C70.4229429,63.4847787 70.8597683,63.0501289 70.8597683,62.491002 L70.8597683,60.5041289 C70.8597683,59.945002 70.4229429,59.5103523 69.8625778,59.5103523 L47.9284825,59.5103523 C47.3681175,59.5103523 46.9319746,59.945002 46.9319746,60.5041289 L46.9319746,62.491002 C46.9319746,63.0501289 47.3681175,63.4847787 47.9284825,63.4847787 M47.9284825,55.5359259 L69.8625778,55.5359259 C70.4229429,55.5359259 70.8597683,55.1012761 70.8597683,54.5421492 L70.8597683,52.5552761 C70.8597683,51.9961492 70.4229429,51.5621797 69.8625778,51.5621797 L47.9284825,51.5621797 C47.3681175,51.5621797 46.9319746,51.9961492 46.9319746,52.5552761 L46.9319746,54.5421492 C46.9319746,55.1012761 47.3681175,55.5359259 47.9284825,55.5359259 M62.8836095,27.7163015 L62.8836095,44.6071036 C62.8836095,46.2525147 64.2234349,47.5877533 65.8744984,47.5877533 L82.8233238,47.5877533 L82.8233238,80.3755807 C82.8233238,82.0209919 81.4834984,83.3562305 79.8324349,83.3562305 L37.9586254,83.3562305 C36.3075619,83.3562305 34.968419,82.0209919 34.968419,80.3755807 L34.968419,30.6969513 C34.968419,29.0515401 36.3075619,27.7163015 37.9586254,27.7163015 L62.8836095,27.7163015" id="Fill-33" fill="#CCCCCC"></path>
        </g>
    </g>
</svg>