<?xml version="1.0" encoding="utf-8"?>
<!-- Generator: Adobe Illustrator 18.1.1, SVG Export Plug-In . SVG Version: 6.00 Build 0)  -->
<!DOCTYPE svg PUBLIC "-//W3C//DTD SVG 1.1//EN" "http://www.w3.org/Graphics/SVG/1.1/DTD/svg11.dtd">
<svg version="1.1" xmlns="http://www.w3.org/2000/svg" xmlns:xlink="http://www.w3.org/1999/xlink" x="0px" y="0px"
	 viewBox="0 0 64 64" enable-background="new 0 0 64 64" xml:space="preserve">
<g id="Layer_1">
	<g>
		<path fill="#FFFFFF" d="M32,58.5C17.4,58.5,5.5,46.6,5.5,32S17.4,5.5,32,5.5S58.5,17.4,58.5,32S46.6,58.5,32,58.5z"/>
		<path fill="#1F3244" d="M32,11c11.6,0,21,9.4,21,21s-9.4,21-21,21s-21-9.4-21-21S20.4,11,32,11 M32,0C14.3,0,0,14.3,0,32
			s14.3,32,32,32s32-14.3,32-32S49.7,0,32,0L32,0z"/>
	</g>
	<g>
		<path fill="#3E95BE" d="M38.2,43.1c-1,0.3-1.9,0.5-2.7,0.6s-1.6,0.2-2.3,0.2c-1.8,0-3.2-0.4-4.1-1.2c-0.9-0.8-1.3-1.9-1.3-3.3
			c0-0.7,0.1-1.6,0.4-2.6l1.5-5.7h-5l1-3.4h9.8l-2.6,9.6c-0.2,0.5-0.2,0.9-0.2,1.2c0,1.1,0.7,1.7,2,1.7c0.4,0,1,0,1.5-0.1
			c0.6-0.1,1.2-0.2,2-0.5L38.2,43.1z M33.3,25.8c-0.8,0-1.5-0.2-2-0.6c-0.5-0.4-0.8-1-0.8-1.8c0-0.4,0.1-0.8,0.3-1.2
			s0.4-0.7,0.7-0.9c0.3-0.2,0.6-0.4,1-0.6s0.8-0.2,1.2-0.2c0.7,0,1.4,0.2,2,0.6s0.8,1,0.8,1.8c0,0.4-0.1,0.8-0.3,1.1
			s-0.4,0.7-0.8,0.9c-0.3,0.2-0.7,0.4-1,0.6S33.6,25.8,33.3,25.8z"/>
	</g>
	<polygon fill="#FFFFFF" points="51.1,52.7 41,50.7 46.9,40.7 	"/>
</g>
<g id="Layer_1_copy" display="none">
	<g display="inline">
		<path fill="#FFFFFF" d="M32,58.5C17.4,58.5,5.5,46.6,5.5,32S17.4,5.5,32,5.5S58.5,17.4,58.5,32S46.6,58.5,32,58.5z"/>
		<path fill="#F6666A" d="M32,11c11.6,0,21,9.4,21,21s-9.4,21-21,21s-21-9.4-21-21S20.4,11,32,11 M32,0C14.3,0,0,14.3,0,32
			s14.3,32,32,32s32-14.3,32-32S49.7,0,32,0L32,0z"/>
	</g>
	<g display="inline">
		<path fill="#1F3244" d="M35.5,40.8c0,1-0.4,1.7-1.1,2.3s-1.6,0.8-2.5,0.8c-0.9,0-1.8-0.3-2.5-0.8c-0.7-0.5-1.1-1.3-1.1-2.3
			s0.4-1.7,1.1-2.3c0.7-0.5,1.6-0.8,2.5-0.8c0.9,0,1.8,0.3,2.5,0.8S35.5,39.9,35.5,40.8z M35,26.2c0,1.8-0.1,3.5-0.2,5.1
			s-0.4,3.2-0.6,4.8h-4.4c-0.3-1.6-0.5-3.2-0.6-4.8c-0.2-1.6-0.3-3.3-0.3-5.1v-6H35V26.2z"/>
	</g>
	<polygon display="inline" fill="#FFFFFF" points="51.1,52.7 41,50.7 46.9,40.7 	"/>
</g>
<g id="Layer_1_copy_2" display="none">
	<g display="inline">
		<path fill="#FFFFFF" d="M32,58.5C17.4,58.5,5.5,46.6,5.5,32S17.4,5.5,32,5.5S58.5,17.4,58.5,32S46.6,58.5,32,58.5z"/>
		<path fill="#3E95BE" d="M32,11c11.6,0,21,9.4,21,21s-9.4,21-21,21s-21-9.4-21-21S20.4,11,32,11 M32,0C14.3,0,0,14.3,0,32
			s14.3,32,32,32s32-14.3,32-32S49.7,0,32,0L32,0z"/>
	</g>
	<path display="inline" fill="#999999" d="M36.2,37.8h-8.4v6.1h0.9v0.5c0,1,0.8,1.9,1.9,1.9h2.8c1,0,1.9-0.8,1.9-1.9v-0.5h0.9V37.8z
		"/>
	<path display="inline" fill="#D3D3D3" d="M28,39.7H36c0.4,0,0.7-0.3,0.7-0.7s-0.3-0.7-0.7-0.7H28c-0.4,0-0.7,0.3-0.7,0.7
		S27.6,39.7,28,39.7z M36,40.6H28c-0.4,0-0.7,0.3-0.7,0.7c0,0.4,0.3,0.7,0.7,0.7H36c0.4,0,0.7-0.3,0.7-0.7
		C36.7,40.9,36.3,40.6,36,40.6z M36,42.9H28c-0.4,0-0.7,0.3-0.7,0.7s0.3,0.7,0.7,0.7H36c0.4,0,0.7-0.3,0.7-0.7S36.3,42.9,36,42.9z"
		/>
	<path display="inline" fill="#FFBA00" d="M40,23c-1.9-3.9-5.6-5.2-8-5.2c-2.4,0-6.2,1.3-8,5.2c-1.9,3.9-0.4,7.4,1.4,9.8
		s2.2,3.4,2.4,4c0,0.6,0,0.4,0,1c0,0.3,0.5,0.5,0.5,0.5l7.5,0c0,0,0.5-0.1,0.5-0.5l0-1c0.1-0.6,0.6-1.6,2.4-4S41.9,26.8,40,23z"/>
	<path display="inline" fill="#FFBA00" d="M29.7,38.3c0,0-0.5-0.1-0.5-0.5c0-0.6,0-0.4,0-1c-0.1-0.6-0.6-1.6-2.4-4s-3.3-6-1.4-9.8
		c1.7-3.5,5-4.9,7.3-5.1c-0.2,0-0.5,0-0.7,0c-2.4,0-6.2,1.3-8,5.2c-1.9,3.9-0.4,7.4,1.4,9.8s2.2,3.4,2.4,4c0,0.6,0,0.4,0,1
		c0,0.3,0.5,0.5,0.5,0.5l7.5,0l0,0C35.7,38.3,29.7,38.3,29.7,38.3z"/>
	<polygon display="inline" fill="#FFFFFF" points="51.1,52.7 41,50.7 46.9,40.7 	"/>
</g>
</svg>
