<?xml version="1.0" encoding="UTF-8" standalone="no"?>
<!-- Created with Inkscape (http://www.inkscape.org/) -->

<svg
   xmlns:dc="http://purl.org/dc/elements/1.1/"
   xmlns:cc="http://creativecommons.org/ns#"
   xmlns:rdf="http://www.w3.org/1999/02/22-rdf-syntax-ns#"
   xmlns:svg="http://www.w3.org/2000/svg"
   xmlns="http://www.w3.org/2000/svg"
   xmlns:sodipodi="http://sodipodi.sourceforge.net/DTD/sodipodi-0.dtd"
   xmlns:inkscape="http://www.inkscape.org/namespaces/inkscape"
   version="1.1"
   id="svg130"
   width="512"
   height="512"
   viewBox="0 0 512 512"
   sodipodi:docname="DRAW_OVER_LOGO_COLOR.svg"
   inkscape:version="0.92.3pre0 (0ab9bec, 2018-03-03)"
   inkscape:export-filename="/home/user/Hackwave/DRAW_OVER_LOGO_COLOR.svg.png"
   inkscape:export-xdpi="96"
   inkscape:export-ydpi="96">
  <metadata
     id="metadata136">
    <rdf:RDF>
      <cc:Work
         rdf:about="">
        <dc:format>image/svg+xml</dc:format>
        <dc:type
           rdf:resource="http://purl.org/dc/dcmitype/StillImage" />
        <dc:title></dc:title>
      </cc:Work>
    </rdf:RDF>
  </metadata>
  <defs
     id="defs134" />
  <sodipodi:namedview
     pagecolor="#ffffff"
     bordercolor="#666666"
     borderopacity="1"
     objecttolerance="10"
     gridtolerance="10"
     guidetolerance="10"
     inkscape:pageopacity="0"
     inkscape:pageshadow="2"
     inkscape:window-width="1920"
     inkscape:window-height="1017"
     id="namedview132"
     showgrid="false"
     inkscape:zoom="2"
     inkscape:cx="270.59572"
     inkscape:cy="299.2439"
     inkscape:window-x="0"
     inkscape:window-y="27"
     inkscape:window-maximized="1"
     inkscape:current-layer="svg130" />
  <path
     style="fill:#2491eb;stroke:#000000;stroke-width:1px;stroke-linecap:butt;stroke-linejoin:miter;stroke-opacity:1;fill-opacity:1"
     d="m 177.13025,193.46984 c 2.52097,5.49769 3.10394,9.38112 0.88388,15.00457 l 55.06594,30.67076 c 6.29444,-7.99468 13.93557,-10.84408 22.49798,-12.1092 l 1.17494,-79.86202 z"
     id="path145"
     inkscape:connector-curvature="0"
     sodipodi:nodetypes="cccccc" />
  <path
     style="fill:#2491eb;stroke:#000000;stroke-width:1px;stroke-linecap:butt;stroke-linejoin:miter;stroke-opacity:1;fill-opacity:1"
     d="m 229.63293,245.33236 c -2.98082,7.35069 -1.75052,17.49884 1.23743,23.95324 l -55.3311,32.35013 c -8.35657,-9.87919 -24.0705,-8.33125 -30.10688,0.74663 l -81.262439,-45.38274 79.726289,-44.8129 c 6.02658,9.59279 21.39192,11.65503 30.40559,2.47488 z"
     id="path147"
     inkscape:connector-curvature="0"
     sodipodi:nodetypes="cccccccc" />
  <path
     style="fill:#2491eb;stroke:#000000;stroke-width:1px;stroke-linecap:butt;stroke-linejoin:miter;stroke-opacity:1;fill-opacity:1"
     d="m 234.58267,275.64956 c 6.50858,5.84427 13.11754,8.81066 20.32932,10.25305 l -0.81066,81.60833 -75.49589,-44.95765 c 3.26859,-7.34525 2.43174,-10.84357 0.64613,-14.37682 z"
     id="path149"
     inkscape:connector-curvature="0"
     sodipodi:nodetypes="cccccc" />
  <path
     style="fill:#1b70bb;stroke:#000000;stroke-width:1px;stroke-linecap:butt;stroke-linejoin:miter;stroke-opacity:1;fill-opacity:1"
     d="m 334.46151,191.68063 c -2.92445,4.72834 -2.27627,10.27136 -0.88389,13.87697 l -53.56334,32.70369 c -5.72216,-8.01786 -14.65777,-10.64139 -22.27386,-11.32444 l 0.72228,-79.68339 z"
     id="path151"
     inkscape:connector-curvature="0"
     sodipodi:nodetypes="cccccc" />
  <path
     style="fill:#1b70bb;stroke:#000000;stroke-width:1px;stroke-linecap:butt;stroke-linejoin:miter;stroke-opacity:1;fill-opacity:1"
     d="m 283.37305,268.75527 c 3.77643,-7.29498 3.57382,-16.48207 0.79549,-22.62742 l 53.74012,-33.32241 c 6.60896,6.72551 21.12521,8.97894 30.3172,-1.67938 l 80.96372,47.11099 -77.77102,44.98783 c -7.93407,-14.64113 -25.4446,-16.18238 -33.9929,-4.94974 z"
     id="path153"
     inkscape:connector-curvature="0"
     sodipodi:nodetypes="cccccccc" />
  <path
     style="fill:#1b70bb;stroke:#000000;stroke-width:1px;stroke-linecap:butt;stroke-linejoin:miter;stroke-opacity:1;fill-opacity:1"
     d="m 256.85654,285.97583 -0.3946,81.47705 79.07983,-47.64132 c -2.53876,-4.04437 -2.5571,-10.4157 -1.30438,-14.40209 L 279.48396,275.296 c -7.25147,6.57522 -13.92603,10.06455 -22.62742,10.67983 z"
     id="path157"
     inkscape:connector-curvature="0"
     sodipodi:nodetypes="cccccc" />
  <path
     style="fill:#165ea0;stroke:#000000;stroke-width:1px;stroke-linecap:butt;stroke-linejoin:miter;stroke-opacity:1;fill-opacity:1"
     d="m 177.10133,324.53055 76.47411,45.5625 L 64.454883,476.33861 151.78883,329.09305 c 13.26559,4.51873 18.82143,1.1173 25.3125,-4.5625 z"
     id="path159"
     inkscape:connector-curvature="0"
     sodipodi:nodetypes="ccccc" />
  <path
     style="fill:#1b70bb;stroke:#000000;stroke-width:1px;stroke-linecap:butt;stroke-linejoin:miter;stroke-opacity:1;fill-opacity:1"
     d="m 143.85962,305.13021 c -3.40654,9.18561 -1.16653,16.79747 5.58669,22.49476 L 62.751285,475.33844 62.490562,258.23705 Z"
     id="path161"
     inkscape:connector-curvature="0"
     sodipodi:nodetypes="ccccc" />
  <path
     style="fill:#6db7f2;stroke:#000000;stroke-width:1px;stroke-linecap:butt;stroke-linejoin:miter;stroke-opacity:1;fill-opacity:1"
     d="m 142.65879,210.24218 c -3.60304,-10.72072 -1.51224,-17.57861 7.77818,-24.48357 L 62.932504,37.619738 62.667339,255.76217 Z"
     id="path163"
     inkscape:connector-curvature="0"
     sodipodi:nodetypes="ccccc" />
  <path
     style="fill:#85c4f5;stroke:#000000;stroke-width:1px;stroke-linecap:butt;stroke-linejoin:miter;stroke-opacity:1;fill-opacity:1"
     d="m 152.45029,184.5515 c 10.27514,-2.50855 15.80996,-1.16356 23.63446,6.75857 l 80.12718,-45.878 L 64.956552,36.571641 Z"
     id="path169"
     inkscape:connector-curvature="0"
     sodipodi:nodetypes="ccccc" />
  <path
     style="fill:#2491eb;stroke:#000000;stroke-width:1px;stroke-linecap:butt;stroke-linejoin:miter;stroke-opacity:1;fill-opacity:1"
     d="m 335.78733,189.47092 c 5.45551,-7.29802 12.87316,-11.17957 25.19068,-6.36396 L 449.54314,34.968087 259.03407,145.42763 Z"
     id="path171"
     inkscape:connector-curvature="0"
     sodipodi:nodetypes="ccccc" />
  <path
     style="fill:#165ea0;stroke:#000000;stroke-width:1px;stroke-linecap:butt;stroke-linejoin:miter;stroke-opacity:1;fill-opacity:1"
     d="m 363.27611,184.87472 c 9.30636,7.30012 10.31606,15.68585 6.18717,24.3068 l 81.40567,47.37615 0.483,-220.559253 z"
     id="path173"
     inkscape:connector-curvature="0"
     sodipodi:nodetypes="ccccc" />
  <path
     style="fill:#6db7f2;stroke:#000000;stroke-width:1px;stroke-linecap:butt;stroke-linejoin:miter;stroke-opacity:1;fill-opacity:1"
     d="m 372.24623,305.4516 c 1.55389,10.22678 -0.35928,16.64442 -9.31739,22.37741 l 88.38207,153.50023 -0.53033,-221.32442 z"
     id="path175"
     inkscape:connector-curvature="0"
     sodipodi:nodetypes="ccccc" />
  <path
     style="fill:#85c4f5;stroke:#000000;stroke-width:1px;stroke-linecap:butt;stroke-linejoin:miter;stroke-opacity:1;fill-opacity:1"
     d="M 449.54314,482.30152 360.88962,328.85934 c -9.07223,2.24094 -17.24206,1.13503 -24.02646,-7.02373 l -79.92267,48.16537 z"
     id="path179"
     inkscape:connector-curvature="0"
     sodipodi:nodetypes="ccccc" />
</svg>
