<?xml version="1.0" encoding="utf-8"?>
<!-- Generator: Adobe Illustrator 21.1.0, SVG Export Plug-In . SVG Version: 6.00 Build 0)  -->
<svg version="1.1" id="Layer_1" xmlns="http://www.w3.org/2000/svg" xmlns:xlink="http://www.w3.org/1999/xlink" x="0px" y="0px"
	 viewBox="0 0 254.8 145.3" style="enable-background:new 0 0 254.8 145.3;" xml:space="preserve">
<style type="text/css">
	.st0{fill:#FFFFFF;stroke:#F79D79;stroke-width:0.65;stroke-linejoin:round;}
	.st1{fill:url(#SVGID_1_);}
	.st2{fill:#FFFFFF;stroke:#F79D79;stroke-linejoin:round;}
	.st3{fill:none;stroke:#F79D79;stroke-width:0.75;stroke-linejoin:round;}
	.st4{fill:none;stroke:#F79D79;stroke-width:0.75;stroke-linejoin:round;stroke-dasharray:2.7797,2.7797;}
	.st5{fill:none;stroke:#F79D79;stroke-width:0.75;stroke-linejoin:round;stroke-dasharray:2.702,2.702;}
	.st6{fill:none;stroke:#F79D79;stroke-width:0.75;stroke-linejoin:round;stroke-dasharray:2.4111,2.4111;}
	.st7{fill:none;stroke:#F79D79;stroke-width:0.75;stroke-linejoin:round;stroke-dasharray:2.7086,2.7086;}
</style>
<title>feat</title>
<g>
	<circle class="st0" cx="124.5" cy="72.7" r="72.5"/>
	
		<linearGradient id="SVGID_1_" gradientUnits="userSpaceOnUse" x1="59.9" y1="1312.7" x2="189.1" y2="1312.7" gradientTransform="matrix(1 0 0 1 0 -1240)">
		<stop  offset="0" style="stop-color:#FFEEE6"/>
		<stop  offset="0.51" style="stop-color:#FFF5F0"/>
		<stop  offset="0.9" style="stop-color:#FFFCFB"/>
		<stop  offset="1" style="stop-color:#FFFFFF"/>
	</linearGradient>
	<circle class="st1" cx="124.5" cy="72.7" r="64.6"/>
	<g>
		<polygon class="st2" points="81.7,84.6 81.7,94.3 124.2,115.5 167.2,94.3 167.2,84.6 124.2,63.5 		"/>
		<polyline class="st2" points="167.2,84.6 124.2,105.8 81.7,84.6 		"/>
		<line class="st2" x1="124.2" y1="115.5" x2="124.2" y2="105.8"/>
	</g>
	<g>
		<polygon class="st2" points="81.7,67.8 81.7,77.5 124.2,98.7 167.2,77.5 167.2,67.8 124.2,46.7 		"/>
		<polyline class="st2" points="167.2,67.8 124.2,89 81.7,67.8 		"/>
		<line class="st2" x1="124.2" y1="98.7" x2="124.2" y2="89"/>
	</g>
	<g>
		<polygon class="st2" points="81.7,50 81.7,59.7 124.2,80.9 167.2,59.7 167.2,50 124.2,28.9 		"/>
		<polyline class="st2" points="167.2,50 124.2,71.2 81.7,50 		"/>
		<line class="st2" x1="124.2" y1="80.9" x2="124.2" y2="71.2"/>
	</g>
	<g>
		<g>
			<line class="st3" x1="19.5" y1="80.2" x2="20.7" y2="80.7"/>
			<line class="st4" x1="23.3" y1="81.8" x2="52.8" y2="94"/>
			<polyline class="st3" points="54.1,94.5 55.3,95 54.1,95.5 			"/>
			<line class="st5" x1="51.5" y1="96.5" x2="2.5" y2="115.6"/>
			<line class="st3" x1="1.2" y1="116.1" x2="0" y2="116.6"/>
		</g>
	</g>
	<g>
		<g>
			<line class="st3" x1="220.4" y1="29.3" x2="219.6" y2="30.3"/>
			<line class="st6" x1="218" y1="32.2" x2="197.3" y2="57.3"/>
			<polyline class="st3" points="196.6,58.2 195.7,59.2 197,59 			"/>
			<line class="st7" x1="199.7" y1="58.7" x2="252.2" y2="52.5"/>
			<line class="st3" x1="253.5" y1="52.4" x2="254.8" y2="52.2"/>
		</g>
	</g>
</g>
</svg>
