<?xml version="1.0" encoding="utf-8"?>
<!-- Generator: Adobe Illustrator 16.0.0, SVG Export Plug-In . SVG Version: 6.00 Build 0)  -->
<!DOCTYPE svg PUBLIC "-//W3C//DTD SVG 1.1//EN" "http://www.w3.org/Graphics/SVG/1.1/DTD/svg11.dtd">
<svg version="1.1" id="Layer_1" xmlns="http://www.w3.org/2000/svg" xmlns:xlink="http://www.w3.org/1999/xlink" x="0px" y="0px"
	 width="600px" height="400px" viewBox="0 0 600 400" enable-background="new 0 0 600 400" xml:space="preserve">
<g>
	<circle fill="#323246" cx="234.152" cy="134.329" r="131.696"/>
	<g>
		<defs>
			<circle id="SVGID_1_" cx="234.152" cy="134.329" r="131.696"/>
		</defs>
		<clipPath id="SVGID_2_">
			<use xlink:href="#SVGID_1_"  overflow="visible"/>
		</clipPath>
		<g clip-path="url(#SVGID_2_)">
			<g>
				<path fill="#FFF200" d="M256.95,94.929c-0.835-2.7-1.254-5.65-1.254-8.846c0-3.197,0.419-6.14,1.254-8.829
					c0.836-2.688,2.015-5.292,3.542-7.811l3.923,1.598c-1.308,2.375-2.252,4.845-2.833,7.412c-0.582,2.568-0.872,5.11-0.872,7.63
					c0,2.519,0.29,5.063,0.872,7.629c0.582,2.567,1.525,5.037,2.833,7.411l-3.923,1.599
					C258.965,100.227,257.786,97.628,256.95,94.929z"/>
			</g>
			<g>
				<path fill="#FFF200" d="M281.563,93.712c0.582-2.567,0.873-5.111,0.873-7.629c0-2.52-0.291-5.062-0.873-7.63
					c-0.581-2.567-1.526-5.037-2.833-7.412l3.924-1.598c1.526,2.52,2.706,5.124,3.541,7.811c0.836,2.689,1.254,5.631,1.254,8.829
					c0,3.196-0.418,6.146-1.254,8.846c-0.834,2.7-2.015,5.298-3.541,7.793l-3.924-1.599
					C280.038,98.749,280.982,96.279,281.563,93.712z"/>
			</g>
			<g>
				<path fill="#FFFFFF" d="M308.498,98.434v3.271h-2.543c-0.848,0-1.568-0.092-2.162-0.272c-0.594-0.182-1.09-0.479-1.488-0.891
					c-0.4-0.411-0.691-0.957-0.873-1.634c-0.182-0.679-0.271-1.514-0.271-2.506c0-0.63,0.018-1.187,0.053-1.672
					c0.037-0.484,0.08-0.944,0.127-1.38c0.049-0.437,0.092-0.878,0.129-1.326c0.035-0.449,0.055-0.951,0.055-1.508
					c0-0.629-0.23-1.211-0.691-1.744c-0.46-0.532-1.272-0.823-2.435-0.872v-3.633c1.163-0.047,1.975-0.338,2.435-0.872
					c0.461-0.533,0.691-1.113,0.691-1.745c0-0.557-0.02-1.059-0.055-1.507c-0.037-0.448-0.08-0.89-0.129-1.326
					c-0.047-0.437-0.09-0.896-0.127-1.38c-0.035-0.484-0.053-1.041-0.053-1.671c0-1.986,0.381-3.367,1.145-4.142
					c0.762-0.776,1.979-1.163,3.65-1.163h2.543v3.27h-0.58c-0.68,0-1.141,0.14-1.383,0.418c-0.242,0.279-0.363,0.89-0.363,1.834
					c0,0.921,0.025,1.83,0.074,2.725c0.047,0.896,0.072,1.877,0.072,2.942c0,1.455-0.242,2.489-0.727,3.107
					c-0.484,0.618-1.213,1.035-2.182,1.253v0.146c0.969,0.217,1.697,0.635,2.182,1.253c0.484,0.618,0.727,1.653,0.727,3.106
					c0,1.066-0.025,2.047-0.072,2.943c-0.049,0.896-0.074,1.804-0.074,2.725c0,0.944,0.121,1.555,0.363,1.834
					c0.242,0.278,0.703,0.417,1.383,0.417H308.498z"/>
			</g>
			<g>
				<path fill="#FFFFFF" d="M161.725,211.395c0.678,0,1.138-0.14,1.381-0.417c0.241-0.279,0.362-0.891,0.362-1.836
					c0-0.92-0.023-1.828-0.072-2.725c-0.049-0.896-0.073-1.877-0.073-2.942c0-1.453,0.243-2.488,0.726-3.106
					c0.485-0.617,1.212-1.035,2.181-1.253v-0.145c-0.968-0.218-1.696-0.636-2.181-1.254c-0.483-0.618-0.726-1.653-0.726-3.106
					c0-1.066,0.024-2.046,0.073-2.942s0.072-1.804,0.072-2.725c0-0.943-0.121-1.556-0.362-1.833c-0.243-0.279-0.704-0.42-1.381-0.42
					h-0.581v-3.269h2.542c1.672,0,2.889,0.389,3.651,1.163c0.764,0.777,1.146,2.157,1.146,4.142c0,0.63-0.019,1.187-0.055,1.672
					c-0.037,0.484-0.078,0.945-0.127,1.38c-0.048,0.436-0.091,0.878-0.127,1.327c-0.037,0.447-0.054,0.95-0.054,1.507
					c0,0.63,0.23,1.212,0.69,1.745c0.459,0.532,1.271,0.824,2.435,0.871v3.632c-1.163,0.05-1.975,0.341-2.435,0.873
					c-0.46,0.532-0.69,1.114-0.69,1.743c0,0.557,0.018,1.061,0.054,1.509c0.036,0.446,0.079,0.89,0.127,1.324
					c0.049,0.437,0.09,0.897,0.127,1.383c0.037,0.483,0.055,1.04,0.055,1.67c0,0.992-0.092,1.829-0.273,2.506
					c-0.18,0.679-0.471,1.224-0.872,1.637c-0.399,0.411-0.901,0.708-1.506,0.89c-0.606,0.181-1.322,0.271-2.145,0.271h-2.542v-3.27
					H161.725z"/>
			</g>
			<rect x="191.5" y="164.5" fill="#4D7293" width="55" height="7"/>
			<rect x="191.5" y="146.5" fill="#4D7293" width="137" height="10"/>
			<rect x="191.5" y="128.5" fill="#4D7293" width="104" height="10"/>
			<rect x="191.5" y="112.5" fill="#4D7293" width="79" height="10"/>
			<rect x="159.5" y="83.5" fill="#00B3FF" width="81" height="9"/>
			<rect x="159.5" y="62.5" fill="#FFFFFF" width="50" height="10"/>
			<rect x="159.5" y="230.5" fill="#00B3FF" width="104" height="9"/>
			<rect x="159.5" y="247.5" fill="#00B3FF" width="81" height="9"/>
		</g>
	</g>
	<circle fill="#00B3FF" cx="365.847" cy="266.024" r="131.696"/>
	<g>
		<defs>
			<circle id="SVGID_3_" cx="365.847" cy="266.933" r="131.696"/>
		</defs>
		<clipPath id="SVGID_4_">
			<use xlink:href="#SVGID_3_"  overflow="visible"/>
		</clipPath>
		<g clip-path="url(#SVGID_4_)">
			<path fill="#545454" d="M457.5,223.5c0-3.313-2.687-6-6-6h-169c-3.313,0-6,2.687-6,6v175c0,3.313,2.687,6,6,6h169
				c3.313,0,6-2.687,6-6V223.5z"/>
		</g>
		<rect x="281.5" y="244.5" clip-path="url(#SVGID_4_)" fill="#818181" width="168" height="159"/>
		<rect x="308.5" y="390.5" clip-path="url(#SVGID_4_)" fill="#BDBDBD" width="113" height="9"/>
		<rect x="308.5" y="370.5" clip-path="url(#SVGID_4_)" fill="#BDBDBD" width="113" height="10"/>
		<rect x="308.5" y="350.5" clip-path="url(#SVGID_4_)" fill="#BDBDBD" width="113" height="10"/>
		<g clip-path="url(#SVGID_4_)">
			
				<line fill="none" stroke="#FFFFFF" stroke-width="3" stroke-miterlimit="10" x1="448.447" y1="226.03" x2="437.264" y2="237.213"/>
			
				<line fill="none" stroke="#FFFFFF" stroke-width="3" stroke-miterlimit="10" x1="448.447" y1="237.213" x2="437.264" y2="226.03"/>
		</g>
		<circle clip-path="url(#SVGID_4_)" fill="#FFFFFF" cx="366.527" cy="281.465" r="20.469"/>
		<g clip-path="url(#SVGID_4_)">
			<path fill="#00556E" d="M360.5,333.5c0,1.657-1.343,3-3,3h-45c-1.657,0-3-1.343-3-3v-11c0-1.657,1.343-3,3-3h45
				c1.657,0,3,1.343,3,3V333.5z"/>
		</g>
		<g clip-path="url(#SVGID_4_)">
			<path fill="#00B3FF" d="M422.5,333.5c0,1.657-1.343,3-3,3h-45c-1.657,0-3-1.343-3-3v-11c0-1.657,1.343-3,3-3h45
				c1.657,0,3,1.343,3,3V333.5z"/>
		</g>
		<rect x="281.5" y="244.5" clip-path="url(#SVGID_4_)" fill="#4D7293" width="168" height="4"/>
		<g clip-path="url(#SVGID_4_)">
			<path d="M322.332,177.606l20.578-7.845v6.103l-7.063,2.18l-5.93,2.005v0.175l5.93,2.005l7.063,2.18v6.104l-20.578-7.849V177.606z
				"/>
			<path d="M409.365,182.665l-20.578,7.849v-6.104l7.063-2.18l5.928-2.005v-0.175l-5.928-2.005l-7.063-2.18v-6.103l20.578,7.845
				V182.665z"/>
		</g>
		<g clip-path="url(#SVGID_4_)">
			<polygon fill="#FFF100" points="376.779,183.767 367.424,178.365 380.387,155.912 354.828,178.576 364.184,183.977 
				351.207,206.453 			"/>
		</g>
	</g>
</g>
</svg>
