<?xml version="1.0" encoding="utf-8"?>
<svg id="Layer_1" data-name="Layer 1" xmlns="http://www.w3.org/2000/svg" viewBox="0 0 59 66">
  <title>feature5</title>
  <g id="direct_from_source" data-name="direct from source">
    <g id="noun_Circle_978988" data-name="noun Circle 978988">
      <path id="Path_78" data-name="Path 78" d="M5.1,33a1.4,1.4,0,0,1,1.4-1.4A1.5,1.5,0,0,1,8,33H8A21.5,21.5,0,0,0,29.5,54.5,1.5,1.5,0,0,1,30.9,56a1.4,1.4,0,0,1-1.4,1.4A24.4,24.4,0,0,1,5.1,33Zm48.8,0a1.4,1.4,0,0,1-1.4,1.4A1.5,1.5,0,0,1,51,33,21.5,21.5,0,0,0,29.5,11.5h0A1.5,1.5,0,0,1,28.1,10a1.4,1.4,0,0,1,1.4-1.4h0A24.4,24.4,0,0,1,53.9,33ZM29.5,44.5A11.5,11.5,0,1,1,41,33h0A11.6,11.6,0,0,1,29.5,44.5Zm0-2.9A8.6,8.6,0,1,0,20.9,33h0a8.5,8.5,0,0,0,8.6,8.6Z" style="fill: #f03b46"/>
    </g>
  </g>
</svg>
