<?xml version="1.0" encoding="utf-8"?>
<svg id="Layer_1" data-name="Layer 1" xmlns="http://www.w3.org/2000/svg" viewBox="0 0 59 66">
  <title>feature4</title>
  <g id="full_provenance" data-name="full provenance">
    <g id="noun_Circle_1087184" data-name="noun Circle 1087184">
      <path id="Path_47" data-name="Path 47" d="M29.5,8.5a5.5,5.5,0,1,0,5.4,5.4,1.6,1.6,0,0,0-3.2,0,2.2,2.2,0,0,1-4.4,0,2.1,2.1,0,0,1,2.2-2.1h0a1.7,1.7,0,0,0,1.6-1.7A1.6,1.6,0,0,0,29.5,8.5ZM15.9,13.9a5.5,5.5,0,0,0-5.5,5.5,5.5,5.5,0,0,0,5.5,5.4,5.4,5.4,0,0,0,5.4-5.4A5.5,5.5,0,0,0,15.9,13.9Zm27.2,0a5.5,5.5,0,0,0-5.4,5.5,5.4,5.4,0,0,0,5.4,5.4,5.5,5.5,0,0,0,5.5-5.4A5.7,5.7,0,0,0,43.1,13.9ZM15.9,17.2a2.2,2.2,0,1,1-2.2,2.2h0a2.1,2.1,0,0,1,2.1-2.2Zm27.2,0a2.2,2.2,0,1,1-2.2,2.2,2.2,2.2,0,0,1,2.2-2.2ZM10.4,27.6a5.4,5.4,0,0,0,0,10.8A5.4,5.4,0,0,0,15.9,33,5.5,5.5,0,0,0,10.4,27.6Zm19.1,0A5.4,5.4,0,1,0,34.9,33,5.4,5.4,0,0,0,29.5,27.6Zm19.1,0A5.4,5.4,0,1,0,54,33,5.4,5.4,0,0,0,48.6,27.6ZM10.4,30.8a2.2,2.2,0,0,1,0,4.4A2.1,2.1,0,0,1,8.3,33h0a2.1,2.1,0,0,1,2.1-2.2Zm19.1,0A2.2,2.2,0,1,1,27.3,33h0a2.2,2.2,0,0,1,2.1-2.2Zm19.1,0a2.2,2.2,0,0,1,0,4.4A2.2,2.2,0,0,1,46.4,33a2.1,2.1,0,0,1,2.1-2.2ZM15.9,41.2a5.5,5.5,0,0,0-5.5,5.4,5.5,5.5,0,0,0,5.5,5.5,5.5,5.5,0,0,0,5.4-5.5A5.4,5.4,0,0,0,15.9,41.2Zm27.2,0a5.4,5.4,0,0,0-5.4,5.4,5.5,5.5,0,0,0,5.4,5.5,5.5,5.5,0,1,0,0-10.9ZM15.9,44.4a2.2,2.2,0,1,1-2.2,2.2,2.1,2.1,0,0,1,2.1-2.2Zm27.2,0a2.2,2.2,0,1,1-2.2,2.2,2.2,2.2,0,0,1,2.2-2.2ZM29.5,46.6a5.5,5.5,0,1,0,5.4,5.5A5.5,5.5,0,0,0,29.5,46.6Zm0,3.3a2.2,2.2,0,0,1,2.2,2.2,2.2,2.2,0,0,1-4.4,0,2.2,2.2,0,0,1,2.1-2.2Z" style="fill: #f03b46"/>
    </g>
  </g>
</svg>
