<?xml version="1.0" encoding="utf-8"?>
<svg id="Layer_1" data-name="Layer 1" xmlns="http://www.w3.org/2000/svg" viewBox="0 0 59 66">
  <title>feature1</title>
  <g id="public_official" data-name="public official">
    <g id="noun_circle_chart_2367791" data-name="noun circle chart 2367791">
      <g id="Group_110" data-name="Group 110">
        <path id="Path_43" data-name="Path 43" d="M11,48.4a1,1,0,0,0,0,1.4c5.3,5.2,11,7.4,16.6,7.4,18.5,0,34.7-24.1,17.3-41.4a24.1,24.1,0,0,0-33.9,0,1.1,1.1,0,0,0-.1,1.4,1,1,0,0,0,1.5.1h0a22.2,22.2,0,0,1,31.1,0C64.1,37.8,33,68.9,12.4,48.4A1,1,0,0,0,11,48.4Z" style="fill: #f03b46"/>
        <path id="Path_44" data-name="Path 44" d="M15.2,44.1a1.2,1.2,0,0,0,0,1.4A18,18,0,1,0,28,14.8a1,1,0,0,0-1,1,.9.9,0,0,0,1,1h0a16,16,0,0,1,0,32,15.9,15.9,0,0,1-11.3-4.7A1.1,1.1,0,0,0,15.2,44.1Z" style="fill: #f03b46"/>
        <path id="Path_45" data-name="Path 45" d="M19.5,39.9a1,1,0,0,0,0,1.4,12,12,0,0,0,17,0A12.3,12.3,0,0,0,40,32.8a1.1,1.1,0,0,0-1-1,1,1,0,0,0-1,1,10,10,0,0,1-10,10,9.9,9.9,0,0,1-7.1-2.9A1,1,0,0,0,19.5,39.9Z" style="fill: #f03b46"/>
        <path id="Path_46" data-name="Path 46" d="M32.2,37a5.8,5.8,0,0,0,0-8.4,6,6,0,1,0,0,8.4Zm-7.1-7a4,4,0,0,1,5.7,0,3.9,3.9,0,0,1,0,5.6,4,4,0,0,1-5.7,0h0A4,4,0,0,1,25.1,30Z" style="fill: #f03b46"/>
      </g>
    </g>
  </g>
</svg>
