<?xml version="1.0" encoding="utf-8"?>
<!-- Generator: Adobe Illustrator 21.1.0, SVG Export Plug-In . SVG Version: 6.00 Build 0)  -->
<svg version="1.1" id="Layer_1" xmlns="http://www.w3.org/2000/svg" xmlns:xlink="http://www.w3.org/1999/xlink" x="0px" y="0px"
	 viewBox="0 0 288.4 145" style="enable-background:new 0 0 288.4 145;" xml:space="preserve">
<style type="text/css">
	.st0{fill:none;stroke:#F79D79;stroke-width:0.6;stroke-miterlimit:10;}
	.st1{fill:none;stroke:#F79D79;stroke-linejoin:round;}
	.st2{opacity:0.82;fill:none;stroke:#F79D79;stroke-width:0.35;stroke-linejoin:round;}
	.st3{fill:#FFFFFF;stroke:#F79D79;stroke-width:0.9135;stroke-linejoin:round;}
	.st4{fill:none;stroke:#F9D8CD;stroke-width:0.35;stroke-linejoin:round;}
	.st5{fill:none;stroke:#F79D79;stroke-width:0.65;stroke-linejoin:round;}
	.st6{fill:none;stroke:#F79D79;stroke-width:0.75;stroke-linejoin:round;stroke-dasharray:3,3;}
	.st7{fill:none;stroke:#F79D79;stroke-width:0.45;stroke-linejoin:round;stroke-dasharray:2,2;}
	.st8{fill:none;}
	.st9{fill:none;stroke:#F79D79;stroke-width:0.75;stroke-linejoin:round;}
	.st10{fill:none;stroke:#F79D79;stroke-width:0.75;stroke-linejoin:round;stroke-dasharray:3.0706,3.0706;}
	.st11{fill:none;stroke:#F79D79;stroke-width:0.75;stroke-linejoin:round;stroke-dasharray:2.8882,2.8882;}
	.st12{fill:none;stroke:#F79D79;stroke-width:0.75;stroke-linejoin:round;stroke-dasharray:3.036,3.036;}
</style>
<title>te</title>
<circle class="st0" cx="205.7" cy="55.1" r="3.1"/>
<circle class="st0" cx="82.9" cy="55.1" r="3.1"/>
<polygon class="st1" points="196.2,101.1 196.2,61.2 144.3,37.5 92.4,61.2 92.4,101.1 144.3,123.2 "/>
<polyline class="st2" points="196.2,101.1 144.3,78.9 92.4,101.1 "/>
<line class="st2" x1="144.3" y1="37.5" x2="144.3" y2="78.9"/>
<path class="st3" d="M162,98.7v3.4c0,0.5-0.1,1-0.3,1.5c-0.2,0.4-0.5,0.7-0.8,0.9c-0.4,0.2-0.8,0.4-1.3,0.4
	c-0.5,0.1-1.1,0.1-1.7,0.1c-1,0-2-0.1-2.9-0.3c-1-0.2-1.9-0.5-2.8-1c-0.9-0.5-1.7-1.2-2.4-2c-0.8-0.9-1.4-2-1.8-3.2l-2.8-7.6
	c-0.2-0.5-0.4-1-0.5-1.5c-0.1-0.4-0.2-0.9-0.3-1.3c-0.3,0.9-0.6,1.8-1,2.8l-4.8,12.2c-0.2,0.4-0.5,0.8-0.9,1.1
	c-0.5,0.3-1.1,0.5-1.7,0.5h-8.3L140,78.2l-2.4-6.7c-0.2-0.5-0.4-1-0.7-1.4c-0.2-0.3-0.5-0.6-0.9-0.9c-0.4-0.2-0.8-0.4-1.2-0.4
	c-0.5-0.1-1.1-0.1-1.6-0.1h-2.5v-3.1c0-0.4,0.1-0.8,0.2-1.2c0.2-0.4,0.5-0.8,0.9-1c0.5-0.3,1-0.6,1.6-0.7c0.8-0.2,1.6-0.3,2.5-0.2
	c0.9,0,1.8,0.1,2.7,0.2c1,0.2,1.9,0.5,2.8,0.9c0.9,0.5,1.8,1.1,2.5,1.8c0.8,0.9,1.4,1.9,1.8,3l10.6,27.8c0.2,0.7,0.6,1.4,1.2,1.9
	c0.8,0.5,1.7,0.7,2.7,0.7L162,98.7z"/>
<polyline class="st4" points="59.3,43.8 35.5,33.6 11.7,43.8 "/>
<line class="st4" x1="35.5" y1="14.6" x2="35.5" y2="33.6"/>
<polygon class="st5" points="59.3,43.8 59.3,25.5 35.5,14.6 11.7,25.5 11.7,43.8 35.5,53.9 "/>
<polyline class="st5" points="11.7,25.5 35.5,35.6 59.3,25.5 "/>
<line class="st5" x1="35.5" y1="35.6" x2="35.5" y2="53.9"/>
<polyline class="st4" points="229.1,43.8 252.9,33.6 276.8,43.8 "/>
<line class="st4" x1="252.9" y1="14.6" x2="252.9" y2="33.6"/>
<polygon class="st5" points="229.1,43.8 229.1,25.5 252.9,14.6 276.8,25.5 276.8,43.8 252.9,53.9 "/>
<polyline class="st5" points="276.8,25.5 252.9,35.6 229.1,25.5 "/>
<line class="st5" x1="252.9" y1="35.6" x2="252.9" y2="53.9"/>
<g>
	<g>
		<line class="st6" x1="205.7" y1="55.1" x2="206.9" y2="54.6"/>
		<line class="st6" x1="209.4" y1="53.5" x2="238.8" y2="41"/>
		<line class="st6" x1="240.1" y1="40.4" x2="241.3" y2="39.9"/>
	</g>
</g>
<g>
	<g>
		<line class="st6" x1="82.9" y1="55.1" x2="81.7" y2="54.6"/>
		<line class="st6" x1="79.2" y1="53.5" x2="49.8" y2="41"/>
		<line class="st6" x1="48.5" y1="40.4" x2="47.3" y2="39.9"/>
	</g>
</g>
<polyline class="st7" points="92.4,61.2 144.3,83.4 196.2,61.2 "/>
<line class="st7" x1="144.3" y1="83.4" x2="144.3" y2="123.2"/>
<rect class="st8" width="288.4" height="145"/>
<g>
	<g>
		<polyline class="st9" points="82.9,56.6 82.9,55.1 84.3,54.5 		"/>
		<line class="st10" x1="87.1" y1="53.2" x2="141.5" y2="28.4"/>
		<polyline class="st9" points="142.9,27.7 144.3,27.1 145.7,27.7 		"/>
		<line class="st10" x1="148.5" y1="29" x2="202.9" y2="53.8"/>
		<polyline class="st9" points="204.3,54.5 205.7,55.1 205.7,56.6 		"/>
		<line class="st11" x1="205.7" y1="59.5" x2="205.7" y2="104.3"/>
		<polyline class="st9" points="205.7,105.7 205.7,107.2 204.3,107.8 		"/>
		<line class="st12" x1="201.5" y1="109" x2="147.1" y2="132.2"/>
		<polyline class="st9" points="145.7,132.8 144.3,133.4 142.9,132.8 		"/>
		<line class="st12" x1="140.1" y1="131.6" x2="85.7" y2="108.4"/>
		<polyline class="st9" points="84.3,107.8 82.9,107.2 82.9,105.7 		"/>
		<line class="st11" x1="82.9" y1="102.8" x2="82.9" y2="58"/>
	</g>
</g>
</svg>
