<svg
  version="1.1"
  aria-labelledby="laravel-logo-title"
  role="img"
  xmlns="http://www.w3.org/2000/svg"
  viewBox="0 0 64 64">
  <title id="laravel-logo-title">Laravel logo</title>
  <path d="M63.75,30.56c-0.42-.48-6.28-7.81-7.31-9.05s-1.54-1-2.17-.93-8,1.34-8.91,1.48-1.4.49-.87,1.23l6.42,9.09L31.53,37,16.12,11.27C15.51,10.36,15.38,10,14,10.1s-12.09,1-12.85,1-1.6.4-.84,2.2S13.2,41.28,13.54,42a2.6,2.6,0,0,0,3.28,1.5c2.11-.51,9.43-2.42,13.43-3.47,2.11,3.83,6.42,11.59,7.22,12.7,1.06,1.49,1.8,1.24,3.43.74,1.28-.39,20-7.11,20.8-7.45s1.36-.59.79-1.44C62.08,44,57.15,37.41,54.57,34l8.73-2.33C64.07,31.42,64.18,31,63.75,30.56Zm-35.22,7.2L16.87,40.54c-0.58.13-.58,0.07-0.65-0.13s-12.9-26.67-13.08-27-0.17-.59,0-0.59,10.25-.9,10.6-0.92,0.32,0.06.45,0.28l14.46,25C28.91,37.58,29,37.64,28.53,37.76Zm30.6,5.73c0.17,0.27.35,0.45-.2,0.64S40.56,50.35,40.22,50.5s-0.62.2-1.06-.45-6.24-10.68-6.24-10.68L51.8,34.46c0.55-.18.68-0.11,0.92,0.22S59,43.23,59.13,43.5Zm1.21-13.41C59.92,30.18,53,31.9,53,31.9l-5.67-7.78c-0.16-.23-0.29-0.45.11-0.5s6.84-1.22,7.13-1.28a0.7,0.7,0,0,1,.9.34c0.36,0.49,5.26,6.7,5.45,6.94S60.76,30,60.34,30.09Z" transform="translate(0 -10.09)" fill="#f0543f"/>
  <path d="M28.88,37.54c0,0.11-.06.15-0.34,0.22L27,38.14l1.39,2.44,1.9-.5" transform="translate(0 -10.09)" fill="#2b2626" opacity="0.4"/>
  <g opacity="0.4">
    <path d="M52.45,34.41a0.79,0.79,0,0,1,.27.28L53.64,36l2-.6L54.57,34" transform="translate(0 -10.09)" fill="#2b2626"/>
  </g>
</svg>
